<svg xmlns="http://www.w3.org/2000/svg" width="79" height="21" viewBox="0 0 79 21" fill="none">
  <g clip-path="url(#clip0_95_6378)">
    <path d="M28.2326 14.3841C26.42 14.3841 24.9507 12.8167 24.9507 10.8827C24.9507 8.94911 26.42 7.38143 28.2326 7.38143C30.0452 7.38143 31.5142 8.94911 31.5142 10.8827C31.5142 12.8167 30.0452 14.3841 28.2326 14.3841ZM31.5248 14.8283C31.5248 15.1488 32.051 16.0496 32.696 16.0496H33.1138C33.2757 16.0496 33.4082 15.9111 33.4082 15.7421V6.16048H33.4065C33.3981 5.99916 33.2701 5.86983 33.1138 5.86983H31.8194C31.6629 5.86983 31.535 5.99916 31.5263 6.16048H31.5248V6.93914C30.7317 5.91945 29.4814 5.49642 28.2275 5.49642C25.3775 5.49642 23.0674 7.90775 23.0674 10.8827C23.0674 13.8577 25.3775 16.2694 28.2275 16.2694C29.4814 16.2694 30.8478 15.7617 31.5246 14.8269L31.5248 14.8283ZM36.5006 13.4561C37.3646 14.0807 38.3078 14.3841 39.214 14.3841C40.0776 14.3841 40.9702 13.9168 40.9702 13.1037C40.9702 12.018 39.0251 11.8489 37.8031 11.4155C36.5807 10.9819 35.5279 10.0856 35.5279 8.63418C35.5279 6.41339 37.4237 5.49609 39.193 5.49609C40.3142 5.49609 41.471 5.88205 42.2209 6.43488C42.4793 6.63901 42.3219 6.87365 42.3219 6.87365L41.606 7.94092C41.5256 8.06108 41.3588 8.15708 41.183 8.03471C40.7007 7.70203 40.1636 7.38132 39.193 7.38132C37.9917 7.38132 37.4632 7.90186 37.4632 8.54675C37.4632 9.32035 38.3084 9.56361 39.2984 9.8274C41.0238 10.3126 42.9056 10.8962 42.9056 13.1037C42.9056 15.0604 41.152 16.2698 39.214 16.2698C37.7456 16.2698 36.4951 15.8326 35.4465 15.0294C35.2281 14.8013 35.3806 14.5893 35.3806 14.5893L36.093 13.5276C36.2379 13.329 36.4206 13.3983 36.5006 13.4561ZM52.6124 14.8283C52.6124 15.1488 53.1387 16.0496 53.7836 16.0496H54.2013C54.3634 16.0496 54.496 15.9111 54.496 15.7421V6.16048H54.4943C54.4856 5.99916 54.3578 5.86983 54.2013 5.86983H52.907C52.7504 5.86983 52.6226 5.99916 52.614 6.16048H52.6124V6.93914C51.8194 5.91945 50.569 5.49642 49.3154 5.49642C46.4653 5.49642 44.1549 7.90775 44.1549 10.8827C44.1549 13.8577 46.4653 16.2694 49.3154 16.2694C50.569 16.2694 51.9355 15.7617 52.6123 14.8269L52.6124 14.8283ZM49.3203 14.3841C47.5076 14.3841 46.0384 12.8167 46.0384 10.8827C46.0384 8.94911 47.5076 7.38143 49.3203 7.38143C51.1327 7.38143 52.602 8.94911 52.602 10.8827C52.602 12.8167 51.1327 14.3841 49.3203 14.3841ZM66.0922 15.1576L66.0917 10.1997C66.0917 7.40479 64.403 5.51939 61.709 5.51939C60.4236 5.51939 59.3712 6.29548 58.9992 6.96211V6.95281L58.9969 6.96046C58.9958 6.28572 58.4718 5.89288 57.8254 5.89288H57.4098C57.2476 5.89288 57.1155 6.0314 57.1155 6.20051V14.8522V14.8537V15.7827H57.1172C57.1257 15.944 57.2538 16.0735 57.4098 16.0735H58.7043C58.7242 16.0735 58.7435 16.071 58.7622 16.0673C58.7712 16.0655 58.7786 16.062 58.7871 16.0594C58.7968 16.0565 58.807 16.054 58.816 16.05C58.8279 16.0451 58.8381 16.0383 58.8489 16.032C58.854 16.0287 58.8597 16.0263 58.8648 16.0231C58.8773 16.0143 58.8892 16.0038 58.9011 15.9931C58.9028 15.991 58.9051 15.9897 58.9068 15.9878C58.9198 15.9749 58.9317 15.9608 58.9419 15.9457C58.9742 15.8992 58.9941 15.8432 58.9975 15.7827H58.9992V10.1228C58.9992 8.62171 60.165 7.40479 61.603 7.40479C63.041 7.40479 64.2068 8.62171 64.2068 10.1228L64.208 14.8539L64.2085 14.8522C64.2085 14.8564 64.2091 14.8608 64.2091 14.8651V15.7827H64.2108C64.2193 15.944 64.3475 16.0735 64.504 16.0735H65.7979C65.8184 16.0735 65.8371 16.071 65.8563 16.0673C65.8637 16.0656 65.8711 16.0623 65.8785 16.0605C65.8892 16.0572 65.9 16.0543 65.9102 16.05C65.9204 16.0453 65.9301 16.039 65.9403 16.0333C65.9465 16.0297 65.9527 16.027 65.9584 16.0231C65.9709 16.0146 65.9817 16.0048 65.9924 15.9951C65.9953 15.9925 65.9981 15.9903 66.0009 15.9877C66.0128 15.9754 66.0236 15.962 66.0338 15.9481C66.0344 15.9469 66.0355 15.9461 66.0361 15.9451C66.0679 15.8991 66.0877 15.8436 66.0911 15.7835C66.0911 15.7832 66.0911 15.7827 66.0911 15.7827H66.0928V15.1578L66.0922 15.1576ZM76.1866 14.8283C76.1866 15.1488 76.7122 16.0496 77.357 16.0496H77.7754C77.937 16.0496 78.0697 15.9111 78.0697 15.7421V6.16048H78.068C78.0595 5.99916 77.9314 5.86983 77.7754 5.86983H76.4809C76.3238 5.86983 76.1968 5.99916 76.1883 6.16048H76.1866V6.93914C75.3927 5.91945 74.143 5.49642 72.8887 5.49642C70.0394 5.49642 67.7287 7.90775 67.7287 10.8827C67.7287 13.8577 70.0394 16.2694 72.8887 16.2694C74.143 16.2694 75.509 15.7617 76.1855 14.8269L76.1866 14.8283ZM72.8944 14.3841C71.0816 14.3841 69.6124 12.8167 69.6124 10.8827C69.6124 8.94911 71.0816 7.38143 72.8944 7.38143C74.7061 7.38143 76.1753 8.94911 76.1753 10.8827C76.1753 12.8167 74.7061 14.3841 72.8944 14.3841Z" fill="#0D0E10"/>
    <path d="M16.8043 11.1663C14.2841 11.1663 12.2414 13.1971 12.2414 15.7025C12.2414 18.2079 14.2841 20.2389 16.8043 20.2389C19.3242 20.2389 21.367 18.2079 21.367 15.7025C21.367 13.1971 19.3242 11.1663 16.8043 11.1663ZM4.94955 11.1666C2.42965 11.1666 0.386719 13.1971 0.386719 15.7027C0.386719 18.2079 2.42965 20.2389 4.94955 20.2389C7.46961 20.2389 9.51264 18.2079 9.51264 15.7027C9.51264 13.1971 7.46961 11.1666 4.94955 11.1666ZM15.4396 5.49588C15.4396 8.00117 13.3969 10.0325 10.877 10.0325C8.35685 10.0325 6.3141 8.00117 6.3141 5.49588C6.3141 2.99074 8.35685 0.959717 10.877 0.959717C13.3969 0.959717 15.4396 2.99074 15.4396 5.49588Z" fill="#F06A6A"/>
  </g>
  <defs>
    <clipPath id="clip0_95_6378">
      <rect width="78.2509" height="19.8462" fill="white" transform="translate(0 0.675781)"/>
    </clipPath>
  </defs>
</svg>