<svg xmlns="http://www.w3.org/2000/svg" width="30" height="30" viewBox="0 0 30 30" fill="none">
  <g clip-path="url(#clip0_0_2671)">
    <path d="M0 11.25V22.5C0.00198482 24.157 0.661102 25.7456 1.83277 26.9172C3.00445 28.0889 4.59301 28.748 6.25 28.75H23.75C25.407 28.748 26.9956 28.0889 28.1672 26.9172C29.3389 25.7456 29.998 24.157 30 22.5V11.25H0ZM17.5 23.75H7.5C7.16848 23.75 6.85054 23.6183 6.61612 23.3839C6.3817 23.1495 6.25 22.8315 6.25 22.5C6.25 22.1685 6.3817 21.8505 6.61612 21.6161C6.85054 21.3817 7.16848 21.25 7.5 21.25H17.5C17.8315 21.25 18.1495 21.3817 18.3839 21.6161C18.6183 21.8505 18.75 22.1685 18.75 22.5C18.75 22.8315 18.6183 23.1495 18.3839 23.3839C18.1495 23.6183 17.8315 23.75 17.5 23.75ZM22.5 18.75H7.5C7.16848 18.75 6.85054 18.6183 6.61612 18.3839C6.3817 18.1495 6.25 17.8315 6.25 17.5C6.25 17.1685 6.3817 16.8505 6.61612 16.6161C6.85054 16.3817 7.16848 16.25 7.5 16.25H22.5C22.8315 16.25 23.1495 16.3817 23.3839 16.6161C23.6183 16.8505 23.75 17.1685 23.75 17.5C23.75 17.8315 23.6183 18.1495 23.3839 18.3839C23.1495 18.6183 22.8315 18.75 22.5 18.75ZM30 8.75V7.5C29.998 5.84301 29.3389 4.25445 28.1672 3.08277C26.9956 1.9111 25.407 1.25198 23.75 1.25H6.25C4.59301 1.25198 3.00445 1.9111 1.83277 3.08277C0.661102 4.25445 0.00198482 5.84301 0 7.5L0 8.75H30ZM12.5 3.75C12.7472 3.75 12.9889 3.82331 13.1945 3.96066C13.4 4.09801 13.5602 4.29324 13.6549 4.52165C13.7495 4.75005 13.7742 5.00139 13.726 5.24386C13.6778 5.48634 13.5587 5.70907 13.3839 5.88388C13.2091 6.0587 12.9863 6.17775 12.7439 6.22598C12.5014 6.27421 12.2501 6.24946 12.0216 6.15485C11.7932 6.06024 11.598 5.90002 11.4607 5.69446C11.3233 5.4889 11.25 5.24723 11.25 5C11.25 4.66848 11.3817 4.35054 11.6161 4.11612C11.8505 3.8817 12.1685 3.75 12.5 3.75ZM8.75 3.75C8.99723 3.75 9.2389 3.82331 9.44446 3.96066C9.65002 4.09801 9.81024 4.29324 9.90485 4.52165C9.99946 4.75005 10.0242 5.00139 9.97598 5.24386C9.92775 5.48634 9.8087 5.70907 9.63388 5.88388C9.45907 6.0587 9.23634 6.17775 8.99386 6.22598C8.75139 6.27421 8.50005 6.24946 8.27165 6.15485C8.04324 6.06024 7.84801 5.90002 7.71066 5.69446C7.57331 5.4889 7.5 5.24723 7.5 5C7.5 4.66848 7.6317 4.35054 7.86612 4.11612C8.10054 3.8817 8.41848 3.75 8.75 3.75ZM5 3.75C5.24723 3.75 5.4889 3.82331 5.69446 3.96066C5.90002 4.09801 6.06024 4.29324 6.15485 4.52165C6.24946 4.75005 6.27421 5.00139 6.22598 5.24386C6.17775 5.48634 6.0587 5.70907 5.88388 5.88388C5.70907 6.0587 5.48634 6.17775 5.24386 6.22598C5.00139 6.27421 4.75005 6.24946 4.52165 6.15485C4.29324 6.06024 4.09801 5.90002 3.96066 5.69446C3.82331 5.4889 3.75 5.24723 3.75 5C3.75 4.66848 3.8817 4.35054 4.11612 4.11612C4.35054 3.8817 4.66848 3.75 5 3.75Z" fill="#FF7A00"/>
  </g>
  <defs>
    <clipPath id="clip0_0_2671">
      <rect width="30" height="30" fill="white"/>
    </clipPath>
  </defs>
</svg>