<svg xmlns="http://www.w3.org/2000/svg" width="30" height="30" viewBox="0 0 30 30" fill="none">
  <g clip-path="url(#clip0_0_2473)">
    <path d="M23.75 1.25H6.25C4.59301 1.25198 3.00445 1.9111 1.83277 3.08277C0.661102 4.25445 0.00198482 5.84301 0 7.5L0 22.5C0.00198482 24.157 0.661102 25.7456 1.83277 26.9172C3.00445 28.0889 4.59301 28.748 6.25 28.75H23.75C25.407 28.748 26.9956 28.0889 28.1672 26.9172C29.3389 25.7456 29.998 24.157 30 22.5V7.5C29.998 5.84301 29.3389 4.25445 28.1672 3.08277C26.9956 1.9111 25.407 1.25198 23.75 1.25ZM6.25 3.75H23.75C24.7446 3.75 25.6984 4.14509 26.4017 4.84835C27.1049 5.55161 27.5 6.50544 27.5 7.5V8.75H2.5V7.5C2.5 6.50544 2.89509 5.55161 3.59835 4.84835C4.30161 4.14509 5.25544 3.75 6.25 3.75ZM23.75 26.25H6.25C5.25544 26.25 4.30161 25.8549 3.59835 25.1517C2.89509 24.4484 2.5 23.4946 2.5 22.5V11.25H27.5V22.5C27.5 23.4946 27.1049 24.4484 26.4017 25.1517C25.6984 25.8549 24.7446 26.25 23.75 26.25ZM23.75 16.25C23.75 16.5815 23.6183 16.8995 23.3839 17.1339C23.1495 17.3683 22.8315 17.5 22.5 17.5H7.5C7.16848 17.5 6.85054 17.3683 6.61612 17.1339C6.3817 16.8995 6.25 16.5815 6.25 16.25C6.25 15.9185 6.3817 15.6005 6.61612 15.3661C6.85054 15.1317 7.16848 15 7.5 15H22.5C22.8315 15 23.1495 15.1317 23.3839 15.3661C23.6183 15.6005 23.75 15.9185 23.75 16.25ZM18.75 21.25C18.75 21.5815 18.6183 21.8995 18.3839 22.1339C18.1495 22.3683 17.8315 22.5 17.5 22.5H7.5C7.16848 22.5 6.85054 22.3683 6.61612 22.1339C6.3817 21.8995 6.25 21.5815 6.25 21.25C6.25 20.9185 6.3817 20.6005 6.61612 20.3661C6.85054 20.1317 7.16848 20 7.5 20H17.5C17.8315 20 18.1495 20.1317 18.3839 20.3661C18.6183 20.6005 18.75 20.9185 18.75 21.25ZM3.75 6.25C3.75 6.00277 3.82331 5.7611 3.96066 5.55554C4.09801 5.34998 4.29324 5.18976 4.52165 5.09515C4.75005 5.00054 5.00139 4.97579 5.24386 5.02402C5.48634 5.07225 5.70907 5.1913 5.88388 5.36612C6.0587 5.54093 6.17775 5.76366 6.22598 6.00614C6.27421 6.24861 6.24946 6.49995 6.15485 6.72835C6.06024 6.95676 5.90002 7.15199 5.69446 7.28934C5.4889 7.42669 5.24723 7.5 5 7.5C4.66848 7.5 4.35054 7.3683 4.11612 7.13388C3.8817 6.89946 3.75 6.58152 3.75 6.25ZM7.5 6.25C7.5 6.00277 7.57331 5.7611 7.71066 5.55554C7.84801 5.34998 8.04324 5.18976 8.27165 5.09515C8.50005 5.00054 8.75139 4.97579 8.99386 5.02402C9.23634 5.07225 9.45907 5.1913 9.63388 5.36612C9.8087 5.54093 9.92775 5.76366 9.97598 6.00614C10.0242 6.24861 9.99946 6.49995 9.90485 6.72835C9.81024 6.95676 9.65002 7.15199 9.44446 7.28934C9.2389 7.42669 8.99723 7.5 8.75 7.5C8.41848 7.5 8.10054 7.3683 7.86612 7.13388C7.6317 6.89946 7.5 6.58152 7.5 6.25ZM11.25 6.25C11.25 6.00277 11.3233 5.7611 11.4607 5.55554C11.598 5.34998 11.7932 5.18976 12.0216 5.09515C12.2501 5.00054 12.5014 4.97579 12.7439 5.02402C12.9863 5.07225 13.2091 5.1913 13.3839 5.36612C13.5587 5.54093 13.6778 5.76366 13.726 6.00614C13.7742 6.24861 13.7495 6.49995 13.6549 6.72835C13.5602 6.95676 13.4 7.15199 13.1945 7.28934C12.9889 7.42669 12.7472 7.5 12.5 7.5C12.1685 7.5 11.8505 7.3683 11.6161 7.13388C11.3817 6.89946 11.25 6.58152 11.25 6.25Z" fill="black"/>
  </g>
  <defs>
    <clipPath id="clip0_0_2473">
      <rect width="30" height="30" fill="white"/>
    </clipPath>
  </defs>
</svg>