<svg xmlns="http://www.w3.org/2000/svg" width="46" height="20" viewBox="0 0 46 20" fill="none">
  <path d="M13.1448 15.2536C12.3698 16.3022 11.3668 17.3964 10.0446 18.2171C8.76803 19.0377 7.30909 19.676 5.57659 19.676C3.98088 19.676 2.65871 18.8554 1.92924 18.1715C0.835038 17.1229 0.242343 15.6183 0.0599751 14.205C-0.441536 9.82815 2.24839 4.08358 6.39725 1.53043C7.35468 0.937736 8.40329 0.664185 9.40631 0.664185C11.4124 0.664185 12.9169 2.07753 13.0993 3.81003C13.2816 5.36015 12.6889 6.68231 10.9564 7.54856C10.0902 8.00448 9.63427 7.95889 9.4975 7.77652C9.40631 7.63974 9.45191 7.41178 9.63427 7.27501C11.23 5.95284 11.2756 4.85864 11.0932 3.30851C10.9564 2.30549 10.3182 1.66721 9.58868 1.66721C6.44284 1.66721 1.88365 8.73395 2.52194 13.8402C2.7499 15.8463 3.98088 18.1715 6.53402 18.1715C7.35468 18.1715 8.26652 17.9435 9.04158 17.5332C10.8197 16.6213 11.5947 15.9831 12.6433 14.5241C12.7801 14.3418 12.9169 14.1138 13.0537 13.9314C13.1448 13.7491 13.3272 13.7035 13.464 13.7035C13.6008 13.7035 13.7831 13.8402 13.7831 14.0682C13.7831 14.205 13.7375 14.4785 13.5552 14.7065C13.464 14.7977 13.2816 15.0712 13.1448 15.2536Z" fill="#24BECA"/>
  <path d="M17.932 17.8523C17.1569 17.8523 16.701 17.442 16.5187 16.8037C16.0171 17.4876 15.2877 17.8523 14.5582 17.8523C13.3272 17.8523 12.1874 16.8037 12.0051 15.436C11.7315 13.0196 13.7831 9.91934 16.8834 9.91934C18.2056 9.91934 19.2998 10.4664 19.4365 11.5151C19.6189 12.8372 18.4791 13.1108 18.0688 13.1108C17.704 13.1108 17.1113 13.0196 17.0658 12.6549C17.0202 12.2901 17.8408 12.5181 17.7496 11.6518C17.704 11.1047 17.1569 10.9224 16.6098 10.9224C14.695 10.9224 13.6464 13.5667 13.8743 15.208C13.9655 15.9375 14.3302 16.6669 15.0141 16.6669C15.5612 16.6669 16.3819 15.8919 16.6554 14.7065C16.8378 13.9314 17.6129 13.3843 18.16 13.3843C18.4335 13.3843 18.6615 13.5211 18.7071 13.7947C18.7071 13.8858 18.7071 14.0226 18.6615 14.205C18.6159 14.5697 18.3423 15.6639 18.3423 15.9375C18.3423 16.1654 18.4791 16.439 18.8438 16.439C19.2542 16.439 21.1234 15.3448 22.172 13.8858C22.2632 13.7491 22.4456 13.6579 22.5824 13.6579C22.7191 13.6579 22.9015 13.7491 22.9015 13.9314C22.9471 14.1138 22.8559 14.3418 22.628 14.6609C21.4426 16.3934 18.8438 17.8523 17.932 17.8523Z" fill="#24BECA"/>
  <path d="M44.0562 16.9405C44.1473 17.7156 44.5121 18.2171 44.8312 18.4906C44.968 18.5818 45.0136 18.7186 45.0136 18.8098C45.0592 19.0377 44.8768 19.2201 44.6033 19.2201C44.5121 19.2201 44.4209 19.2201 44.3297 19.1745C42.9619 18.6274 42.4148 17.7156 42.2325 16.8493C41.731 17.4876 41.0015 17.8979 40.3176 17.8979C39.0866 17.8979 37.9468 16.8493 37.7645 15.4816C37.4909 13.1108 39.6337 10.0105 42.6884 10.0105C43.965 10.0105 45.1048 10.512 45.2415 11.5606C45.4239 12.8828 44.2385 13.1564 43.8738 13.1564C43.4635 13.1564 42.8708 13.0652 42.8252 12.7004C42.7796 12.3813 43.6458 12.5637 43.5546 11.743C43.5091 11.1959 42.9164 11.0135 42.4148 11.0135C40.6368 11.0135 39.4514 13.3387 39.6793 15.2536C39.7705 16.0287 40.1353 16.7581 40.8191 16.7581C41.3662 16.7581 42.1869 15.9831 42.506 14.7977C42.6884 14.0226 43.4635 13.4755 44.0106 13.4755C44.2841 13.4755 44.5121 13.6123 44.5577 13.9314C44.5577 14.0682 44.5121 14.4329 44.2385 15.6639C44.0106 16.1198 44.0106 16.5758 44.0562 16.9405Z" fill="#24BECA"/>
  <path d="M27.6431 16.4846C28.0534 16.4846 29.4212 15.9831 30.5154 14.4785C30.6521 14.3418 30.7889 14.2506 30.9257 14.2506C31.1081 14.2506 31.2448 14.3418 31.2904 14.5241C31.2904 14.6609 31.1992 14.9344 30.9713 15.2536C29.7403 16.9861 27.6431 17.8523 26.7312 17.8523C25.7738 17.8523 25.2723 17.2596 25.1811 16.3934C25.1355 16.1198 25.1355 15.7551 25.2267 15.3904C25.5458 13.4299 26.2753 12.2445 26.2297 11.8798C26.2297 11.7886 26.1385 11.743 26.0929 11.743C25.5003 11.743 23.3574 13.9314 23.0383 15.3904L22.7647 16.5302C22.5824 17.3508 21.8073 17.8523 21.2602 17.8523C20.9867 17.8523 20.8043 17.7156 20.7587 17.442C20.7587 17.3508 20.7587 17.214 20.8043 17.0317C20.8043 17.0317 21.8529 11.6518 21.8985 11.3783C22.0353 10.74 22.2632 10.1017 23.5398 10.1017C23.8134 10.1017 23.9957 10.2385 24.0413 10.5576C24.0413 10.6488 24.0413 10.7856 23.9957 10.968L23.631 12.6093C24.7708 11.1047 26.5033 10.0105 27.5975 10.0105C28.0534 10.0105 28.3725 10.2385 28.4637 10.74C28.5093 11.0135 28.4181 11.4695 28.2358 11.971C27.871 13.0196 27.4607 14.5241 27.1416 15.8463C27.0504 16.0287 27.1416 16.4846 27.6431 16.4846Z" fill="#24BECA"/>
  <path d="M34.8466 10.1929C34.8466 10.9224 35.2113 11.6974 35.6672 12.1989C35.8496 11.6974 35.9408 11.1959 35.9408 10.6944C35.9408 9.73697 35.5761 9.32664 35.3025 9.32664C34.9834 9.32664 34.8466 9.78256 34.8466 10.1929ZM36.4879 14.1138C36.3511 14.1138 36.2143 14.1138 36.032 14.0682C34.8466 15.8007 33.6156 16.9861 32.6582 17.4876C32.2479 17.7156 31.8831 17.8067 31.6096 17.8067C31.3816 17.8067 31.1536 17.7611 31.0625 17.5788C30.6521 16.8493 30.4698 15.436 30.4698 13.9314C30.4698 12.8372 30.561 11.9254 30.7433 11.2871C30.9713 10.6032 31.8375 9.96493 32.3846 9.96493C32.6582 9.96493 32.8861 10.1017 32.8861 10.4208C32.8861 10.512 32.8405 10.6488 32.795 10.7856C32.3846 11.9254 32.2023 13.0196 32.2023 14.1138C32.2023 14.7065 32.339 15.7095 32.4758 16.211C32.5214 16.3022 32.5214 16.439 32.6126 16.439C32.795 16.439 34.0259 15.208 34.9378 13.7491C34.1627 13.2475 33.7068 12.3357 33.7068 11.1959C33.7068 9.28105 34.8466 8.32362 35.9408 8.32362C36.807 8.32362 37.5821 8.96191 37.5821 10.2385C37.5821 11.0135 37.263 11.9254 36.807 12.7916C36.807 12.7916 36.9894 12.8372 37.0806 12.8372C37.7645 12.8372 38.3116 12.5181 38.5851 12.1989C38.8131 11.971 38.9955 11.7886 39.1778 11.7886C39.3146 11.7886 39.3602 11.8798 39.3602 12.0166C39.3602 12.1077 39.3146 12.2445 39.269 12.3813C38.6307 13.4299 37.4453 14.1138 36.4879 14.1138Z" fill="#24BECA"/>
</svg>