<svg xmlns="http://www.w3.org/2000/svg" width="20" height="16" viewBox="0 0 20 16" fill="none">
  <path d="M1.65441 0.800903H13.6739C14.176 0.838628 14.6439 1.06982 14.9789 1.44576C15.314 1.8217 15.4899 2.31302 15.4698 2.81618C16.6301 2.15552 17.8321 1.56704 19.0063 0.934147C19.0063 1.91958 19.0063 2.90223 19.0063 3.88766C16.2545 5.36811 13.4925 6.82266 10.7203 8.2513C13.4657 9.74471 16.2721 11.1132 19.0118 12.6233C18.9952 13.6142 19.0118 14.608 19.0118 15.599C17.8376 14.9633 16.644 14.3665 15.4837 13.7059C15.5069 14.21 15.3329 14.7034 14.9988 15.0816C14.6646 15.4597 14.1964 15.6931 13.6933 15.7322H1.80708C0.893823 15.685 0.0416378 15.0327 0 14.0667V10.8578C1.66551 10.0251 3.33102 9.13402 4.99653 8.2513C3.31159 7.44075 1.68494 6.51917 0 5.70029V2.47752C0.0413843 2.0506 0.22841 1.65093 0.529672 1.34563C0.830934 1.04032 1.22808 0.847976 1.65441 0.800903ZM1.65441 3.57676C3.72242 4.63713 5.77933 5.71694 7.84456 6.78287C9.85983 5.69751 11.9056 4.67045 13.9209 3.57954C9.8404 3.57398 5.75157 3.57954 1.66551 3.57121L1.65441 3.57676ZM1.67384 12.9536C5.77377 12.9814 9.87926 12.9536 13.982 12.9703C11.9473 11.8599 9.87093 10.8467 7.84178 9.73083C5.80431 10.8134 3.75018 11.8738 1.68494 12.948L1.67384 12.9536Z" fill="black"/>
</svg>