<svg xmlns="http://www.w3.org/2000/svg" width="79" height="20" viewBox="0 0 79 20" fill="none">
  <g clip-path="url(#clip0_95_6358)">
    <path fill-rule="evenodd" clip-rule="evenodd" d="M0.217773 14.6841L3.00705 12.5476C4.48824 14.4814 6.0612 15.3726 7.81398 15.3726C9.55706 15.3726 11.0868 14.4917 12.5016 12.5732L15.3293 14.6585C13.2894 17.4246 10.7515 18.886 7.81398 18.886C4.88619 18.886 2.32477 17.4349 0.217773 14.6841Z" fill="url(#paint0_linear_95_6358)"/>
    <path fill-rule="evenodd" clip-rule="evenodd" d="M7.80285 5.39884L2.8384 9.67664L0.544922 7.01501L7.81272 0.752441L15.024 7.01989L12.7193 9.67176L7.80285 5.39884Z" fill="url(#paint1_linear_95_6358)"/>
    <path d="M34.3684 4.36377H31.5576V16.0753H34.3684V4.36377Z" fill="black"/>
    <path fill-rule="evenodd" clip-rule="evenodd" d="M25.8769 16.1269C24.2199 16.1269 22.8392 15.59 21.7192 14.516C20.5992 13.4267 20.0469 12.0306 20.0469 10.3276C20.0469 8.60929 20.6146 7.19781 21.7345 6.09319C22.8698 4.97321 24.2506 4.4209 25.8922 4.4209C27.9173 4.4209 29.7124 5.29539 30.7556 6.66085L28.9299 8.57862C28.0554 7.64274 27.1043 7.16714 26.0763 7.16714C25.2018 7.16714 24.4808 7.45863 23.8824 8.05698C23.2994 8.65533 23.0079 9.40709 23.0079 10.3123C23.0079 11.1868 23.2994 11.9232 23.8824 12.5215C24.4808 13.1045 25.2018 13.396 26.061 13.396C27.181 13.396 28.1628 12.9051 28.9759 11.9385L30.8785 13.7642C30.3569 14.4546 29.651 15.0223 28.7764 15.4672C27.9022 15.9121 26.9355 16.1269 25.8769 16.1269Z" fill="black"/>
    <path fill-rule="evenodd" clip-rule="evenodd" d="M38.5859 5.30081C38.5859 6.14168 37.9045 6.82333 37.0636 6.82333C36.2227 6.82333 35.541 6.14168 35.541 5.30081C35.541 4.45996 36.2227 3.77832 37.0636 3.77832C37.9045 3.77832 38.5859 4.45996 38.5859 5.30081ZM38.4688 7.52599H35.6581V16.0754H38.4688V7.52599Z" fill="black"/>
    <path fill-rule="evenodd" clip-rule="evenodd" d="M43.9016 16.1424C42.5669 16.1424 41.4929 15.7281 40.6492 14.8997C39.8207 14.0712 39.4062 13.0126 39.4062 11.7085C39.4062 10.4044 39.8207 9.34582 40.6643 8.51737C41.5083 7.6889 42.5975 7.27466 43.9476 7.27466C45.7121 7.27466 47.2614 8.1338 47.9825 9.74473L45.8193 10.88C45.3897 10.159 44.7916 9.79075 44.009 9.79075C43.4414 9.79075 42.981 9.97486 42.6129 10.3431C42.26 10.7113 42.0759 11.1715 42.0759 11.7085C42.0759 12.8285 42.889 13.657 43.9785 13.657C44.7607 13.657 45.4818 13.2274 45.7887 12.5677L47.9519 13.8564C47.2154 15.2679 45.6967 16.1424 43.9016 16.1424Z" fill="black"/>
    <path fill-rule="evenodd" clip-rule="evenodd" d="M51.466 4.36377H48.6553V16.0753H51.466V13.0938L51.7953 12.7867L54.3646 16.0753H57.6344L53.6868 11.0228L57.4368 7.52585H54.0023L51.466 9.89114V4.36377Z" fill="black"/>
    <path fill-rule="evenodd" clip-rule="evenodd" d="M58.1445 11.6497V4.36377H61.0726V11.4866C61.0726 12.76 61.8146 13.3737 62.8878 13.3737C63.9453 13.3737 64.7031 12.7293 64.7031 11.4866V4.36377H67.6309V11.6497C67.6309 14.9943 65.2828 16.2524 62.8878 16.2524C60.5083 16.2524 58.1445 14.9943 58.1445 11.6497Z" fill="black"/>
    <path fill-rule="evenodd" clip-rule="evenodd" d="M73.9548 16.3094C76.2186 16.3094 78.0539 14.317 78.0539 11.8591C78.0539 9.40119 76.2186 7.40869 73.9548 7.40869C73.032 7.40869 72.1806 7.73974 71.4954 8.29839V7.52582H68.8018V19.5887H71.4954V15.4197C72.1806 15.9784 73.032 16.3094 73.9548 16.3094ZM71.4954 11.8636V11.8545C71.4979 10.757 72.3619 9.8681 73.4277 9.8681C74.4951 9.8681 75.3603 10.7595 75.3603 11.8591C75.3603 12.9586 74.4951 13.85 73.4277 13.85C72.3619 13.85 71.4979 12.9611 71.4954 11.8636Z" fill="black"/>
  </g>
  <defs>
    <linearGradient id="paint0_linear_95_6358" x1="0.217773" y1="20.0273" x2="15.3293" y2="20.0273" gradientUnits="userSpaceOnUse">
      <stop stop-color="#8930FD"/>
      <stop offset="1" stop-color="#49CCF9"/>
    </linearGradient>
    <linearGradient id="paint1_linear_95_6358" x1="0.544922" y1="11.2835" x2="15.024" y2="11.2835" gradientUnits="userSpaceOnUse">
      <stop stop-color="#FF02F0"/>
      <stop offset="1" stop-color="#FFC800"/>
    </linearGradient>
    <clipPath id="clip0_95_6358">
      <rect width="78.2516" height="19.0118" fill="white" transform="translate(0 0.664062)"/>
    </clipPath>
  </defs>
</svg>