<svg xmlns="http://www.w3.org/2000/svg" width="48" height="40" viewBox="0 0 48 40" fill="none">
  <path fill-rule="evenodd" clip-rule="evenodd" d="M45.2816 20.6581C43.5318 18.4708 41.1986 17.2313 38.2822 16.9397C40.032 11.1068 43.0214 6.73211 47.2502 3.81568C47.2502 3.08657 46.6669 2.21163 45.5004 1.19088C44.3338 0.170127 43.4588 -0.194427 42.8756 0.0972127C38.7925 1.9929 34.8554 5.78427 31.064 11.4713C27.2726 17.0126 25.3769 22.0434 25.3769 26.5639C25.3769 30.9386 26.3977 34.2196 28.4392 36.4069C30.4807 38.4484 33.1784 39.4691 36.5323 39.4691C40.032 39.4691 42.8026 38.4484 44.8442 36.4069C46.8857 34.3654 47.9064 31.8135 47.9064 28.7512C47.9064 25.5431 47.0315 22.8454 45.2816 20.6581ZM19.6899 20.6581C17.94 18.4708 15.6798 17.2313 12.9091 16.9397C14.659 11.1068 17.6484 6.73211 21.8772 3.81568C21.8772 3.08657 21.2939 2.21163 20.1273 1.19088C18.9608 0.170127 18.0858 -0.194427 17.5025 0.0972127C13.2737 1.9929 9.2636 5.78427 5.47223 11.4713C1.82668 17.0126 0.00390625 22.0434 0.00390625 26.5639C0.00390625 30.9386 1.02466 34.2196 3.06617 36.4069C5.10767 38.4484 7.80538 39.4691 11.1593 39.4691C14.659 39.4691 17.3567 38.4484 19.2524 36.4069C21.2939 34.3654 22.3147 31.8135 22.3147 28.7512C22.3147 25.5431 21.4397 22.8454 19.6899 20.6581Z" fill="#E0E0E0"/>
</svg>