<svg xmlns="http://www.w3.org/2000/svg" width="49" height="43" viewBox="0 0 49 43" fill="none">
  <path fill-rule="evenodd" clip-rule="evenodd" d="M3.6569 21.4915C5.5237 19.4031 7.92112 18.2929 10.8491 18.1611C9.4207 12.2413 6.67493 7.70984 2.61181 4.56669C2.65166 3.83867 3.2819 2.99692 4.50253 2.04143C5.72315 1.08595 6.6167 0.769748 7.18318 1.09283C11.1565 3.20879 14.8806 7.20963 18.3554 13.0953C21.8383 18.8355 23.4561 23.9624 23.2091 28.4761C22.97 32.8442 21.7714 36.0646 19.6134 38.1371C17.4633 40.064 14.7139 40.9358 11.365 40.7525C7.87049 40.5613 5.1598 39.3907 3.23293 37.2406C1.30605 35.0906 0.426304 32.4868 0.593679 29.4291C0.769026 26.2258 1.7901 23.58 3.6569 21.4915ZM29.2104 22.8899C31.0772 20.8015 33.4018 19.6873 36.1843 19.5475C34.7558 13.6278 32.01 9.09629 27.9469 5.95314C27.9868 5.22512 28.617 4.38336 29.8376 3.42788C31.0583 2.4724 31.9518 2.1562 32.5183 2.47927C36.6372 4.6032 40.4341 8.60803 43.9089 14.4937C47.2462 20.2259 48.7913 25.3488 48.5442 29.8626C48.3051 34.2307 47.1065 37.451 44.9485 39.5235C42.7985 41.4504 40.049 42.3222 36.7001 42.139C33.2056 41.9477 30.5677 40.7811 28.7864 38.639C26.8596 36.489 25.9798 33.8852 26.1472 30.8275C26.3225 27.6242 27.3436 24.9784 29.2104 22.8899Z" fill="#E0E0E0"/>
</svg>