<svg xmlns="http://www.w3.org/2000/svg" width="30" height="30" viewBox="0 0 30 30" fill="none">
  <g clip-path="url(#clip0_0_2776)">
    <path d="M30.4941 14.9971C30.4941 12.9643 29.6037 11.0486 28.0864 9.84183C28.2622 7.81488 27.5357 5.82894 26.1005 4.38781C24.6652 2.95255 22.6851 2.22613 20.7578 2.44288C19.4455 0.890451 17.5299 0 15.4971 0C13.4643 0 11.5486 0.890451 10.3418 2.40773C8.31488 2.23199 6.32894 2.95841 4.88781 4.39367C3.45255 5.82894 2.72613 7.82074 2.94288 9.73638C1.39045 11.0486 0.5 12.9643 0.5 14.9971C0.5 17.0299 1.39045 18.9455 2.90773 20.1523C2.73199 22.1793 3.45841 24.1652 4.89367 25.6063C6.32894 27.0475 8.32074 27.768 10.2364 27.5513C11.5486 29.1095 13.4643 30 15.4971 30C17.5299 30 19.4455 29.1096 20.6523 27.5923C22.6734 27.768 24.6652 27.0416 26.1005 25.6063C27.5357 24.1711 28.2622 22.1793 28.0454 20.2636C29.6037 18.9455 30.4941 17.0299 30.4941 14.9971ZM16.7449 21.2478V22.4956C16.7449 23.1869 16.1883 23.7434 15.4971 23.7434C14.8058 23.7434 14.2493 23.1869 14.2493 22.4956V21.2478H13.9153C12.5797 21.2478 11.3377 20.5331 10.6699 19.3732C10.3243 18.7756 10.5293 18.0141 11.1268 17.6684C11.7244 17.3228 12.4859 17.5278 12.8316 18.1254C13.0542 18.512 13.4701 18.7522 13.9153 18.7522H16.7507C17.442 18.7522 17.9985 18.1898 17.9985 17.5044C17.9985 17.0299 17.6588 16.6315 17.196 16.5554L13.3881 15.911C11.7127 15.6298 10.4941 14.1945 10.4941 12.4956C10.4941 10.4277 12.1755 8.74634 14.2434 8.74634V7.49854C14.2434 6.80726 14.7999 6.25073 15.4912 6.25073C16.1825 6.25073 16.739 6.80726 16.739 7.49854V8.74634H17.0729C18.4086 8.74634 19.6506 9.4669 20.3184 10.621C20.664 11.2185 20.459 11.9801 19.8615 12.3257C19.2639 12.6714 18.4965 12.4663 18.1567 11.8688C17.9341 11.4821 17.5182 11.2419 17.0729 11.2419H14.2376C13.5463 11.2419 12.9897 11.8043 12.9897 12.4897C12.9897 12.9643 13.3295 13.3626 13.7923 13.4388L17.5943 14.0715C19.2698 14.3527 20.4883 15.7879 20.4883 17.4868C20.4941 19.5665 18.8128 21.2478 16.7449 21.2478Z" fill="#FF7A00"/>
  </g>
  <defs>
    <clipPath id="clip0_0_2776">
      <rect width="30" height="30" fill="white"/>
    </clipPath>
  </defs>
</svg>