<svg xmlns="http://www.w3.org/2000/svg" width="30" height="30" viewBox="0 0 30 30" fill="none">
  <g clip-path="url(#clip0_0_2587)">
    <path d="M30 15C30 12.9675 29.1075 11.05 27.5938 9.845C27.7688 7.8175 27.0438 5.83125 25.6063 4.3925C24.1688 2.95625 22.1887 2.22875 20.26 2.44875C18.95 0.8925 17.0325 0 15 0C12.9675 0 11.05 0.8925 9.845 2.40625C7.815 2.23125 5.83 2.955 4.3925 4.39375C2.955 5.83125 2.23125 7.81875 2.44875 9.74C0.8925 11.05 0 12.9675 0 15C0 17.0325 0.8925 18.95 2.40625 20.155C2.23125 22.1825 2.95625 24.17 4.39375 25.6075C5.83125 27.0462 7.82375 27.7725 9.74 27.5513C11.05 29.1075 12.9675 30 15 30C17.0325 30 18.95 29.1075 20.155 27.5938C22.1775 27.7675 24.1675 27.045 25.6063 25.6063C27.0425 24.1688 27.7675 22.1812 27.55 20.26C29.1075 18.95 30 17.0325 30 15ZM25.9412 18.3475C25.3425 18.8512 25.0363 19.5888 25.1038 20.3687C25.2138 21.66 24.7537 22.925 23.8387 23.8387C22.9237 24.7537 21.6613 25.2125 20.3687 25.1038C19.5863 25.04 18.8525 25.3425 18.3487 25.9412C17.5138 26.9325 16.2938 27.5012 15 27.5012C13.7063 27.5012 12.4862 26.9325 11.6512 25.9412C11.1925 25.3975 10.5425 25.0962 9.8425 25.0962C9.7725 25.0962 9.70125 25.0987 9.63125 25.105C8.3475 25.2162 7.07625 24.755 6.16125 23.84C5.2475 22.925 4.78625 21.66 4.8975 20.37C4.96375 19.59 4.66 18.855 4.06 18.3487C3.06875 17.515 2.5 16.2938 2.5 15.0013C2.5 13.7088 3.06875 12.4875 4.06 11.6525C4.65875 11.1475 4.96375 10.4113 4.89625 9.63125C4.78625 8.34125 5.24625 7.07625 6.16125 6.16125C7.07625 5.2475 8.34125 4.79 9.63125 4.8975C10.4075 4.95875 11.1462 4.65875 11.6525 4.06C12.4862 3.06875 13.7075 2.5 15 2.5C16.2925 2.5 17.5138 3.06875 18.3487 4.06C18.8525 4.6575 19.5875 4.9675 20.37 4.89625C21.6512 4.79125 22.9237 5.24625 23.8387 6.16125C24.7525 7.075 25.2138 8.34125 25.1038 9.63125C25.0363 10.4113 25.3412 11.1475 25.9412 11.6525C26.9312 12.4862 27.5 13.7075 27.5 15C27.5 16.2925 26.9312 17.5138 25.9412 18.3475ZM20 17.5C20 19.5675 18.3175 21.25 16.25 21.25V22.5C16.25 23.19 15.69 23.75 15 23.75C14.31 23.75 13.75 23.19 13.75 22.5V21.25H13.415C12.08 21.25 10.8362 20.5325 10.1675 19.3763C9.8225 18.7788 10.0262 18.015 10.6237 17.6688C11.22 17.3225 11.985 17.5275 12.3312 18.125C12.5538 18.51 12.97 18.75 13.415 18.75H16.25C16.94 18.75 17.5 18.1887 17.5 17.5C17.5 17.0275 17.1612 16.6275 16.695 16.55L12.8925 15.9163C11.2163 15.6375 9.99875 14.2 9.99875 12.5C9.99875 10.4325 11.6812 8.75 13.7487 8.75V7.5C13.7487 6.81 14.3087 6.25 14.9987 6.25C15.6887 6.25 16.2487 6.81 16.2487 7.5V8.75H16.5837C17.9175 8.75 19.1625 9.46875 19.8312 10.625C20.1775 11.2225 19.9725 11.9862 19.3763 12.3325C18.7763 12.6775 18.0112 12.4738 17.6688 11.8763C17.445 11.49 17.03 11.2513 16.585 11.2513H13.75C13.0612 11.2513 12.5 11.8125 12.5 12.5013C12.5 12.9738 12.8387 13.3737 13.305 13.4513L17.1063 14.085C18.7838 14.3637 20 15.8013 20 17.5013V17.5Z" fill="black"/>
  </g>
  <defs>
    <clipPath id="clip0_0_2587">
      <rect width="30" height="30" fill="white"/>
    </clipPath>
  </defs>
</svg>