<svg xmlns="http://www.w3.org/2000/svg" width="45" height="45" viewBox="0 0 45 45" fill="none">
  <circle cx="22.1641" cy="22.1661" r="22.1661" fill="#FFF5EC"/>
  <path d="M20.1277 24.5809C20.1279 24.581 20.128 24.5812 20.1282 24.5814L22.3136 26.8863L24.4989 24.5814L20.1277 24.5809ZM20.1277 24.5809C20.1277 24.5808 20.1276 24.5807 20.1275 24.5807M20.1277 24.5809L20.1275 24.5807M20.1275 24.5807C19.6792 24.1072 18.9602 23.8333 18.2368 24.0651L20.1275 24.5807ZM21.9924 12.9933L21.9924 12.9933L21.9871 12.9943L15.1826 14.3442C15.1821 14.3443 15.1815 14.3444 15.1809 14.3445C14.3974 14.498 13.8268 15.1851 13.8268 15.9857C13.8268 16.4694 14.0336 16.9117 14.3714 17.2199V19.0863L13.8549 21.6445C13.7661 22.0677 13.8803 22.4942 14.1461 22.8174L14.8135 22.2685L14.1461 22.8174C14.4176 23.1475 14.8167 23.3318 15.2356 23.3318H16.3247C16.7458 23.3318 17.1486 23.1424 17.4159 22.8154L16.7468 22.2685L17.4159 22.8154C17.6786 22.4941 17.7829 22.0756 17.7111 21.6746C18.5922 23.306 20.3264 24.4122 22.3153 24.4122C25.1923 24.4122 27.5362 22.0975 27.5362 19.2267V18.0081L29.4479 17.6273C29.4486 17.6272 29.4493 17.6271 29.45 17.6269C30.2334 17.4733 30.8038 16.7862 30.8038 15.9857C30.8038 15.1851 30.2332 14.498 29.4496 14.3445C29.449 14.3444 29.4485 14.3443 29.4479 14.3442L22.6434 12.9943L22.6434 12.9943L22.6382 12.9933C22.425 12.9524 22.2055 12.9524 21.9924 12.9933ZM22.5442 27.1296L22.5442 27.1295L22.5442 27.1296ZM18.2367 24.0651C15.6845 24.8803 13.8268 27.2551 13.8268 30.0738C13.8268 31.1283 14.6901 31.9744 15.7359 31.9744H28.8946C29.9386 31.9744 30.8038 31.1335 30.8038 30.0738C30.8038 27.2549 28.9458 24.8802 26.3902 24.065C26.3901 24.065 26.3901 24.065 26.39 24.065L18.2367 24.0651Z" stroke="#FF7A00" stroke-width="1.72835"/>
</svg>