<svg xmlns="http://www.w3.org/2000/svg" width="45" height="45" viewBox="0 0 45 45" fill="none">
  <circle cx="22.1661" cy="22.1661" r="22.1661" fill="#FFF5EC"/>
  <path d="M28.3148 19.7247L28.7303 18.8851L31.1932 13.9074L31.8104 12.66H30.4186H24.7533H24.2168L23.9788 13.1408L22.5906 15.9456L21.2074 13.1418L20.9697 12.66H20.4324H14.6914H13.3015L13.9164 13.9065L16.398 18.9367L16.8189 19.7899C15.835 21.0396 15.2474 22.6154 15.2474 24.3263C15.2474 28.3778 18.5423 31.6718 22.5928 31.6718C26.6434 31.6718 29.9383 28.3778 29.9383 24.3263C29.9383 22.5856 29.33 20.9846 28.3148 19.7247ZM22.7823 23.4809L22.96 24.1103H23.614H23.9474L23.7761 24.2121L23.1582 24.5791L23.4065 25.2535L23.5452 25.6303L23.1309 25.3099L22.6021 24.901L22.0735 25.3099L21.5936 25.6811L21.7573 25.1974L21.9831 24.5297L21.3745 24.1742L21.265 24.1103H21.5868H22.2406L22.4184 23.4811L22.6005 22.8368L22.7823 23.4809Z" stroke="#FF7A00" stroke-width="1.72835"/>
</svg>