<svg xmlns="http://www.w3.org/2000/svg" width="20" height="20" viewBox="0 0 20 20" fill="none">
  <path d="M4.33707 0.273071H14.6747C17.0661 0.273071 19.0118 2.21881 19.0118 4.61014V14.9478C19.0118 17.3392 17.0661 19.2849 14.6747 19.2849H4.33707C1.94574 19.2849 0 17.3392 0 14.9478V4.61014C0 2.20396 1.94574 0.273071 4.33707 0.273071Z" fill="url(#paint0_linear_95_6333)"/>
  <path d="M7.35102 8.87291L4.7666 6.28848L7.95999 3.09509L11.1534 6.28848L7.49955 9.95717L7.4847 9.94232C7.67779 9.6007 7.63323 9.15511 7.35102 8.87291Z" fill="white"/>
  <path d="M14.7032 9.79386L7.95999 16.5668L4.7666 13.3734L11.5247 6.60046L14.7032 9.79386Z" fill="#72C3B5"/>
  <defs>
    <linearGradient id="paint0_linear_95_6333" x1="9.5121" y1="0.268794" x2="9.5121" y2="19.2806" gradientUnits="userSpaceOnUse">
      <stop stop-color="#203D51"/>
      <stop offset="1" stop-color="#143247"/>
    </linearGradient>
  </defs>
</svg>