<svg xmlns="http://www.w3.org/2000/svg" width="60" height="60" viewBox="0 0 60 60" fill="none">
  <circle cx="30" cy="30" r="30" fill="#FFF5EC"/>
  <path d="M30 15C21.7148 15 15 21.7148 15 30C15 38.2852 21.7148 45 30 45C38.2852 45 45 38.2852 45 30C44.9883 21.7207 38.2793 15.0117 30 15ZM28.752 42.4336C22.8223 41.8301 18.1465 37.1309 17.5605 31.2012L21.5098 35.1504C22.2129 35.8594 23.168 36.252 24.1641 36.252H27.5039C28.1953 36.252 28.752 36.8086 28.752 37.5V42.4336ZM31.248 42.4336V37.5C31.248 35.4316 29.5664 33.75 27.498 33.75H24.1582C23.8242 33.75 23.5078 33.6211 23.2734 33.3867L17.7012 27.8145C18.8965 21.0293 25.3652 16.4941 32.1504 17.6895C33.8145 17.9824 35.4082 18.6094 36.8203 19.541L36.5391 19.8223C36.4219 19.9395 36.2637 20.0039 36.0996 20.0039H34.377C32.6484 20.0039 31.2539 21.4043 31.2539 23.127V24.375C31.2539 24.7207 30.9727 25.002 30.627 25.002C28.8984 25.002 27.5039 26.4023 27.5039 28.125V28.752C27.5039 30.8203 29.1855 32.502 31.2539 32.502H35.0039C35.6953 32.502 36.252 33.0586 36.252 33.75V34.9512C36.252 35.7773 36.5859 36.5742 37.166 37.1602L38.8359 38.8301C36.8027 40.875 34.1191 42.1465 31.248 42.4336ZM40.4238 36.8848L38.9355 35.3906C38.8184 35.2734 38.7539 35.1152 38.7539 34.9512V33.75C38.7539 31.6816 37.0723 30 35.0039 30H31.2539C30.5625 30 30.0059 29.4434 30.0059 28.752V28.125C30.0059 27.7793 30.2871 27.498 30.6328 27.498C32.3613 27.498 33.7559 26.0977 33.7559 24.375V23.127C33.7559 22.7812 34.0371 22.5 34.3828 22.5H36.1055C36.9316 22.5 37.7285 22.166 38.3145 21.5859L38.7832 21.1172C41.1621 23.4609 42.5039 26.6602 42.5039 30.0059C42.5039 32.4492 41.7773 34.8457 40.4238 36.8848Z" fill="black"/>
  <path d="M31.2481 42.4336V37.5C31.2481 35.4316 29.5665 33.75 27.4981 33.75H24.1583C23.8243 33.75 23.5079 33.6211 23.2735 33.3867L17.7013 27.8144C18.8966 21.0293 25.3653 16.4941 32.1505 17.6894C33.8145 17.9824 35.4083 18.6094 36.8204 19.541L36.5392 19.8223C36.422 19.9394 36.2638 20.0039 36.0997 20.0039H34.377C32.6485 20.0039 31.254 21.4043 31.254 23.1269V24.375C31.254 24.7207 30.9727 25.0019 30.627 25.0019C28.8985 25.0019 27.504 26.4023 27.504 28.125V28.7519C27.504 30.8203 29.1856 32.5019 31.254 32.5019H35.004C35.6954 32.5019 36.252 33.0586 36.252 33.75V34.9512C36.252 35.7773 36.586 36.5742 37.1661 37.1602L38.836 38.8301C36.8028 40.875 34.1192 42.1465 31.2481 42.4336Z" fill="#FA7700"/>
  <path d="M30 15C27.0333 15 24.1332 15.8797 21.6665 17.528C19.1997 19.1762 17.2771 21.5189 16.1418 24.2597C15.0065 27.0006 14.7094 30.0166 15.2882 32.9264C15.867 35.8361 17.2956 38.5088 19.3934 40.6066C21.4912 42.7044 24.1639 44.133 27.0737 44.7118C29.9834 45.2906 32.9994 44.9935 35.7403 43.8582C38.4811 42.7229 40.8238 40.8003 42.472 38.3336C44.1203 35.8668 45 32.9667 45 30C44.9957 26.0231 43.414 22.2103 40.6019 19.3981C37.7897 16.586 33.9769 15.0043 30 15ZM42.5 30C42.5015 32.4496 41.7787 34.845 40.4225 36.885L38.9325 35.3938C38.8157 35.2766 38.75 35.1179 38.75 34.9525V33.75C38.75 32.7554 38.3549 31.8016 37.6517 31.0984C36.9484 30.3951 35.9946 30 35 30H31.25C30.9185 30 30.6005 29.8683 30.3661 29.6339C30.1317 29.3995 30 29.0815 30 28.75V28.125C30 27.9592 30.0659 27.8003 30.1831 27.6831C30.3003 27.5658 30.4592 27.5 30.625 27.5C31.4538 27.5 32.2487 27.1708 32.8347 26.5847C33.4208 25.9987 33.75 25.2038 33.75 24.375V23.125C33.75 22.9592 33.8159 22.8003 33.9331 22.6831C34.0503 22.5658 34.2092 22.5 34.375 22.5H36.0988C36.9267 22.4976 37.7204 22.1689 38.3075 21.585L38.7788 21.1138C39.9577 22.2738 40.894 23.6571 41.5329 25.1827C42.1718 26.7084 42.5005 28.346 42.5 30ZM17.5613 31.2038L21.5088 35.1513C21.8561 35.5009 22.2695 35.778 22.7248 35.9666C23.1802 36.1553 23.6684 36.2516 24.1613 36.25H27.5C27.8315 36.25 28.1495 36.3817 28.3839 36.6161C28.6183 36.8505 28.75 37.1685 28.75 37.5V42.4363C25.8752 42.1428 23.1905 40.864 21.1512 38.8167C19.1118 36.7694 17.8435 34.0796 17.5613 31.2038ZM31.25 42.4363V37.5C31.25 36.5054 30.8549 35.5516 30.1517 34.8484C29.4484 34.1451 28.4946 33.75 27.5 33.75H24.1613C23.9969 33.7501 23.8341 33.7178 23.6823 33.655C23.5304 33.5922 23.3925 33.5 23.2763 33.3838L17.7038 27.8113C18.0615 25.7778 18.9184 23.8649 20.1977 22.2442C21.477 20.6236 23.1386 19.3459 25.0335 18.5258C26.9284 17.7056 28.9972 17.3688 31.0543 17.5454C33.1115 17.7219 35.0926 18.4065 36.82 19.5375L36.54 19.8175C36.4223 19.9335 36.264 19.999 36.0988 20H34.375C33.5462 20 32.7514 20.3292 32.1653 20.9153C31.5792 21.5013 31.25 22.2962 31.25 23.125V24.375C31.25 24.5408 31.1842 24.6997 31.0669 24.8169C30.9497 24.9342 30.7908 25 30.625 25C29.7962 25 29.0013 25.3292 28.4153 25.9153C27.8292 26.5013 27.5 27.2962 27.5 28.125V28.75C27.5 29.7446 27.8951 30.6984 28.5984 31.4017C29.3016 32.1049 30.2554 32.5 31.25 32.5H35C35.3315 32.5 35.6495 32.6317 35.8839 32.8661C36.1183 33.1005 36.25 33.4185 36.25 33.75V34.9525C36.2524 35.7805 36.5811 36.5742 37.165 37.1613L38.8363 38.8325C36.8006 40.8752 34.1195 42.1488 31.25 42.4363Z" fill="black"/>
</svg>