<svg width="30" height="30" viewBox="0 0 30 30" fill="none" xmlns="http://www.w3.org/2000/svg">
<path d="M15 0C6.71484 0 0 6.71484 0 15C0 23.2852 6.71484 30 15 30C23.2852 30 30 23.2852 30 15C29.9883 6.7207 23.2793 0.0117188 15 0ZM13.752 27.4336C7.82227 26.8301 3.14648 22.1309 2.56055 16.2012L6.50977 20.1504C7.21289 20.8594 8.16797 21.252 9.16406 21.252H12.5039C13.1953 21.252 13.752 21.8086 13.752 22.5V27.4336ZM16.248 27.4336V22.5C16.248 20.4316 14.5664 18.75 12.498 18.75H9.1582C8.82422 18.75 8.50781 18.6211 8.27344 18.3867L2.70117 12.8145C3.89648 6.0293 10.3652 1.49414 17.1504 2.68945C18.8145 2.98242 20.4082 3.60938 21.8203 4.54102L21.5391 4.82227C21.4219 4.93945 21.2637 5.00391 21.0996 5.00391H19.377C17.6484 5.00391 16.2539 6.4043 16.2539 8.12695V9.375C16.2539 9.7207 15.9727 10.002 15.627 10.002C13.8984 10.002 12.5039 11.4023 12.5039 13.125V13.752C12.5039 15.8203 14.1855 17.502 16.2539 17.502H20.0039C20.6953 17.502 21.252 18.0586 21.252 18.75V19.9512C21.252 20.7773 21.5859 21.5742 22.166 22.1602L23.8359 23.8301C21.8027 25.875 19.1191 27.1465 16.248 27.4336ZM25.4238 21.8848L23.9355 20.3906C23.8184 20.2734 23.7539 20.1152 23.7539 19.9512V18.75C23.7539 16.6816 22.0723 15 20.0039 15H16.2539C15.5625 15 15.0059 14.4434 15.0059 13.752V13.125C15.0059 12.7793 15.2871 12.498 15.6328 12.498C17.3613 12.498 18.7559 11.0977 18.7559 9.375V8.12695C18.7559 7.78125 19.0371 7.5 19.3828 7.5H21.1055C21.9316 7.5 22.7285 7.16602 23.3145 6.58594L23.7832 6.11719C26.1621 8.46094 27.5039 11.6602 27.5039 15.0059C27.5039 17.4492 26.7773 19.8457 25.4238 21.8848Z" fill="black"/>
<path d="M16.2481 27.4336V22.5C16.2481 20.4316 14.5665 18.75 12.4981 18.75H9.1583C8.82431 18.75 8.5079 18.6211 8.27353 18.3867L2.70126 12.8144C3.89658 6.02929 10.3653 1.49414 17.1505 2.68945C18.8145 2.98242 20.4083 3.60937 21.8204 4.54101L21.5392 4.82226C21.422 4.93945 21.2638 5.0039 21.0997 5.0039H19.377C17.6485 5.0039 16.254 6.40429 16.254 8.12695V9.37499C16.254 9.7207 15.9727 10.0019 15.627 10.0019C13.8985 10.0019 12.504 11.4023 12.504 13.125V13.7519C12.504 15.8203 14.1856 17.5019 16.254 17.5019H20.004C20.6954 17.5019 21.252 18.0586 21.252 18.75V19.9512C21.252 20.7773 21.586 21.5742 22.1661 22.1602L23.836 23.8301C21.8028 25.875 19.1192 27.1465 16.2481 27.4336Z" fill="#FA7700"/>
</svg>
