<svg xmlns="http://www.w3.org/2000/svg" width="45" height="45" viewBox="0 0 45 45" fill="none">
  <circle cx="22.1661" cy="22.3799" r="22.1661" fill="#FFF5EC"/>
  <path d="M20.4646 18.5095C20.7707 18.7854 21.0916 19.0436 21.4134 19.3025C21.5035 19.375 21.5936 19.4475 21.6835 19.5205M20.4646 18.5095L19.3041 18.2542C19.0534 17.4842 19.3942 16.8768 19.6565 16.5212M20.4646 18.5095C20.3146 18.3741 20.1888 18.1806 20.126 17.9871C20.0922 17.8837 20.0792 17.7856 20.0821 17.6919L20.4646 18.5095ZM21.6835 19.5205C21.9931 19.772 22.351 19.8639 22.7477 19.8059M21.6835 19.5205L21.1386 20.1912C21.1387 20.1913 21.1388 20.1914 21.1389 20.1914M21.6835 19.5205L21.1389 20.1914M22.7477 19.8059C23.0478 19.7637 23.3478 19.7228 23.6492 19.6819C23.6495 19.7929 23.6501 19.9012 23.6507 20.0077C23.6518 20.1941 23.6528 20.3748 23.6519 20.5537M22.7477 19.8059L22.8679 20.6617C22.8687 20.6615 22.8694 20.6614 22.8702 20.6613M22.7477 19.8059L22.8728 20.661C22.8719 20.6611 22.8711 20.6612 22.8702 20.6613M23.6519 20.5537C23.7269 20.5435 23.802 20.5333 23.8774 20.5231C24.088 20.4945 24.3003 20.4657 24.5164 20.4359C24.5162 20.6347 24.5143 20.8326 24.5084 21.0297C24.4978 21.4017 24.4787 21.7737 24.4595 22.1457C24.4435 22.4558 24.4275 22.7658 24.4165 23.0758C24.413 23.2243 24.4367 23.3728 24.4576 23.5037C24.4659 23.5561 24.4738 23.6057 24.4794 23.6514M23.6519 20.5537C23.3915 20.5891 23.1323 20.6245 22.8702 20.6613M23.6519 20.5537C23.6512 20.7042 23.6491 20.8535 23.6446 21.0038L23.6446 21.0052C23.6336 21.3906 23.6159 21.7294 23.5975 22.0785C23.5827 22.3623 23.5674 22.6529 23.5552 22.9808M24.4794 23.6514C24.256 23.7031 24.0372 23.7548 23.8208 23.806C23.592 23.8601 23.3657 23.9136 23.1395 23.9658C23.1008 23.9755 23.0379 23.9561 23.004 23.9271M24.4794 23.6514L24.3457 23.0741L24.3455 23.0733L24.2844 22.8095C24.0393 22.8663 23.826 22.9167 23.617 22.9662C23.5964 22.9711 23.5758 22.976 23.5552 22.9808M24.4794 23.6514L23.6215 23.7554C23.621 23.7518 23.6194 23.7422 23.617 23.7274C23.6064 23.6637 23.58 23.5052 23.5643 23.3334L23.1057 23.8194L23.1035 23.8218L23.004 23.9271M23.004 23.9271C21.8867 22.8726 20.5226 22.534 19.0424 22.5872M23.004 23.9271L23.1014 23.8135L23.1037 23.8108L23.5597 23.2788C23.5594 23.274 23.559 23.2692 23.5587 23.2644C23.4643 23.1857 23.3739 23.1495 23.3127 23.1316C23.2756 23.1208 23.2287 23.1106 23.1726 23.1063C23.1226 23.1024 23.0423 23.1015 22.9452 23.1238M19.0424 22.5872C18.7063 22.5981 18.3702 22.671 18.0361 22.7435C17.9231 22.7681 17.8102 22.7926 17.6977 22.8146M19.0424 22.5872L19.0146 21.7235C19.0141 21.7235 19.0135 21.7235 19.013 21.7236M19.0424 22.5872L19.0114 21.7236C19.0119 21.7236 19.0125 21.7236 19.013 21.7236M17.6977 22.8146C17.5913 22.8339 17.5187 22.8436 17.4317 22.7517C16.5175 21.8133 15.4243 21.5666 14.1763 21.9294M17.6977 22.8146L17.6489 22.5459L17.648 22.541L17.5433 21.9654C17.5663 21.9633 17.6206 21.96 17.6916 21.9712C17.7694 21.9834 17.848 22.0098 17.9205 22.0509C17.9821 22.0857 18.0249 22.1229 18.0506 22.1487C18.0537 22.1518 18.0565 22.1547 18.059 22.1574L18.0507 22.1486L18.0507 22.1487C17.9692 22.065 17.8859 21.9853 17.8007 21.9095M17.6977 22.8146L17.6457 22.5489L17.6448 22.5441L17.5318 21.9666C17.5279 21.9671 17.5255 21.9675 17.5252 21.9675C17.5248 21.9675 17.5284 21.967 17.5377 21.9653C17.6132 21.9504 17.6994 21.9316 17.7936 21.9111C17.796 21.9106 17.7983 21.9101 17.8007 21.9095M14.1763 21.9294C13.8764 22.0165 13.828 22.089 13.828 22.3986C13.828 24.7398 13.828 27.0761 13.8232 29.4173C13.8232 29.6398 13.9006 29.7752 14.0941 29.8768C15.3856 30.554 16.7642 30.9022 18.2056 31.0183C20.3001 31.1828 22.351 30.8974 24.3681 30.3605M14.1763 21.9294L13.9354 21.0995L13.9351 21.0996M14.1763 21.9294L13.9351 21.0996M24.3681 30.3605C26.4384 29.8139 28.4168 29.0351 30.2984 28C31.1594 27.5211 31.2659 26.9455 30.9418 26.2344M24.3681 30.3605L24.5887 31.196C24.589 31.196 24.5893 31.1959 24.5896 31.1958M24.3681 30.3605L24.5904 31.1956C24.5901 31.1957 24.5899 31.1957 24.5896 31.1958M30.9418 26.2344C30.735 25.7796 30.6897 25.2855 30.6443 24.7894C30.6419 24.7632 30.6395 24.737 30.637 24.7107C30.5838 24.1738 30.4677 23.6272 30.2839 23.1145M30.9418 26.2344L31.7285 25.8768C31.7284 25.8767 31.7284 25.8766 31.7283 25.8764M30.9418 26.2344L31.7281 25.876C31.7282 25.8762 31.7282 25.8763 31.7283 25.8764M30.2839 23.1145C29.7408 21.579 29.1598 20.0608 28.5786 18.5424C28.4714 18.2622 28.3642 17.982 28.2572 17.7017C28.1266 17.3631 27.9041 17.0729 27.58 16.9084M30.2839 23.1145L31.0986 22.8263C31.0984 22.8258 31.0982 22.8252 31.0981 22.8247M30.2839 23.1145L31.0974 22.8229C31.0976 22.8235 31.0978 22.8241 31.0981 22.8247M27.58 16.9084C27.1761 16.7029 26.8364 16.422 26.4952 16.14C26.3868 16.0504 26.2783 15.9607 26.1675 15.8733C25.622 15.439 25.0815 14.9972 24.5406 14.555C24.3285 14.3817 24.1163 14.2082 23.9038 14.0352C23.4878 13.6966 23.0379 13.6966 22.6219 14.0352C22.5086 14.1279 22.3952 14.2205 22.282 14.313C21.8476 14.6678 21.4141 15.0219 20.9844 15.3815C20.9703 15.3695 20.9562 15.3575 20.942 15.3455L20.7281 15.5971C20.7241 15.6005 20.7201 15.6039 20.7161 15.6073C20.6503 15.6658 20.593 15.7341 20.5388 15.8036L20.3594 15.6492L20.198 15.8479L19.7987 16.3393C19.758 16.3895 19.7088 16.4503 19.6565 16.5212M27.58 16.9084L27.972 16.1383C27.9719 16.1383 27.9717 16.1382 27.9716 16.1381M27.58 16.9084L27.971 16.1378C27.9712 16.1379 27.9714 16.138 27.9716 16.1381M19.6565 16.5212L19.1657 16.1039L19.7226 15.4457C19.7453 15.4189 19.7598 15.3997 19.783 15.3692C19.8007 15.3457 19.8235 15.3155 19.859 15.2702C19.9221 15.1894 20.0172 15.0723 20.142 14.9614L20.1498 14.9544L20.1579 14.9476C20.6814 14.5046 21.2121 14.0711 21.7372 13.6422C21.85 13.55 21.9625 13.4581 22.0747 13.3664L22.0764 13.365C22.4042 13.0982 22.8075 12.9171 23.2628 12.9171C23.7182 12.9171 24.1215 13.0982 24.4493 13.365L24.4493 13.365C24.6648 13.5405 24.8787 13.7153 25.0918 13.8894C25.6306 14.3298 26.164 14.7659 26.7045 15.1962M19.6565 16.5212L21.1389 20.1914M21.1389 20.1914C21.6443 20.6019 22.2468 20.7519 22.8702 20.6613M23.5552 22.9808C23.5544 23.0021 23.5536 23.0236 23.5529 23.0452L23.5525 23.0557L23.5525 23.0557C23.551 23.1214 23.5536 23.1921 23.5586 23.2625C23.4749 23.185 23.3902 23.1108 23.3044 23.04M23.5552 22.9808C23.4719 23.0005 23.3889 23.0201 23.3044 23.04M22.9452 23.1238C22.9402 23.1249 22.9351 23.1261 22.93 23.1274L22.9375 23.1255L22.9452 23.1238ZM22.9452 23.1238C23.0707 23.0948 23.189 23.0672 23.3044 23.04M23.3044 23.04C22.0321 21.9897 20.5325 21.6692 19.013 21.7236M19.013 21.7236C18.5924 21.7373 18.1444 21.8346 17.8007 21.9095M17.8007 21.9095C17.3064 21.4699 16.7503 21.1646 16.1354 21.0134C15.4176 20.8369 14.6757 20.8843 13.9351 21.0996M13.9351 21.0996L13.9284 21.1015C13.784 21.1433 13.4296 21.246 13.1924 21.57C12.963 21.8834 12.9636 22.243 12.9638 22.3862C12.9638 22.3905 12.9639 22.3947 12.9639 22.3986C12.9639 24.7399 12.9639 27.0753 12.959 29.4155L12.959 29.4173C12.959 29.6266 12.9954 29.8814 13.1403 30.1289C13.2873 30.38 13.4961 30.5389 13.6924 30.6419L13.6928 30.6421C15.104 31.3821 16.5991 31.7559 18.1362 31.8797L18.138 31.8799C20.3551 32.054 22.5066 31.7502 24.5896 31.1958M24.5896 31.1958C26.7248 30.632 28.7691 29.8276 30.715 28.7571L30.7185 28.7552C31.2534 28.4577 31.7015 28.0487 31.8875 27.4678C32.073 26.8888 31.9357 26.3317 31.7283 25.8764M31.7283 25.8764C31.5833 25.5571 31.5498 25.1953 31.4975 24.6311L31.497 24.6255L31.497 24.6255C31.4376 24.0258 31.3076 23.4098 31.0981 22.8247M31.0981 22.8247C30.5511 21.2785 29.9657 19.749 29.3848 18.2312C29.2778 17.9516 29.171 17.6724 29.0645 17.3936L29.0634 17.3907L29.0634 17.3907C28.8756 16.9036 28.5292 16.4212 27.9716 16.1381M27.9716 16.1381C27.6595 15.9791 27.4181 15.7799 27.1019 15.519C26.9827 15.4205 26.8528 15.3133 26.7045 15.1962M26.7045 15.1962C26.7049 15.1965 26.7053 15.1969 26.7058 15.1972L26.1675 15.8733L26.703 15.195C26.7035 15.1954 26.704 15.1958 26.7045 15.1962ZM22.8831 16.3909C22.7767 16.4973 22.7477 16.6279 22.8347 16.7585C22.8614 16.7995 22.8958 16.8361 22.93 16.8725C22.9308 16.8733 22.9316 16.8741 22.9323 16.8749C22.9331 16.8758 22.9339 16.8766 22.9346 16.8774C22.9795 16.9252 23.0233 16.9728 23.0476 17.0294M22.8831 16.3909C22.9895 16.2845 23.1201 16.2603 23.2556 16.3425C23.2897 16.363 23.3227 16.3863 23.3543 16.4121C23.3563 16.4137 23.3582 16.4153 23.3602 16.417C23.4668 16.5055 23.5583 16.6223 23.6292 16.7534C23.6275 16.7601 23.6258 16.7667 23.6239 16.7732L23.3758 16.8835L23.0476 17.0294M22.8831 16.3909L23.0843 16.5921L22.8831 16.3909ZM23.0476 17.0294L23.3794 16.8872L23.4942 17.0019C23.4459 17.0502 23.3421 17.1282 23.1818 17.1513C23.1539 17.1553 23.1268 17.1573 23.1008 17.1576C23.0842 17.113 23.0654 17.0696 23.0476 17.0294Z" stroke="#FF7A00" stroke-width="1.72835"/>
</svg>