<svg xmlns="http://www.w3.org/2000/svg" width="79" height="23" viewBox="0 0 79 23" fill="none">
  <g clip-path="url(#clip0_95_6391)">
    <mask id="mask0_95_6391" style="mask-type:luminance" maskUnits="userSpaceOnUse" x="0" y="0" width="79" height="23">
      <path d="M78.0407 0.839844H0.436523V22.4351H78.0407V0.839844Z" fill="white"/>
    </mask>
    <g mask="url(#mask0_95_6391)">
      <path d="M8.84118 4.30493V10.2088H3.14096V4.30493H0.436523V18.3982H3.14169V12.686H8.84046V18.3982H11.5464V4.30493H8.84118ZM20.2051 13.8431C20.2051 14.408 19.9693 14.9497 19.5495 15.3491C19.1297 15.7486 18.5603 15.973 17.9667 15.973C17.373 15.973 16.8036 15.7486 16.3839 15.3491C15.9641 14.9497 15.7282 14.408 15.7282 13.8431V7.80617H13.1622V13.8431C13.1622 15.0543 13.6678 16.2159 14.568 17.0724C15.4681 17.9289 16.6889 18.4101 17.9619 18.4101C19.2349 18.4101 20.4557 17.9289 21.3558 17.0724C22.256 16.2159 22.7616 15.0543 22.7616 13.8431V7.80617H20.2051V13.8431ZM39.2189 8.42824C39.2189 7.19033 40.0791 6.79813 41.0213 6.79813C41.7813 6.79813 42.7843 7.34848 43.441 8.01584L45.1212 6.13077C44.2822 5.05101 42.5807 4.30493 41.1875 4.30493C38.4033 4.30493 36.39 5.8563 36.39 8.42824C36.39 13.2001 42.5193 11.6856 42.5193 14.3564C42.5193 15.1799 41.6788 15.9071 40.7168 15.9071C39.1991 15.9071 38.7071 15.2015 38.0101 14.4547L36.1447 16.3C37.338 17.6933 38.8096 18.401 40.5718 18.401C43.2169 18.401 45.3445 16.8309 45.3445 14.3759C45.3445 9.07889 39.2145 10.725 39.2145 8.42824H39.2189ZM77.1378 16.1468C75.6219 16.1468 75.1906 15.5226 75.1906 14.5668V10.3348H77.5478V8.19069H75.1906V5.3617L72.5889 6.47281V15.0928C72.5889 17.2976 74.1876 18.4087 76.3799 18.4087C76.7239 18.4143 77.068 18.3878 77.4062 18.3307L78.0406 16.1071C77.7548 16.1259 77.4256 16.1447 77.1378 16.1447V16.1468ZM29.973 7.87648C28.702 7.87648 27.8147 8.2276 26.9567 9.02802V4.38922H24.3869V12.9876C24.3869 16.206 26.8322 18.4115 29.5806 18.4115C32.6291 18.4115 35.3108 16.167 35.3108 13.145C35.3108 10.1607 32.8429 7.87858 29.973 7.87858V7.87648ZM29.9569 15.9503C29.5739 15.9503 29.1946 15.8785 28.8408 15.7391C28.487 15.5996 28.1655 15.3952 27.8947 15.1376C27.6239 14.8799 27.4091 14.574 27.2625 14.2373C27.1159 13.9006 27.0405 13.5398 27.0405 13.1753C27.0405 12.8109 27.1159 12.4501 27.2625 12.1134C27.4091 11.7767 27.6239 11.4708 27.8947 11.2131C28.1655 10.9555 28.487 10.7511 28.8408 10.6116C29.1946 10.4721 29.5739 10.4003 29.9569 10.4003C30.7304 10.4003 31.4721 10.6927 32.0191 11.2131C32.566 11.7335 32.8733 12.4394 32.8733 13.1753C32.8733 13.9113 32.566 14.6171 32.0191 15.1376C31.4721 15.6579 30.7304 15.9503 29.9569 15.9503ZM57.8812 13.0168C57.8812 9.98932 55.2054 7.75041 52.1509 7.75041C49.4034 7.75041 46.9573 9.95521 46.9573 13.1743V21.7776H49.5271V17.1325C50.3836 17.9315 51.2724 18.284 52.5419 18.284C55.4118 18.284 57.8805 16.0019 57.8805 13.0168H57.8812ZM55.4477 12.9862C55.4477 13.7222 55.1404 14.428 54.5935 14.9484C54.0465 15.4689 53.3048 15.7612 52.5313 15.7612C51.7578 15.7612 51.016 15.4689 50.4691 14.9484C49.9221 14.428 49.6149 13.7222 49.6149 12.9862C49.6149 12.2502 49.9221 11.5444 50.4691 11.024C51.016 10.5036 51.7578 10.2112 52.5313 10.2112C53.3048 10.2112 54.0465 10.5036 54.5935 11.024C55.1404 11.5444 55.4477 12.2502 55.4477 12.9862Z" fill="#33475B"/>
      <path d="M66.185 7.63157V5.1746C66.5265 5.02285 66.8156 4.78201 67.0186 4.48011C67.221 4.17821 67.3297 3.82766 67.3316 3.46927V3.41284C67.3316 2.36791 66.4418 1.52082 65.343 1.52082H65.2842C64.7565 1.52082 64.2509 1.72016 63.878 2.07498C63.5051 2.42981 63.2956 2.91105 63.2956 3.41284V3.46927C63.2973 3.82766 63.406 4.17821 63.609 4.48011C63.812 4.78201 64.1008 5.02285 64.4421 5.1746V7.63157C63.4614 7.77448 62.5378 8.16136 61.7648 8.75313L54.683 3.5048C54.7335 3.33134 54.7599 3.153 54.7628 2.97397C54.7636 2.55231 54.6331 2.13988 54.3876 1.78884C54.1421 1.4378 53.7927 1.16393 53.3836 1.00187C52.9745 0.839805 52.524 0.796832 52.0893 0.878385C51.6545 0.959936 51.2549 1.16235 50.941 1.46002C50.6271 1.75769 50.4131 2.13725 50.326 2.55068C50.2388 2.96411 50.2825 3.39284 50.4515 3.78264C50.6205 4.17244 50.9071 4.5058 51.2753 4.74055C51.6434 4.9753 52.0764 5.1009 52.5196 5.10145C52.9073 5.09971 53.2877 5.00123 53.6229 4.81584L60.5963 9.97916C59.9698 10.8797 59.643 11.9389 59.6584 13.0187C59.6738 14.0985 60.0308 15.1488 60.6827 16.0328L58.5617 18.0516C58.3903 17.9994 58.2116 17.9717 58.0317 17.9694C57.6679 17.9697 57.3124 18.0725 57.0101 18.265C56.7077 18.4575 56.4721 18.7309 56.3331 19.0507C56.194 19.3705 56.1577 19.7224 56.2287 20.0619C56.2998 20.4013 56.475 20.7131 56.7322 20.9579C56.9894 21.2026 57.3171 21.3693 57.6738 21.4369C58.0306 21.5045 58.4004 21.47 58.7365 21.3376C59.0727 21.2053 59.36 20.9812 59.5623 20.6934C59.7646 20.4058 59.8726 20.0675 59.873 19.7214C59.8706 19.5502 59.8415 19.3802 59.7866 19.217L61.8848 17.2199C62.569 17.7211 63.3648 18.0666 64.211 18.23C65.0572 18.3934 65.9315 18.3704 66.7671 18.1625C67.6026 17.9548 68.3767 17.5678 69.0305 17.0313C69.685 16.4948 70.201 15.8229 70.5399 15.0672C70.8788 14.3115 71.0314 13.492 70.9861 12.6715C70.9409 11.851 70.699 11.0512 70.2786 10.3335C69.8583 9.61579 69.2704 8.99912 68.561 8.53082C67.8516 8.06246 67.0387 7.75486 66.185 7.63157ZM65.3152 15.7124C64.9278 15.7225 64.5418 15.6586 64.1803 15.5244C63.8189 15.3902 63.4895 15.1885 63.2115 14.9311C62.9334 14.6737 62.7124 14.3659 62.5615 14.0259C62.4105 13.6858 62.3328 13.3205 62.3328 12.9513C62.3328 12.5822 62.4105 12.2168 62.5615 11.8767C62.7124 11.5368 62.9334 11.229 63.2115 10.9715C63.4895 10.7142 63.8189 10.5124 64.1803 10.3782C64.5418 10.244 64.9278 10.1801 65.3152 10.1903C66.0673 10.2153 66.7793 10.5169 67.3019 11.0316C67.8244 11.5462 68.1161 12.2337 68.1167 12.9493C68.1174 13.6648 67.8257 14.3526 67.3038 14.8678C66.7819 15.3829 66.0699 15.6852 65.3184 15.711" fill="#FF7A59"/>
    </g>
  </g>
  <defs>
    <clipPath id="clip0_95_6391">
      <rect width="78.2509" height="22.2304" fill="white" transform="translate(0 0.522217)"/>
    </clipPath>
  </defs>
</svg>