<svg xmlns="http://www.w3.org/2000/svg" width="20" height="20" viewBox="0 0 20 20" fill="none">
  <path fill-rule="evenodd" clip-rule="evenodd" d="M6.22051 0.888252C7.19801 0.843252 7.50967 0.833252 9.99967 0.833252C12.4897 0.833252 12.8013 0.844085 13.778 0.888252C14.7547 0.932419 15.4213 1.08825 16.0047 1.31409C16.6155 1.54492 17.1697 1.90575 17.628 2.37242C18.0947 2.82992 18.4547 3.38325 18.6847 3.99492C18.9113 4.57825 19.0663 5.24492 19.1113 6.21992C19.1563 7.19908 19.1663 7.51075 19.1663 9.99992C19.1663 12.4899 19.1555 12.8016 19.1113 13.7791C19.0672 14.7541 18.9113 15.4208 18.6847 16.0041C18.4547 16.6158 18.0941 17.1701 17.628 17.6283C17.1697 18.0949 16.6155 18.4549 16.0047 18.6849C15.4213 18.9116 14.7547 19.0666 13.7797 19.1116C12.8013 19.1566 12.4897 19.1666 9.99967 19.1666C7.50967 19.1666 7.19801 19.1558 6.22051 19.1116C5.24551 19.0674 4.57884 18.9116 3.99551 18.6849C3.38377 18.4549 2.82952 18.0943 2.37134 17.6283C1.90499 17.1705 1.5441 16.6165 1.31384 16.0049C1.08801 15.4216 0.933008 14.7549 0.888008 13.7799C0.843008 12.8008 0.833008 12.4891 0.833008 9.99992C0.833008 7.50992 0.843841 7.19825 0.888008 6.22158C0.932174 5.24492 1.08801 4.57825 1.31384 3.99492C1.54444 3.38332 1.90561 2.82935 2.37217 2.37159C2.82971 1.90534 3.3834 1.54445 3.99467 1.31409C4.57801 1.08825 5.24467 0.933252 6.21967 0.888252H6.22051ZM13.7038 2.53825C12.7372 2.49409 12.4472 2.48492 9.99967 2.48492C7.55217 2.48492 7.26217 2.49409 6.29551 2.53825C5.40134 2.57909 4.91634 2.72825 4.59301 2.85408C4.16551 3.02075 3.85967 3.21825 3.53884 3.53909C3.23471 3.83496 3.00066 4.19515 2.85384 4.59325C2.72801 4.91658 2.57884 5.40158 2.53801 6.29575C2.49384 7.26242 2.48467 7.55242 2.48467 9.99992C2.48467 12.4474 2.49384 12.7374 2.53801 13.7041C2.57884 14.5983 2.72801 15.0833 2.85384 15.4066C3.00051 15.8041 3.23467 16.1649 3.53884 16.4608C3.83467 16.7649 4.19551 16.9991 4.59301 17.1458C4.91634 17.2716 5.40134 17.4208 6.29551 17.4616C7.26217 17.5058 7.55134 17.5149 9.99967 17.5149C12.448 17.5149 12.7372 17.5058 13.7038 17.4616C14.598 17.4208 15.083 17.2716 15.4063 17.1458C15.8338 16.9791 16.1397 16.7816 16.4605 16.4608C16.7647 16.1649 16.9988 15.8041 17.1455 15.4066C17.2713 15.0833 17.4205 14.5983 17.4613 13.7041C17.5055 12.7374 17.5147 12.4474 17.5147 9.99992C17.5147 7.55242 17.5055 7.26242 17.4613 6.29575C17.4205 5.40158 17.2713 4.91658 17.1455 4.59325C16.9788 4.16575 16.7813 3.85992 16.4605 3.53909C16.1646 3.23498 15.8044 3.00093 15.4063 2.85408C15.083 2.72825 14.598 2.57909 13.7038 2.53825ZM8.82884 12.8258C9.48272 13.0979 10.2108 13.1347 10.8888 12.9297C11.5667 12.7247 12.1525 12.2907 12.546 11.7018C12.9395 11.1129 13.1164 10.4056 13.0464 9.70084C12.9764 8.99603 12.6638 8.3374 12.1622 7.83742C11.8424 7.51782 11.4557 7.27309 11.03 7.12087C10.6042 6.96865 10.15 6.91272 9.70009 6.9571C9.25014 7.00148 8.81563 7.14507 8.42784 7.37753C8.04005 7.60999 7.70863 7.92554 7.45743 8.30146C7.20622 8.67738 7.0415 9.10433 6.9751 9.55155C6.90871 9.99878 6.9423 10.4552 7.07346 10.8878C7.20461 11.3205 7.43007 11.7188 7.73361 12.0539C8.03714 12.3889 8.41119 12.6526 8.82884 12.8258ZM6.66801 6.66825C7.10553 6.23073 7.62494 5.88367 8.19659 5.64689C8.76824 5.4101 9.38093 5.28823 9.99967 5.28823C10.6184 5.28823 11.2311 5.4101 11.8028 5.64689C12.3744 5.88367 12.8938 6.23073 13.3313 6.66825C13.7689 7.10577 14.1159 7.62518 14.3527 8.19683C14.5895 8.76848 14.7114 9.38117 14.7114 9.99992C14.7114 10.6187 14.5895 11.2314 14.3527 11.803C14.1159 12.3747 13.7689 12.8941 13.3313 13.3316C12.4477 14.2152 11.2493 14.7116 9.99967 14.7116C8.75006 14.7116 7.55162 14.2152 6.66801 13.3316C5.78439 12.448 5.28799 11.2495 5.28799 9.99992C5.28799 8.7503 5.78439 7.55186 6.66801 6.66825ZM15.7563 5.98992C15.8648 5.88764 15.9516 5.76465 16.0116 5.62823C16.0716 5.49181 16.1037 5.34473 16.1059 5.19569C16.108 5.04666 16.0803 4.89871 16.0242 4.76059C15.9682 4.62248 15.885 4.49701 15.7796 4.39162C15.6742 4.28622 15.5488 4.20305 15.4107 4.14702C15.2726 4.09098 15.1246 4.06323 14.9756 4.0654C14.8265 4.06758 14.6795 4.09963 14.543 4.15967C14.4066 4.2197 14.2836 4.3065 14.1813 4.41492C13.9824 4.62578 13.8735 4.90585 13.8778 5.19569C13.882 5.48553 13.999 5.76232 14.204 5.96729C14.4089 6.17226 14.6857 6.28928 14.9756 6.2935C15.2654 6.29773 15.5455 6.18883 15.7563 5.98992Z" fill="white"/>
</svg>