<svg width="27" height="27" viewBox="0 0 27 27" fill="none" xmlns="http://www.w3.org/2000/svg">
<path id="Vector" d="M13.1024 0.149414C5.95558 0.149414 0.162109 5.9429 0.162109 13.0897C0.162109 20.2365 5.95558 26.03 13.1024 26.03C20.2492 26.03 26.0427 20.2365 26.0427 13.0897C26.0427 5.9429 20.2492 0.149414 13.1024 0.149414ZM9.93472 18.4532H7.31431V10.0204H9.93472V18.4532ZM8.60834 8.98522C7.7807 8.98522 7.24557 8.39886 7.24557 7.67366C7.24557 6.93364 7.79688 6.36481 8.64204 6.36481C9.4872 6.36481 10.0048 6.93364 10.021 7.67366C10.021 8.39886 9.4872 8.98522 8.60834 8.98522ZM19.5051 18.4532H16.8847V13.7799C16.8847 12.6921 16.5046 11.9534 15.557 11.9534C14.8332 11.9534 14.4032 12.4535 14.2131 12.9347C14.143 13.1059 14.1255 13.3485 14.1255 13.5898V18.4519H11.5037V12.7096C11.5037 11.6569 11.47 10.7766 11.435 10.0191H13.7117L13.8316 11.1905H13.8842C14.2293 10.6405 15.0744 9.82903 16.4884 9.82903C18.2125 9.82903 19.5051 10.9842 19.5051 13.4671V18.4532Z" fill="#FF7A00"/>
</svg>
