<svg xmlns="http://www.w3.org/2000/svg" width="20" height="20" viewBox="0 0 20 20" fill="none">
  <path fill-rule="evenodd" clip-rule="evenodd" d="M0.833008 2.36492C0.833008 1.9587 0.99438 1.56911 1.28162 1.28187C1.56887 0.994626 1.95845 0.833254 2.36467 0.833254H17.633C17.8343 0.832925 18.0337 0.872306 18.2198 0.949143C18.4059 1.02598 18.575 1.13876 18.7174 1.28103C18.8598 1.42331 18.9728 1.59227 19.0498 1.77826C19.1269 1.96425 19.1665 2.16361 19.1663 2.36492V17.6333C19.1666 17.8346 19.1271 18.034 19.0501 18.2201C18.9732 18.4062 18.8604 18.5753 18.718 18.7177C18.5757 18.8601 18.4067 18.973 18.2206 19.0501C18.0346 19.1271 17.8352 19.1667 17.6338 19.1666H2.36467C2.16346 19.1666 1.96422 19.1269 1.77834 19.0499C1.59245 18.9729 1.42357 18.86 1.28133 18.7177C1.13909 18.5754 1.02628 18.4064 0.94936 18.2205C0.872436 18.0346 0.832899 17.8353 0.833008 17.6341V2.36492ZM8.08967 7.82325H10.5722V9.06992C10.9305 8.35325 11.8472 7.70825 13.2247 7.70825C15.8655 7.70825 16.4913 9.13575 16.4913 11.7549V16.6066H13.8188V12.3516C13.8188 10.8599 13.4605 10.0183 12.5505 10.0183C11.288 10.0183 10.763 10.9258 10.763 12.3516V16.6066H8.08967V7.82325ZM3.50634 16.4924H6.17967V7.70825H3.50634V16.4916V16.4924ZM6.56217 4.84325C6.56721 5.07215 6.52648 5.29974 6.44237 5.51268C6.35826 5.72562 6.23247 5.91962 6.07237 6.08328C5.91227 6.24694 5.72109 6.37698 5.51005 6.46576C5.29902 6.55454 5.07237 6.60027 4.84342 6.60027C4.61448 6.60027 4.38783 6.55454 4.1768 6.46576C3.96576 6.37698 3.77458 6.24694 3.61448 6.08328C3.45438 5.91962 3.32859 5.72562 3.24447 5.51268C3.16036 5.29974 3.11963 5.07215 3.12467 4.84325C3.13457 4.39397 3.32 3.96641 3.64125 3.65216C3.9625 3.3379 4.39403 3.16194 4.84342 3.16194C5.29282 3.16194 5.72435 3.3379 6.0456 3.65216C6.36685 3.96641 6.55228 4.39397 6.56217 4.84325Z" fill="white"/>
</svg>