<svg xmlns="http://www.w3.org/2000/svg" width="30" height="30" viewBox="0 0 30 30" fill="none">
  <g clip-path="url(#clip0_0_2223)">
    <path d="M21.252 10.002H8.74805V8.75392C8.74805 5.30275 11.543 2.50197 14.9941 2.50197C17.2676 2.50197 19.3652 3.7383 20.4668 5.72462C20.8008 6.32814 21.5625 6.54494 22.166 6.21095C22.7695 5.87697 22.9863 5.11525 22.6523 4.51173C20.3145 0.281266 14.9883 -1.24803 10.7578 1.09572C7.97461 2.63673 6.24609 5.57228 6.24609 8.75392V10.5352C3.97266 11.5254 2.50195 13.7754 2.49609 16.2539V23.7539C2.50195 27.2051 5.30273 30 8.74805 30H21.2461C24.6973 29.9942 27.4922 27.1992 27.498 23.7481V16.2481C27.498 12.8027 24.6973 10.0078 21.252 10.002ZM20.2734 19.6875C20.1387 19.6289 20.0156 19.5469 19.9102 19.4414L19.5117 19.043L17.4258 21.1289C16.9512 21.5801 16.3301 21.8262 15.6797 21.8262C15.0234 21.8262 14.4023 21.5801 13.9336 21.1289L13.8164 21.0117C13.7754 20.9766 13.7227 20.9531 13.6699 20.9531C13.6172 20.9531 13.5645 20.9766 13.5234 21.0117L10.1074 24.4277C9.88476 24.6445 9.59766 24.7617 9.29297 24.7617C8.98828 24.7617 8.70117 24.6445 8.48438 24.4277C8.03906 23.9824 8.03906 23.2559 8.48438 22.8106L11.918 19.377C12.3926 18.9258 13.0137 18.6738 13.6641 18.6738C14.3203 18.6738 14.9414 18.9199 15.4102 19.377L15.5273 19.4942C15.5684 19.5293 15.6211 19.5527 15.6738 19.5527C15.7266 19.5527 15.7793 19.5293 15.8203 19.4942L17.8887 17.4258L17.4902 17.0274C17.2734 16.8106 17.1562 16.5235 17.1562 16.2188C17.1562 15.5918 17.666 15.0762 18.2988 15.0762H20.373C21.1875 15.0762 21.8496 15.7383 21.8496 16.5527V18.6328C21.8496 18.9317 21.7324 19.2129 21.5215 19.4297C21.3047 19.6524 21.0176 19.7695 20.707 19.7695C20.5547 19.7695 20.4082 19.7402 20.2734 19.6875Z" fill="black"/>
    <path d="M24.9961 23.7539V16.2539C24.9961 14.1855 23.3145 12.5039 21.2461 12.5039H8.74805C6.67969 12.5039 4.99805 14.1855 4.99805 16.2539V23.7539C4.99805 25.8223 6.67969 27.5039 8.74805 27.5039H21.252C23.3203 27.5039 25.002 25.8223 25.002 23.7539H24.9961ZM21.8496 18.6328C21.8496 18.9316 21.7324 19.2129 21.5215 19.4297C21.3047 19.6523 21.0176 19.7695 20.707 19.7695C20.5547 19.7695 20.4082 19.7402 20.2734 19.6816C20.1387 19.623 20.0156 19.541 19.9102 19.4355L19.5117 19.043L17.4258 21.1289C16.9512 21.5801 16.3301 21.8262 15.6797 21.8262C15.0234 21.8262 14.4023 21.5801 13.9336 21.1289L13.8164 21.0117C13.7754 20.9766 13.7227 20.9531 13.6699 20.9531C13.6172 20.9531 13.5645 20.9766 13.5234 21.0117L10.1074 24.4277C9.88477 24.6445 9.59766 24.7617 9.29297 24.7617C8.98828 24.7617 8.70117 24.6445 8.48438 24.4277C8.03906 23.9824 8.03906 23.2559 8.48438 22.8105L11.918 19.377C12.3926 18.9258 13.0137 18.6738 13.6641 18.6738C14.3203 18.6738 14.9414 18.9199 15.4102 19.377L15.5273 19.4941C15.5684 19.5293 15.6211 19.5527 15.6738 19.5527C15.7266 19.5527 15.7793 19.5293 15.8203 19.4941L17.8887 17.4258L17.4902 17.0273C17.2734 16.8105 17.1562 16.5234 17.1562 16.2187C17.1562 15.5918 17.666 15.0762 18.2988 15.0762H20.373C21.1875 15.0762 21.8496 15.7383 21.8496 16.5527V18.6328Z" fill="#FA7700"/>
  </g>
  <defs>
    <clipPath id="clip0_0_2223">
      <rect width="30" height="30" fill="white"/>
    </clipPath>
  </defs>
</svg>