<svg xmlns="http://www.w3.org/2000/svg" width="27" height="26" viewBox="0 0 27 26" fill="none">
  <g clip-path="url(#clip0_54_210)">
    <path d="M8.40271 21.2238C8.14219 21.2238 7.89671 21.1236 7.71134 20.9383C7.33059 20.5575 7.33059 19.9363 7.71134 19.5555L10.6471 16.6198C11.0529 16.234 11.584 16.0186 12.1401 16.0186C12.7012 16.0186 13.2322 16.229 13.633 16.6198L13.7332 16.72C13.7683 16.75 13.8134 16.7701 13.8585 16.7701C13.9036 16.7701 13.9486 16.75 13.9837 16.72L15.7522 14.9515L15.4115 14.6108C15.2262 14.4254 15.126 14.1799 15.126 13.9194C15.126 13.3834 15.5618 12.9425 16.1029 12.9425H17.8764C18.5728 12.9425 19.1389 13.5086 19.1389 14.205V15.9835C19.1389 16.239 19.0387 16.4795 18.8583 16.6648C18.673 16.8552 18.4275 16.9554 18.162 16.9554C17.9065 16.9554 17.661 16.8552 17.4806 16.6749L17.1399 16.3342L15.3564 18.1177C14.9506 18.5035 14.4196 18.7139 13.8635 18.7139C13.3024 18.7139 12.7713 18.5035 12.3705 18.1177L12.2703 18.0175C12.2353 17.9875 12.1902 17.9674 12.1451 17.9674C12.1 17.9674 12.0549 17.9875 12.0198 18.0175L9.09908 20.9383C8.90871 21.1236 8.66322 21.2238 8.40271 21.2238Z" fill="black"/>
    <path d="M18.6304 8.60395H7.93929V7.53684C7.93929 4.58602 10.329 2.1913 13.2798 2.1913C15.2237 2.1913 17.0172 3.24838 17.9591 4.94673C18.2446 5.46275 18.8959 5.64812 19.4119 5.36255C19.9279 5.07699 20.1133 4.42571 19.8277 3.90969C17.8288 0.292553 13.2748 -1.01503 9.65768 0.988927C7.27799 2.30653 5.80007 4.81648 5.80007 7.53684V9.05985C3.85624 9.90652 2.59876 11.8303 2.59375 13.9495V20.3621C2.59876 23.313 4.99348 25.7027 7.93929 25.7027H18.6254C21.5762 25.6977 23.9659 23.308 23.9709 20.3571V13.9445C23.9709 10.9987 21.5762 8.60896 18.6304 8.60395ZM21.8367 20.3621C21.8367 22.1306 20.3989 23.5685 18.6304 23.5685H7.93929C6.17081 23.5685 4.73297 22.1306 4.73297 20.3621V13.9495C4.73297 12.181 6.17081 10.7432 7.93929 10.7432H18.6254C20.3939 10.7432 21.8317 12.181 21.8317 13.9495V20.3621H21.8367Z" fill="black"/>
  </g>
  <defs>
    <clipPath id="clip0_54_210">
      <rect width="25.6506" height="25.6506" fill="white" transform="translate(0.457031 0.052124)"/>
    </clipPath>
  </defs>
</svg>