<?xml version="1.0" encoding="utf-8"?>
<!-- Generator: Adobe Illustrator 27.2.0, SVG Export Plug-In . SVG Version: 6.00 Build 0)  -->
<svg version="1.1" id="Layer_1" xmlns="http://www.w3.org/2000/svg" xmlns:xlink="http://www.w3.org/1999/xlink" x="0px" y="0px"
	 viewBox="0 0 166.3 37.9" style="enable-background:new 0 0 166.3 37.9;" xml:space="preserve">
<style type="text/css">
	.st0{fill:#FF7A00;}
</style>
<g>
	<path d="M15.1,9.1c0.9,1,0.8,2.6-0.3,3.5c0,0,0,0-0.1,0c-1,0.9-2.6,0.8-3.6-0.3c-0.4-0.5-0.6-1.1-0.5-1.7c0.1-0.8-2.9,0.3-4.3,3.4
		v11.3c0,2.5,0.2,3.2,1.9,3.6v0.6H0.5v-0.6c1.7-0.5,1.8-1.3,1.8-3.6V12.7c0-1.6-0.4-2.2-2.3-2.7V9.4l6.3-1.3v4.8
		c1.7-3.1,4.3-4.4,6.1-4.6C13.3,8.1,14.5,8.4,15.1,9.1z"/>
	<path d="M36,24.2c-0.5,2.1-3,5.8-8.4,5.7c-5.7,0-9.7-4.7-9.7-10.7c0-6.7,4.3-11.1,9.9-11.1c5.3,0,8.9,3.4,8.9,10.5H22.1
		c0.2,6.1,2.9,8.6,6.5,9c2.7,0.3,6-1.4,6.8-3.6L36,24.2z M32.8,18c0-6.6-2.9-9.3-5.1-9.3c-2.6,0-5.5,3.6-5.5,9.3H32.8z"/>
	<path d="M69.8,27.1c-0.7,0.2-1.3,0.5-1.8,0.9c-0.4,0.4-0.8,1-0.9,1.6h-3.2v-0.5c1.7-0.5,1.8-1.4,1.8-3.7v-9.8
		c0-3.3-1.2-5.1-4.1-5.1c-2.3,0-4.2,2.3-4.2,4v1.1v9.8c0,2.5,0.2,3.3,1.9,3.7v0.5h-7.6V29c1.7-0.5,1.8-1.4,1.8-3.7v-9.8
		c0-3.3-1.2-5.1-4.1-5.1c-2.3,0-4,2.4-4.3,3.9v11.1c0,2.5,0.2,3.2,1.9,3.6v0.6h-7.6V29c1.7-0.5,1.8-1.3,1.8-3.6V12.9
		c0-1.6-0.4-2.4-2.3-2.9V9.4l6.3-1.3v4.7c1-2.6,3.6-4.7,6.4-4.7c3.2,0,5.2,1.5,5.8,4.9c0.8-2.7,3.6-4.9,6.5-4.8c3.7,0,6,1.8,5.9,7.3
		v9.9C69.8,26.1,69.8,26.6,69.8,27.1z"/>
	<path class="st0" d="M85,30.1c-6.9,0-10.5-5-10.5-10.9c0-6,3.6-10.9,10.5-10.9c7,0,10.4,5,10.4,10.9C95.4,25.2,91.9,30.1,85,30.1z
		 M85,8.9c-3.5,0-5.9,2.1-5.9,10.3s2.3,10.3,5.8,10.3s5.8-2.1,5.8-10.3C90.8,11,88.5,8.9,85,8.9z"/>
	<path d="M109.9,26.2c-0.6,2-2.7,3.9-5.3,3.9c-0.6,0-1.2,0-1.7-0.2c-0.2-0.8-0.5-1.4-1-1.9s-1.3-0.9-2.1-1c-0.3-1-0.5-2.3-0.5-3.9
		V9.2H97l-0.1-0.6h2.4v-8l4-0.6v8.6h5.4l-0.1,0.6h-5.3v13.7c0,3.6,1.3,4.9,3.4,4.9c1.3,0,2.4-0.9,2.8-1.9L109.9,26.2z"/>
	<path d="M134.2,29.3l-5.2,0.9c-1.1,0.2-1.1-0.7-1.1-0.7v-3.9c-0.8,2.4-3.8,4.6-6.8,4.6c-3.3,0-6.5-1.2-6.5-6.9V13.1
		c0-2.9,0.1-3.1-2.5-3.3V9.2l6.5-0.9v14.8c0,3.5,2,4.8,4.7,4.8c2.3,0,3.9-1.6,4.7-3.5V13c0-2.8,0.1-3.1-2.1-3.2V9.2l6.1-0.9v17.6
		c0,2.2,0.4,2.5,2.3,2.7L134.2,29.3z"/>
	<path d="M155.5,26.9l0.5,0.2c-0.3,1.4-1.8,3.1-4.2,3.1c0,0-3.6,0.1-3.9-3.8c-0.6,2.2-3.3,3.8-6.5,3.8c0,0-5.2,0-5.2-4.7
		c0-4.5,3.9-5.5,11.7-7.5v-2.6c0-4.7-2.4-7.3-6-5.6c-1.8,0.9-2.1,1.7-1.8,1.8c0.6,0.1,1,0.3,1.4,0.8c0.7,0.9,0.5,2.3-0.5,3
		c-0.9,0.7-2.1,0.6-2.8-0.3l-0.1-0.1c-0.5-0.7-0.6-1.6-0.2-2.2c0.3-0.7,1.1-2,3.6-3.4c2-1,4.2-0.9,4.2-0.9c5,0,6.3,3.7,6.3,9.1v7.7
		c0,0,0,2.9,2,2.9C154.2,28.1,155.2,28.1,155.5,26.9z M140.4,24.6c0,1.3,0.8,3.6,3.6,3.6c2.4,0,3.6-1.7,4-2.8v-6.8
		C142.8,19.8,140.5,21.8,140.4,24.6z"/>
	<path d="M166.3,29.8h-7.6v-0.6c1.7-0.5,1.8-1.3,1.8-3.6l0.1-21.1c0-1.6-0.4-2.2-2.3-2.6V1.3l6.3-1.2l-0.1,25.5
		c0,2.5,0.2,3.2,1.8,3.6V29.8z"/>
	<path class="st0" d="M71.1,30.2c4.2,2.5,9,4.2,13.9,4.2s9.7-1.7,14-4.2c0.2-0.1,0.5-0.1,0.6,0.1c0.1,0.1,0.1,0.3,0,0.4
		c-0.4,0.6-0.8,1.1-1.3,1.6C93.9,37,87,38.9,80.8,37.4c-3.8-0.9-7.3-2.9-9.7-5.9c-0.2-0.3-0.4-0.5-0.6-0.9
		C70.1,30.5,70.7,29.9,71.1,30.2z"/>
	<path class="st0" d="M100.9,31.4c-0.2,0-0.4-0.2-0.4-0.4c0-0.6-0.1-1-0.4-1.3s-0.7-0.4-1.4-0.4c-0.2,0-0.4-0.2-0.4-0.4
		s0.2-0.4,0.4-0.4c0.9,0,1.5,0.2,1.9,0.6c0.4,0.4,0.6,1,0.6,1.8C101.3,31.3,101.2,31.4,100.9,31.4z"/>
	<path class="st0" d="M69,31.4c-0.2,0-0.4-0.2-0.4-0.4c0-0.8,0.2-1.4,0.6-1.8c0.4-0.4,1.1-0.6,1.9-0.6c0.2,0,0.4,0.2,0.4,0.4
		s-0.2,0.4-0.4,0.4c-0.6,0-1.1,0.1-1.4,0.4c-0.3,0.2-0.4,0.7-0.4,1.3C69.4,31.3,69.2,31.4,69,31.4z"/>
</g>
</svg>
