<svg xmlns="http://www.w3.org/2000/svg" width="173" height="48" viewBox="0 0 173 48" fill="none">
  <path d="M18.3909 13.9066C19.2833 14.9501 19.1599 16.5058 18.125 17.3975C18.106 17.4165 18.087 17.426 18.068 17.445C17.0236 18.3082 15.476 18.2133 14.5171 17.1224C14.1088 16.6197 13.881 15.9841 14.0234 15.396C14.1563 14.6276 11.1085 15.709 9.69386 18.7541L9.66538 30.071C9.66538 32.6133 9.88375 33.2963 11.5263 33.7137V34.3019L3.83573 34.2829V33.6948C5.56373 33.2015 5.65868 32.4236 5.65868 30.0616L5.68716 17.4734C5.68716 15.8797 5.2789 15.2442 3.41797 14.7414V14.1912L9.70335 12.8916L9.69386 17.6631C11.3839 14.5707 13.9759 13.2616 15.7988 13.0434C16.6154 12.939 17.7547 13.1762 18.3909 13.9066Z" fill="white"/>
  <path d="M39.2509 28.9897C38.7477 31.1241 36.2316 34.7573 30.8672 34.7384C25.18 34.7289 21.1448 29.9953 21.1543 23.9905C21.1638 17.2648 25.4553 12.9107 31.0951 12.9202C36.3741 12.9297 40.001 16.3067 39.9915 23.4403L25.4363 23.4119C25.6073 29.5494 28.3322 32.0063 31.9211 32.3763C34.6461 32.6514 37.8837 30.9818 38.7097 28.7526L39.2509 28.9897ZM36.0797 22.8427C36.0892 16.2119 33.1459 13.5178 30.9622 13.5178C28.3702 13.5083 25.4553 17.0941 25.4363 22.8237L36.0797 22.8427Z" fill="white"/>
  <path d="M73.136 31.9019C72.4239 32.0631 71.8257 32.3762 71.351 32.841C70.9142 33.2679 70.6009 33.7991 70.4205 34.4157L67.2683 34.4062V33.8655C68.9963 33.3722 69.0913 32.509 69.0913 30.1849L69.1103 20.4141C69.1198 17.1414 67.895 15.2726 64.9801 15.2726C62.7015 15.2726 60.7931 17.5778 60.7836 19.2663V20.3572L60.7646 30.1659C60.7551 32.6703 60.9829 33.4386 62.6255 33.856V34.3967L54.9824 34.3778V33.8276C56.7104 33.3343 56.8053 32.4711 56.8053 30.1469L56.8243 20.3762C56.8338 17.1035 55.609 15.2347 52.6942 15.2347C50.4155 15.2252 48.735 17.5873 48.4122 19.1335L48.3932 30.1849C48.3837 32.6892 48.6116 33.3628 50.2541 33.7801V34.3683L42.611 34.3493V33.7707C44.339 33.2774 44.3865 32.4995 44.396 30.1849L44.4245 17.6821C44.4245 16.0884 44.0637 15.3201 42.1553 14.8173V14.2671L48.4407 12.958L48.4312 17.6347C49.4376 15.045 51.9916 12.958 54.859 12.9675C58.0396 12.977 60.0905 14.4284 60.6696 17.8434C61.4956 15.1683 64.2301 12.9865 67.1354 12.996C70.8668 13.0054 73.0885 14.7794 73.079 20.2813L73.06 30.1849C73.06 30.8774 73.079 31.4465 73.136 31.9019Z" fill="white"/>
  <path d="M88.261 34.8712C81.349 34.8428 77.7695 29.8815 77.798 23.9242C77.8265 17.9289 81.4344 13.0341 88.3465 13.053C95.3059 13.0815 98.7904 18.0048 98.7715 24.0001C98.743 29.9574 95.2205 34.8997 88.261 34.8712ZM88.337 13.6507C84.8335 13.6412 82.4598 15.7186 82.4314 23.9432C82.4029 32.1677 84.7575 34.2641 88.261 34.2736C91.717 34.2831 94.0432 32.2056 94.0812 23.9811C94.1191 15.7566 91.793 13.6696 88.337 13.6507Z" fill="#FF7A00"/>
  <path d="M113.241 31.0102C112.595 33.0118 110.554 34.909 107.914 34.909C107.307 34.909 106.747 34.8616 106.224 34.7383C106.063 33.9794 105.721 33.3438 105.209 32.8505C104.667 32.3193 103.955 31.9873 103.12 31.8545C102.787 30.8679 102.607 29.5873 102.607 27.9462L102.636 14.0869L100.319 14.0774L100.233 13.4893L102.645 13.4988L102.664 5.53038L106.623 4.9043L106.604 13.5082L112.016 13.5177L111.874 14.1059L106.595 14.0964L106.566 27.8229C106.557 31.4561 107.877 32.6893 110.013 32.6893C111.333 32.6893 112.424 31.7407 112.795 30.7826L113.241 31.0102Z" fill="white"/>
  <path d="M137.529 34.0648L132.345 34.9186C131.253 35.1463 131.253 34.2356 131.253 34.2356L131.262 30.3747C130.436 32.7842 127.474 34.9565 124.426 34.9471C121.15 34.9376 117.922 33.7518 117.932 28.0696L117.951 17.8435C117.96 14.9312 118.008 14.7131 115.406 14.5233V13.9731L121.863 13.1194L121.834 27.9368C121.825 31.3897 123.866 32.7178 126.505 32.7178C128.784 32.7178 130.417 31.1336 131.243 29.2269L131.272 17.7771C131.281 15.0071 131.367 14.6846 129.145 14.5423V14.0016L135.24 13.1478L135.202 30.7826C135.202 32.9644 135.611 33.2395 137.519 33.4672L137.529 34.0648Z" fill="white"/>
  <path d="M158.844 31.7027L159.385 31.9303C159.11 33.2963 157.562 35.0133 155.198 35.0133C155.198 35.0133 151.6 35.0987 151.343 31.1904C150.698 33.3722 148.058 35.0038 144.878 34.9944C144.878 34.9944 139.694 34.9849 139.703 30.2987C139.713 25.7548 143.577 24.7588 151.362 22.7762L151.372 20.139C151.381 15.4529 149.017 12.8157 145.381 14.4948C143.605 15.358 143.33 16.2212 143.605 16.2592C144.156 16.354 144.65 16.5817 145.011 17.075C145.704 18.0141 145.495 19.3422 144.555 20.0252C143.691 20.7177 142.419 20.5849 141.725 19.7121C141.697 19.6742 141.669 19.6457 141.65 19.6078C141.146 18.9248 141.061 18.0141 141.431 17.3786C141.754 16.6955 142.523 15.339 144.982 14.0204C146.938 13.0244 149.169 13.1667 149.169 13.1667C154.125 13.1762 155.483 16.8568 155.474 22.2734L155.455 29.9952C155.455 29.9952 155.407 32.86 157.496 32.86C157.477 32.8789 158.531 32.8884 158.844 31.7027ZM143.748 29.3501C143.748 30.6687 144.564 32.9453 147.337 32.9453C149.748 32.9548 150.888 31.2284 151.343 30.1374C151.343 30.09 151.353 23.3643 151.353 23.3643C146.083 24.6355 143.757 26.6276 143.748 29.3501Z" fill="white"/>
  <path d="M169.582 34.6339L161.939 34.615V34.0268C163.667 33.5335 163.762 32.7557 163.762 30.4411L163.819 9.30588C163.819 7.7122 163.411 7.07663 161.55 6.70667V6.11853L167.826 4.9043L167.759 30.4505C167.75 32.9549 167.978 33.6284 169.573 34.0458L169.582 34.6339Z" fill="white"/>
  <path d="M74.3807 35.0325C78.5868 37.5464 83.372 39.2728 88.3092 39.2633C93.2463 39.2823 98.0506 37.5843 102.266 35.061C102.466 34.9187 102.76 34.9756 102.883 35.1938C102.969 35.3361 102.959 35.5068 102.874 35.6396C102.485 36.2468 102.048 36.7685 101.573 37.2713C97.1961 41.929 90.2556 43.9021 84.0461 42.4128C80.2863 41.5211 76.7828 39.5005 74.3142 36.5218C74.0959 36.2467 73.8965 35.9811 73.6876 35.6681C73.4217 35.2507 73.9534 34.7384 74.3807 35.0325Z" fill="#FF7A00"/>
  <path d="M104.25 36.2467C104.041 36.2467 103.87 36.076 103.87 35.8673C103.87 35.2696 103.747 34.8617 103.49 34.6151C103.215 34.3495 102.778 34.2357 102.123 34.2546C101.914 34.2641 101.743 34.0934 101.734 33.8847C101.724 33.676 101.895 33.5052 102.104 33.4957C102.968 33.4768 103.595 33.657 104.012 34.0744C104.421 34.4728 104.62 35.061 104.62 35.8673C104.63 36.076 104.459 36.2467 104.25 36.2467Z" fill="#FF7A00"/>
  <path d="M72.3104 36.2467C72.1016 36.2467 71.9307 36.076 71.9307 35.8673C71.9307 35.061 72.1301 34.4728 72.5383 34.0744C72.9656 33.657 73.5922 33.4768 74.4467 33.4957C74.6556 33.5052 74.817 33.676 74.817 33.8847C74.8075 34.0934 74.6366 34.2641 74.4277 34.2546C73.7821 34.2357 73.3359 34.359 73.0605 34.6151C72.8042 34.8617 72.6807 35.2696 72.6807 35.8673C72.6902 36.076 72.5193 36.2467 72.3104 36.2467Z" fill="#FF7A00"/>
</svg>