<svg width="27" height="27" viewBox="0 0 27 27" fill="none" xmlns="http://www.w3.org/2000/svg">
<path id="Subtract" fill-rule="evenodd" clip-rule="evenodd" d="M0.130859 13.0897C0.130859 5.9429 5.92433 0.149414 13.0711 0.149414C20.218 0.149414 26.0114 5.9429 26.0114 13.0897C26.0114 20.2365 20.218 26.03 13.0711 26.03C5.92433 26.03 0.130859 20.2365 0.130859 13.0897ZM6.2498 7.59975C6.71325 7.14473 7.34181 6.8891 7.99723 6.8891H17.8822C18.5376 6.8891 19.1661 7.14473 19.6296 7.59975C20.093 8.05477 20.3534 8.67191 20.3534 9.31541V9.56047L12.9397 13.479L5.52599 9.55926V9.31541C5.52599 8.67191 5.78635 8.05477 6.2498 7.59975ZM13.2325 14.7018L20.3534 10.9374V16.5943C20.3534 17.2378 20.093 17.855 19.6296 18.31C19.1661 18.765 18.5376 19.0206 17.8822 19.0206H7.99723C7.34181 19.0206 6.71325 18.765 6.2498 18.31C5.78635 17.855 5.52599 17.2378 5.52599 16.5943V10.9374L12.6469 14.7018C12.7369 14.7494 12.8375 14.7743 12.9397 14.7743C13.0419 14.7743 13.1425 14.7494 13.2325 14.7018Z" fill="#FF7A00"/>
</svg>
