<svg xmlns="http://www.w3.org/2000/svg" width="35" height="35" viewBox="0 0 35 35" fill="none">
  <circle cx="17.1204" cy="17.5721" r="16.9944" fill="#FF7A00"/>
  <path d="M22.4874 14.2245L24.2441 15.9812L26.0008 14.2245C26.1154 14.1058 26.2524 14.0112 26.404 13.9461C26.5556 13.881 26.7186 13.8467 26.8836 13.8453C27.0485 13.8438 27.2121 13.8753 27.3648 13.9377C27.5175 14.0002 27.6562 14.0924 27.7728 14.2091C27.8895 14.3257 27.9817 14.4645 28.0442 14.6171C28.1067 14.7698 28.1381 14.9334 28.1367 15.0984C28.1352 15.2633 28.101 15.4263 28.0359 15.5779C27.9707 15.7295 27.8761 15.8666 27.7574 15.9812L26.0008 17.7379L27.7574 19.4946C27.9906 19.7275 28.1216 20.0435 28.1217 20.3731C28.1218 20.7026 27.991 21.0187 27.7581 21.2519C27.5251 21.485 27.2091 21.616 26.8795 21.6161C26.55 21.6162 26.2339 21.4854 26.0008 21.2525L24.2441 19.4946L22.4874 21.2525C22.2543 21.4854 21.9382 21.6162 21.6086 21.6161C21.279 21.616 20.963 21.485 20.7301 21.2519C20.4971 21.0187 20.3663 20.7026 20.3664 20.3731C20.3666 20.0435 20.4976 19.7275 20.7307 19.4946L22.4874 17.7379L20.7307 15.9812C20.612 15.8666 20.5174 15.7295 20.4523 15.5779C20.3872 15.4263 20.3529 15.2633 20.3515 15.0984C20.35 14.9334 20.3815 14.7698 20.4439 14.6171C20.5064 14.4645 20.5986 14.3257 20.7153 14.2091C20.8319 14.0924 20.9707 14.0002 21.1233 13.9377C21.276 13.8753 21.4396 13.8438 21.6046 13.8453C21.7695 13.8467 21.9325 13.881 22.0841 13.9461C22.2357 14.0112 22.3728 14.1058 22.4874 14.2245Z" fill="white"/>
  <path fill-rule="evenodd" clip-rule="evenodd" d="M9.17025 13.8448H11.655L14.7385 10.7613C15.0457 10.4542 15.437 10.2451 15.863 10.1603C16.289 10.0756 16.7306 10.1191 17.1319 10.2853C17.5332 10.4516 17.8762 10.733 18.1176 11.0942C18.3589 11.4553 18.4878 11.8799 18.4879 12.3142V22.8295C18.4878 23.2639 18.3589 23.6885 18.1176 24.0496C17.8762 24.4107 17.5332 24.6922 17.1319 24.8584C16.7306 25.0246 16.289 25.0681 15.863 24.9834C15.437 24.8987 15.0457 24.6895 14.7385 24.3824L11.655 21.2989H9.17025C8.51127 21.2989 7.87927 21.0371 7.4133 20.5712C6.94733 20.1052 6.68555 19.4732 6.68555 18.8142V16.3295C6.68555 15.6705 6.94733 15.0385 7.4133 14.5726C7.87927 14.1066 8.51127 13.8448 9.17025 13.8448Z" fill="white"/>
</svg>