<svg width="22" height="21" viewBox="0 0 22 21" fill="none" xmlns="http://www.w3.org/2000/svg">
<path d="M15.3374 16.9243H15.0216L14.7796 17.1271L11.5515 19.8328L11.5395 19.8429L11.5278 19.8534C11.3928 19.9752 11.2147 20.0417 11.0255 20.0417C10.8334 20.0417 10.6405 19.9733 10.4849 19.8333L10.4765 19.8257L10.4679 19.8184L7.32295 17.1323L7.07935 16.9243H6.75899H4.30694C2.94749 16.9243 1.81979 15.7983 1.81979 14.3894V4.17943C1.81979 2.77048 2.94749 1.6445 4.30694 1.6445H17.729C19.0888 1.6445 20.217 2.77076 20.217 4.17943V14.3894C20.217 15.7983 19.0893 16.9243 17.7299 16.9243H15.3374Z" stroke="#FF7A00" stroke-width="1.73675"/>
<path d="M7.82716 9.75202C7.82716 10.5913 7.14678 11.2717 6.3075 11.2717C5.46822 11.2717 4.78784 10.5913 4.78784 9.75202C4.78784 8.91273 5.46822 8.23236 6.3075 8.23236C7.14678 8.23236 7.82716 8.91273 7.82716 9.75202Z" fill="#FF7A00"/>
<path d="M12.3861 9.75202C12.3861 10.5913 11.7058 11.2717 10.8665 11.2717C10.0272 11.2717 9.34681 10.5913 9.34681 9.75202C9.34681 8.91273 10.0272 8.23236 10.8665 8.23236C11.7058 8.23236 12.3861 8.91273 12.3861 9.75202Z" fill="#FF7A00"/>
<path d="M16.9451 9.75202C16.9451 10.5913 16.2647 11.2717 15.4254 11.2717C14.5862 11.2717 13.9058 10.5913 13.9058 9.75202C13.9058 8.91273 14.5862 8.23236 15.4254 8.23236C16.2647 8.23236 16.9451 8.91273 16.9451 9.75202Z" fill="#FF7A00"/>
</svg>
