<svg width="24" height="24" viewBox="0 0 24 24" fill="none" xmlns="http://www.w3.org/2000/svg">
<path d="M17.1505 19.3746H16.7868L16.5081 19.6082L12.7908 22.724L12.7769 22.7356L12.7635 22.7478C12.608 22.888 12.403 22.9646 12.1851 22.9646C11.9638 22.9646 11.7417 22.8858 11.5625 22.7246L11.5528 22.7159L11.543 22.7074L7.92129 19.6142L7.64076 19.3746H7.27184H4.44812C2.88262 19.3746 1.58398 18.078 1.58398 16.4555V4.69798C1.58398 3.07546 2.88262 1.77881 4.44812 1.77881H19.9047C21.4705 1.77881 22.7698 3.07579 22.7698 4.69798V16.4555C22.7698 18.078 21.4711 19.3746 19.9056 19.3746H17.1505Z" stroke="black" stroke-width="2"/>
<path d="M8.50195 11.1152C8.50195 12.0817 7.71845 12.8652 6.75195 12.8652C5.78545 12.8652 5.00195 12.0817 5.00195 11.1152C5.00195 10.1487 5.78545 9.36523 6.75195 9.36523C7.71845 9.36523 8.50195 10.1487 8.50195 11.1152Z" fill="#222222"/>
<path d="M13.752 11.1152C13.752 12.0817 12.9685 12.8652 12.002 12.8652C11.0355 12.8652 10.252 12.0817 10.252 11.1152C10.252 10.1487 11.0355 9.36523 12.002 9.36523C12.9685 9.36523 13.752 10.1487 13.752 11.1152Z" fill="#222222"/>
<path d="M19.002 11.1152C19.002 12.0817 18.2185 12.8652 17.252 12.8652C16.2855 12.8652 15.502 12.0817 15.502 11.1152C15.502 10.1487 16.2855 9.36523 17.252 9.36523C18.2185 9.36523 19.002 10.1487 19.002 11.1152Z" fill="#222222"/>
</svg>
