<svg width="22" height="14" viewBox="0 0 22 14" fill="none" xmlns="http://www.w3.org/2000/svg">
<path d="M5.14575 13.4521H11.8571C14.17 13.4521 16.0516 11.6028 16.0516 9.32983V4.38312C16.0516 2.11011 14.17 0.260864 11.8571 0.260864H5.14575C2.83286 0.260864 0.951172 2.11011 0.951172 4.38312V9.32983C0.951172 11.6028 2.83286 13.4521 5.14575 13.4521ZM21.0851 3.81672V9.85088C21.0851 10.475 20.7328 11.0356 20.1649 11.3143C19.9274 11.4305 19.6724 11.4882 19.4191 11.4882C19.0659 11.4882 18.7169 11.3769 18.4216 11.1593C18.3905 11.1362 17.7295 10.4915 17.7295 10.4915V3.18272C17.7295 3.18272 18.3889 2.53223 18.4216 2.50832C18.9283 2.13402 19.5952 2.07383 20.1649 2.35332C20.7345 2.63281 21.0851 3.19261 21.0851 3.81672Z" fill="#FF7A00"/>
</svg>
