<svg width="24" height="24" viewBox="0 0 24 24" fill="none" xmlns="http://www.w3.org/2000/svg">
<path d="M18.9384 0.221275H5.41338C2.74701 0.221275 0.583008 2.38528 0.583008 5.05165V18.5767C0.583008 21.2431 2.74701 23.4071 5.41338 23.4071H18.9384C21.6048 23.4071 23.7688 21.2431 23.7688 18.5767V5.05165C23.7688 2.38528 21.6048 0.221275 18.9384 0.221275ZM6.37946 5.05165H12.1759C12.7072 5.05165 13.142 5.48638 13.142 6.01772C13.142 6.54906 12.7072 6.9838 12.1759 6.9838H6.37946C5.84811 6.9838 5.41338 6.54906 5.41338 6.01772C5.41338 5.48638 5.84811 5.05165 6.37946 5.05165ZM6.37946 8.91595H15.0741C15.6055 8.91595 16.0402 9.35068 16.0402 9.88202C16.0402 10.4134 15.6055 10.8481 15.0741 10.8481H6.37946C5.84811 10.8481 5.41338 10.4134 5.41338 9.88202C5.41338 9.35068 5.84811 8.91595 6.37946 8.91595ZM9.27768 18.5767H6.37946C5.84811 18.5767 5.41338 18.142 5.41338 17.6106C5.41338 17.0793 5.84811 16.6445 6.37946 16.6445H9.27768C9.80902 16.6445 10.2438 17.0793 10.2438 17.6106C10.2438 18.142 9.80902 18.5767 9.27768 18.5767ZM17.9724 14.7124H6.37946C5.84811 14.7124 5.41338 14.2777 5.41338 13.7463C5.41338 13.215 5.84811 12.7802 6.37946 12.7802H17.9724C18.5037 12.7802 18.9384 13.215 18.9384 13.7463C18.9384 14.2777 18.5037 14.7124 17.9724 14.7124Z" fill="#FF7A00"/>
</svg>
