<svg width="24" height="16" viewBox="0 0 24 16" fill="none" xmlns="http://www.w3.org/2000/svg">
<path d="M20.9055 11.6999C20.9322 11.7259 20.9595 11.7523 20.9868 11.7789C21.0839 11.873 21.1809 11.9669 21.2554 12.0384C21.2864 12.0682 21.3124 12.093 21.3322 12.1118C21.4901 12.2174 21.6698 12.27 21.8512 12.27C21.9907 12.27 22.1339 12.2383 22.2701 12.1716L20.9055 11.6999ZM20.9055 11.6999V4.1245C20.9331 4.09734 20.9615 4.06954 20.9899 4.04167C21.0868 3.94669 21.1836 3.85212 21.2579 3.78012C21.2883 3.75064 21.3137 3.72619 21.3332 3.7076C21.6099 3.52244 21.9611 3.4969 22.2695 3.6482C22.588 3.80449 22.7698 4.10401 22.7698 4.43566V11.3845C22.7698 11.7152 22.587 12.0158 22.2702 12.1716L20.9055 11.6999ZM21.3612 12.139C21.37 12.1468 21.3718 12.1488 21.3627 12.1404L21.3612 12.139ZM21.3632 3.67917C21.3723 3.67086 21.3704 3.67295 21.3613 3.68101L21.3632 3.67917ZM13.143 14.5315H5.41436C3.28671 14.5315 1.58398 12.8334 1.58398 10.7844V5.08791C1.58398 3.03897 3.28671 1.34082 5.41436 1.34082H13.143C15.2706 1.34082 16.9733 3.03897 16.9733 5.08791V10.7844C16.9733 12.8334 15.2706 14.5315 13.143 14.5315ZM21.2925 3.73634L21.2967 3.73328C21.2953 3.7343 21.2939 3.73532 21.2925 3.73634Z" stroke="black" stroke-width="2"/>
</svg>
