<svg xmlns="http://www.w3.org/2000/svg" width="79" height="30" viewBox="0 0 79 30" fill="none">
  <path d="M35.5703 20.1645V12.6571H35.7027L41.111 20.1645H42.813V9.13977H40.922V16.6283H40.7896L35.3812 9.13977H33.6793V20.1645H35.5703ZM48.1646 20.3347C50.6608 20.3347 52.1925 18.7084 52.1925 15.9853C52.1925 13.2811 50.6608 11.6359 48.1646 11.6359C45.6873 11.6359 44.1367 13.2811 44.1367 15.9853C44.1556 18.7084 45.6684 20.3347 48.1646 20.3347ZM48.1646 18.7462C46.8409 18.7462 46.0845 17.744 46.0845 15.9853C46.0845 14.2456 46.8409 13.2244 48.1646 13.2244C49.4883 13.2244 50.2447 14.2456 50.2447 15.9853C50.2447 17.744 49.4883 18.7462 48.1646 18.7462ZM53.9133 9.76381V11.8629H52.5896V13.3757H53.9133V17.9331C53.9133 19.5594 54.6698 20.2023 56.5986 20.2023C56.9579 20.2023 57.3172 20.1645 57.6009 20.1078V18.6328C57.3739 18.6517 57.2226 18.6706 56.9579 18.6706C56.1637 18.6706 55.8044 18.3113 55.8044 17.4792V13.3757H57.6009V11.8629H55.8044V9.76381H53.9133ZM58.7355 20.1645H60.6265V11.8061H58.7355V20.1645ZM59.681 10.4257C60.305 10.4257 60.8156 9.9151 60.8156 9.29105C60.8156 8.6481 60.305 8.13753 59.681 8.13753C59.057 8.13753 58.5464 8.6481 58.5464 9.29105C58.5464 9.9151 59.057 10.4257 59.681 10.4257ZM65.8079 20.3347C68.3041 20.3347 69.8358 18.7084 69.8358 15.9853C69.8358 13.2811 68.3041 11.6359 65.8079 11.6359C63.3307 11.6359 61.78 13.2811 61.78 15.9853C61.78 18.7084 63.2929 20.3347 65.8079 20.3347ZM65.8079 18.7462C64.4842 18.7462 63.7278 17.744 63.7278 15.9853C63.7278 14.2456 64.4842 13.2244 65.8079 13.2244C67.1127 13.2244 67.8881 14.2456 67.8881 15.9853C67.8692 17.744 67.1127 18.7462 65.8079 18.7462ZM70.9515 20.1645H72.8426V15.3045C72.8426 14.0754 73.5612 13.3 74.6769 13.3C75.8304 13.3 76.3599 13.943 76.3599 15.21V20.1645H78.2509V14.7561C78.2509 12.7516 77.2298 11.6359 75.3766 11.6359C74.1285 11.6359 73.2964 12.2032 72.8993 13.1488H72.7669V11.8061H70.9326C70.9515 11.8061 70.9515 20.1645 70.9515 20.1645Z" fill="black"/>
  <path fill-rule="evenodd" clip-rule="evenodd" d="M4.70867 5.73592C5.59746 6.45451 5.91893 6.39778 7.58304 6.28431L23.2597 5.3388C23.6001 5.3388 23.3164 4.99841 23.203 4.96059L20.5933 3.08847C20.1017 2.71026 19.4209 2.25641 18.1539 2.36988L2.98783 3.48558C2.43943 3.54232 2.32597 3.82597 2.55289 4.03399L4.70867 5.73592ZM5.65419 9.38561V25.8754C5.65419 26.7642 6.08913 27.0857 7.09137 27.0289L24.3187 26.0267C25.3209 25.97 25.4344 25.3648 25.4344 24.6462V8.2699C25.4344 7.5513 25.1507 7.15419 24.5456 7.21092L6.54297 8.2699C5.88111 8.32663 5.65419 8.66701 5.65419 9.38561ZM22.6546 10.2744C22.768 10.7661 22.6546 11.2766 22.1629 11.3334L21.3308 11.5036V23.6818C20.6123 24.06 19.9504 24.2869 19.3831 24.2869C18.4943 24.2869 18.2674 24.0033 17.6055 23.1712L12.1783 14.6427V22.8876L13.8991 23.2658C13.8991 23.2658 13.8991 24.268 12.5186 24.268L8.69875 24.495C8.58529 24.268 8.69875 23.7196 9.07696 23.6062L10.0792 23.3225V12.4302L8.69875 12.3167C8.58529 11.825 8.86895 11.1064 9.64427 11.0497L13.7478 10.7661L19.402 19.3892V11.7683L17.9648 11.5981C17.8514 10.993 18.3052 10.5391 18.8536 10.4824L22.6546 10.2744ZM1.72084 1.97276L17.511 0.819229C19.4398 0.649036 19.9504 0.762498 21.1607 1.65128L26.1908 5.18751C27.0229 5.79264 27.3065 5.96284 27.3065 6.6247V26.0456C27.3065 27.2559 26.8716 27.9745 25.3209 28.0879L6.99682 29.2036C5.82438 29.2604 5.27598 29.0902 4.67085 28.3148L0.945516 23.4927C0.283655 22.6039 0 21.9421 0 21.1667V3.90161C0 2.89936 0.453848 2.08622 1.72084 1.97276Z" fill="black"/>
</svg>