<svg xmlns="http://www.w3.org/2000/svg" width="34" height="35" viewBox="0 0 34 35" fill="none">
  <circle cx="16.9944" cy="17.5721" r="16.9944" fill="#FF7A00"/>
  <path d="M14.2954 10.1182H10.6431C10.0344 10.1182 9.54102 10.6116 9.54102 11.2202V23.9235C9.54102 24.5322 10.0344 25.0256 10.6431 25.0256H14.2954C14.9041 25.0256 15.3975 24.5322 15.3975 23.9235V11.2202C15.3975 10.6116 14.9041 10.1182 14.2954 10.1182Z" fill="white"/>
  <path d="M23.3463 10.1182H19.694C19.0854 10.1182 18.5919 10.6116 18.5919 11.2202V23.9235C18.5919 24.5322 19.0854 25.0256 19.694 25.0256H23.3463C23.955 25.0256 24.4484 24.5322 24.4484 23.9235V11.2202C24.4484 10.6116 23.955 10.1182 23.3463 10.1182Z" fill="white"/>
</svg>