<svg width="26" height="27" viewBox="0 0 26 27" fill="none" xmlns="http://www.w3.org/2000/svg">
<path id="Subtract" fill-rule="evenodd" clip-rule="evenodd" d="M0.0986328 13.0897C0.0986328 5.9429 5.89211 0.149414 13.0389 0.149414C20.1857 0.149414 25.9792 5.9429 25.9792 13.0897C25.9792 20.2365 20.1857 26.03 13.0389 26.03C5.89211 26.03 0.0986328 20.2365 0.0986328 13.0897ZM9.5849 15.3573C11.9854 17.7572 14.2774 18.074 15.0862 18.1037C16.3235 18.1492 17.5131 17.2152 17.9832 16.1183C18.0418 15.9825 18.0629 15.8335 18.0442 15.6868C18.0255 15.54 17.9678 15.401 17.877 15.2843C17.2446 14.4746 16.3953 13.8886 15.6409 13.368C15.5899 13.3329 15.5394 13.2981 15.4895 13.2635C15.3102 13.1394 15.0898 13.0895 14.8746 13.1243C14.6593 13.159 14.4659 13.2757 14.3347 13.4499L13.6214 14.5356C13.5842 14.5941 13.526 14.6362 13.4587 14.6531C13.3914 14.67 13.3202 14.6605 13.2597 14.6266C12.7773 14.3502 12.0741 13.8796 11.5681 13.3741C11.0626 12.8686 10.6211 12.1969 10.3729 11.7459C10.342 11.6884 10.3331 11.6216 10.3478 11.5579C10.3624 11.4943 10.3997 11.4382 10.4526 11.3999L11.5484 10.5861C11.7051 10.4503 11.8064 10.2615 11.8329 10.0558C11.8594 9.85009 11.8093 9.64182 11.6922 9.47067C11.6394 9.39351 11.5858 9.31426 11.5312 9.23347C11.0342 8.49869 10.4507 7.63606 9.64106 7.04605C9.52513 6.96209 9.38936 6.90971 9.24708 6.89406C9.1048 6.8784 8.9609 6.90001 8.82948 6.95675C7.73821 7.4246 6.79352 8.62259 6.83845 9.85596C6.86878 10.6653 7.18499 12.9568 9.5849 15.3573Z" fill="#FF7A00"/>
</svg>
