<svg xmlns="http://www.w3.org/2000/svg" width="20" height="20" viewBox="0 0 20 20" fill="none">
  <path d="M3.4789 0.0263672H16.1666C18.0903 0.0263672 19.6455 1.57006 19.6455 3.47937V15.5852C19.6455 17.4945 18.0903 19.0382 16.1666 19.0382H3.4789C1.55527 19.0382 0 17.4945 0 15.5852V3.47937C0 1.57006 1.55527 0.0263672 3.4789 0.0263672Z" fill="#001E36"/>
  <path d="M4.42025 13.359V4.99869C4.42025 4.94182 4.44481 4.90932 4.5021 4.90932C4.64126 4.90932 4.77223 4.90932 4.9605 4.90119C5.15696 4.89307 5.3616 4.89307 5.58261 4.88494C5.80362 4.87682 6.04101 4.87682 6.29476 4.86869C6.54852 4.86057 6.79409 4.86057 7.03965 4.86057C7.71088 4.86057 8.2675 4.94182 8.7259 5.11243C9.13518 5.25056 9.51172 5.47805 9.82277 5.77866C10.0847 6.03865 10.2894 6.35552 10.4203 6.70488C10.5431 7.04612 10.6086 7.39548 10.6086 7.76109C10.6086 8.45982 10.4449 9.03667 10.1175 9.49165C9.79003 9.94664 9.33164 10.2879 8.79957 10.4829C8.24294 10.686 7.62902 10.7591 6.9578 10.7591C6.76134 10.7591 6.63037 10.7591 6.54852 10.751C6.46666 10.7429 6.35206 10.7429 6.19653 10.7429V13.3509C6.20472 13.4078 6.16379 13.4565 6.10649 13.4646C6.09831 13.4646 6.09012 13.4646 6.07375 13.4646H4.51848C4.45299 13.4646 4.42025 13.4321 4.42025 13.359ZM6.20472 6.47739V9.20729C6.31932 9.21541 6.42573 9.22354 6.52396 9.22354H6.9578C7.27704 9.22354 7.59628 9.17479 7.89915 9.07729C8.16109 9.00417 8.39029 8.8498 8.57037 8.64668C8.74227 8.44357 8.82413 8.16733 8.82413 7.80984C8.83231 7.55797 8.76683 7.30611 8.63586 7.08674C8.4967 6.8755 8.30024 6.713 8.06286 6.62363C7.75999 6.50176 7.43257 6.45301 7.09695 6.46114C6.88413 6.46114 6.69586 6.46114 6.54033 6.46926C6.37662 6.46114 6.26202 6.46926 6.20472 6.47739Z" fill="#31A8FF"/>
  <path d="M15.7164 8.71168C15.4709 8.58169 15.2089 8.49231 14.9306 8.43544C14.6277 8.37044 14.3249 8.32982 14.0138 8.32982C13.8501 8.3217 13.6782 8.34607 13.5227 8.38669C13.4163 8.41107 13.3262 8.46794 13.2689 8.54919C13.228 8.61419 13.2034 8.69543 13.2034 8.76855C13.2034 8.84168 13.2362 8.9148 13.2853 8.9798C13.359 9.06917 13.4572 9.14229 13.5636 9.19916C13.7519 9.29666 13.9483 9.38603 14.1448 9.46728C14.5868 9.61352 15.0125 9.81664 15.4054 10.0604C15.6755 10.231 15.8965 10.4585 16.0521 10.7347C16.183 10.9947 16.2485 11.2791 16.2403 11.5716C16.2485 11.9534 16.1339 12.3353 15.9211 12.6522C15.6919 12.9772 15.3726 13.229 15.0043 13.3753C14.6032 13.5459 14.1121 13.6353 13.5227 13.6353C13.1461 13.6353 12.7778 13.6028 12.4094 13.5296C12.1229 13.4809 11.8364 13.3915 11.5745 13.2696C11.5172 13.2371 11.4763 13.1803 11.4845 13.1153V11.7016C11.4845 11.6772 11.4926 11.6447 11.5172 11.6285C11.5418 11.6122 11.5663 11.6203 11.5909 11.6366C11.9101 11.8234 12.2457 11.9534 12.6059 12.0347C12.9169 12.1159 13.2444 12.1566 13.5718 12.1566C13.8829 12.1566 14.1039 12.1159 14.2512 12.0428C14.3822 11.9859 14.4722 11.8478 14.4722 11.7016C14.4722 11.5878 14.4067 11.4822 14.2758 11.3766C14.1448 11.271 13.8747 11.1491 13.4736 10.9947C13.0561 10.8485 12.6714 10.6535 12.3112 10.4097C12.0575 10.231 11.8446 9.99539 11.6891 9.71915C11.5581 9.45916 11.4926 9.17479 11.5008 8.89042C11.5008 8.54106 11.5991 8.20795 11.7791 7.90734C11.9838 7.58235 12.2867 7.32236 12.6386 7.15986C13.0234 6.96487 13.5063 6.8755 14.0875 6.8755C14.4231 6.8755 14.7669 6.89987 15.1025 6.94862C15.3481 6.98112 15.5855 7.04612 15.8065 7.13549C15.8392 7.14361 15.872 7.17611 15.8883 7.20861C15.8965 7.24111 15.9047 7.27361 15.9047 7.30611V8.63043C15.9047 8.66293 15.8883 8.69543 15.8638 8.71168C15.7901 8.72793 15.7492 8.72793 15.7164 8.71168Z" fill="#31A8FF"/>
</svg>