<svg xmlns="http://www.w3.org/2000/svg" width="35" height="35" viewBox="0 0 35 35" fill="none">
  <circle cx="16.9944" cy="17.5722" r="16.9944" fill="black"/>
  <path d="M14.2954 10.1185H10.6431C10.0344 10.1185 9.54102 10.6119 9.54102 11.2206V23.9239C9.54102 24.5325 10.0344 25.0259 10.6431 25.0259H14.2954C14.9041 25.0259 15.3975 24.5325 15.3975 23.9239V11.2206C15.3975 10.6119 14.9041 10.1185 14.2954 10.1185Z" fill="white"/>
  <path d="M23.3463 10.1185H19.694C19.0854 10.1185 18.5919 10.6119 18.5919 11.2206V23.9239C18.5919 24.5325 19.0854 25.0259 19.694 25.0259H23.3463C23.955 25.0259 24.4484 24.5325 24.4484 23.9239V11.2206C24.4484 10.6119 23.955 10.1185 23.3463 10.1185Z" fill="white"/>
  <circle cx="17.3616" cy="17.5722" r="16.9944" fill="black"/>
  <path d="M24.0459 19.1238C24.2854 18.9404 24.4794 18.7053 24.6128 18.4363C24.7462 18.1674 24.8156 17.8718 24.8156 17.5722C24.8156 17.2727 24.7462 16.9771 24.6128 16.7082C24.4794 16.4392 24.2854 16.2041 24.0459 16.0207C20.9434 13.647 17.479 11.776 13.7824 10.4778L13.1066 10.2404C11.8148 9.78701 10.4496 10.6508 10.2747 11.97C9.78604 15.6892 9.78604 19.4553 10.2747 23.1745C10.4506 24.4937 11.8148 25.3575 13.1066 24.9041L13.7824 24.6666C17.479 23.3684 20.9434 21.4975 24.0459 19.1238Z" fill="white"/>
</svg>