<svg xmlns="http://www.w3.org/2000/svg" width="30" height="30" viewBox="0 0 30 30" fill="none">
  <path d="M27.5 8.75H21.25V1.25C21.25 0.56 20.6912 0 20 0C19.3088 0 18.75 0.56 18.75 1.25V8.75H11.25V1.25C11.25 0.56 10.6912 0 10 0C9.30875 0 8.75 0.56 8.75 1.25V8.75H2.5C1.80875 8.75 1.25 9.31 1.25 10C1.25 10.69 1.80875 11.25 2.5 11.25H3.75V15C3.75 20.78 8.1325 25.5562 13.75 26.18V28.75C13.75 29.44 14.3088 30 15 30C15.6912 30 16.25 29.44 16.25 28.75V26.18C21.8675 25.5562 26.25 20.78 26.25 15V11.25H27.5C28.1912 11.25 28.75 10.69 28.75 10C28.75 9.31 28.1912 8.75 27.5 8.75ZM23.75 15C23.75 19.825 19.8237 23.75 15 23.75C10.1763 23.75 6.25 19.825 6.25 15V11.25H23.75V15Z" fill="black"/>
</svg>