<svg xmlns="http://www.w3.org/2000/svg" width="45" height="45" viewBox="0 0 45 45" fill="none">
  <circle cx="22.1641" cy="22.1661" r="22.1661" fill="#FFF5EC"/>
  <path d="M26.1664 31.9314C29.4409 32.3652 32.3449 29.4763 31.9348 26.2009C31.8811 25.7265 31.7632 25.2713 31.59 24.8442L31.9696 25.2753V22.9861V20.307C31.9696 17.8447 29.9677 15.8428 27.5054 15.8428H27.3586C26.7185 14.1616 25.0917 12.9627 23.1853 12.9627H21.7453C19.8397 12.9627 18.2123 14.1615 17.572 15.8428H17.4252C14.9629 15.8428 12.961 17.8447 12.961 20.307V22.467V23.0429V23.3312V23.907V27.5071C12.961 29.9694 14.9629 31.9713 17.4252 31.9713H22.9844H25.4009L25.0213 31.66C25.3727 31.7813 25.7519 31.873 26.1592 31.9304L26.1592 31.9305L26.1664 31.9314Z" stroke="#FF7A00" stroke-width="1.72835"/>
</svg>