<svg xmlns="http://www.w3.org/2000/svg" width="30" height="30" viewBox="0 0 30 30" fill="none">
  <g clip-path="url(#clip0_0_2355)">
    <path d="M23.2263 2.67481L15.395 0.0635627C15.1386 -0.0218386 14.8614 -0.0218386 14.605 0.0635627L6.77375 2.67481C5.52863 3.08841 4.44552 3.88388 3.67831 4.9482C2.91109 6.01252 2.4988 7.29155 2.5 8.60356V14.9998C2.5 24.4536 14 29.6748 14.4925 29.8923C14.6523 29.9633 14.8252 30 15 30C15.1748 30 15.3477 29.9633 15.5075 29.8923C16 29.6748 27.5 24.4536 27.5 14.9998V8.60356C27.5012 7.29155 27.0889 6.01252 26.3217 4.9482C25.5545 3.88388 24.4714 3.08841 23.2263 2.67481ZM25 14.9998C25 21.8186 17.1013 26.2911 15 27.3611C12.8963 26.2948 5 21.8361 5 14.9998V8.60356C5.00008 7.81641 5.24785 7.04924 5.70821 6.41074C6.16857 5.77224 6.81818 5.2948 7.565 5.04606L15 2.56731L22.435 5.04606C23.1818 5.2948 23.8314 5.77224 24.2918 6.41074C24.7522 7.04924 24.9999 7.81641 25 8.60356V14.9998Z" fill="black"/>
    <path d="M19.1245 10.3748L13.8895 15.6248L11.0845 12.6998C10.9719 12.5768 10.8359 12.4775 10.6843 12.4078C10.5328 12.3381 10.3688 12.2995 10.2021 12.2941C10.0354 12.2888 9.86932 12.3169 9.71363 12.3767C9.55794 12.4365 9.4158 12.5269 9.29559 12.6426C9.17537 12.7582 9.07952 12.8967 9.01366 13.0499C8.94781 13.2032 8.91329 13.3681 8.91214 13.5349C8.91099 13.7016 8.94323 13.867 9.00697 14.0211C9.0707 14.1753 9.16464 14.3151 9.28325 14.4323L12.1657 17.4324C12.3807 17.6645 12.6405 17.8507 12.9295 17.9796C13.2185 18.1085 13.5306 18.1775 13.847 18.1823H13.8882C14.1983 18.1834 14.5055 18.1228 14.792 18.0041C15.0784 17.8855 15.3385 17.7111 15.557 17.4911L20.897 12.1511C21.0136 12.0347 21.1062 11.8965 21.1694 11.7443C21.2326 11.5922 21.2652 11.4291 21.2654 11.2643C21.2656 11.0995 21.2333 10.9363 21.1704 10.7841C21.1075 10.6318 21.0153 10.4934 20.8989 10.3767C20.7825 10.2601 20.6443 10.1675 20.4921 10.1043C20.34 10.0411 20.1768 10.0085 20.0121 10.0083C19.8473 10.0081 19.6841 10.0404 19.5318 10.1033C19.3795 10.1662 19.2411 10.2585 19.1245 10.3748Z" fill="black"/>
  </g>
  <defs>
    <clipPath id="clip0_0_2355">
      <rect width="30" height="30" fill="white"/>
    </clipPath>
  </defs>
</svg>