<svg xmlns="http://www.w3.org/2000/svg" width="30" height="30" viewBox="0 0 30 30" fill="none">
  <g clip-path="url(#clip0_0_2451)">
    <path d="M23.2263 2.67481L15.395 0.0635627C15.1386 -0.0218386 14.8614 -0.0218386 14.605 0.0635627L6.77375 2.67481C5.52863 3.08841 4.44552 3.88388 3.67831 4.9482C2.91109 6.01252 2.4988 7.29155 2.5 8.60356V14.9998C2.5 24.4536 14 29.6748 14.4925 29.8923C14.6523 29.9633 14.8252 30 15 30C15.1748 30 15.3477 29.9633 15.5075 29.8923C16 29.6748 27.5 24.4536 27.5 14.9998V8.60356C27.5012 7.29155 27.0889 6.01252 26.3217 4.9482C25.5545 3.88388 24.4714 3.08841 23.2263 2.67481ZM20.8975 12.1461L15.5575 17.4861C15.339 17.706 15.0789 17.8804 14.7925 17.9991C14.506 18.1178 14.1988 18.1783 13.8888 18.1773H13.8475C13.5311 18.1725 13.219 18.1035 12.93 17.9746C12.641 17.8457 12.3812 17.6595 12.1663 17.4273L9.28375 14.4273C9.15892 14.3115 9.05906 14.1714 8.99032 14.0156C8.92157 13.8598 8.88539 13.6916 8.88398 13.5213C8.88257 13.351 8.91597 13.1822 8.98213 13.0253C9.04829 12.8684 9.14581 12.7267 9.26871 12.6088C9.39162 12.4909 9.53731 12.3994 9.69685 12.3399C9.85639 12.2803 10.0264 12.254 10.1965 12.2625C10.3666 12.2711 10.5331 12.3142 10.6859 12.3894C10.8387 12.4646 10.9745 12.5702 11.085 12.6998L13.89 15.6248L19.125 10.3748C19.3608 10.1471 19.6765 10.0211 20.0043 10.024C20.332 10.0268 20.6455 10.1583 20.8773 10.39C21.109 10.6218 21.2405 10.9353 21.2433 11.2631C21.2462 11.5908 21.1202 11.9066 20.8925 12.1423L20.8975 12.1461Z" fill="#FF7A00"/>
  </g>
  <defs>
    <clipPath id="clip0_0_2451">
      <rect width="30" height="30" fill="white"/>
    </clipPath>
  </defs>
</svg>