<svg xmlns="http://www.w3.org/2000/svg" width="45" height="45" viewBox="0 0 45 45" fill="none">
  <ellipse cx="22.3656" cy="22.7115" rx="22.1976" ry="22.1976" fill="#FFF5EC"/>
  <path d="M23.3088 23.0184L23.7284 24.2915L22.5257 23.5087L22.0469 23.1972L21.5723 23.5149L20.3905 24.3059L20.7959 23.0049L20.9703 22.4452L20.5152 22.0757L19.5167 21.265H20.7755H21.3771L21.5867 20.701L22.0467 19.4632L22.5067 20.701L22.7163 21.265H23.3179H24.5791L23.5837 22.0769L23.1224 22.4531L23.3088 23.0184ZM27.6039 13.9701H16.4895C14.4764 13.9701 12.8456 15.6009 12.8456 17.614V25.9498C12.8456 27.9629 14.4764 29.5938 16.4895 29.5938H18.2019L20.5565 31.578C20.9842 31.9557 21.521 32.1431 22.0536 32.1431C22.5788 32.1431 23.0974 31.9672 23.5159 31.5921L25.9353 29.5938H27.6039C29.617 29.5938 31.2478 27.9629 31.2478 25.9498V17.614C31.2478 15.6009 29.617 13.9701 27.6039 13.9701Z" stroke="#FF7A00" stroke-width="1.73077"/>
</svg>