<svg width="45" height="45" viewBox="0 0 45 45" fill="none" xmlns="http://www.w3.org/2000/svg">
<ellipse cx="22.7913" cy="22.7115" rx="22.1976" ry="22.1976" fill="#FFF5EC"/>
<path d="M26.3052 32.1017C29.4485 32.5181 32.2351 29.7459 31.8415 26.6019C31.7991 26.2283 31.7153 25.8672 31.5948 25.5232L31.8749 25.8413V23.5489V21.0002C31.8749 18.6338 29.9511 16.7099 27.5847 16.7099H27.4748C26.8523 15.1089 25.2964 13.9701 23.4749 13.9701H22.1049C20.2841 13.9701 18.7277 15.1089 18.105 16.7099H17.9951C15.6288 16.7099 13.7049 18.6338 13.7049 21.0002V23.0551V23.5596V23.9204V24.425V27.8498C13.7049 30.2162 15.6288 32.1401 17.9951 32.1401H23.2838H25.7036L25.4252 31.9117C25.6995 31.9936 25.9904 32.0574 26.298 32.1007L26.298 32.1008L26.3052 32.1017Z" stroke="#FF7A00" stroke-width="1.73077"/>
</svg>
