<svg xmlns="http://www.w3.org/2000/svg" width="45" height="46" viewBox="0 0 45 46" fill="none">
  <ellipse cx="22.3656" cy="22.8654" rx="22.1976" ry="22.1976" fill="#FFF5EC"/>
  <mask id="path-2-outside-1_16_1377" maskUnits="userSpaceOnUse" x="11.2812" y="12.1238" width="22" height="22" fill="black">
    <rect fill="white" x="11.2812" y="12.1238" width="22" height="22"/>
    <path d="M18.4735 14.1238H25.3966C26.7737 14.1238 28.0944 14.6708 29.0681 15.6446C30.0419 16.6183 30.5889 17.939 30.5889 19.3161V26.2392C30.5889 27.6162 30.0419 28.9369 29.0681 29.9107C28.0944 30.8844 26.7737 31.4315 25.3966 31.4315H18.4735C17.0965 31.4315 15.7758 30.8844 14.802 29.9107C13.8283 28.9369 13.2813 27.6162 13.2812 26.2392V19.3161C13.2812 17.939 13.8283 16.6183 14.802 15.6446C15.7758 14.6708 17.0965 14.1238 18.4735 14.1238ZM23.6658 21.9122C23.4363 21.9122 23.2162 22.0034 23.0539 22.1657C22.8916 22.328 22.8005 22.5481 22.8005 22.7776C22.8005 23.0071 22.8916 23.2273 23.0539 23.3895C23.2162 23.5518 23.4363 23.643 23.6658 23.643H26.262C26.4915 23.643 26.7116 23.5518 26.8739 23.3895C27.0362 23.2273 27.1274 23.0071 27.1274 22.7776C27.1274 22.5481 27.0362 22.328 26.8739 22.1657C26.7116 22.0034 26.4915 21.9122 26.262 21.9122H23.6658ZM21.9351 25.3738C21.7056 25.3738 21.4855 25.465 21.3232 25.6272C21.1609 25.7895 21.0697 26.0096 21.0697 26.2392C21.0697 26.4687 21.1609 26.6888 21.3232 26.8511C21.4855 27.0134 21.7056 27.1045 21.9351 27.1045H26.262C26.4915 27.1045 26.7116 27.0134 26.8739 26.8511C27.0362 26.6888 27.1274 26.4687 27.1274 26.2392C27.1274 26.0096 27.0362 25.7895 26.8739 25.6272C26.7116 25.465 26.4915 25.3738 26.262 25.3738H21.9351ZM21.9351 18.4507C21.7056 18.4507 21.4855 18.5419 21.3232 18.7042C21.1609 18.8665 21.0697 19.0866 21.0697 19.3161C21.0697 19.5456 21.1609 19.7657 21.3232 19.928C21.4855 20.0903 21.7056 20.1815 21.9351 20.1815H26.262C26.4915 20.1815 26.7116 20.0903 26.8739 19.928C27.0362 19.7657 27.1274 19.5456 27.1274 19.3161C27.1274 19.0866 27.0362 18.8665 26.8739 18.7042C26.7116 18.5419 26.4915 18.4507 26.262 18.4507H21.9351ZM18.3247 22.9879L17.7129 22.3761C17.633 22.2934 17.5376 22.2275 17.432 22.1822C17.3264 22.1368 17.2128 22.1129 17.0979 22.1119C16.983 22.1109 16.8691 22.1328 16.7627 22.1763C16.6564 22.2198 16.5598 22.2841 16.4785 22.3654C16.3972 22.4466 16.333 22.5432 16.2895 22.6496C16.246 22.7559 16.2241 22.8699 16.2251 22.9848C16.2261 23.0997 16.2499 23.2133 16.2953 23.3188C16.3406 23.4244 16.4066 23.5199 16.4892 23.5997L17.7129 24.8234C17.7932 24.9039 17.8887 24.9677 17.9937 25.0112C18.0988 25.0548 18.2114 25.0772 18.3251 25.0772C18.4389 25.0772 18.5515 25.0548 18.6565 25.0112C18.7616 24.9677 18.857 24.9039 18.9374 24.8234L21.3847 22.3761C21.5472 22.2138 21.6386 21.9936 21.6387 21.764C21.6389 21.5344 21.5478 21.3141 21.3856 21.1516C21.2233 20.9891 21.0031 20.8977 20.7735 20.8975C20.5438 20.8974 20.3235 20.9884 20.161 21.1507L18.3247 22.987V22.9879Z"/>
  </mask>
  <path d="M18.4735 14.1238V12.393V14.1238ZM25.3966 14.1238V12.393V14.1238ZM30.5889 26.2392H32.3197H30.5889ZM18.4735 31.4315V33.1622V31.4315ZM13.2812 26.2392H11.5505H13.2812ZM13.2812 19.3161H11.5505H13.2812ZM21.3232 25.6272L20.0993 24.4034L21.3232 25.6272ZM21.3232 26.8511L20.0993 28.0749L21.3232 26.8511ZM21.3232 18.7042L20.0993 17.4803L21.3232 18.7042ZM21.3232 19.928L20.0993 21.1518L21.3232 19.928ZM18.3247 22.9879L17.1009 24.2118L20.0555 27.1664V22.9879H18.3247ZM17.7129 22.3761L16.468 23.5785L16.4784 23.5893L16.489 23.5999L17.7129 22.3761ZM16.4892 23.5997L17.7131 22.3759L17.7024 22.3653L17.6916 22.3548L16.4892 23.5997ZM17.7129 24.8234L18.9374 23.6002L18.9367 23.5996L17.7129 24.8234ZM18.9374 24.8234L17.7136 23.5996L17.7129 23.6002L18.9374 24.8234ZM21.3847 22.3761L20.1617 21.1514L20.1609 21.1522L21.3847 22.3761ZM21.3856 21.1516L20.1609 22.3745L21.3856 21.1516ZM20.161 21.1507L18.9381 19.926L18.9372 19.9269L20.161 21.1507ZM18.3247 22.987L17.1009 21.7632L16.5939 22.2701V22.987H18.3247ZM18.4735 15.8545H25.3966V12.393H18.4735V15.8545ZM25.3966 15.8545C26.3147 15.8545 27.1951 16.2192 27.8443 16.8684L30.292 14.4207C28.9936 13.1224 27.2327 12.393 25.3966 12.393V15.8545ZM27.8443 16.8684C28.4935 17.5176 28.8581 18.398 28.8581 19.3161H32.3197C32.3197 17.48 31.5903 15.7191 30.292 14.4207L27.8443 16.8684ZM28.8581 19.3161V26.2392H32.3197V19.3161H28.8581ZM28.8581 26.2392C28.8581 27.1572 28.4935 28.0377 27.8443 28.6868L30.292 31.1345C31.5903 29.8362 32.3197 28.0753 32.3197 26.2392H28.8581ZM27.8443 28.6868C27.1951 29.336 26.3147 29.7007 25.3966 29.7007V33.1622C27.2327 33.1622 28.9936 32.4328 30.292 31.1345L27.8443 28.6868ZM25.3966 29.7007H18.4735V33.1622H25.3966V29.7007ZM18.4735 29.7007C17.5555 29.7007 16.675 29.336 16.0259 28.6868L13.5782 31.1345C14.8765 32.4328 16.6374 33.1622 18.4735 33.1622V29.7007ZM16.0259 28.6868C15.3767 28.0377 15.012 27.1572 15.012 26.2392H11.5505C11.5505 28.0753 12.2799 29.8362 13.5782 31.1345L16.0259 28.6868ZM15.012 26.2392V19.3161H11.5505V26.2392H15.012ZM15.012 19.3161C15.012 18.398 15.3767 17.5176 16.0259 16.8684L13.5782 14.4207C12.2799 15.7191 11.5505 17.48 11.5505 19.3161H15.012ZM16.0259 16.8684C16.675 16.2192 17.5555 15.8545 18.4735 15.8545V12.393C16.6374 12.393 14.8765 13.1224 13.5782 14.4207L16.0259 16.8684ZM23.6658 20.1815C22.9773 20.1815 22.317 20.455 21.8301 20.9419L24.2778 23.3895C24.1155 23.5518 23.8954 23.643 23.6658 23.643V20.1815ZM21.8301 20.9419C21.3432 21.4287 21.0697 22.0891 21.0697 22.7776H24.5312C24.5312 23.0071 24.4401 23.2273 24.2778 23.3895L21.8301 20.9419ZM21.0697 22.7776C21.0697 23.4662 21.3432 24.1265 21.8301 24.6134L24.2778 22.1657C24.4401 22.328 24.5312 22.5481 24.5312 22.7776H21.0697ZM21.8301 24.6134C22.317 25.1003 22.9773 25.3738 23.6658 25.3738V21.9122C23.8954 21.9122 24.1155 22.0034 24.2778 22.1657L21.8301 24.6134ZM23.6658 25.3738H26.262V21.9122H23.6658V25.3738ZM26.262 25.3738C26.9505 25.3738 27.6109 25.1003 28.0978 24.6134L25.6501 22.1657C25.8124 22.0034 26.0325 21.9122 26.262 21.9122V25.3738ZM28.0978 24.6134C28.5846 24.1265 28.8582 23.4662 28.8582 22.7776H25.3966C25.3966 22.5481 25.4878 22.328 25.6501 22.1657L28.0978 24.6134ZM28.8582 22.7776C28.8582 22.0891 28.5846 21.4287 28.0978 20.9419L25.6501 23.3895C25.4878 23.2273 25.3966 23.0071 25.3966 22.7776H28.8582ZM28.0978 20.9419C27.6109 20.455 26.9505 20.1815 26.262 20.1815V23.643C26.0325 23.643 25.8124 23.5518 25.6501 23.3895L28.0978 20.9419ZM26.262 20.1815H23.6658V23.643H26.262V20.1815ZM21.9351 23.643C21.2465 23.643 20.5862 23.9165 20.0993 24.4034L22.547 26.8511C22.3847 27.0134 22.1646 27.1045 21.9351 27.1045V23.643ZM20.0993 24.4034C19.6125 24.8903 19.3389 25.5506 19.3389 26.2392H22.8005C22.8005 26.4687 22.7093 26.6888 22.547 26.8511L20.0993 24.4034ZM19.3389 26.2392C19.3389 26.9277 19.6125 27.588 20.0993 28.0749L22.547 25.6272C22.7093 25.7895 22.8005 26.0096 22.8005 26.2392H19.3389ZM20.0993 28.0749C20.5862 28.5618 21.2465 28.8353 21.9351 28.8353V25.3738C22.1646 25.3738 22.3847 25.465 22.547 25.6272L20.0993 28.0749ZM21.9351 28.8353H26.262V25.3738H21.9351V28.8353ZM26.262 28.8353C26.9505 28.8353 27.6109 28.5618 28.0978 28.0749L25.6501 25.6272C25.8124 25.465 26.0325 25.3738 26.262 25.3738V28.8353ZM28.0978 28.0749C28.5846 27.588 28.8582 26.9277 28.8582 26.2392H25.3966C25.3966 26.0096 25.4878 25.7895 25.6501 25.6272L28.0978 28.0749ZM28.8582 26.2392C28.8582 25.5506 28.5846 24.8903 28.0978 24.4034L25.6501 26.8511C25.4878 26.6888 25.3966 26.4687 25.3966 26.2392H28.8582ZM28.0978 24.4034C27.6109 23.9165 26.9505 23.643 26.262 23.643V27.1045C26.0325 27.1045 25.8124 27.0134 25.6501 26.8511L28.0978 24.4034ZM26.262 23.643H21.9351V27.1045H26.262V23.643ZM21.9351 16.7199C21.2465 16.7199 20.5862 16.9935 20.0993 17.4803L22.547 19.928C22.3847 20.0903 22.1646 20.1815 21.9351 20.1815V16.7199ZM20.0993 17.4803C19.6125 17.9672 19.3389 18.6275 19.3389 19.3161H22.8005C22.8005 19.5456 22.7093 19.7657 22.547 19.928L20.0993 17.4803ZM19.3389 19.3161C19.3389 20.0046 19.6125 20.665 20.0993 21.1518L22.547 18.7042C22.7093 18.8665 22.8005 19.0866 22.8005 19.3161H19.3389ZM20.0993 21.1518C20.5862 21.6387 21.2465 21.9122 21.9351 21.9122V18.4507C22.1646 18.4507 22.3847 18.5419 22.547 18.7042L20.0993 21.1518ZM21.9351 21.9122H26.262V18.4507H21.9351V21.9122ZM26.262 21.9122C26.9505 21.9122 27.6109 21.6387 28.0978 21.1518L25.6501 18.7042C25.8124 18.5419 26.0325 18.4507 26.262 18.4507V21.9122ZM28.0978 21.1518C28.5846 20.665 28.8582 20.0046 28.8582 19.3161H25.3966C25.3966 19.0866 25.4878 18.8665 25.6501 18.7042L28.0978 21.1518ZM28.8582 19.3161C28.8582 18.6275 28.5846 17.9672 28.0978 17.4803L25.6501 19.928C25.4878 19.7657 25.3966 19.5456 25.3966 19.3161H28.8582ZM28.0978 17.4803C27.6109 16.9935 26.9505 16.7199 26.262 16.7199V20.1815C26.0325 20.1815 25.8124 20.0903 25.6501 19.928L28.0978 17.4803ZM26.262 16.7199H21.9351V20.1815H26.262V16.7199ZM19.5485 21.7641L18.9367 21.1522L16.489 23.5999L17.1009 24.2118L19.5485 21.7641ZM18.9578 21.1737C18.7183 20.9257 18.4318 20.728 18.1151 20.5919L16.7489 23.7724C16.6433 23.727 16.5478 23.6611 16.468 23.5785L18.9578 21.1737ZM18.1151 20.5919C17.7984 20.4558 17.4577 20.3842 17.113 20.3812L17.0829 23.8426C16.968 23.8416 16.8544 23.8178 16.7489 23.7724L18.1151 20.5919ZM17.113 20.3812C16.7683 20.3782 16.4264 20.4439 16.1073 20.5745L17.4181 23.7782C17.3118 23.8217 17.1978 23.8436 17.0829 23.8426L17.113 20.3812ZM16.1073 20.5745C15.7883 20.705 15.4984 20.8978 15.2547 21.1415L17.7023 23.5892C17.6211 23.6705 17.5245 23.7347 17.4181 23.7782L16.1073 20.5745ZM15.2547 21.1415C15.0109 21.3853 14.8181 21.6751 14.6876 21.9942L17.8914 23.305C17.8478 23.4113 17.7836 23.5079 17.7023 23.5892L15.2547 21.1415ZM14.6876 21.9942C14.5571 22.3133 14.4914 22.6551 14.4944 22.9998L17.9558 22.9698C17.9568 23.0847 17.9349 23.1986 17.8914 23.305L14.6876 21.9942ZM14.4944 22.9998C14.4974 23.3446 14.569 23.6852 14.705 24.002L17.8855 22.6357C17.9309 22.7413 17.9548 22.8549 17.9558 22.9698L14.4944 22.9998ZM14.705 24.002C14.8411 24.3187 15.0389 24.6052 15.2868 24.8447L17.6916 22.3548C17.7743 22.4346 17.8402 22.5301 17.8855 22.6357L14.705 24.002ZM15.2654 24.8236L16.489 26.0472L18.9367 23.5996L17.7131 22.3759L15.2654 24.8236ZM16.4884 26.0466C16.7295 26.2879 17.0158 26.4794 17.331 26.6101L18.6565 23.4124C18.7616 23.4559 18.857 23.5198 18.9374 23.6002L16.4884 26.0466ZM17.331 26.6101C17.6461 26.7407 17.984 26.808 18.3251 26.808V23.3464C18.4389 23.3464 18.5515 23.3688 18.6565 23.4124L17.331 26.6101ZM18.3251 26.808C18.6663 26.808 19.0041 26.7407 19.3193 26.6101L17.9937 23.4124C18.0988 23.3688 18.2114 23.3464 18.3251 23.3464V26.808ZM19.3193 26.6101C19.6345 26.4794 19.9208 26.2879 20.1619 26.0466L17.7129 23.6002C17.7932 23.5198 17.8887 23.4559 17.9937 23.4124L19.3193 26.6101ZM20.1612 26.0472L22.6085 23.5999L20.1609 21.1522L17.7136 23.5996L20.1612 26.0472ZM22.6077 23.6008C23.095 23.1142 23.369 22.4539 23.3695 21.7652L19.908 21.7628C19.9081 21.5334 19.9994 21.3135 20.1617 21.1514L22.6077 23.6008ZM23.3695 21.7652C23.37 21.0766 23.0969 20.4159 22.6103 19.9286L20.1609 22.3745C19.9988 22.2122 19.9078 21.9922 19.908 21.7628L23.3695 21.7652ZM22.6103 19.9286C22.1236 19.4413 21.4634 19.1672 20.7747 19.1668L20.7723 22.6283C20.5429 22.6281 20.3229 22.5369 20.1609 22.3745L22.6103 19.9286ZM20.7747 19.1668C20.086 19.1663 19.4254 19.4394 18.9381 19.926L21.384 22.3754C21.2217 22.5375 21.0016 22.6285 20.7723 22.6283L20.7747 19.1668ZM18.9372 19.9269L17.1009 21.7632L19.5485 24.2109L21.3849 22.3745L18.9372 19.9269ZM16.5939 22.987V22.9879H20.0555V22.987H16.5939Z" fill="#FF7A00" mask="url(#path-2-outside-1_16_1377)"/>
</svg>