<svg width="45" height="45" viewBox="0 0 45 45" fill="none" xmlns="http://www.w3.org/2000/svg">
<rect width="45" height="45" fill="#F5F5F5"/>
<g id="Remotual Mobile Responsive Design" clip-path="url(#clip0_0_1)">
<rect width="430" height="5314" transform="translate(-15 -1145)" fill="#FFF5EC"/>
<g id="Frame 1000004206" filter="url(#filter0_d_0_1)">
<rect x="-18" y="-86" width="430" height="682" rx="8" fill="white"/>
<g id="Frame 1000004209">
<g id="Frame 1000004208">
<g id="Frame 2457">
<ellipse id="Ellipse 55" cx="22.1966" cy="22.1977" rx="22.1976" ry="22.1976" fill="#FFF5EC"/>
<path id="Vector" d="M26.7403 16.135L26.7406 16.1335C27.0527 14.6603 26.0311 13.3026 24.589 13.0303C23.1572 12.76 21.6942 13.6304 21.3856 15.0838C21.3856 15.0842 21.3855 15.0845 21.3854 15.0849L21.2963 15.5017L21.2958 15.5043C21.0839 16.5105 20.5007 17.4248 19.6312 18.0816C19.631 18.0818 19.6309 18.0819 19.6307 18.082L19.3441 18.2977L19.3441 18.2977L19.3405 18.3005C18.7097 18.7805 18.2244 19.4063 17.9283 20.1123C17.6054 19.3554 16.8281 18.854 15.9771 18.854H13.4891C12.3707 18.854 11.3797 19.72 11.3797 20.8938V29.1142C11.3797 30.288 12.3707 31.1539 13.4891 31.1539H15.9771C17.0955 31.1539 18.0865 30.288 18.0865 29.1142V27.79C18.4437 28.471 18.9843 29.0592 19.6641 29.4869L21.1603 30.4298L21.1618 30.4307C21.9161 30.9039 22.7951 31.1539 23.6937 31.1539H27.484C28.8952 31.1539 30.1294 30.0986 30.211 28.6771C30.9501 28.217 31.4593 27.4136 31.4593 26.4719C31.4593 26.3292 31.4475 26.1891 31.4249 26.0525C32.1804 25.5953 32.7033 24.7858 32.7033 23.8296C32.7033 23.3745 32.5829 22.9499 32.3755 22.5813C32.77 22.1298 33.0143 21.5442 33.0143 20.8938C33.0143 19.397 31.7434 18.2668 30.283 18.2668H26.1111C26.3455 17.7159 26.527 17.1421 26.6512 16.552C26.6513 16.5515 26.6514 16.5511 26.6515 16.5506L26.7403 16.135Z" stroke="#FF7A00" stroke-width="1.73077"/>
</g>
</g>
</g>
</g>
</g>
<defs>
<filter id="filter0_d_0_1" x="-22.85" y="-90.85" width="446.18" height="698.18" filterUnits="userSpaceOnUse" color-interpolation-filters="sRGB">
<feFlood flood-opacity="0" result="BackgroundImageFix"/>
<feColorMatrix in="SourceAlpha" type="matrix" values="0 0 0 0 0 0 0 0 0 0 0 0 0 0 0 0 0 0 127 0" result="hardAlpha"/>
<feOffset dx="3.24" dy="3.24"/>
<feGaussianBlur stdDeviation="4.045"/>
<feComposite in2="hardAlpha" operator="out"/>
<feColorMatrix type="matrix" values="0 0 0 0 0 0 0 0 0 0 0 0 0 0 0 0 0 0 0.1 0"/>
<feBlend mode="normal" in2="BackgroundImageFix" result="effect1_dropShadow_0_1"/>
<feBlend mode="normal" in="SourceGraphic" in2="effect1_dropShadow_0_1" result="shape"/>
</filter>
<clipPath id="clip0_0_1">
<rect width="430" height="5314" fill="white" transform="translate(-15 -1145)"/>
</clipPath>
</defs>
</svg>
