<svg width="45" height="45" viewBox="0 0 45 45" fill="none" xmlns="http://www.w3.org/2000/svg">
<rect width="45" height="45" fill="#F5F5F5"/>
<g id="Remotual Mobile Responsive Design" clip-path="url(#clip0_0_1)">
<rect width="430" height="5314" transform="translate(-15 -1436)" fill="#FFF5EC"/>
<g id="Frame 1000004206" filter="url(#filter0_d_0_1)">
<rect x="-18" y="-377" width="430" height="682" rx="8" fill="white"/>
<g id="Frame 1000004209">
<g id="Frame 1000004213">
<g id="Group 1000004145">
<ellipse id="Ellipse 8" cx="22.1981" cy="22.1971" rx="22.1971" ry="22.1971" fill="#FFF5EC"/>
<path id="Vector" d="M28.7492 12.9808C30.6051 12.9808 32.1505 14.4565 32.1505 16.3187V28.6813C32.1505 30.5435 30.6051 32.0192 28.7492 32.0192H16.0696C14.2138 32.0192 12.6683 30.5435 12.6683 28.6813V16.3187C12.6683 14.4565 14.2138 12.9808 16.0696 12.9808H28.7492ZM26.2133 22.1291C25.9691 22.1291 25.8107 22.3147 25.8107 22.5V26.2088C25.8107 26.3941 25.9691 26.5797 26.2133 26.5797C26.4575 26.5797 26.6159 26.3941 26.6159 26.2088V22.5C26.6159 22.3147 26.4575 22.1291 26.2133 22.1291ZM22.812 18.7912C22.812 18.6059 22.6536 18.4203 22.4094 18.4203C22.1652 18.4203 22.0069 18.6059 22.0069 18.7912V26.2088C22.0069 26.3941 22.1652 26.5797 22.4094 26.5797C22.6536 26.5797 22.812 26.3941 22.812 26.2088V18.7912ZM18.6055 24.6017C18.3614 24.6017 18.203 24.7872 18.203 24.9725V26.2088C18.203 26.3941 18.3614 26.5797 18.6055 26.5797C18.8497 26.5797 19.0081 26.3941 19.0081 26.2088V24.9725C19.0081 24.7872 18.8497 24.6017 18.6055 24.6017Z" stroke="#FF7A00" stroke-width="1.73077"/>
</g>
</g>
</g>
</g>
</g>
<defs>
<filter id="filter0_d_0_1" x="-22.85" y="-381.85" width="446.18" height="698.18" filterUnits="userSpaceOnUse" color-interpolation-filters="sRGB">
<feFlood flood-opacity="0" result="BackgroundImageFix"/>
<feColorMatrix in="SourceAlpha" type="matrix" values="0 0 0 0 0 0 0 0 0 0 0 0 0 0 0 0 0 0 127 0" result="hardAlpha"/>
<feOffset dx="3.24" dy="3.24"/>
<feGaussianBlur stdDeviation="4.045"/>
<feComposite in2="hardAlpha" operator="out"/>
<feColorMatrix type="matrix" values="0 0 0 0 0 0 0 0 0 0 0 0 0 0 0 0 0 0 0.1 0"/>
<feBlend mode="normal" in2="BackgroundImageFix" result="effect1_dropShadow_0_1"/>
<feBlend mode="normal" in="SourceGraphic" in2="effect1_dropShadow_0_1" result="shape"/>
</filter>
<clipPath id="clip0_0_1">
<rect width="430" height="5314" fill="white" transform="translate(-15 -1436)"/>
</clipPath>
</defs>
</svg>
