<svg width="45" height="45" viewBox="0 0 45 45" fill="none" xmlns="http://www.w3.org/2000/svg">
<rect width="45" height="45" fill="#F5F5F5"/>
<g id="Remotual Mobile Responsive Design" clip-path="url(#clip0_0_1)">
<rect width="430" height="5314" transform="translate(-15 -1299)" fill="#FFF5EC"/>
<g id="Frame 1000004206" filter="url(#filter0_d_0_1)">
<rect x="-18" y="-240" width="430" height="682" rx="8" fill="white"/>
<g id="Frame 1000004209">
<g id="Frame 1000004209_2">
<g id="Frame 2457">
<ellipse id="Ellipse 55" cx="22.1966" cy="22.1975" rx="22.1976" ry="22.1976" fill="#FFF5EC"/>
<path id="Vector" d="M19.3639 30.8803L19.3713 30.8932H17.8762H13.4477C12.4289 30.8932 11.5964 30.0676 11.5964 29.0419C11.5964 25.7026 14.3025 22.9965 17.6418 22.9965H19.6135C19.7063 22.9965 19.7938 23.0002 19.8646 23.0032L19.8776 23.0037L21.6158 23.0761C22.4495 22.695 23.3767 22.4827 24.3535 22.4827H24.4617C23.6851 22.2621 22.9674 21.854 22.3758 21.2862L22.3 21.362C21.4933 22.1687 20.3769 22.672 19.1415 22.672C16.6757 22.672 14.6793 20.6757 14.6793 18.2099C14.6793 15.7441 16.6757 13.7477 19.1415 13.7477C20.1296 13.7477 21.0425 14.0712 21.7814 14.6114L21.8676 14.6745C22.0007 14.5003 22.1459 14.3342 22.3026 14.1775C23.2358 13.2443 24.5014 12.7201 25.8211 12.7201C27.1409 12.7201 28.4065 13.2443 29.3397 14.1775L28.7278 14.7894L29.3397 14.1775C30.2729 15.1107 30.7971 16.3763 30.7971 17.696C30.7971 19.0157 30.2729 20.2814 29.3397 21.2146C28.7345 21.8197 27.9895 22.2529 27.1806 22.4827H27.2888C30.9299 22.4827 33.88 25.4328 33.88 29.074C33.88 30.0786 33.0655 30.8932 32.0609 30.8932H19.5814C19.5078 30.8932 19.4353 30.8888 19.3639 30.8803Z" stroke="#FF7A00" stroke-width="1.73077"/>
</g>
</g>
</g>
</g>
</g>
<defs>
<filter id="filter0_d_0_1" x="-22.85" y="-244.85" width="446.18" height="698.18" filterUnits="userSpaceOnUse" color-interpolation-filters="sRGB">
<feFlood flood-opacity="0" result="BackgroundImageFix"/>
<feColorMatrix in="SourceAlpha" type="matrix" values="0 0 0 0 0 0 0 0 0 0 0 0 0 0 0 0 0 0 127 0" result="hardAlpha"/>
<feOffset dx="3.24" dy="3.24"/>
<feGaussianBlur stdDeviation="4.045"/>
<feComposite in2="hardAlpha" operator="out"/>
<feColorMatrix type="matrix" values="0 0 0 0 0 0 0 0 0 0 0 0 0 0 0 0 0 0 0.1 0"/>
<feBlend mode="normal" in2="BackgroundImageFix" result="effect1_dropShadow_0_1"/>
<feBlend mode="normal" in="SourceGraphic" in2="effect1_dropShadow_0_1" result="shape"/>
</filter>
<clipPath id="clip0_0_1">
<rect width="430" height="5314" fill="white" transform="translate(-15 -1299)"/>
</clipPath>
</defs>
</svg>
