<svg xmlns="http://www.w3.org/2000/svg" width="45" height="46" viewBox="0 0 45 46" fill="none">
  <circle cx="22.1641" cy="23.0047" r="22.1661" fill="#FFF5EC"/>
  <mask id="path-2-outside-1_95_6449" maskUnits="userSpaceOnUse" x="11.8262" y="12.7305" width="22" height="22" fill="black">
    <rect fill="white" x="11.8262" y="12.7305" width="22" height="22"/>
    <path fill-rule="evenodd" clip-rule="evenodd" d="M22.4679 32.0139C27.2406 32.0139 31.1096 28.1449 31.1096 23.3722C31.1096 18.5995 27.2406 14.7305 22.4679 14.7305C17.6952 14.7305 13.8262 18.5995 13.8262 23.3722C13.8262 28.1449 17.6952 32.0139 22.4679 32.0139ZM21.2332 19.2569H23.7023V22.1375H26.5806V24.6065H23.7023V27.4871H21.2332V24.6065H18.3504V22.1375H21.2332V19.2569Z"/>
  </mask>
  <path d="M23.7023 19.2569H25.4307V17.5285H23.7023V19.2569ZM21.2332 19.2569V17.5285H19.5049V19.2569H21.2332ZM23.7023 22.1375H21.974V23.8658H23.7023V22.1375ZM26.5806 22.1375H28.309V20.4091H26.5806V22.1375ZM26.5806 24.6065V26.3349H28.309V24.6065H26.5806ZM23.7023 24.6065V22.8782H21.974V24.6065H23.7023ZM23.7023 27.4871V29.2155H25.4307V27.4871H23.7023ZM21.2332 27.4871H19.5049V29.2155H21.2332V27.4871ZM21.2332 24.6065H22.9616V22.8782H21.2332V24.6065ZM18.3504 24.6065H16.6221V26.3349H18.3504V24.6065ZM18.3504 22.1375V20.4091H16.6221V22.1375H18.3504ZM21.2332 22.1375V23.8658H22.9616V22.1375H21.2332ZM29.3813 23.3722C29.3813 27.1904 26.2861 30.2856 22.4679 30.2856V33.7423C28.1951 33.7423 32.838 29.0994 32.838 23.3722H29.3813ZM22.4679 16.4588C26.2861 16.4588 29.3813 19.554 29.3813 23.3722H32.838C32.838 17.645 28.1951 13.0021 22.4679 13.0021V16.4588ZM15.5545 23.3722C15.5545 19.554 18.6497 16.4588 22.4679 16.4588V13.0021C16.7407 13.0021 12.0978 17.645 12.0978 23.3722H15.5545ZM22.4679 30.2856C18.6497 30.2856 15.5545 27.1904 15.5545 23.3722H12.0978C12.0978 29.0994 16.7407 33.7423 22.4679 33.7423V30.2856ZM23.7023 17.5285H21.2332V20.9852H23.7023V17.5285ZM25.4307 22.1375V19.2569H21.974V22.1375H25.4307ZM23.7023 23.8658H26.5806V20.4091H23.7023V23.8658ZM24.8523 22.1375V24.6065H28.309V22.1375H24.8523ZM26.5806 22.8782H23.7023V26.3349H26.5806V22.8782ZM25.4307 27.4871V24.6065H21.974V27.4871H25.4307ZM21.2332 29.2155H23.7023V25.7588H21.2332V29.2155ZM19.5049 24.6065V27.4871H22.9616V24.6065H19.5049ZM21.2332 22.8782H18.3504V26.3349H21.2332V22.8782ZM20.0788 24.6065V22.1375H16.6221V24.6065H20.0788ZM18.3504 23.8658H21.2332V20.4091H18.3504V23.8658ZM19.5049 19.2569V22.1375H22.9616V19.2569H19.5049Z" fill="#FF7A00" mask="url(#path-2-outside-1_95_6449)"/>
</svg>