<svg xmlns="http://www.w3.org/2000/svg" width="30" height="30" viewBox="0 0 30 30" fill="none">
  <g clip-path="url(#clip0_0_2239)">
    <path d="M16.25 13.75C16.25 12.8275 15.7438 12.03 15 11.5963V6.25C15 5.56 14.44 5 13.75 5C13.06 5 12.5 5.56 12.5 6.25V11.5963C11.7562 12.0288 11.25 12.8263 11.25 13.75C11.25 15.1313 12.3687 16.25 13.75 16.25C15.1312 16.25 16.25 15.1313 16.25 13.75Z" fill="black"/>
    <path d="M22.5 14.9976C18.3575 14.9976 15 18.3551 15 22.4976C15 26.6401 18.3575 29.9976 22.5 29.9976C26.6425 29.9976 30 26.6401 30 22.4976C30 18.3551 26.6425 14.9976 22.5 14.9976ZM25.9138 24.3626L23.6337 27.6613C23.245 28.2238 22.4762 28.3688 21.91 27.9863C21.3325 27.5976 21.185 26.8101 21.5825 26.2388L23.3137 23.7501H20.77C20.1337 23.7501 19.5275 23.4451 19.1488 22.9351C18.77 22.4238 18.6537 21.7551 18.8375 21.1463L21.2438 17.3838C21.625 16.8026 22.4063 16.6426 22.985 17.0288C23.5563 17.4101 23.7137 18.1788 23.3387 18.7538L21.71 21.2513H24.2462C24.9862 21.2513 25.6625 21.6563 26.0125 22.3088C26.3625 22.9613 26.325 23.7476 25.9163 24.3651L25.9138 24.3626Z" fill="black"/>
    <path d="M8.38719 20.7585L7.21969 21.7672C6.81594 22.1147 6.20469 22.101 5.83219 21.731C3.32594 19.2485 2.14469 15.801 2.59344 12.2735C3.23469 7.22099 7.37844 3.14224 12.4422 2.57349C18.8172 1.86849 24.3122 6.41474 24.9409 12.5985C25.0109 13.2847 25.6197 13.781 26.3109 13.716C26.9972 13.646 27.4984 13.0322 27.4284 12.346C26.6609 4.78849 19.8734 -0.77276 12.1647 0.0884905C5.96719 0.78349 0.898437 5.77599 0.113437 11.9585C-0.432813 16.2647 1.01094 20.4735 4.07344 23.5072C4.74969 24.1772 5.64469 24.516 6.54344 24.516C7.36594 24.516 8.19219 24.231 8.85469 23.6585L10.0209 22.6497C10.5434 22.1985 10.6009 21.4085 10.1497 20.8872C9.69719 20.3647 8.90844 20.3072 8.38719 20.7585Z" fill="black"/>
  </g>
  <defs>
    <clipPath id="clip0_0_2239">
      <rect width="30" height="30" fill="white"/>
    </clipPath>
  </defs>
</svg>