<svg xmlns="http://www.w3.org/2000/svg" width="30" height="30" viewBox="0 0 30 30" fill="none">
  <g clip-path="url(#clip0_0_2339)">
    <path d="M16.25 13.75C16.25 12.875 15.75 12 15 11.625V6.25C15 5.5 14.5 5 13.75 5C13 5 12.5 5.5 12.5 6.25V11.625C11.75 12 11.25 12.875 11.25 13.75C11.25 15.125 12.375 16.25 13.75 16.25C15.125 16.25 16.25 15.125 16.25 13.75Z" fill="black"/>
    <path d="M22.5 15C18.375 15 15 18.375 15 22.5C15 26.625 18.375 30 22.5 30C26.625 30 30 26.625 30 22.5C30 18.375 26.625 15 22.5 15ZM25.875 24.375L23.625 27.625C23.25 28.25 22.5 28.375 21.875 28C21.25 27.625 21.125 26.875 21.5 26.25L23.25 23.75H20.75C20.125 23.75 19.5 23.5 19.125 22.875C18.75 22.375 18.625 21.75 18.875 21.125L21.25 17.375C21.625 16.75 22.375 16.625 23 17C23.625 17.375 23.75 18.125 23.375 18.75L21.75 21.25H24.25C25 21.25 25.625 21.625 26 22.25C26.375 22.875 26.375 23.75 25.875 24.375Z" fill="#FA7700"/>
    <path d="M8.37569 20.75L7.25069 21.75C6.87569 22.125 6.25069 22.125 5.87569 21.75C3.37569 19.25 2.12569 15.875 2.62569 12.25C3.25069 7.24996 7.37569 3.12496 12.5007 2.49996C18.8757 1.74996 24.3757 6.37496 25.0007 12.5C25.0007 13.25 25.6257 13.75 26.2507 13.75C26.8757 13.625 27.5007 13.125 27.3757 12.375C26.6257 4.87496 19.8757 -0.750039 12.1257 0.124961C5.87569 0.874961 0.875689 5.74996 0.125689 12C-0.374311 16.25 1.00069 20.5 4.12569 23.5C4.75069 24.125 5.75069 24.5 6.62569 24.5C7.50069 24.5 8.25069 24.25 8.87569 23.625L10.0007 22.625C10.5007 22.125 10.6257 21.375 10.1257 20.875C9.75069 20.375 8.87569 20.25 8.37569 20.75Z" fill="black"/>
  </g>
  <defs>
    <clipPath id="clip0_0_2339">
      <rect width="30" height="30" fill="white"/>
    </clipPath>
  </defs>
</svg>