<svg xmlns="http://www.w3.org/2000/svg" width="35" height="35" viewBox="0 0 35 35" fill="none">
  <circle cx="17.1204" cy="17.5722" r="16.9944" fill="black"/>
  <path d="M22.4874 14.2249L24.2441 15.9815L26.0008 14.2249C26.1154 14.1062 26.2524 14.0116 26.404 13.9464C26.5556 13.8813 26.7186 13.8471 26.8836 13.8456C27.0485 13.8442 27.2121 13.8756 27.3648 13.9381C27.5175 14.0006 27.6562 14.0928 27.7728 14.2095C27.8895 14.3261 27.9817 14.4648 28.0442 14.6175C28.1067 14.7702 28.1381 14.9338 28.1367 15.0987C28.1352 15.2637 28.101 15.4267 28.0359 15.5783C27.9707 15.7299 27.8761 15.8669 27.7574 15.9815L26.0008 17.7382L27.7574 19.4949C27.9906 19.7279 28.1216 20.0439 28.1217 20.3734C28.1218 20.703 27.991 21.0191 27.7581 21.2522C27.5251 21.4853 27.2091 21.6164 26.8795 21.6165C26.55 21.6166 26.2339 21.4858 26.0008 21.2528L24.2441 19.4949L22.4874 21.2528C22.2543 21.4858 21.9382 21.6166 21.6086 21.6165C21.279 21.6164 20.963 21.4853 20.7301 21.2522C20.4971 21.0191 20.3663 20.703 20.3664 20.3734C20.3666 20.0439 20.4976 19.7279 20.7307 19.4949L22.4874 17.7382L20.7307 15.9815C20.612 15.8669 20.5174 15.7299 20.4523 15.5783C20.3872 15.4267 20.3529 15.2637 20.3515 15.0987C20.35 14.9338 20.3815 14.7702 20.4439 14.6175C20.5064 14.4648 20.5986 14.3261 20.7153 14.2095C20.8319 14.0928 20.9707 14.0006 21.1233 13.9381C21.276 13.8756 21.4396 13.8442 21.6046 13.8456C21.7695 13.8471 21.9325 13.8813 22.0841 13.9464C22.2357 14.0116 22.3728 14.1062 22.4874 14.2249Z" fill="white"/>
  <path fill-rule="evenodd" clip-rule="evenodd" d="M9.17025 13.8452H11.655L14.7385 10.7617C15.0457 10.4546 15.437 10.2454 15.863 10.1607C16.289 10.076 16.7306 10.1195 17.1319 10.2857C17.5332 10.4519 17.8762 10.7334 18.1176 11.0945C18.3589 11.4557 18.4878 11.8802 18.4879 12.3146V22.8299C18.4878 23.2642 18.3589 23.6888 18.1176 24.05C17.8762 24.4111 17.5332 24.6925 17.1319 24.8588C16.7306 25.025 16.289 25.0685 15.863 24.9838C15.437 24.899 15.0457 24.6899 14.7385 24.3828L11.655 21.2993H9.17025C8.51127 21.2993 7.87927 21.0375 7.4133 20.5715C6.94733 20.1056 6.68555 19.4736 6.68555 18.8146V16.3299C6.68555 15.6709 6.94733 15.0389 7.4133 14.5729C7.87927 14.107 8.51127 13.8452 9.17025 13.8452Z" fill="white"/>
  <circle cx="17.1204" cy="17.5722" r="16.9944" fill="black"/>
  <path fill-rule="evenodd" clip-rule="evenodd" d="M9.76595 13.8452H12.2507L15.3342 10.7617C15.6414 10.4546 16.0327 10.2454 16.4587 10.1607C16.8847 10.076 17.3263 10.1195 17.7276 10.2857C18.1289 10.4519 18.4719 10.7334 18.7133 11.0945C18.9546 11.4557 19.0835 11.8802 19.0836 12.3146V22.8299C19.0835 23.2642 18.9546 23.6888 18.7133 24.05C18.4719 24.4111 18.1289 24.6925 17.7276 24.8588C17.3263 25.025 16.8847 25.0685 16.4587 24.9838C16.0327 24.899 15.6414 24.6899 15.3342 24.3828L12.2507 21.2993H9.76595C9.10697 21.2993 8.47498 21.0375 8.009 20.5715C7.54303 20.1056 7.28125 19.4736 7.28125 18.8146V16.3299C7.28125 15.6709 7.54303 15.0389 8.009 14.5729C8.47498 14.107 9.10697 13.8452 9.76595 13.8452ZM24.8754 23.912C24.5462 24.3083 23.9524 24.3045 23.5884 23.9418C23.2256 23.5778 23.2306 22.9901 23.5499 22.5876C24.6828 21.1617 25.2982 19.3934 25.2954 17.5722C25.2982 15.751 24.6828 13.9828 23.5499 12.5569C23.2306 12.1543 23.2256 11.5667 23.5884 11.2027C23.9524 10.8399 24.5462 10.8374 24.8754 11.2325C26.3546 13.0136 27.1626 15.257 27.1589 17.5722C27.1589 19.9824 26.3017 22.1913 24.8754 23.912ZM22.2193 21.2595C21.9137 21.6732 21.3173 21.6695 20.9533 21.3055C20.5893 20.9415 20.6005 20.3563 20.8788 19.9228C21.3302 19.222 21.5696 18.4058 21.5683 17.5722C21.5683 16.7063 21.3149 15.8988 20.8788 15.2217C20.6005 14.7894 20.5893 14.203 20.9533 13.839C21.3173 13.475 21.9137 13.4712 22.2205 13.8849C22.9809 14.9161 23.4318 16.1932 23.4318 17.5722C23.4339 18.8996 23.0088 20.1924 22.2193 21.2595Z" fill="white"/>
</svg>