<svg xmlns="http://www.w3.org/2000/svg" width="27" height="26" viewBox="0 0 27 26" fill="none">
  <g clip-path="url(#clip0_46_196)">
    <path d="M25.0383 11.9738H22.8991V9.83456C22.8991 9.24339 22.4182 8.76746 21.832 8.76746C21.2409 8.76746 20.7649 9.2484 20.7649 9.83456V11.9738H18.6257C18.0345 11.9738 17.5586 12.4547 17.5586 13.0409C17.5586 13.6321 18.0395 14.108 18.6257 14.108H20.7649V16.2472C20.7649 16.8384 21.2459 17.3143 21.832 17.3143C22.4232 17.3143 22.8991 16.8334 22.8991 16.2472V14.108H25.0383C25.6295 14.108 26.1055 13.627 26.1055 13.0409C26.1055 12.4497 25.6245 11.9738 25.0383 11.9738Z" fill="black"/>
    <path d="M10.0728 0.215576C6.53082 0.215576 3.66016 3.08624 3.66016 6.62823C3.66517 10.1702 6.53082 13.0359 10.0728 13.0409C13.6148 13.0409 16.4855 10.1702 16.4855 6.62823C16.4855 3.08624 13.6148 0.215576 10.0728 0.215576Z" fill="#FF7A00"/>
    <path d="M10.0721 15.1801C4.76162 15.1851 0.458135 19.4886 0.453125 24.799C0.453125 25.3852 0.934074 25.8661 1.52023 25.8661C2.10639 25.8661 2.58733 25.3852 2.58733 24.799C2.58733 20.6659 5.93895 17.3193 10.0671 17.3193C14.1952 17.3193 17.5468 20.6709 17.5468 24.799C17.5468 25.3902 18.0278 25.8661 18.6139 25.8661C19.2051 25.8661 19.6811 25.3852 19.6811 24.799C19.6861 19.4886 15.3826 15.1851 10.0721 15.1801Z" fill="black"/>
  </g>
  <defs>
    <clipPath id="clip0_46_196">
      <rect width="25.6506" height="25.6506" fill="white" transform="translate(0.453125 0.215576)"/>
    </clipPath>
  </defs>
</svg>