<svg width="158" height="37" viewBox="0 0 158 37" fill="none" xmlns="http://www.w3.org/2000/svg">
<path d="M30.0199 0.986328H6.79648C3.26802 0.986328 0.445312 3.77221 0.445312 7.25463V30.1752C0.445312 33.6576 3.26802 36.4435 6.79648 36.4435H30.0199C33.5485 36.4435 36.3712 33.6576 36.3712 30.1752V7.25463C36.3712 3.77221 33.5485 0.986328 30.0199 0.986328Z" fill="white"/>
<path fill-rule="evenodd" clip-rule="evenodd" d="M41.826 24.4749H43.7128L44.7918 21.3977H49.3949L50.472 24.4749H52.3589L48.1193 12.8474H46.0656L41.826 24.4749ZM48.8782 19.9215L47.1413 14.9594H47.0493L45.3094 19.9215H48.8782Z" fill="black"/>
<path fill-rule="evenodd" clip-rule="evenodd" d="M55.1776 24.1058C55.7375 24.4654 56.3741 24.6452 57.0874 24.6452C57.6243 24.6452 58.0615 24.5562 58.399 24.3783C58.7365 24.2004 59.0011 23.9923 59.1929 23.7538C59.3884 23.5154 59.538 23.3034 59.6416 23.1179H59.7854V24.4749H61.4651V12.8474H59.7451V17.168H59.6416C59.538 16.9863 59.3923 16.7762 59.2044 16.5378C59.0203 16.2993 58.7595 16.0911 58.422 15.9132C58.0884 15.7316 57.6473 15.6407 57.0989 15.6407C56.3895 15.6407 55.7548 15.8186 55.1949 16.1744C54.6349 16.5302 54.1939 17.0431 53.8718 17.713C53.5535 18.3829 53.3943 19.1891 53.3943 20.1316C53.3943 21.0741 53.5516 21.8821 53.866 22.5559C54.1843 23.2258 54.6215 23.7425 55.1776 24.1058ZM58.7212 22.8114C58.3798 23.0687 57.9618 23.1974 57.4671 23.1974C56.957 23.1974 56.5275 23.0631 56.1785 22.7943C55.8334 22.5218 55.5726 22.1528 55.3962 21.6872C55.2198 21.2217 55.1316 20.6974 55.1316 20.1146C55.1316 19.5392 55.2179 19.0226 55.3904 18.5646C55.5669 18.1066 55.8276 17.7452 56.1728 17.4802C56.5179 17.2153 56.9494 17.0828 57.4671 17.0828C57.9695 17.0828 58.3913 17.2096 58.7327 17.4632C59.074 17.7168 59.3328 18.0707 59.5092 18.5249C59.6857 18.9791 59.7739 19.509 59.7739 20.1146C59.7739 20.7277 59.6837 21.2652 59.5035 21.727C59.3271 22.1887 59.0663 22.5502 58.7212 22.8114Z" fill="black"/>
<path fill-rule="evenodd" clip-rule="evenodd" d="M65.4732 24.0888C66.0906 24.4635 66.8135 24.6509 67.6419 24.6509C68.4702 24.6509 69.1931 24.4635 69.8106 24.0888C70.428 23.7141 70.9074 23.1899 71.2487 22.5161C71.59 21.8424 71.7607 21.0551 71.7607 20.1543C71.7607 19.2497 71.59 18.4586 71.2487 17.7811C70.9074 17.1036 70.428 16.5775 69.8106 16.2028C69.1931 15.8281 68.4702 15.6407 67.6419 15.6407C66.8135 15.6407 66.0906 15.8281 65.4732 16.2028C64.8557 16.5775 64.3764 17.1036 64.035 17.7811C63.6937 18.4586 63.5231 19.2497 63.5231 20.1543C63.5231 21.0551 63.6937 21.8424 64.035 22.5161C64.3764 23.1899 64.8557 23.7141 65.4732 24.0888ZM68.9822 22.8057C68.6294 23.0858 68.1845 23.2258 67.6476 23.2258C67.1069 23.2258 66.6582 23.0858 66.3015 22.8057C65.9487 22.5256 65.686 22.1528 65.5134 21.6872C65.3447 21.2217 65.2603 20.7088 65.2603 20.1486C65.2603 19.5922 65.3447 19.0813 65.5134 18.6157C65.686 18.1464 65.9487 17.7698 66.3015 17.4859C66.6582 17.202 67.1069 17.0601 67.6476 17.0601C68.1845 17.0601 68.6294 17.202 68.9822 17.4859C69.335 17.7698 69.5958 18.1464 69.7645 18.6157C69.9371 19.0813 70.0234 19.5922 70.0234 20.1486C70.0234 20.7088 69.9371 21.2217 69.7645 21.6872C69.5958 22.1528 69.335 22.5256 68.9822 22.8057Z" fill="black"/>
<path fill-rule="evenodd" clip-rule="evenodd" d="M73.8186 12.8474V24.4749H75.4984V23.1179H75.6422C75.7457 23.3034 75.8934 23.5154 76.0851 23.7538C76.2769 23.9923 76.5415 24.2004 76.879 24.3783C77.2203 24.5562 77.6594 24.6452 78.1963 24.6452C78.9096 24.6452 79.5443 24.4654 80.1004 24.1058C80.6565 23.7425 81.0936 23.2258 81.4119 22.5559C81.7303 21.8821 81.8894 21.0741 81.8894 20.1316C81.8894 19.1891 81.7283 18.3829 81.4062 17.713C81.0879 17.0431 80.6488 16.5302 80.0889 16.1744C79.529 15.8186 78.8924 15.6407 78.179 15.6407C77.6306 15.6407 77.1896 15.7316 76.856 15.9132C76.5223 16.0911 76.2615 16.2993 76.0736 16.5378C75.8857 16.7762 75.7419 16.9863 75.6422 17.168H75.5386V12.8474H73.8186ZM75.7745 21.727C75.5942 21.2652 75.5041 20.7277 75.5041 20.1146C75.5041 19.509 75.5923 18.9791 75.7687 18.5249C75.9451 18.0707 76.204 17.7168 76.5453 17.4632C76.8905 17.2096 77.3123 17.0828 77.8109 17.0828C78.3286 17.0828 78.76 17.2153 79.1052 17.4802C79.4542 17.7452 79.715 18.1066 79.8875 18.5646C80.0639 19.0226 80.1522 19.5392 80.1522 20.1146C80.1522 20.6974 80.062 21.2217 79.8818 21.6872C79.7054 22.1528 79.4446 22.5218 79.0994 22.7943C78.7543 23.0631 78.3248 23.1974 77.8109 23.1974C77.3162 23.1974 76.8981 23.0687 76.5568 22.8114C76.2155 22.5502 75.9547 22.1887 75.7745 21.727Z" fill="black"/>
<path fill-rule="evenodd" clip-rule="evenodd" d="M85.3798 24.1001C86.0087 24.4673 86.7584 24.6509 87.629 24.6509C88.2733 24.6509 88.8466 24.5543 89.349 24.3613C89.8552 24.1645 90.2751 23.8901 90.6088 23.5381C90.9463 23.1823 91.1802 22.7678 91.3106 22.2947L89.6826 22.0052C89.5791 22.2777 89.4295 22.5067 89.2339 22.6921C89.0384 22.8776 88.8063 23.0176 88.5379 23.1123C88.2694 23.2031 87.9722 23.2485 87.6462 23.2485C87.1439 23.2485 86.7048 23.1425 86.3289 22.9306C85.9531 22.7148 85.6597 22.4026 85.4488 21.9938C85.256 21.6132 85.1529 21.1571 85.1396 20.6255H91.4199V20.0237C91.4199 19.2327 91.3125 18.5608 91.0978 18.0082C90.883 17.4518 90.5896 16.9995 90.2176 16.6513C89.8456 16.3031 89.4257 16.0476 88.9578 15.8849C88.4899 15.7221 88.0067 15.6407 87.5082 15.6407C86.6875 15.6407 85.9703 15.8319 85.3567 16.2141C84.747 16.5964 84.2714 17.1282 83.9301 17.8095C83.5926 18.4908 83.4239 19.2781 83.4239 20.1713C83.4239 21.0759 83.5926 21.8651 83.9301 22.5388C84.2714 23.2088 84.7546 23.7292 85.3798 24.1001ZM85.1425 19.3538C85.1631 18.9789 85.2576 18.6288 85.4258 18.3035C85.6214 17.9287 85.8975 17.6259 86.2541 17.3951C86.6146 17.1604 87.0365 17.0431 87.5197 17.0431C87.9645 17.0431 88.3519 17.1434 88.6817 17.344C89.0153 17.5446 89.2742 17.819 89.4583 18.1672C89.6424 18.5116 89.7344 18.9072 89.7344 19.3538H85.1425Z" fill="black"/>
<path fill-rule="evenodd" clip-rule="evenodd" d="M96.8618 24.4749H98.7486L99.8276 21.3977H104.431L105.508 24.4749H107.395L103.155 12.8474H101.101L96.8618 24.4749ZM103.914 19.9215L102.177 14.9594H102.085L100.345 19.9215H103.914Z" fill="black"/>
<path d="M110.328 24.0774C110.946 24.4597 111.682 24.6509 112.537 24.6509C113.235 24.6509 113.843 24.5241 114.361 24.2705C114.882 24.0169 115.299 23.6687 115.609 23.2258C115.92 22.783 116.106 22.2796 116.167 21.7156H114.493C114.42 22.0298 114.292 22.2985 114.108 22.5218C113.928 22.7451 113.703 22.9173 113.435 23.0385C113.17 23.1558 112.875 23.2145 112.549 23.2145C112.062 23.2145 111.638 23.0877 111.278 22.8341C110.921 22.5805 110.645 22.2228 110.449 21.761C110.254 21.2993 110.156 20.7504 110.156 20.1146C110.156 19.4938 110.256 18.9564 110.455 18.5022C110.654 18.0442 110.932 17.6922 111.289 17.4462C111.65 17.1963 112.07 17.0714 112.549 17.0714C113.097 17.0714 113.534 17.2191 113.86 17.5143C114.19 17.8095 114.401 18.1615 114.493 18.5703H116.167C116.106 17.9836 115.912 17.4708 115.586 17.0317C115.264 16.5926 114.84 16.252 114.315 16.0098C113.79 15.7637 113.191 15.6407 112.52 15.6407C111.688 15.6407 110.965 15.8319 110.351 16.2141C109.738 16.5964 109.262 17.1282 108.925 17.8095C108.587 18.487 108.419 19.2686 108.419 20.1543C108.419 21.0286 108.583 21.8046 108.913 22.4821C109.243 23.1596 109.715 23.6914 110.328 24.0774Z" fill="black"/>
<path d="M119.669 15.7543H118.007V24.4749H119.727V19.1494C119.727 18.7709 119.819 18.434 120.003 18.1388C120.187 17.8398 120.436 17.607 120.751 17.4405C121.069 17.2702 121.431 17.185 121.838 17.185C122.014 17.185 122.191 17.1982 122.367 17.2247C122.543 17.2474 122.666 17.2683 122.735 17.2872V15.6634C122.651 15.6521 122.534 15.6426 122.384 15.635C122.239 15.6275 122.112 15.6237 122.005 15.6237C121.487 15.6237 121.023 15.7599 120.612 16.0325C120.206 16.3012 119.922 16.6702 119.761 17.1396H119.669V15.7543Z" fill="black"/>
<path fill-rule="evenodd" clip-rule="evenodd" d="M125.46 24.0888C126.078 24.4635 126.801 24.6509 127.629 24.6509C128.457 24.6509 129.18 24.4635 129.798 24.0888C130.415 23.7141 130.895 23.1899 131.236 22.5161C131.577 21.8424 131.748 21.0551 131.748 20.1543C131.748 19.2497 131.577 18.4586 131.236 17.7811C130.895 17.1036 130.415 16.5775 129.798 16.2028C129.18 15.8281 128.457 15.6407 127.629 15.6407C126.801 15.6407 126.078 15.8281 125.46 16.2028C124.843 16.5775 124.364 17.1036 124.022 17.7811C123.681 18.4586 123.51 19.2497 123.51 20.1543C123.51 21.0551 123.681 21.8424 124.022 22.5161C124.364 23.1899 124.843 23.7141 125.46 24.0888ZM128.969 22.8057C128.617 23.0858 128.172 23.2258 127.635 23.2258C127.094 23.2258 126.645 23.0858 126.289 22.8057C125.936 22.5256 125.673 22.1528 125.501 21.6872C125.332 21.2217 125.248 20.7088 125.248 20.1486C125.248 19.5922 125.332 19.0813 125.501 18.6157C125.673 18.1464 125.936 17.7698 126.289 17.4859C126.645 17.202 127.094 17.0601 127.635 17.0601C128.172 17.0601 128.617 17.202 128.969 17.4859C129.322 17.7698 129.583 18.1464 129.752 18.6157C129.924 19.0813 130.011 19.5922 130.011 20.1486C130.011 20.7088 129.924 21.2217 129.752 21.6872C129.583 22.1528 129.322 22.5256 128.969 22.8057Z" fill="black"/>
<path fill-rule="evenodd" clip-rule="evenodd" d="M133.806 12.8474V24.4749H135.486V23.1179H135.629C135.733 23.3034 135.881 23.5154 136.072 23.7538C136.264 23.9923 136.529 24.2004 136.866 24.3783C137.208 24.5562 137.647 24.6452 138.184 24.6452C138.897 24.6452 139.532 24.4654 140.088 24.1058C140.644 23.7425 141.081 23.2258 141.399 22.5559C141.718 21.8821 141.877 21.0741 141.877 20.1316C141.877 19.1891 141.716 18.3829 141.393 17.713C141.075 17.0431 140.636 16.5302 140.076 16.1744C139.516 15.8186 138.88 15.6407 138.166 15.6407C137.618 15.6407 137.177 15.7316 136.843 15.9132C136.51 16.0911 136.249 16.2993 136.061 16.5378C135.873 16.7762 135.729 16.9863 135.629 17.168H135.526V12.8474H133.806ZM135.762 21.727C135.581 21.2652 135.491 20.7277 135.491 20.1146C135.491 19.509 135.58 18.9791 135.756 18.5249C135.932 18.0707 136.191 17.7168 136.533 17.4632C136.878 17.2096 137.3 17.0828 137.798 17.0828C138.316 17.0828 138.747 17.2153 139.092 17.4802C139.441 17.7452 139.702 18.1066 139.875 18.5646C140.051 19.0226 140.139 19.5392 140.139 20.1146C140.139 20.6974 140.049 21.2217 139.869 21.6872C139.693 22.1528 139.432 22.5218 139.087 22.7943C138.742 23.0631 138.312 23.1974 137.798 23.1974C137.303 23.1974 136.885 23.0687 136.544 22.8114C136.203 22.5502 135.942 22.1887 135.762 21.727Z" fill="black"/>
<path fill-rule="evenodd" clip-rule="evenodd" d="M144.861 24.3613C145.313 24.5657 145.82 24.6679 146.379 24.6679C146.866 24.6679 147.285 24.5979 147.633 24.4578C147.982 24.3178 148.268 24.1418 148.491 23.9298C148.713 23.7179 148.88 23.5021 148.991 23.2826H149.06V24.4749H150.74V18.6838C150.74 18.048 150.629 17.5313 150.406 17.1339C150.184 16.7327 149.898 16.4242 149.549 16.2085C149.204 15.9927 148.832 15.8451 148.433 15.7656C148.038 15.6824 147.664 15.6407 147.311 15.6407C146.778 15.6407 146.27 15.7164 145.787 15.8678C145.304 16.0154 144.876 16.2539 144.504 16.5832C144.136 16.9087 143.856 17.3364 143.664 17.8663L145.281 18.2296C145.407 17.9231 145.635 17.6449 145.965 17.3951C146.299 17.1415 146.755 17.0147 147.334 17.0147C147.89 17.0147 148.308 17.1509 148.588 17.4234C148.872 17.696 149.014 18.0801 149.014 18.576V18.6157C149.014 18.8201 148.939 18.9677 148.79 19.0586C148.64 19.1494 148.4 19.2156 148.071 19.2573C147.906 19.2762 147.716 19.298 147.501 19.3226L146.782 19.4049C146.364 19.4541 145.954 19.526 145.551 19.6206C145.148 19.7152 144.784 19.8553 144.458 20.0408C144.132 20.2262 143.873 20.4779 143.681 20.7959C143.49 21.1138 143.394 21.5188 143.394 22.0108C143.394 22.5824 143.524 23.065 143.785 23.4586C144.05 23.8522 144.408 24.1531 144.861 24.3613ZM147.973 23.0271C147.635 23.2126 147.229 23.3053 146.753 23.3053C146.266 23.3053 145.866 23.1993 145.551 22.9874C145.237 22.7716 145.079 22.4537 145.079 22.0335C145.079 21.7307 145.16 21.4885 145.321 21.3068C145.486 21.1214 145.704 20.9794 145.977 20.881C146.253 20.7826 146.558 20.7126 146.891 20.671C147.033 20.652 147.21 20.6293 147.421 20.6028C147.632 20.5725 147.848 20.5404 148.071 20.5063C148.293 20.4685 148.491 20.4249 148.663 20.3757C148.84 20.3227 148.958 20.266 149.02 20.2054V21.3295C149.02 21.674 148.93 21.9976 148.749 22.3004C148.573 22.5994 148.314 22.8416 147.973 23.0271Z" fill="black"/>
<path d="M157.155 17.1169V15.7543H155.343V13.665H153.623V15.7543H152.329V17.1169H153.623V22.2663C153.623 22.7924 153.744 23.2296 153.986 23.5778C154.227 23.926 154.544 24.1834 154.935 24.3499C155.326 24.5165 155.748 24.596 156.2 24.5884C156.477 24.5846 156.707 24.5619 156.891 24.5203C157.075 24.4824 157.217 24.4446 157.316 24.4067L157.006 23.0044C156.948 23.0157 156.868 23.0309 156.764 23.0498C156.661 23.0687 156.54 23.0782 156.402 23.0782C156.214 23.0782 156.039 23.0498 155.878 22.993C155.721 22.9325 155.593 22.8208 155.493 22.6581C155.393 22.4915 155.343 22.2436 155.343 21.9143V17.1169H157.155Z" fill="black"/>
<path d="M6.79648 0.986328H30.0199C33.5485 0.986328 36.3712 3.77221 36.3712 7.25463V30.1752C36.3712 33.6576 33.5485 36.4435 30.0199 36.4435H6.79648C3.26802 36.4435 0.445312 33.6576 0.445312 30.1752V7.25463C0.445312 3.77221 3.26802 0.986328 6.79648 0.986328Z" fill="#FA0F00"/>
<path d="M29.094 21.4375C27.4258 19.7279 22.8709 20.4245 21.7804 20.5511C20.1766 19.0314 19.0861 17.1952 18.7011 16.5621C19.2785 14.8526 19.6633 13.143 19.7276 11.307C19.7276 9.72403 19.0861 8.0146 17.2896 8.0146C16.6482 8.0146 16.0707 8.39438 15.7499 8.90089C14.9801 10.2307 15.3008 12.89 16.5198 15.6125C15.8142 17.5753 15.1725 19.4747 13.3762 22.8306C11.5158 23.5901 7.60242 25.3631 7.28162 27.2627C7.15335 27.8324 7.34575 28.4025 7.79482 28.8455C8.2439 29.2255 8.82124 29.4154 9.39872 29.4154C11.7724 29.4154 14.0819 26.1864 15.6858 23.4635C17.033 23.0205 19.1501 22.3872 21.2672 22.0073C23.7691 24.1601 25.9503 24.4766 27.1051 24.4766C28.6448 24.4766 29.2222 23.8435 29.4146 23.2735C29.7353 22.6405 29.5429 21.944 29.094 21.4375ZM27.4899 22.514C27.4258 22.9572 26.8486 23.4002 25.822 23.1471C24.6031 22.8306 23.5125 22.2606 22.5503 21.5008C23.3843 21.3741 25.2446 21.1842 26.5919 21.4375C27.1051 21.5641 27.6183 21.8807 27.4899 22.514ZM16.7764 9.4707C16.9047 9.28081 17.0972 9.15422 17.2896 9.15422C17.867 9.15422 17.9953 9.85062 17.9953 10.4206C17.9311 11.7503 17.6744 13.0799 17.2255 14.3462C16.2631 11.8135 16.4556 10.0405 16.7764 9.4707ZM16.6482 21.7541C17.1614 20.7411 17.8671 18.9681 18.1237 18.2083C18.701 19.1578 19.6633 20.2977 20.1766 20.8043C20.1766 20.8677 18.1878 21.2475 16.6482 21.7541ZM12.863 24.2868C11.3876 26.6928 9.84779 28.2123 9.01378 28.2123C8.88551 28.2123 8.75711 28.149 8.62884 28.0857C8.4363 27.959 8.37217 27.7691 8.4363 27.5159C8.62884 26.6295 10.2969 25.4264 12.863 24.2868Z" fill="white"/>
</svg>
