<svg width="76" height="20" viewBox="0 0 76 20" fill="none" xmlns="http://www.w3.org/2000/svg">
<path d="M53.1453 17.0147V14.9847H51.1153V17.0147H53.1453ZM65.3053 17.0147H67.3353V14.9847H65.3053V17.0147ZM73.4153 8.91469H75.4453V6.88469H73.4153V8.91469ZM34.9053 4.85469V6.88469H32.8753V4.85469H28.8253V19.0447H32.8753V8.91469H38.9553V4.85469H34.9053ZM45.0353 6.88469H49.0853V10.9347H45.0353V6.88469ZM43.0153 4.85469V6.88469H40.9853V17.0247H43.0153V19.0547H51.1253V17.0247H45.0453V12.9747H53.1453V6.88469H51.1153V4.85469H43.0153ZM67.3353 4.85469V6.88469H65.3053V10.9347H67.3353V12.9647H69.3653V14.9947H71.3953V17.0247H67.3453V19.0547H73.4253V17.0247H75.4453V12.9747H73.4153V10.9447H71.3853V8.91469H69.3553V6.88469H73.4053V4.85469H67.3353ZM14.6353 0.804688V19.0447H18.6853V6.88469H22.7453V19.0447H26.7953V6.88469H24.7653V4.85469H18.6853V0.804688H14.6353ZM59.2253 0.804688V2.83469H57.1953V4.86469H55.1653V6.88469H57.1953V19.0447H61.2453V6.88469H63.2753V4.85469H61.2453V2.82469H65.2953V0.804688H59.2253Z" fill="#125E97"/>
<path d="M0.445312 8.91469H2.47531V6.88469H0.445312V8.91469ZM4.49531 12.9647H8.54531V17.0147H4.49531V12.9647ZM2.47531 4.85469V6.88469H8.55531V10.9347H2.47531V12.9647H0.445312V17.0147H2.47531V19.0447H12.6153V6.88469H10.5853V4.85469H2.47531Z" fill="#FF8800"/>
</svg>
