<svg width="80" height="30" viewBox="0 0 80 30" fill="none" xmlns="http://www.w3.org/2000/svg">
<path d="M7.96213 8.80128V1.61026L14.9869 7.0464C17.4197 8.9537 17.8811 11.7299 17.8242 11.6605C16.2403 9.69267 14.1251 8.82918 12.6689 8.80604L7.96213 8.80128Z" fill="#FF9C6C"/>
<path d="M26.8896 10.3531H21.6333V29.3724H26.8896V10.3531Z" fill="#FF5A0A"/>
<path d="M36.105 1.37417H30.8487V29.3727H36.105V1.37417Z" fill="#FF5A0A"/>
<path d="M45.3164 1.37417H40.0601V29.3727H45.3164V1.37417Z" fill="#FF5A0A"/>
<path d="M12.5633 22.8021C12.5633 23.6493 11.8284 24.3447 10.9976 24.3447H6.51117V15.292H10.9976C11.8336 15.292 12.5633 15.9793 12.5633 16.8346V22.8021ZM6.54616 10.3594V1.38561H1.31641V29.3699H12.2606C15.3395 29.3699 17.8339 26.7508 17.8339 23.518V16.2113C17.8339 12.9784 15.3395 10.3594 12.2606 10.3594H6.54616Z" fill="#FF5A0A"/>
<path d="M24.2297 7.64791C26.1261 7.64791 27.6635 6.11053 27.6635 4.21409C27.6635 2.31765 26.1261 0.780273 24.2297 0.780273C22.3332 0.780273 20.7959 2.31765 20.7959 4.21409C20.7959 6.11053 22.3332 7.64791 24.2297 7.64791Z" fill="#FF5A0A"/>
</svg>
