<svg width="141" height="35" viewBox="0 0 141 35" fill="none" xmlns="http://www.w3.org/2000/svg">
<path d="M83.6285 13.8451C85.6837 13.8451 87.6304 15.1516 88.0374 17.9835H78.8872C79.267 15.4976 81.0509 13.8451 83.6285 13.8451ZM87.7457 22.1643C87.0471 23.3013 85.6973 24.17 83.8455 24.17C81.2951 24.17 79.3552 22.7152 78.8872 20.1516H90.3639C90.4182 19.7844 90.4453 19.4101 90.4453 19.0428C90.4453 15.0527 87.7661 11.5146 83.6217 11.5146C79.3484 11.5146 76.4453 14.7914 76.4453 19.0146C76.4453 23.2872 79.3756 26.5146 83.7845 26.5146C86.5248 26.5146 88.6071 25.2293 89.8077 23.2872L87.7457 22.1643Z" fill="#006DFC"/>
<path d="M74.4453 5.51465H72.4453V26.5146H74.4453V5.51465Z" fill="#006DFC"/>
<path d="M104.445 17.5334V26.5146H102.091V17.6783C102.091 15.2809 100.816 13.9337 98.7304 13.9337C96.5638 13.9337 94.7997 15.3099 94.7997 18.7575V26.5074H92.4453V11.8912H94.7997V13.9989C95.7992 12.2751 97.295 11.5146 99.1932 11.5146C102.359 11.5074 104.445 13.7889 104.445 17.5334Z" fill="#006DFC"/>
<path d="M118.973 19.0761C118.973 16.193 116.789 14.0168 113.924 14.0168C111.087 14.0168 108.903 16.193 108.903 19.0761C108.903 21.9591 111.087 24.1354 113.924 24.1354C116.789 24.1354 118.973 21.9591 118.973 19.0761ZM121.445 5.51465V26.1437H118.98V23.7155C117.843 25.444 116.031 26.5146 113.622 26.5146C109.683 26.5146 106.445 23.2607 106.445 19.0831C106.445 14.8985 109.676 11.6516 113.622 11.6516C116.031 11.6516 117.85 12.7222 118.98 14.4506V5.51465H121.445Z" fill="#006DFC"/>
<path d="M126.445 5.51465H123.445V26.5146H126.445V5.51465Z" fill="#006DFC"/>
<path d="M67.9804 19.0075C67.9804 16.0979 65.7964 13.9016 62.9313 13.9016C60.0942 13.9016 57.9102 16.0979 57.9102 19.0075C57.9102 21.9171 60.0942 24.1135 62.9313 24.1135C65.7964 24.1135 67.9804 21.9171 67.9804 19.0075ZM70.4453 11.8818V26.1403H67.9804V23.6897C66.8428 25.4341 65.031 26.5146 62.6223 26.5146C58.6827 26.5146 55.4453 23.2307 55.4453 19.0146C55.4453 14.7914 58.6827 11.5146 62.6223 11.5146C65.031 11.5146 66.8498 12.5951 67.9804 14.3395V11.8889H70.4453V11.8818Z" fill="#006DFC"/>
<path d="M50.7855 23.3352C46.7079 24.8262 42.1915 22.7574 40.6885 18.7195C39.1854 14.6745 41.271 10.1943 45.3415 8.70332C47.9592 7.74022 50.9006 8.23247 53.0581 9.99458C53.504 10.3584 53.9067 10.7721 54.2591 11.2216L56.4453 9.63788C52.8927 5.02928 46.2476 4.1518 41.6018 7.67602C36.956 11.2002 36.0715 17.7921 39.6241 22.3935C43.1768 26.995 49.8218 27.8796 54.4676 24.3554C54.482 24.3411 54.4964 24.334 54.518 24.3197L53.0581 22.0368C52.3749 22.5933 51.6126 23.0284 50.7855 23.3352Z" fill="#006DFC"/>
<path d="M137.908 12.5146V20.567C137.908 23.1738 136.368 24.818 134.024 24.818C131.679 24.818 129.983 23.1668 129.983 20.567V12.5146H127.445V20.3281C127.445 24.4175 130.032 27.0805 134.024 27.0805C137.473 27.0805 138.015 24.9304 138.015 24.8742V27.7691C138.015 30.636 136.746 32.2591 134.109 32.2591C132.156 32.2661 130.503 30.8538 130.232 28.9426L127.966 29.7225C128.635 32.5331 131.18 34.5216 134.109 34.5146C138.207 34.5146 140.445 31.8586 140.445 27.7621V12.5146H137.908Z" fill="#006DFC"/>
<path d="M21.082 20.4933C20.0915 21.3444 18.8515 22.4011 16.6137 22.4011H15.2711C13.6496 22.4011 12.1749 21.8337 11.1183 20.7983C10.0838 19.7912 9.51885 18.4082 9.51885 16.9047V15.1316C9.51885 13.6281 10.0911 12.2451 11.1183 11.238C12.1749 10.2025 13.6496 9.63522 15.2711 9.63522H16.6137C18.8589 9.63522 20.0915 10.6919 21.082 11.543C22.1092 12.4224 22.9969 13.1884 25.3668 13.1884C25.7263 13.1884 26.0858 13.16 26.4453 13.1033L26.438 13.082C26.2986 12.7415 26.1298 12.4153 25.9391 12.0962L24.3543 9.44373C22.9016 7.0111 20.2235 5.51465 17.3181 5.51465H14.1558C11.2504 5.51465 8.57238 7.0111 7.11965 9.44373L5.53486 12.0891C4.08213 14.5217 4.08213 17.5146 5.53486 19.9401L7.11965 22.5855C8.57238 25.0181 11.2504 26.5146 14.1558 26.5146H17.3181C20.2162 26.5146 22.9016 25.0181 24.3543 22.5855L25.9391 19.9401C26.1298 19.621 26.2986 19.2947 26.438 18.9543L26.4453 18.933C26.0858 18.8763 25.7263 18.8479 25.3668 18.8479C23.0043 18.855 22.1165 19.6139 21.082 20.4933Z" fill="#016BFF"/>
<path d="M16.5923 11.5146H15.3212C12.9804 11.5146 11.4453 13.126 11.4453 15.1788V16.8504C11.4453 18.9098 12.9804 20.5146 15.3212 20.5146H16.5923C20.0029 20.5146 19.732 17.1714 24.879 17.1714C25.3652 17.1714 25.8514 17.2115 26.3307 17.2984C26.4835 16.4492 26.4835 15.58 26.3307 14.7241C25.8514 14.811 25.3652 14.8512 24.879 14.8512C19.732 14.8578 20.0029 11.5146 16.5923 11.5146Z" fill="#016BFF"/>
<path d="M29.7606 18.7516C28.855 18.081 27.8057 17.6218 26.6989 17.4177V17.4469C26.6055 17.9863 26.4546 18.5111 26.2534 19.0213C27.1661 19.1671 28.0357 19.5243 28.7831 20.0782C28.7831 20.0855 28.776 20.0928 28.776 20.1001C26.5552 27.3892 18.9227 31.4783 11.7286 29.226C4.5345 26.9737 0.509823 19.2327 2.73058 11.9363C4.95134 4.64004 12.5838 0.550873 19.7779 2.8032C24.0829 4.15167 27.4536 7.57024 28.7831 11.9363C28.7831 11.9436 28.7903 11.9509 28.7903 11.9582C28.0429 12.5049 27.1733 12.8693 26.2605 13.0151C26.4618 13.5254 26.6127 14.0502 26.7061 14.5896C26.7061 14.5969 26.7061 14.6041 26.7061 14.6187C27.8129 14.4146 28.855 13.9627 29.7678 13.2848C30.6374 12.6288 30.4721 11.8926 30.3355 11.4553C27.8417 3.2697 19.2892 -1.31512 11.2255 1.20689C3.1618 3.72891 -1.35877 12.4028 1.1279 20.5812C3.61457 28.7595 12.167 33.3443 20.2307 30.8223C25.0603 29.3135 28.8406 25.4794 30.3283 20.5812C30.4649 20.1438 30.6302 19.4076 29.7606 18.7516Z" fill="#006DFD"/>
<path d="M26.0002 13.039C25.6484 13.0968 25.2967 13.1257 24.9449 13.1257C22.6332 13.1257 21.7646 12.3529 20.7595 11.4574C19.7903 10.5907 18.5843 9.51465 16.3875 9.51465H15.0737C13.4871 9.51465 12.0441 10.0924 11.0104 11.1468C9.99809 12.1724 9.44531 13.5807 9.44531 15.1118V16.9174C9.44531 18.4485 9.99809 19.8496 11.0104 20.8824C12.0441 21.9368 13.4871 22.5146 15.0737 22.5146H16.3875C18.5843 22.5146 19.7903 21.4385 20.7595 20.5718C21.7646 19.6763 22.6332 18.9035 24.9449 18.9035C25.2967 18.9035 25.6484 18.9324 26.0002 18.9902C26.2012 18.4918 26.352 17.9646 26.4453 17.4374C26.4453 17.4302 26.4453 17.4229 26.4453 17.4085C25.95 17.3146 25.4474 17.264 24.9377 17.264C19.618 17.264 19.898 20.8752 16.3731 20.8752H15.0593C12.64 20.8752 11.0534 19.1346 11.0534 16.9174V15.1046C11.0534 12.8802 12.64 11.1468 15.0593 11.1468H16.3731C19.898 11.1468 19.618 14.7579 24.9377 14.7579C25.4403 14.7579 25.9428 14.7146 26.4381 14.6207V14.599C26.3448 14.0646 26.2012 13.5446 26.0002 13.039Z" fill="#07EAF4"/>
</svg>
