<svg width="188" height="20" viewBox="0 0 188 20" fill="none" xmlns="http://www.w3.org/2000/svg">
<path d="M49.2771 10.2602C49.2771 13.009 47.1286 15.0339 44.488 15.0339C41.8474 15.0339 39.6989 13.009 39.6989 10.2602C39.6989 7.4934 41.8474 5.48659 44.488 5.48659C47.1286 5.48659 49.2771 7.49086 49.2771 10.2602ZM47.1827 10.2602C47.1827 8.54195 45.9358 7.36717 44.4905 7.36717C43.0453 7.36717 41.7984 8.54195 41.7984 10.2602C41.7984 11.9605 43.0453 13.1533 44.4905 13.1533C45.9358 13.1533 47.1827 11.9579 47.1827 10.2602Z" fill="#246FDB"/>
<path d="M59.6074 10.2602C59.6074 13.009 57.4562 15.0339 54.8185 15.0339C52.1805 15.0339 50.0293 13.009 50.0293 10.2602C50.0293 7.49599 52.1779 5.48659 54.8185 5.48659C57.4562 5.48659 59.6074 7.49086 59.6074 10.2602ZM57.5108 10.2602C57.5108 8.54195 56.2637 7.36717 54.8185 7.36717C53.3733 7.36717 52.1264 8.54195 52.1264 10.2602C52.1264 11.9605 53.3733 13.1533 54.8185 13.1533C56.2637 13.1533 57.5108 11.9579 57.5108 10.2602Z" fill="#246FDB"/>
<path d="M69.5076 5.77511V14.3435C69.5076 17.8677 67.4291 19.3078 64.9709 19.3078C62.6575 19.3078 61.2668 17.7595 60.7413 16.4946L62.5652 15.7346C62.8896 16.5126 63.6855 17.4272 64.9687 17.4272C66.5425 17.4272 67.5164 16.4559 67.5164 14.6294V13.9442H67.4443C66.9757 14.5238 66.071 15.0288 64.9298 15.0288C62.5443 15.0288 60.3571 12.9498 60.3571 10.2757C60.3571 7.58099 62.5443 5.48659 64.9298 5.48659C66.0688 5.48659 66.9729 5.99152 67.4443 6.55311H67.5164V5.77511H69.5076ZM67.6634 10.2757C67.6634 8.59602 66.5425 7.36717 65.1157 7.36717C63.6703 7.36717 62.457 8.59602 62.457 10.2757C62.457 11.9399 63.6675 13.1507 65.1157 13.1507C66.5425 13.1507 67.6634 11.9399 67.6634 10.2757Z" fill="#246FDB"/>
<path d="M72.787 0.751761V14.7404H70.7418V0.751761H72.787Z" fill="#246FDB"/>
<path d="M80.7552 11.8293L82.3837 12.9139C81.8581 13.6919 80.593 15.0289 78.4058 15.0289C75.693 15.0289 73.6686 12.9319 73.6686 10.2553C73.6686 7.41634 75.711 5.48164 78.1714 5.48164C80.6471 5.48164 81.8604 7.45239 82.2547 8.51897L82.471 9.06253L76.0924 11.7057C76.5819 12.664 77.3395 13.1509 78.4058 13.1509C79.4726 13.1509 80.2117 12.6253 80.7552 11.8293ZM75.7471 10.1136L80.0134 8.34378C79.7791 7.74868 79.0733 7.33134 78.2435 7.33134C77.1773 7.33134 75.693 8.27163 75.7471 10.1136Z" fill="#246FDB"/>
<path d="M31.9626 9.01854V6.99365H38.7869C38.8539 7.34661 38.8873 7.76394 38.8873 8.21479C38.8873 9.7347 38.4726 11.6127 37.1329 12.9524C35.832 14.3074 34.1678 15.0313 31.9652 15.0313C27.8819 15.0313 24.4453 11.7055 24.4453 7.61969C24.4453 3.53385 27.8794 0.208008 31.9652 0.208008C34.2244 0.208008 35.8346 1.09421 37.0428 2.25092L35.613 3.6807C34.7449 2.86662 33.5701 2.23546 31.96 2.23546C28.9768 2.23546 26.6453 4.63904 26.6453 7.62228C26.6453 10.6055 28.9794 13.0091 31.96 13.0091C33.8947 13.0091 34.9973 12.231 35.7032 11.5251C36.2751 10.9532 36.6512 10.134 36.8007 9.01854H31.9626Z" fill="#246FDB"/>
<path d="M90.2552 2.81679V14.1165H88.5546V2.88063H84.8633V1.24631H93.9465V2.81679H90.2552Z" fill="#7D7D7D"/>
<path d="M97.4645 5.00013C98.5512 4.94464 99.6182 5.29673 100.444 5.98328C100.811 6.32693 101.098 6.74311 101.284 7.20356C101.471 7.66401 101.553 8.15793 101.525 8.65181V14.1166H99.9034V12.8397H99.7847C99.4924 13.3019 99.0811 13.6826 98.5912 13.9445C98.1012 14.2063 97.5494 14.3404 96.9899 14.3336C96.0825 14.3579 95.1985 14.0527 94.5114 13.4781C94.1882 13.2162 93.9294 12.8877 93.7538 12.5167C93.5782 12.1456 93.4902 11.7413 93.4963 11.3331C93.4788 10.9163 93.567 10.5017 93.7531 10.1256C93.9393 9.74941 94.2177 9.42315 94.5642 9.1753C95.3875 8.60381 96.3869 8.32018 97.3986 8.37091C98.2631 8.33714 99.1218 8.52195 99.8902 8.90717V8.52413C99.8921 8.24657 99.8304 7.97205 99.7096 7.72036C99.5888 7.46866 99.4118 7.24605 99.1915 7.06856C98.7438 6.67512 98.1612 6.45672 97.5567 6.4557C97.1101 6.44857 96.669 6.55145 96.2747 6.75468C95.8803 6.95791 95.5458 7.25484 95.3024 7.61759L93.8127 6.71106C94.2196 6.14724 94.7689 5.6939 95.4082 5.39435C96.0475 5.09481 96.7555 4.95908 97.4645 5.00013ZM95.2761 11.3842C95.2706 11.5932 95.3183 11.8003 95.4148 11.9873C95.5114 12.1743 95.6538 12.3355 95.8298 12.4567C96.2131 12.7227 96.6769 12.8574 97.1481 12.8397C97.5045 12.8418 97.8577 12.7738 98.1862 12.64C98.5148 12.5061 98.8119 12.3091 99.0596 12.0609C99.3222 11.8399 99.5332 11.5674 99.6787 11.2614C99.8241 10.9554 99.9007 10.623 99.9034 10.2861C99.2592 9.84242 98.4775 9.62609 97.6886 9.67326C97.0745 9.65458 96.47 9.8244 95.9616 10.1584C95.7507 10.288 95.5773 10.4672 95.4574 10.6793C95.3375 10.8915 95.2751 11.1296 95.2761 11.3714V11.3842Z" fill="#7D7D7D"/>
<path d="M107.368 18.2023C106.886 18.2049 106.407 18.1404 105.944 18.0108C105.514 17.8996 105.104 17.7229 104.731 17.4873C104.382 17.2679 104.07 16.9964 103.808 16.6829C103.545 16.3774 103.344 16.0265 103.215 15.6487L104.823 14.9975C104.989 15.5148 105.327 15.9641 105.786 16.2744C106.249 16.5877 106.803 16.7488 107.368 16.734C107.766 16.7566 108.165 16.6965 108.538 16.5578C108.911 16.419 109.249 16.2049 109.53 15.9296C110.093 15.3123 110.382 14.5048 110.334 13.6824V12.8397H110.255C109.924 13.3126 109.469 13.6916 108.936 13.9378C108.385 14.2065 107.774 14.3423 107.157 14.3336C106.579 14.3392 106.007 14.2221 105.481 13.9905C104.954 13.7588 104.487 13.4183 104.111 12.993C103.298 12.0688 102.851 10.8941 102.851 9.67964C102.851 8.4652 103.298 7.29051 104.111 6.36632C104.485 5.93626 104.951 5.59095 105.477 5.35485C106.003 5.11876 106.577 4.99766 107.157 5.00013C107.775 4.99586 108.386 5.13601 108.936 5.40871C109.469 5.65488 109.924 6.03388 110.255 6.50677H110.334V5.2938H111.955V13.6824C111.991 14.2862 111.9 14.8908 111.687 15.4594C111.474 16.0279 111.144 16.5485 110.716 16.9894C110.273 17.4026 109.748 17.7235 109.172 17.9321C108.596 18.1407 107.982 18.2327 107.368 18.2023ZM107.368 12.8397C107.756 12.8488 108.142 12.7745 108.498 12.6222C108.853 12.4699 109.17 12.2434 109.424 11.9587C110.024 11.3414 110.351 10.521 110.334 9.67325C110.365 8.84106 110.068 8.02859 109.503 7.40053C109.246 7.12006 108.93 6.89556 108.577 6.74183C108.224 6.58809 107.841 6.5086 107.453 6.5086C107.066 6.5086 106.683 6.58809 106.33 6.74183C105.976 6.89556 105.661 7.12006 105.403 7.40053C104.839 8.02859 104.542 8.84106 104.573 9.67325C104.536 10.5062 104.834 11.3206 105.403 11.946C105.652 12.2279 105.962 12.4539 106.31 12.6083C106.658 12.7626 107.037 12.8416 107.42 12.8397H107.368Z" fill="#7D7D7D"/>
<path d="M120.047 14.1166H118.347V1.34846H120.047L124.648 9.00931H124.727L129.315 1.20801H131.016V14.1166H129.315V6.4557L129.394 4.31066H129.315L125.189 11.3331H124.187L120.047 4.31066H119.981L120.047 6.4557V14.1166Z" fill="#7D7D7D"/>
<path d="M136.543 5.00013C137.629 4.94464 138.696 5.29673 139.522 5.98328C139.899 6.32233 140.195 6.73645 140.391 7.19713C140.587 7.6578 140.677 8.15408 140.656 8.65181V14.1166H138.981V12.8397H138.902C138.608 13.3029 138.194 13.6841 137.702 13.9459C137.21 14.2078 136.656 14.3414 136.094 14.3336C135.182 14.3623 134.292 14.0569 133.603 13.4781C133.279 13.2162 133.021 12.8877 132.845 12.5167C132.669 12.1456 132.581 11.7413 132.588 11.3331C132.57 10.9163 132.658 10.5017 132.844 10.1256C133.031 9.74941 133.309 9.42315 133.655 9.1753C134.479 8.60381 135.478 8.32018 136.49 8.37091C137.354 8.34005 138.212 8.5247 138.981 8.90717V8.52413C138.983 8.24657 138.922 7.97205 138.801 7.72036C138.68 7.46866 138.503 7.24605 138.283 7.06856C137.849 6.68672 137.287 6.46914 136.701 6.4557C136.254 6.44857 135.813 6.55145 135.419 6.75468C135.024 6.95791 134.69 7.25484 134.446 7.61759L132.957 6.71106C133.358 6.15673 133.896 5.7093 134.523 5.41023C135.15 5.11116 135.844 4.97011 136.543 5.00013ZM134.341 11.3842C134.337 11.5943 134.387 11.8022 134.486 11.9893C134.584 12.1764 134.729 12.3369 134.908 12.4567C135.284 12.7409 135.749 12.8938 136.226 12.8908C136.583 12.8929 136.936 12.8249 137.264 12.6911C137.593 12.5572 137.89 12.3602 138.138 12.112C138.407 11.8854 138.622 11.6046 138.768 11.2893C138.913 10.9739 138.986 10.6316 138.981 10.2861C138.337 9.84242 137.556 9.62609 136.767 9.67326C136.153 9.65458 135.548 9.8244 135.04 10.1584C134.827 10.2874 134.652 10.4661 134.53 10.6781C134.408 10.8902 134.343 11.1286 134.341 11.3714V11.3842Z" fill="#7D7D7D"/>
<path d="M142.529 5.2938H144.151V6.4557H144.23C144.51 5.99429 144.922 5.62164 145.417 5.38318C145.928 5.10507 146.504 4.95581 147.091 4.94906C147.56 4.91987 148.03 4.98664 148.471 5.14503C148.911 5.30342 149.313 5.54987 149.648 5.86837C150.285 6.60108 150.606 7.54289 150.545 8.49859V14.1166H148.844V8.65181C148.887 8.35589 148.859 8.05433 148.762 7.77061C148.665 7.4869 148.502 7.2287 148.285 7.01615C148.068 6.8036 147.804 6.64244 147.512 6.54522C147.22 6.44801 146.909 6.41737 146.603 6.4557C146.278 6.45271 145.956 6.52261 145.663 6.65993C145.371 6.79726 145.115 6.99829 144.916 7.24732C144.458 7.78109 144.215 8.45644 144.23 9.14977V14.1166H142.529V5.2938Z" fill="#7D7D7D"/>
<path d="M155.881 5.00014C156.964 4.94398 158.027 5.29636 158.847 5.98328C159.217 6.32579 159.506 6.74146 159.695 7.20197C159.884 7.66247 159.968 8.15698 159.941 8.65181V14.1166H158.307V12.8397C158.012 13.3029 157.599 13.6841 157.106 13.946C156.614 14.2078 156.06 14.3414 155.499 14.3336C154.582 14.3643 153.688 14.0588 152.994 13.4782C152.672 13.2156 152.415 12.8866 152.242 12.5155C152.069 12.1444 151.983 11.7404 151.992 11.3331C151.973 10.9174 152.059 10.5036 152.243 10.1275C152.427 9.75142 152.703 9.42454 153.047 9.1753C153.871 8.60565 154.87 8.32222 155.881 8.37092C156.746 8.33714 157.604 8.52196 158.373 8.90718V8.52413C158.377 8.24614 158.317 7.97072 158.196 7.7186C158.075 7.46648 157.896 7.24423 157.674 7.06857C157.211 6.65773 156.601 6.43787 155.973 6.4557C155.527 6.44857 155.086 6.55145 154.691 6.75469C154.297 6.95792 153.962 7.25484 153.719 7.6176L152.216 6.71106C152.626 6.14712 153.178 5.69393 153.819 5.3945C154.46 5.09506 155.17 4.95932 155.881 5.00014ZM153.679 11.3842C153.674 11.5932 153.722 11.8003 153.818 11.9873C153.915 12.1743 154.057 12.3355 154.233 12.4567C154.61 12.74 155.074 12.8928 155.551 12.8908C155.908 12.8929 156.261 12.8249 156.59 12.6911C156.918 12.5572 157.215 12.3602 157.463 12.112C157.724 11.8854 157.934 11.608 158.077 11.2977C158.22 10.9875 158.294 10.6515 158.294 10.3117C157.649 9.86796 156.868 9.65163 156.079 9.6988C155.465 9.68012 154.86 9.84994 154.352 10.184C154.147 10.3127 153.979 10.4885 153.861 10.6957C153.744 10.9029 153.681 11.1351 153.679 11.3714V11.3842Z" fill="#7D7D7D"/>
<path d="M165.769 18.2023C165.287 18.2049 164.807 18.1404 164.345 18.0108C163.919 17.8996 163.513 17.7228 163.145 17.4873C162.792 17.2676 162.476 16.9963 162.209 16.6829C161.946 16.3774 161.745 16.0265 161.616 15.6487L163.224 14.9975C163.39 15.5148 163.728 15.9641 164.187 16.2744C164.649 16.5877 165.204 16.7488 165.769 16.734C166.167 16.7566 166.566 16.6965 166.939 16.5578C167.312 16.419 167.65 16.2049 167.931 15.9296C168.474 15.3181 168.753 14.5266 168.708 13.7207V12.8397H168.629C168.296 13.311 167.842 13.6896 167.311 13.9378C166.758 14.2024 166.148 14.3379 165.531 14.3336C164.952 14.3359 164.379 14.2174 163.851 13.9861C163.323 13.7547 162.853 13.416 162.473 12.993C161.659 12.0688 161.212 10.8941 161.212 9.67964C161.212 8.4652 161.659 7.29051 162.473 6.36632C162.847 5.9346 163.316 5.58829 163.844 5.35213C164.373 5.11597 164.949 4.99578 165.531 5.00013C166.149 4.99977 166.759 5.1397 167.311 5.40871C167.842 5.65693 168.296 6.03551 168.629 6.50677H168.708V5.2938H170.33V13.6824C170.366 14.2862 170.275 14.8908 170.062 15.4594C169.848 16.0279 169.518 16.5485 169.091 16.9894C168.651 17.3994 168.13 17.7184 167.559 17.927C166.987 18.1355 166.378 18.2292 165.769 18.2023ZM165.769 12.8397C166.157 12.8488 166.543 12.7745 166.899 12.6222C167.254 12.4699 167.571 12.2434 167.825 11.9587C168.396 11.3294 168.694 10.5104 168.656 9.67325C168.687 8.84106 168.39 8.02859 167.825 7.40053C167.572 7.11359 167.256 6.88461 166.9 6.73006C166.545 6.57552 166.158 6.49926 165.769 6.50677C165.381 6.50115 164.997 6.57833 164.644 6.73281C164.291 6.88729 163.977 7.11527 163.725 7.40053C163.161 8.02859 162.864 8.84106 162.895 9.67325C162.858 10.5062 163.156 11.3206 163.725 11.946C163.983 12.238 164.305 12.47 164.668 12.6248C165.031 12.7795 165.425 12.853 165.821 12.8397H165.769Z" fill="#7D7D7D"/>
<path d="M176.368 14.3336C175.758 14.3578 175.151 14.2564 174.585 14.0363C174.019 13.8162 173.508 13.4824 173.085 13.0568C172.207 12.154 171.733 10.9515 171.767 9.71157C171.726 8.48601 172.174 7.29235 173.019 6.37909C173.42 5.93426 173.918 5.5802 174.476 5.34193C175.034 5.10366 175.639 4.98698 176.249 5.00014C176.847 4.9745 177.443 5.07546 177.996 5.29598C178.55 5.5165 179.047 5.85127 179.453 6.27695C180.293 7.26957 180.716 8.53227 180.639 9.81371V9.99246H173.533C173.525 10.3776 173.6 10.7601 173.752 11.116C173.904 11.4719 174.13 11.7936 174.417 12.0609C174.741 12.3678 175.137 12.5956 175.57 12.7253C176.004 12.855 176.463 12.8829 176.91 12.8068C177.357 12.7308 177.779 12.5528 178.14 12.2877C178.502 12.0225 178.794 11.6778 178.991 11.282L180.507 11.9971C180.134 12.7008 179.575 13.2958 178.886 13.7207C178.121 14.1459 177.249 14.358 176.368 14.3336ZM173.612 8.61351H178.886C178.847 8.03304 178.572 7.49119 178.121 7.10687C177.605 6.66722 176.936 6.43437 176.249 6.4557C175.645 6.44422 175.059 6.6488 174.601 7.03027C174.096 7.43472 173.748 7.99276 173.612 8.61351Z" fill="#7D7D7D"/>
<path d="M183.908 14.1166H182.208V5.29381H183.829V6.72383H183.908C184.107 6.22174 184.48 5.80208 184.963 5.5364C185.43 5.22703 185.979 5.05418 186.545 5.03844C186.995 5.02056 187.444 5.09451 187.863 5.2555L187.349 6.85151C187.027 6.74678 186.687 6.70343 186.347 6.72383C186.03 6.72379 185.717 6.79126 185.43 6.92144C185.143 7.05162 184.889 7.24133 184.686 7.47715C184.228 7.95132 183.973 8.57683 183.974 9.22638L183.908 14.1166Z" fill="#7D7D7D"/>
<path d="M11.7104 18.5779L8.37656 15.2441L15.524 8.00986L18.9191 11.4049L11.7104 18.5779Z" fill="#8AB4F8"/>
<path d="M11.737 4.19617L8.34194 0.816426L1.14849 8.00987C0.925591 8.23228 0.748746 8.49647 0.628084 8.78732C0.507422 9.07817 0.445312 9.38996 0.445312 9.70484C0.445312 10.0197 0.507422 10.3315 0.628084 10.6224C0.748746 10.9132 0.925591 11.1774 1.14849 11.3998L8.34194 18.5984L11.6757 15.2544L6.23342 9.70995L11.737 4.19617Z" fill="#4285F4"/>
<path d="M18.9301 8.00986L11.7367 0.816424C11.2801 0.409392 10.6853 0.192086 10.0739 0.208917C9.46244 0.225748 8.88051 0.475446 8.44702 0.906979C8.01354 1.33851 7.76121 1.9193 7.74161 2.53065C7.72202 3.142 7.93663 3.73776 8.3416 4.19617L15.5401 11.3947C15.9904 11.8449 16.601 12.0979 17.2377 12.0979C17.8744 12.0979 18.485 11.8449 18.9352 11.3947C19.3854 10.9445 19.6383 10.3339 19.6383 9.69718C19.6383 9.06049 19.3854 8.44987 18.9352 7.99965L18.9301 8.00986Z" fill="#8AB4F8"/>
<path d="M10.0098 19.308C11.3237 19.308 12.3889 18.2429 12.3889 16.9289C12.3889 15.615 11.3237 14.5498 10.0098 14.5498C8.69585 14.5498 7.6307 15.615 7.6307 16.9289C7.6307 18.2429 8.69585 19.308 10.0098 19.308Z" fill="#246FDB"/>
</svg>
