<svg width="145" height="26" viewBox="0 0 145 26" fill="none" xmlns="http://www.w3.org/2000/svg">
<path d="M9.66774 3.73479C9.92968 3.04058 10.2899 2.40146 10.8247 1.88356C12.9639 -0.221121 16.5002 0.307804 17.9518 2.95243C19.0432 4.95793 20.2001 6.91936 21.3243 8.90283C23.2016 12.1976 25.1007 15.4923 26.9561 18.7981C28.5169 21.564 26.8252 25.0571 23.7255 25.5309C21.8264 25.8174 20.0473 24.9359 19.065 23.2169C17.417 20.3188 15.758 17.4207 14.1099 14.5337C14.0772 14.4676 14.0335 14.4125 13.9898 14.3574C13.8152 14.2141 13.7388 14.0047 13.6297 13.8174C12.8984 12.5171 12.1453 11.2279 11.414 9.93864C10.9447 9.10118 10.4536 8.27473 9.98426 7.43727C9.55859 6.68796 9.36214 5.87253 9.38396 5.01303C9.41671 4.57226 9.47128 4.13149 9.66774 3.73479Z" fill="#3C8BD9"/>
<path d="M9.66774 3.73479C9.56951 4.13149 9.48219 4.52818 9.46036 4.94691C9.42762 5.87253 9.65682 6.73203 10.1152 7.53644C11.3158 9.61908 12.5164 11.7127 13.7061 13.8064C13.8152 13.9937 13.9025 14.1811 14.0117 14.3574C13.3568 15.5034 12.7019 16.6384 12.0362 17.7844C11.1194 19.3821 10.2025 20.991 9.27482 22.5888C9.23116 22.5888 9.22025 22.5667 9.20933 22.5337C9.19842 22.4455 9.23116 22.3684 9.25299 22.2802C9.70048 20.6273 9.32939 19.1618 8.20521 17.9056C7.5176 17.1452 6.64445 16.7155 5.64032 16.5722C4.3306 16.3849 3.17367 16.7265 2.1368 17.553C1.95126 17.6962 1.8312 17.9056 1.61291 18.0158C1.56925 18.0158 1.54743 17.9937 1.53651 17.9607C2.0604 17.0461 2.57338 16.1315 3.09727 15.2169C5.25832 11.4262 7.41937 7.63561 9.59134 3.85601C9.61317 3.81193 9.64591 3.77887 9.66774 3.73479Z" fill="#FABC04"/>
<path d="M1.58017 17.9937C1.78754 17.8064 1.984 17.608 2.20229 17.4317C4.85449 15.316 8.83824 16.8477 9.41671 20.1976C9.55859 21.002 9.48219 21.7733 9.24208 22.5447C9.23116 22.6108 9.22025 22.6659 9.19842 22.732C9.10019 22.9083 9.01287 23.0956 8.90373 23.2719C7.93235 24.8918 6.50256 25.6962 4.62529 25.575C2.47515 25.4207 0.783417 23.7899 0.488728 21.6301C0.346841 20.5832 0.554215 19.6025 1.08902 18.699C1.19816 18.5006 1.32914 18.3243 1.4492 18.126C1.50377 18.0819 1.48194 17.9937 1.58017 17.9937Z" fill="#34A852"/>
<path d="M1.58017 17.9937C1.53651 18.0378 1.53651 18.1149 1.46011 18.126C1.4492 18.0488 1.49285 18.0047 1.53651 17.9496L1.58017 17.9937Z" fill="#FABC04"/>
<path d="M9.19842 22.732C9.15476 22.6549 9.19842 22.5998 9.24208 22.5447C9.25299 22.5557 9.27482 22.5777 9.28573 22.5888L9.19842 22.732Z" fill="#E1C025"/>
<path d="M40.9614 0.586914C35.8573 0.586914 31.6115 4.72329 31.6115 9.81419C31.6115 14.9051 35.8573 18.996 40.9614 18.996C43.7167 18.996 45.7492 18.0869 47.3753 16.4051C49.0465 14.7233 49.5434 12.4051 49.5434 10.5415C49.5434 9.95055 49.4982 9.40509 49.4079 8.95055H40.9614V11.4505H46.9688C46.7881 12.8596 46.3364 13.9051 45.6137 14.6324C44.7555 15.496 43.3553 16.496 40.9614 16.496C37.2576 16.496 34.3668 13.496 34.3668 9.81419C34.3668 6.13238 37.2576 3.13237 40.9614 3.13237C42.9488 3.13237 44.4393 3.9051 45.4782 4.95055L47.2398 3.17783C45.7492 1.72328 43.7618 0.586914 40.9614 0.586914ZM56.2735 7.17782C53.0665 7.17782 50.4016 9.67783 50.4016 13.1778C50.4016 16.6324 53.0213 19.1778 56.2735 19.1778C59.5256 19.1778 62.1454 16.6324 62.1454 13.1778C62.1454 9.72328 59.4804 7.17782 56.2735 7.17782ZM56.2735 16.8142C54.5119 16.8142 52.9762 15.3142 52.9762 13.1778C52.9762 11.0415 54.5119 9.54146 56.2735 9.54146C58.035 9.54146 59.5708 10.996 59.5708 13.1778C59.5708 15.3142 58.035 16.8142 56.2735 16.8142ZM69.011 7.17782C65.7588 7.17782 63.1391 9.67783 63.1391 13.1778C63.1391 16.6324 65.7588 19.1778 69.011 19.1778C72.2179 19.1778 74.8829 16.6324 74.8829 13.1778C74.8829 9.72328 72.2631 7.17782 69.011 7.17782ZM69.011 16.8142C67.2494 16.8142 65.7137 15.3142 65.7137 13.1778C65.7137 11.0415 67.2494 9.54146 69.011 9.54146C70.7725 9.54146 72.3083 10.996 72.3083 13.1778C72.3083 15.3142 70.8177 16.8142 69.011 16.8142ZM81.7033 7.17782C78.7673 7.17782 76.1024 9.76873 76.1024 13.1324C76.1024 16.4506 78.7673 19.0415 81.7033 19.0415C83.1035 19.0415 84.1876 18.4051 84.7747 17.6778H84.8651V18.5415C84.8651 20.8142 83.6907 22.0415 81.7485 22.0415C80.1676 22.0415 79.219 20.9051 78.8125 19.9506L76.5541 20.9051C77.1864 22.496 78.9028 24.4051 81.7485 24.4051C84.7747 24.4051 87.3042 22.5869 87.3042 18.2233V7.58691H84.8651V8.54146H84.7747C84.1876 7.81419 83.1035 7.17782 81.7033 7.17782ZM81.9291 16.7233C80.1676 16.7233 78.677 15.2233 78.677 13.1324C78.677 11.0415 80.1676 9.49601 81.9291 9.49601C83.6907 9.49601 85.0458 11.0415 85.0458 13.1324C85.0458 15.2233 83.6907 16.7233 81.9291 16.7233ZM89.2012 1.31419H91.7758V18.8596H89.2012V1.31419ZM98.6866 7.17782C95.6152 7.17782 93.0406 9.58692 93.0406 13.1778C93.0406 16.5415 95.57 19.1778 98.9576 19.1778C101.713 19.1778 103.294 17.496 103.926 16.5415L101.894 15.1778C101.216 16.1778 100.268 16.8142 98.9576 16.8142C97.6026 16.8142 96.654 16.2233 96.0668 14.996L104.062 11.6778L103.791 10.996C103.294 9.67782 101.758 7.17782 98.6866 7.17782ZM95.6152 12.996C95.5248 10.6778 97.4219 9.49601 98.7318 9.49601C99.7707 9.49601 100.674 9.996 100.945 10.7687L95.6152 12.996Z" fill="#757575"/>
<path d="M108.127 16.5415L114.089 0.586914H116.393L122.355 16.5415H120.096L118.561 12.2233H111.921L110.385 16.5415H108.127ZM112.598 10.3142H117.883L115.309 3.13237H115.218L112.598 10.3142Z" fill="#757575"/>
<path d="M124.433 15.2233C123.439 14.0869 122.942 12.7233 122.942 11.0869C122.942 9.49601 123.439 8.13237 124.433 6.95055C125.471 5.81419 126.646 5.26874 128.091 5.26874C128.904 5.26874 129.627 5.45055 130.259 5.76873C130.937 6.13237 131.434 6.54146 131.795 7.13237H131.885L131.795 5.63237V0.586914H133.828V16.5415H131.885V15.0415H131.795C131.434 15.5869 130.937 16.0415 130.259 16.4051C129.582 16.7687 128.859 16.9051 128.091 16.9051C126.646 16.9051 125.426 16.3596 124.433 15.2233ZM130.847 13.9505C131.524 13.2233 131.84 12.2687 131.84 11.0869C131.84 9.95055 131.524 8.996 130.847 8.26873C130.214 7.54146 129.401 7.17782 128.407 7.17782C127.414 7.17782 126.601 7.54146 125.968 8.26873C125.291 8.996 124.975 9.95055 124.975 11.0869C124.975 12.2233 125.291 13.1778 125.968 13.9051C126.646 14.6324 127.459 14.996 128.407 14.996C129.401 15.0415 130.214 14.6778 130.847 13.9505Z" fill="#757575"/>
<path d="M143.223 15.9051C142.41 16.5415 141.371 16.9051 140.106 16.9051C139.022 16.9051 138.073 16.6324 137.215 16.0415C136.402 15.4505 135.815 14.7233 135.454 13.7687L137.26 12.996C137.531 13.6324 137.893 14.1778 138.435 14.5415C138.932 14.9051 139.519 15.0869 140.106 15.0869C140.738 15.0869 141.28 14.9505 141.732 14.6778C142.184 14.4051 142.364 14.0415 142.364 13.6778C142.364 12.996 141.822 12.4505 140.784 12.1324L138.932 11.6778C136.809 11.1324 135.77 10.1324 135.77 8.58692C135.77 7.58692 136.176 6.81419 136.989 6.17783C137.802 5.58692 138.841 5.26874 140.061 5.26874C141.009 5.26874 141.868 5.49601 142.681 5.95056C143.449 6.4051 143.991 7.04146 144.307 7.81418L142.5 8.58692C142.274 8.13237 141.958 7.76874 141.506 7.49601C141.055 7.22328 140.513 7.08692 139.925 7.08692C139.383 7.08692 138.932 7.22328 138.48 7.49601C138.073 7.76874 137.848 8.08691 137.848 8.496C137.848 9.13236 138.435 9.58692 139.609 9.81419L141.235 10.2233C143.403 10.7687 144.442 11.8596 144.442 13.496C144.487 14.4505 144.036 15.2687 143.223 15.9051Z" fill="#757575"/>
</svg>
