<svg width="156" height="21" viewBox="0 0 156 21" fill="none" xmlns="http://www.w3.org/2000/svg">
<path d="M49.8591 11.0137C49.8591 13.7624 47.7105 15.7873 45.07 15.7873C42.4294 15.7873 40.2809 13.7624 40.2809 11.0137C40.2809 8.24682 42.4294 6.24001 45.07 6.24001C47.7105 6.24001 49.8591 8.24428 49.8591 11.0137ZM47.7647 11.0137C47.7647 9.29537 46.5178 8.12058 45.0725 8.12058C43.6273 8.12058 42.3804 9.29537 42.3804 11.0137C42.3804 12.7139 43.6273 13.9067 45.0725 13.9067C46.5178 13.9067 47.7647 12.7113 47.7647 11.0137Z" fill="#7D7D7D"/>
<path d="M60.1894 11.0137C60.1894 13.7624 58.0382 15.7873 55.4005 15.7873C52.7624 15.7873 50.6113 13.7624 50.6113 11.0137C50.6113 8.24941 52.7599 6.24001 55.4005 6.24001C58.0382 6.24001 60.1894 8.24428 60.1894 11.0137ZM58.0928 11.0137C58.0928 9.29537 56.8457 8.12058 55.4005 8.12058C53.9553 8.12058 52.7084 9.29537 52.7084 11.0137C52.7084 12.7139 53.9553 13.9067 55.4005 13.9067C56.8457 13.9067 58.0928 12.7113 58.0928 11.0137Z" fill="#7D7D7D"/>
<path d="M70.0896 6.52853V15.0969C70.0896 18.6211 68.0111 20.0612 65.5529 20.0612C63.2395 20.0612 61.8488 18.5129 61.3233 17.248L63.1472 16.488C63.4716 17.266 64.2675 18.1806 65.5507 18.1806C67.1245 18.1806 68.0984 17.2094 68.0984 15.3829V14.6976H68.0263C67.5577 15.2772 66.653 15.7822 65.5118 15.7822C63.1263 15.7822 60.9391 13.7032 60.9391 11.0291C60.9391 8.33441 63.1263 6.24001 65.5118 6.24001C66.6508 6.24001 67.5548 6.74494 68.0263 7.30653H68.0984V6.52853H70.0896ZM68.2454 11.0291C68.2454 9.34944 67.1245 8.12058 65.6977 8.12058C64.2523 8.12058 63.039 9.34944 63.039 11.0291C63.039 12.6933 64.2495 13.9041 65.6977 13.9041C67.1245 13.9041 68.2454 12.6933 68.2454 11.0291Z" fill="#7D7D7D"/>
<path d="M73.369 1.50518V15.4938H71.3238V1.50518H73.369Z" fill="#7D7D7D"/>
<path d="M81.3372 12.5827L82.9657 13.6673C82.4401 14.4453 81.175 15.7823 78.9878 15.7823C76.275 15.7823 74.2506 13.6854 74.2506 11.0087C74.2506 8.16976 76.293 6.23506 78.7535 6.23506C81.2291 6.23506 82.4424 8.20581 82.8367 9.27238L83.053 9.81595L76.6744 12.4591C77.1639 13.4174 77.9215 13.9043 78.9878 13.9043C80.0546 13.9043 80.7937 13.3788 81.3372 12.5827ZM76.3291 10.867L80.5954 9.0972C80.3611 8.5021 79.6553 8.08476 78.8255 8.08476C77.7593 8.08476 76.275 9.02505 76.3291 10.867Z" fill="#7D7D7D"/>
<path d="M32.5446 9.77196V7.74707H39.3688C39.4359 8.10003 39.4693 8.51736 39.4693 8.96821C39.4693 10.4881 39.0546 12.3662 37.7149 13.7058C36.414 15.0608 34.7498 15.7848 32.5472 15.7848C28.4639 15.7848 25.0273 12.4589 25.0273 8.3731C25.0273 4.28727 28.4613 0.961426 32.5472 0.961426C34.8064 0.961426 36.4166 1.84763 37.6248 3.00434L36.195 4.43411C35.3269 3.62004 34.1521 2.98888 32.542 2.98888C29.5588 2.98888 27.2273 5.39245 27.2273 8.3757C27.2273 11.3589 29.5614 13.7625 32.542 13.7625C34.4767 13.7625 35.5793 12.9845 36.2852 12.2786C36.8571 11.7067 37.2332 10.8874 37.3827 9.77196H32.5446Z" fill="#7D7D7D"/>
<path d="M92.2502 4.22817L94.3654 10.0426H90.081L92.186 4.22817H92.2502ZM89.5273 11.5806H94.9501L96.1865 15.0739H98.0211L93.1622 2.18783H91.2865L86.4383 15.0739H88.2724L89.5273 11.5806Z" fill="#7D7D7D"/>
<path d="M98.853 15.0761H100.512V10.1942C100.512 9.45742 100.728 8.82886 101.174 8.2956C101.62 7.75197 102.171 7.48149 102.833 7.48149C104.242 7.48149 104.969 8.20801 105.002 9.65063V15.0735H106.661V9.53211C106.661 8.39344 106.368 7.515 105.783 6.89669C105.208 6.27843 104.374 5.96413 103.289 5.96413C102.735 5.96413 102.194 6.11615 101.661 6.40979C101.141 6.69064 100.762 7.04872 100.512 7.47377H100.448V6.25781H98.853V15.0761Z" fill="#7D7D7D"/>
<path d="M110.387 11.1735C110.842 10.8488 111.396 10.6866 112.069 10.6866C112.991 10.6866 113.717 10.8824 114.238 11.2945C114.238 12.0004 113.957 12.6058 113.403 13.1288C112.86 13.6388 112.244 13.8888 111.558 13.8888C111.059 13.8888 110.626 13.747 110.268 13.4662C109.9 13.1725 109.724 12.8145 109.724 12.3817C109.724 11.8896 109.951 11.4877 110.387 11.1735ZM108.303 7.70331L109.755 8.61532C110.286 7.83472 111.013 7.44313 111.945 7.44313C112.553 7.44313 113.084 7.64923 113.54 8.06144C114.006 8.45298 114.233 8.93988 114.233 9.51437V9.88276C113.604 9.53499 112.8 9.3624 111.814 9.3624C110.654 9.3624 109.732 9.63288 109.047 10.1765C108.364 10.7072 108.016 11.4336 108.016 12.3456C108.016 13.2035 108.331 13.9171 108.983 14.4941C109.634 15.0686 110.446 15.3623 111.422 15.3623C112.561 15.3623 113.473 14.8626 114.166 13.8552H114.23V15.0712H115.802V9.64837C115.802 8.5097 115.454 7.6209 114.738 6.95882C114.032 6.29674 113.069 5.97214 111.852 5.97214C110.289 5.96698 109.106 6.54148 108.303 7.70331Z" fill="#7D7D7D"/>
<path d="M117.623 2.18783V15.0739H119.282V2.18783H117.623Z" fill="#7D7D7D"/>
<path d="M127.247 6.26063L124.687 12.5955H124.654L122.031 6.26063H120.23L123.875 14.5147L121.825 18.9509H123.517L129.038 6.26063H127.247Z" fill="#7D7D7D"/>
<path d="M135.097 14.9809L134.587 13.5048C134.479 13.5588 134.361 13.5924 134.24 13.6361C134.108 13.6567 133.979 13.6696 133.847 13.6696C133.567 13.6696 133.304 13.5717 133.067 13.3656C132.84 13.1492 132.73 12.7474 132.73 12.1626V7.77017H134.899V6.26052H132.73V3.571H131.081V6.26052H129.52V7.76758H131.081V12.7036C131.091 13.4945 131.331 14.1024 131.807 14.5481C132.284 14.9938 132.871 15.2102 133.585 15.2102C134.165 15.2076 134.664 15.1329 135.097 14.9809Z" fill="#7D7D7D"/>
<path d="M138.161 2.39136C137.934 2.17497 137.66 2.05388 137.346 2.05388C137.022 2.05388 136.738 2.17239 136.512 2.39136C136.285 2.63095 136.174 2.90145 136.174 3.22605C136.174 3.55065 136.283 3.82372 136.512 4.06073C136.738 4.28743 137.022 4.39821 137.346 4.39821C137.66 4.39821 137.931 4.2797 138.161 4.06073C138.4 3.82115 138.518 3.54034 138.518 3.22605C138.518 2.90145 138.4 2.61807 138.161 2.39136ZM136.524 6.26339V15.0713H138.184V6.26339H136.524Z" fill="#7D7D7D"/>
<path d="M146.164 14.6771C146.847 14.2314 147.357 13.6028 147.661 12.8119L146.185 12.1834C145.698 13.2885 144.851 13.8424 143.647 13.8424C142.888 13.8424 142.238 13.5384 141.684 12.9304C141.141 12.3224 140.87 11.5754 140.87 10.6634C140.87 9.7643 141.151 9.00432 141.695 8.38606C142.249 7.77805 142.898 7.47411 143.658 7.47411C144.83 7.47411 145.641 8.02798 146.108 9.13314L147.615 8.51488C147.277 7.72398 146.77 7.10572 146.108 6.64969C145.435 6.20402 144.655 5.97733 143.753 5.97733C142.442 5.97733 141.357 6.42302 140.499 7.31177C139.654 8.19026 139.229 9.30832 139.229 10.6634C139.229 11.9979 139.652 13.1133 140.499 14.0253C141.357 14.9141 142.442 15.3598 143.753 15.3598C144.668 15.3598 145.469 15.133 146.164 14.6771Z" fill="#7D7D7D"/>
<path d="M153.215 9.97029L151.891 9.63283C150.948 9.40611 150.469 9.04803 150.469 8.54823C150.469 8.24428 150.642 7.97379 150.979 7.75738C151.327 7.54097 151.716 7.43276 152.151 7.43276C152.618 7.43276 153.04 7.54097 153.409 7.75738C153.8 7.96349 154.071 8.25712 154.243 8.62557L155.72 8.04077C155.47 7.41215 155.026 6.9124 154.395 6.54402C153.767 6.16527 153.061 5.9798 152.28 5.9798C151.27 5.9798 150.425 6.2194 149.774 6.7063C149.111 7.1932 148.787 7.83466 148.787 8.63587C148.787 9.86208 149.645 10.6865 151.368 11.1296L152.875 11.498C153.744 11.7582 154.176 12.1704 154.176 12.7345C154.176 13.0488 153.991 13.3193 153.633 13.5486C153.274 13.7753 152.842 13.8861 152.308 13.8861C151.822 13.8861 151.366 13.7341 150.954 13.4404C150.541 13.1467 150.227 12.7345 150 12.2039L148.524 12.8324C148.818 13.5924 149.305 14.1978 149.967 14.6667C150.65 15.133 151.43 15.3597 152.308 15.3597C153.329 15.3597 154.163 15.0995 154.836 14.5791C155.519 14.0484 155.856 13.3966 155.856 12.6263C155.861 11.3048 154.983 10.4134 153.215 9.97029Z" fill="#7D7D7D"/>
<path d="M12.3857 3.23703V17.5654C12.3857 19.1716 13.4918 20.06 14.6654 20.06C15.7498 20.06 16.9451 19.3014 16.9451 17.5654V3.34925C16.9451 1.88086 15.8607 0.961426 14.6654 0.961426C13.4702 0.961426 12.3857 1.97551 12.3857 3.23703Z" fill="#F8AB00"/>
<path d="M6.4163 10.5115V17.5668C6.4163 19.1731 7.52231 20.0614 8.69596 20.0614C9.78034 20.0614 10.9756 19.3029 10.9756 17.5668V10.6183C10.9756 9.14987 9.89119 8.23048 8.69596 8.23048C7.50068 8.23048 6.4163 9.24456 6.4163 10.5115Z" fill="#E37300"/>
<path d="M5.00598 17.7802C5.00598 19.0391 3.98378 20.0599 2.72632 20.0599C1.46886 20.0599 0.445312 19.0391 0.445312 17.7802C0.445312 16.5214 1.46751 15.5006 2.72497 15.5006C3.98243 15.5006 5.00598 16.5214 5.00598 17.7802Z" fill="#E37300"/>
</svg>
