<svg width="81" height="21" viewBox="0 0 81 21" fill="none" xmlns="http://www.w3.org/2000/svg">
<path d="M39.1176 14.8633C39.1176 16.53 38.5061 17.8892 37.2991 18.9087C36.076 19.8957 34.5632 20.3973 32.7929 20.3973C31.2319 20.3973 29.8318 19.9281 28.6248 19.0057C27.4178 18.0834 26.597 16.8213 26.1303 15.2193L28.4638 14.2485C28.6248 14.8148 28.8501 15.3326 29.1236 15.8019C29.4133 16.2711 29.7352 16.6595 30.1053 16.9831C30.4916 17.3067 30.91 17.5656 31.3606 17.7598C31.8273 17.954 32.3101 18.051 32.8251 18.051C33.9356 18.051 34.8529 17.7598 35.561 17.1773C36.2691 16.6109 36.6231 15.8342 36.6231 14.8795C36.6231 14.0705 36.3335 13.3909 35.738 12.8245C35.1908 12.2743 34.177 11.7404 32.6642 11.2226C31.1514 10.6724 30.2019 10.3002 29.8318 10.1061C27.8201 9.07046 26.8223 7.56561 26.8223 5.54296C26.8223 4.13519 27.3695 2.93778 28.4799 1.95072C29.6225 0.963668 30.9905 0.46205 32.6481 0.46205C34.0965 0.46205 35.3518 0.834218 36.4139 1.57855C37.4761 2.30671 38.1842 3.22904 38.5382 4.32936L36.2852 5.26788C36.076 4.5559 35.6575 3.9572 35.0299 3.50412C34.4023 3.03487 33.6298 2.79215 32.7446 2.79215C31.779 2.79215 30.9905 3.06723 30.3306 3.60121C29.6869 4.08665 29.349 4.75008 29.349 5.52678C29.349 6.17402 29.6064 6.75655 30.1214 7.2258C30.6847 7.69506 31.9239 8.27758 33.8068 8.92483C35.7219 9.57208 37.1059 10.3973 37.9267 11.352C38.7153 12.3067 39.1176 13.4718 39.1176 14.8633Z" fill="#737373"/>
<path d="M52.636 19.9604H50.3025V18.1481H50.1898C49.8197 18.7792 49.2403 19.3132 48.4839 19.7501C47.7115 20.1708 46.9229 20.3811 46.086 20.3811C44.4928 20.3811 43.2697 19.9119 42.4167 19.0057C41.5638 18.0996 41.1293 16.7889 41.1293 15.1061V6.90218H43.5594V14.9604C43.6077 17.0964 44.6859 18.1481 46.7619 18.1481C47.7436 18.1481 48.5483 17.7598 49.192 16.9669C49.8358 16.174 50.1737 15.2193 50.1737 14.119V6.90218H52.6038V19.9604H52.636Z" fill="#737373"/>
<path d="M58.1882 2.4038C58.1882 2.87305 58.0273 3.29377 57.6893 3.63357C57.3514 3.97338 56.949 4.13519 56.4662 4.13519C55.9995 4.13519 55.5811 3.97338 55.2431 3.63357C54.9052 3.29377 54.7442 2.88923 54.7442 2.4038C54.7442 1.91836 54.9052 1.51383 55.2431 1.17402C55.5811 0.834218 55.9834 0.672406 56.4662 0.672406C56.9329 0.672406 57.3514 0.834218 57.6893 1.17402C58.0273 1.51383 58.1882 1.93454 58.1882 2.4038ZM57.6893 6.90218V19.9604H55.2592V6.90218H57.6893Z" fill="#737373"/>
<path d="M65.1727 20.187C64.1106 20.187 63.2415 19.8633 62.5334 19.1999C61.8253 18.5527 61.4713 17.6303 61.4713 16.4491V9.15137H59.186V6.90218H61.4552V2.90542H63.8853V6.90218H67.0556V9.15137H63.8853V15.6562C63.8853 16.53 64.0462 17.1125 64.3842 17.42C64.7221 17.7274 65.1084 17.8892 65.5268 17.8892C65.7199 17.8892 65.913 17.8569 66.09 17.8245C66.2832 17.776 66.4441 17.7112 66.605 17.6465L67.3775 19.831C66.766 20.0575 66.0257 20.187 65.1727 20.187Z" fill="#737373"/>
<path d="M74.2816 20.3811C72.3825 20.3811 70.8054 19.7339 69.5662 18.407C68.3431 17.0802 67.7155 15.4297 67.7155 13.4232C67.7155 11.4329 68.3109 9.78244 69.5179 8.45558C70.7249 7.12872 72.2538 6.46529 74.1367 6.46529C76.0518 6.46529 77.5968 7.09635 78.7394 8.34231C79.882 9.58826 80.4453 11.352 80.4453 13.6012L80.4131 13.8763H70.2099C70.2582 15.1546 70.6766 16.1902 71.4813 16.9669C72.286 17.7436 73.2677 18.132 74.4103 18.132C75.9714 18.132 77.1784 17.3553 78.0635 15.7857L80.2361 16.8536C79.6567 17.954 78.836 18.8116 77.8221 19.4426C76.7599 20.0737 75.5851 20.3811 74.2816 20.3811ZM70.387 11.8536H77.8382C77.7738 10.9475 77.4037 10.187 76.7438 9.58826C76.084 8.98956 75.1828 8.6983 74.0723 8.6983C73.155 8.6983 72.3664 8.98956 71.7066 9.5559C71.0468 10.1384 70.6123 10.8989 70.387 11.8536Z" fill="#737373"/>
<path d="M19.9504 10.6562C19.9504 9.94425 19.8861 9.26464 19.7734 8.60121H10.391V12.4847H15.7501C15.5087 13.7307 14.8167 14.7824 13.7545 15.4944V18.0187H16.9893C18.8722 16.2711 19.9504 13.6983 19.9504 10.6562Z" fill="#4285F4"/>
<path d="M10.391 20.4297C13.0786 20.4297 15.3317 19.5397 16.9732 18.0025L13.7545 15.4944C12.8694 16.0931 11.7428 16.4653 10.391 16.4653C7.79997 16.4653 5.61127 14.7015 4.8227 12.3391H1.50747V14.9281C3.14899 18.1967 6.5125 20.4297 10.391 20.4297Z" fill="#34A853"/>
<path d="M4.8227 12.3391C4.62958 11.7404 4.50083 11.1093 4.50083 10.4297C4.50083 9.75008 4.61349 9.13519 4.8227 8.5203V5.93131H1.50747C0.831553 7.27435 0.445312 8.79538 0.445312 10.4135C0.445312 12.0316 0.831553 13.5527 1.50747 14.8957L4.08241 12.8731C4.0985 12.8892 4.8227 12.3391 4.8227 12.3391Z" fill="#FBBC05"/>
<path d="M10.391 4.41027C11.8555 4.41027 13.1591 4.91189 14.2051 5.89894L17.0536 3.03487C15.3317 1.41674 13.0786 0.429688 10.391 0.429688C6.49641 0.429688 3.14899 2.67888 1.50747 5.94749L4.8227 8.53648C5.61127 6.15784 7.81606 4.41027 10.391 4.41027Z" fill="#EA4335"/>
</svg>
