<svg width="80" height="24" viewBox="0 0 80 24" fill="none" xmlns="http://www.w3.org/2000/svg">
<g clip-path="url(#clip0_157_2267)">
<mask id="mask0_157_2267" style="mask-type:luminance" maskUnits="userSpaceOnUse" x="1" y="1" width="79" height="22">
<path d="M79.3741 1.28528H1.39258V22.9855H79.3741V1.28528Z" fill="white"/>
</mask>
<g mask="url(#mask0_157_2267)">
<path d="M9.83809 4.76727V10.6998H4.11016V4.76727H1.39258V18.9291H4.1109V13.1891H9.83738V18.9291H12.5565V4.76727H9.83809ZM21.2573 14.3518C21.2573 14.9194 21.0203 15.4638 20.5984 15.8652C20.1766 16.2666 19.6045 16.492 19.0079 16.492C18.4114 16.492 17.8393 16.2666 17.4174 15.8652C16.9956 15.4638 16.7586 14.9194 16.7586 14.3518V8.28554H14.1801V14.3518C14.1801 15.5689 14.6882 16.7362 15.5927 17.5968C16.4973 18.4575 17.724 18.941 19.0031 18.941C20.2824 18.941 21.5091 18.4575 22.4136 17.5968C23.3181 16.7362 23.8262 15.5689 23.8262 14.3518V8.28554H21.2573V14.3518ZM40.3635 8.91063C40.3635 7.6667 41.2279 7.2726 42.1747 7.2726C42.9383 7.2726 43.9462 7.82562 44.6061 8.49622L46.2945 6.60199C45.4514 5.51698 43.7417 4.76727 42.3417 4.76727C39.5439 4.76727 37.5208 6.32618 37.5208 8.91063C37.5208 13.7057 43.6799 12.1839 43.6799 14.8677C43.6799 15.6951 42.8353 16.4259 41.8687 16.4259C40.3436 16.4259 39.8492 15.7168 39.1489 14.9664L37.2744 16.8207C38.4735 18.2207 39.9522 18.9319 41.723 18.9319C44.381 18.9319 46.5189 17.3541 46.5189 14.8873C46.5189 9.56444 40.3591 11.2185 40.3591 8.91063H40.3635ZM78.4668 16.6667C76.9435 16.6667 76.5101 16.0395 76.5101 15.079V10.8265H78.8788V8.67193H76.5101V5.82918L73.8958 6.94569V15.6076C73.8958 17.8231 75.5022 18.9396 77.7052 18.9396C78.0509 18.9452 78.3966 18.9186 78.7365 18.8612L79.374 16.6268C79.0867 16.6457 78.756 16.6646 78.4668 16.6646V16.6667ZM31.0727 8.35619C29.7955 8.35619 28.9039 8.70901 28.0416 9.51332V4.85197H25.4594V13.4922C25.4594 16.7262 27.9166 18.9424 30.6783 18.9424C33.7416 18.9424 36.4364 16.687 36.4364 13.6503C36.4364 10.6515 33.9565 8.3583 31.0727 8.3583V8.35619ZM31.0565 16.4693C30.6716 16.4693 30.2905 16.3971 29.935 16.257C29.5794 16.1169 29.2563 15.9115 28.9843 15.6526C28.7121 15.3936 28.4963 15.0863 28.349 14.7479C28.2017 14.4096 28.1259 14.047 28.1259 13.6808C28.1259 13.3146 28.2017 12.952 28.349 12.6137C28.4963 12.2754 28.7121 11.968 28.9843 11.7091C29.2563 11.4501 29.5794 11.2447 29.935 11.1046C30.2905 10.9644 30.6716 10.8923 31.0565 10.8923C31.8337 10.8923 32.5791 11.1861 33.1287 11.7091C33.6783 12.232 33.987 12.9413 33.987 13.6808C33.987 14.4204 33.6783 15.1296 33.1287 15.6526C32.5791 16.1755 31.8337 16.4693 31.0565 16.4693ZM59.1166 13.5215C59.1166 10.4793 56.4277 8.2295 53.3584 8.2295C50.5975 8.2295 48.1396 10.445 48.1396 13.6798V22.3249H50.7218V17.6572C51.5825 18.4601 52.4756 18.8143 53.7513 18.8143C56.6351 18.8143 59.1159 16.5211 59.1159 13.5215H59.1166ZM56.6712 13.4908C56.6712 14.2303 56.3625 14.9396 55.8128 15.4625C55.2632 15.9855 54.5179 16.2793 53.7406 16.2793C52.9634 16.2793 52.218 15.9855 51.6684 15.4625C51.1188 14.9396 50.81 14.2303 50.81 13.4908C50.81 12.7512 51.1188 12.042 51.6684 11.519C52.218 10.9961 52.9634 10.7023 53.7406 10.7023C54.5179 10.7023 55.2632 10.9961 55.8128 11.519C56.3625 12.042 56.6712 12.7512 56.6712 13.4908Z" fill="#33475B"/>
<path d="M67.4606 8.11016V5.64124C67.8037 5.48875 68.0942 5.24674 68.2982 4.94337C68.5016 4.64 68.6108 4.28775 68.6128 3.92761V3.87091C68.6128 2.8209 67.7186 1.9697 66.6145 1.9697H66.5554C66.0251 1.9697 65.517 2.17001 65.1423 2.52655C64.7676 2.8831 64.5571 3.36668 64.5571 3.87091V3.92761C64.5588 4.28775 64.6681 4.64 64.872 4.94337C65.076 5.24674 65.3663 5.48875 65.7092 5.64124V8.11016C64.7237 8.25376 63.7956 8.64252 63.0188 9.23717L55.9026 3.96332C55.9534 3.78901 55.9799 3.60982 55.9828 3.42991C55.9837 3.0062 55.8524 2.59176 55.6058 2.23902C55.3591 1.88628 55.008 1.61107 54.5969 1.44822C54.1858 1.28537 53.7332 1.24219 53.2963 1.32414C52.8594 1.40609 52.4578 1.60948 52.1424 1.9086C51.827 2.20772 51.6119 2.58912 51.5244 3.00456C51.4369 3.42 51.4807 3.85082 51.6505 4.24252C51.8203 4.63421 52.1084 4.96919 52.4784 5.20508C52.8483 5.44098 53.2834 5.56718 53.7287 5.56774C54.1183 5.56599 54.5006 5.46703 54.8374 5.28073L61.8447 10.4692C61.2152 11.3741 60.8867 12.4384 60.9023 13.5235C60.9177 14.6085 61.2764 15.6639 61.9315 16.5522L59.8002 18.5808C59.6279 18.5284 59.4484 18.5006 59.2676 18.4982C58.902 18.4986 58.5448 18.6019 58.241 18.7953C57.9372 18.9887 57.7005 19.2634 57.5608 19.5849C57.421 19.9062 57.3845 20.2598 57.4559 20.6009C57.5273 20.942 57.7033 21.2553 57.9618 21.5012C58.2203 21.7472 58.5496 21.9147 58.908 21.9826C59.2665 22.0506 59.6381 22.0159 59.9759 21.8828C60.3136 21.7499 60.6024 21.5247 60.8056 21.2355C61.0089 20.9465 61.1175 20.6066 61.1178 20.2588C61.1154 20.0867 61.0862 19.9159 61.031 19.7519L63.1394 17.7451C63.827 18.2487 64.6266 18.596 65.4769 18.7601C66.3273 18.9243 67.2058 18.9012 68.0454 18.6923C68.885 18.4836 69.6629 18.0947 70.3199 17.5556C70.9776 17.0164 71.4961 16.3413 71.8367 15.5819C72.1772 14.8225 72.3305 13.9991 72.285 13.1746C72.2396 12.3501 71.9965 11.5465 71.5741 10.8252C71.1517 10.104 70.561 9.48436 69.8481 9.01378C69.1352 8.54314 68.3184 8.23404 67.4606 8.11016ZM66.5865 16.2303C66.1973 16.2405 65.8093 16.1762 65.4461 16.0414C65.083 15.9065 64.752 15.7038 64.4726 15.4452C64.1932 15.1865 63.971 14.8772 63.8194 14.5355C63.6678 14.1938 63.5896 13.8267 63.5896 13.4558C63.5896 13.0849 63.6678 12.7177 63.8194 12.376C63.971 12.0343 64.1932 11.725 64.4726 11.4664C64.752 11.2077 65.083 11.005 65.4461 10.8702C65.8093 10.7353 66.1973 10.6711 66.5865 10.6813C67.3423 10.7065 68.0578 11.0095 68.5829 11.5267C69.1079 12.0438 69.401 12.7347 69.4017 13.4537C69.4023 14.1728 69.1092 14.8639 68.5848 15.3815C68.0604 15.8992 67.3449 16.2029 66.5898 16.2289" fill="#FF7A59"/>
</g>
</g>
<defs>
<clipPath id="clip0_157_2267">
<rect width="78.6314" height="22.3385" fill="white" transform="translate(0.953125 0.966064)"/>
</clipPath>
</defs>
</svg>
