<svg width="80" height="29" viewBox="0 0 80 29" fill="none" xmlns="http://www.w3.org/2000/svg">
<path d="M49.2456 2.43817C48.7885 2.45483 48.3517 2.64332 48.026 2.97031C47.6523 3.34257 47.4599 3.86019 47.4966 4.38613C47.4966 5.08165 47.8667 5.72491 48.4692 6.07192C49.0708 6.4204 49.8132 6.4204 50.4149 6.07192C51.0165 5.72491 51.3882 5.08165 51.387 4.38613C51.4246 3.86019 51.232 3.34257 50.8586 2.97031C50.486 2.5966 49.9682 2.40401 49.4423 2.44186C49.3764 2.43716 49.3109 2.43583 49.2456 2.43817ZM41.2091 3.57945L41.2163 18.5833C41.2163 20.7091 40.3646 22.1827 37.9012 22.1827C36.8698 22.1906 35.8476 22.0029 34.8876 21.6303V24.4661C36.0137 24.8501 37.1975 25.0368 38.387 25.0198C42.4101 25.0198 44.1268 22.3119 44.1268 18.3885V3.57945H41.2091ZM71.3863 8.33982C66.8478 8.33982 64.579 12.1966 64.579 16.7674C64.579 21.5341 66.7525 25.1963 71.0623 25.1963C73.5568 25.1963 75.5015 24.0954 76.5408 21.9549L76.5441 24.8722H79.3331V8.66388H76.5441V11.5148C75.5679 9.40741 73.7515 8.33982 71.3863 8.33982ZM62.9029 8.41637C60.1145 8.41262 58.6191 9.72173 57.7383 11.5148V8.66388H55.0157V24.8832H57.7383V15.3053C57.7383 11.8723 59.9118 10.7894 63.4776 11.1573V8.4347C63.28 8.4225 63.0887 8.41661 62.9029 8.41637ZM48.0168 8.66764V24.8755H50.8045V8.66764H48.0168ZM72.1197 10.9181C74.4998 10.9181 76.5408 12.5062 76.5408 16.1052V17.416C76.5408 21.0135 74.3061 22.602 71.8107 22.6035C68.9219 22.6035 67.3679 20.6576 67.3529 16.7523C67.3529 12.9917 68.9733 10.9181 72.1197 10.9181Z" fill="#253858"/>
<path d="M27.6229 13.4376L14.4491 0.264648L1.27609 13.4376C0.84547 13.8694 0.84547 14.5684 1.27609 14.9994L14.4491 28.1732L27.6229 14.9994C28.0538 14.5684 28.0538 13.8694 27.6229 13.4376ZM14.4491 18.344L10.3238 14.2191L14.4491 10.0927L18.5752 14.2191L14.4491 18.344Z" fill="#2684FF"/>
<path d="M14.4491 10.0927C11.7483 7.39074 11.7345 3.01471 14.4203 0.296916L5.39105 9.32267L10.3057 14.2373L14.4491 10.0927Z" fill="url(#paint0_linear_157_3471)"/>
<path d="M18.5866 14.2074L14.4491 18.344C15.753 19.6467 16.4863 21.415 16.4863 23.2586C16.4863 25.1022 15.753 26.8693 14.4491 28.1732L23.5 19.122L18.5866 14.2074Z" fill="url(#paint1_linear_157_3471)"/>
<defs>
<linearGradient id="paint0_linear_157_3471" x1="63.9892" y1="13.5966" x2="59.8339" y2="31.5524" gradientUnits="userSpaceOnUse">
<stop stop-color="#0052CC"/>
<stop offset="1" stop-color="#2684FF"/>
</linearGradient>
<linearGradient id="paint1_linear_157_3471" x1="16.274" y1="21.4357" x2="20.9892" y2="16.7205" gradientUnits="userSpaceOnUse">
<stop stop-color="#0052CC"/>
<stop offset="1" stop-color="#2684FF"/>
</linearGradient>
</defs>
</svg>
