<svg width="80" height="12" viewBox="0 0 80 12" fill="none" xmlns="http://www.w3.org/2000/svg">
<path d="M7.88713 11.1211C7.91848 11.2998 7.81367 11.4788 7.63459 11.5312C7.51904 11.5626 7.38206 11.5837 7.24548 11.5837H3.41534C1.87909 11.5841 0.953125 10.2583 0.953125 8.76407V0.67264C0.953125 0.472923 1.12148 0.304565 1.3212 0.304565H2.69941C2.89913 0.304565 3.06749 0.472923 3.06749 0.67264V8.76407C3.06749 9.32157 3.47765 9.76348 4.05659 9.76348H7.36058C7.53925 9.76348 7.69731 9.88976 7.72866 10.0684L7.88713 11.1211ZM15.2102 5.3656V10.753C15.2102 10.9213 14.1477 11.5841 11.7907 11.5841C9.92844 11.5841 8.21311 11.0897 8.21311 8.88003C8.21311 6.83871 9.94906 6.08111 11.1696 6.08111H13.3897V5.70229C13.3897 5.092 13.1058 4.39755 11.7271 4.39755C10.7277 4.39755 9.93836 4.66038 9.48609 4.81843C9.40193 4.84979 9.30741 4.7974 9.28638 4.71321L8.9183 3.53472C8.89727 3.45053 8.93933 3.36635 9.01278 3.33499C9.45473 3.17736 10.4228 2.85096 12.0325 2.85096C14.5054 2.85096 15.2102 4.17678 15.2102 5.3656ZM11.9066 10.0688C12.7274 10.0688 13.2428 9.87944 13.3901 9.79528V7.5332H11.3805C10.686 7.5332 10.0968 8.10139 10.0968 8.88003C10.0968 9.65867 10.6229 10.0688 11.9066 10.0688ZM15.9889 10.8582C16.9148 11.2791 17.9563 11.5737 19.1666 11.5737C20.766 11.5737 22.3547 10.8372 22.3547 9.31165C22.3547 7.65986 21.3132 7.09166 19.4505 6.4496C18.3772 6.08152 18.0195 5.79721 18.0195 5.34494C18.0195 4.94509 18.2931 4.52421 19.2611 4.52421C20.3133 4.52421 20.9447 4.75571 21.2603 4.89229C21.3445 4.92365 21.4287 4.89229 21.4708 4.8081L21.8917 3.7666C21.9231 3.69315 21.8917 3.59826 21.8075 3.5669C21.3445 3.35644 20.4293 3.05151 19.1559 3.05151C17.1566 3.05151 16.1255 4.29315 16.1255 5.33465C16.1255 6.91299 17.5355 7.46015 18.8084 7.91239C20.2708 8.42779 20.5131 8.74345 20.5131 9.25926C20.5131 9.79569 19.8083 10.1114 19.1559 10.1114C17.9671 10.1114 17.0093 9.7115 16.5674 9.5118C16.4832 9.48044 16.3887 9.5118 16.3569 9.59595L15.915 10.6692C15.8733 10.732 15.9047 10.8265 15.9889 10.8582ZM28.2051 9.97436C28.1943 9.89017 28.0998 9.82705 28.0157 9.84808C27.7631 9.9005 27.3001 10.0057 26.8372 10.0057C25.8481 10.0057 25.7957 9.54275 25.7957 9.27988V4.90262H27.4685C27.5527 4.90262 27.6261 4.82917 27.6261 4.74498V3.61888C27.6261 3.53472 27.5527 3.46127 27.4685 3.46127H25.7957V1.38816C25.7957 1.28293 25.7012 1.20948 25.596 1.24084L24.1336 1.62996C24.0601 1.65101 24.018 1.71414 24.018 1.77728V3.46086H23.1238C23.0607 3.46086 22.9975 3.50292 22.9765 3.55534L22.5135 4.68103C22.4714 4.78625 22.5449 4.90176 22.6608 4.90176H24.018V9.27906C24.018 10.647 24.3127 11.5832 26.4592 11.5832C27.4272 11.5832 28.0479 11.3938 28.3004 11.2993C28.3738 11.2783 28.4159 11.2048 28.4056 11.1207L28.2051 9.97436Z" fill="black"/>
<path d="M40.5049 3.05015C39.5368 3.05015 38.8112 3.30268 38.5058 3.40791C38.4323 3.43928 38.3902 3.51314 38.4111 3.5973L38.6953 4.72299C38.7161 4.80718 38.8108 4.85957 38.895 4.83854C39.242 4.73332 39.5365 4.61777 40.2628 4.61777C41.5359 4.61777 41.725 5.34361 41.725 5.90148V6.2803H39.4735C38.3058 6.2803 36.559 7.08 36.559 9.10025C36.559 11.2782 38.316 11.7201 40.0945 11.7201C42.4513 11.7201 43.5141 11.0574 43.5141 10.8891V5.60726C43.5145 4.60744 42.9673 3.05015 40.5049 3.05015ZM41.7257 9.94205C41.5783 10.0262 41.0312 10.2156 40.2105 10.2156C38.9268 10.2156 38.4005 9.80547 38.4005 9.0268C38.4005 8.2589 38.9999 7.67997 39.6842 7.67997H41.7257V9.94205ZM44.2613 10.8049L44.7031 9.73161C44.7346 9.64742 44.8293 9.61606 44.9138 9.64742C45.3556 9.84716 46.3236 10.247 47.502 10.247C48.1545 10.247 48.8593 9.93131 48.8593 9.39488C48.8593 8.87952 48.6278 8.56382 47.1546 8.04805C45.8818 7.59577 44.4716 7.04861 44.4716 5.47027C44.4716 4.42877 45.5029 3.18714 47.502 3.18714C48.7751 3.18714 49.6909 3.50282 50.1536 3.70252C50.2271 3.73388 50.2691 3.8288 50.238 3.90226L49.8171 4.94376C49.7856 5.02791 49.6909 5.0593 49.6064 5.02791C49.2908 4.89133 48.6493 4.65986 47.6074 4.65986C46.6499 4.65986 46.3657 5.09107 46.3657 5.4806C46.3657 5.93283 46.7336 6.21714 47.7968 6.58522C49.6591 7.23761 50.701 7.80581 50.701 9.4473C50.701 10.9728 49.1014 11.7094 47.513 11.7094C46.3031 11.7094 45.2612 11.4148 44.3352 10.9939C44.2613 10.9732 44.2298 10.8787 44.2613 10.8049ZM51.3111 10.8049L51.7532 9.73161C51.785 9.64742 51.8794 9.61606 51.9635 9.64742C52.4054 9.84716 53.3734 10.247 54.5522 10.247C55.2043 10.247 55.9091 9.93131 55.9091 9.39488C55.9091 8.87952 55.6779 8.56382 54.2047 8.04805C52.9316 7.59577 51.5217 7.04861 51.5217 5.47027C51.5217 4.42877 52.5527 3.18714 54.5522 3.18714C55.8249 3.18714 56.7407 3.50282 57.2037 3.70252C57.2772 3.73388 57.3193 3.8288 57.2878 3.90226L56.8669 4.94376C56.8358 5.02791 56.7407 5.0593 56.6566 5.02791C56.3409 4.89133 55.6991 4.65986 54.6571 4.65986C53.7 4.65986 53.4155 5.09107 53.4155 5.4806C53.4155 5.93283 53.7838 6.21714 54.8466 6.58522C56.7089 7.23761 57.7508 7.80581 57.7508 9.4473C57.7508 10.9728 56.1515 11.7094 54.5628 11.7094C53.3529 11.7094 52.311 11.4148 51.385 10.9939C51.3111 10.9732 51.2793 10.8787 51.3111 10.8049ZM34.0868 0.545839H30.5831C30.236 0.545839 29.9517 0.829736 29.9517 1.17718V11.3628C29.9517 11.5625 30.1201 11.7308 30.3198 11.7308H31.5193C31.7191 11.7308 31.8874 11.5625 31.8874 11.3628V7.78519H34.0129C36.4435 7.78519 37.6749 5.98608 37.6749 4.18656C37.6749 1.97687 35.9804 0.545839 34.0868 0.545839ZM34.1289 6.11192H31.9403V2.39777H34.0447C35.4549 2.39777 35.949 3.5445 35.949 4.29178C35.949 5.44924 35.181 6.11233 34.1289 6.11192ZM63.9899 7.46952C63.9899 8.43757 63.2112 9.21621 62.2431 9.21621C61.2751 9.21621 60.4964 8.43757 60.4964 7.46952C60.4964 6.50148 61.2751 5.7228 62.2431 5.7228C63.2112 5.7228 63.9899 6.50148 63.9899 7.46952ZM68.0516 5.7228C67.0835 5.7228 66.3049 6.50148 66.3049 7.46952C66.3049 8.43757 67.0835 9.21621 68.0516 9.21621C69.0197 9.21621 69.7983 8.43757 69.7983 7.46952C69.7983 6.50148 69.0197 5.7228 68.0516 5.7228ZM73.8594 5.7228C72.8914 5.7228 72.1127 6.50148 72.1127 7.46952C72.1127 8.43757 72.8914 9.21621 73.8594 9.21621C74.8275 9.21621 75.6062 8.43757 75.6062 7.46952C75.6062 6.50148 74.8173 5.7228 73.8594 5.7228ZM79.0466 2.61894C78.7522 2.61894 78.5104 2.86075 78.5104 3.15537V11.3628C78.5104 11.6574 78.7522 11.8992 79.0466 11.8992C79.3414 11.8992 79.5831 11.6574 79.5831 11.3628V3.15537C79.5835 2.85043 79.3414 2.61894 79.0466 2.61894Z" fill="#D32D27"/>
</svg>
