<svg width="80" height="21" viewBox="0 0 80 21" fill="none" xmlns="http://www.w3.org/2000/svg">
<path d="M15.7639 9.94003C15.9159 9.92403 16.0599 9.92403 16.1958 9.94003C16.2758 9.76407 16.2838 9.45214 16.2198 9.11622C16.1159 8.62033 15.9719 8.3164 15.684 8.36439C15.396 8.41238 15.38 8.7723 15.484 9.26818C15.548 9.55611 15.652 9.79606 15.7639 9.94003Z" fill="black"/>
<path d="M13.2685 10.3319C13.4765 10.4199 13.6044 10.4839 13.6524 10.4279C13.6844 10.3959 13.6764 10.3319 13.6284 10.252C13.5245 10.084 13.3165 9.91603 13.0926 9.82005C12.6367 9.6201 12.0848 9.69208 11.6689 9.98801C11.5329 10.092 11.397 10.228 11.413 10.3159C11.4209 10.3399 11.4369 10.3639 11.4849 10.3719C11.5969 10.3879 11.9968 10.18 12.4607 10.156C12.7886 10.14 13.0606 10.244 13.2685 10.3319Z" fill="black"/>
<path d="M12.8526 10.5719C12.5807 10.6119 12.4287 10.7078 12.3327 10.7878C12.2528 10.8598 12.1968 10.9398 12.1968 10.9958C12.1968 11.0198 12.2048 11.0358 12.2208 11.0438C12.2368 11.0518 12.2448 11.0598 12.2688 11.0598C12.3327 11.0598 12.4687 11.0038 12.4687 11.0038C12.8446 10.8678 13.0926 10.8838 13.3405 10.9158C13.4765 10.9318 13.5405 10.9398 13.5724 10.8918C13.5804 10.8758 13.5884 10.8518 13.5644 10.8038C13.5005 10.7078 13.2285 10.5319 12.8526 10.5719Z" fill="black"/>
<path d="M14.9241 11.4517C15.1081 11.5397 15.308 11.5077 15.38 11.3717C15.444 11.2357 15.348 11.0518 15.1641 10.9638C14.9801 10.8758 14.7802 10.9078 14.7082 11.0438C14.6442 11.1797 14.7402 11.3637 14.9241 11.4517Z" fill="black"/>
<path d="M16.1079 10.4199C15.9559 10.4199 15.8359 10.5799 15.8279 10.7878C15.8279 10.9958 15.9399 11.1637 16.0919 11.1637C16.2438 11.1637 16.3638 11.0038 16.3718 10.7958C16.3718 10.5879 16.2518 10.4199 16.1079 10.4199Z" fill="black"/>
<path d="M5.91023 14.0911C5.87024 14.0991 5.82225 14.1151 5.77427 14.1071C5.66229 14.1071 5.57431 14.0591 5.51833 13.9791C5.44634 13.8751 5.45434 13.7151 5.52632 13.5392C5.53432 13.5152 5.55032 13.4912 5.55832 13.4592C5.67829 13.1873 5.87824 12.7394 5.65429 12.3155C5.48633 11.9955 5.2064 11.7956 4.87847 11.7476C4.55855 11.7076 4.23063 11.8276 4.02267 12.0595C3.69475 12.4274 3.63876 12.9233 3.70275 13.0993C3.72674 13.1633 3.76673 13.1793 3.79073 13.1873C3.84671 13.1953 3.9267 13.1553 3.98268 13.0113C3.98268 13.0033 3.99068 12.9873 3.99868 12.9633C4.02267 12.8913 4.06266 12.7474 4.13465 12.6434C4.22263 12.5074 4.3506 12.4194 4.51056 12.3875C4.67052 12.3555 4.83049 12.3875 4.96645 12.4754C5.1984 12.6274 5.28638 12.9073 5.1904 13.1793C5.14241 13.3232 5.05443 13.5872 5.07843 13.8031C5.11842 14.251 5.39036 14.427 5.6383 14.443C5.87824 14.451 6.0462 14.315 6.08619 14.219C6.11019 14.163 6.08619 14.1231 6.0782 14.1071C6.03021 14.0671 5.97422 14.0831 5.91023 14.0911Z" fill="black"/>
<path d="M19.875 13.2992C19.867 13.2673 19.803 13.0513 19.723 12.7874C19.643 12.5234 19.5551 12.3395 19.5551 12.3395C19.883 11.8516 19.891 11.4117 19.843 11.1637C19.795 10.8598 19.667 10.5959 19.4111 10.3239C19.1551 10.052 18.6273 9.77206 17.8834 9.56411C17.7955 9.54012 17.5155 9.46014 17.4915 9.46014C17.4915 9.44414 17.4675 8.54035 17.4515 8.15644C17.4355 7.87651 17.4116 7.43661 17.2836 7.01271C17.1236 6.42884 16.8437 5.92496 16.4918 5.59704C17.4675 4.59727 18.0754 3.48553 18.0674 2.54175C18.0674 0.718175 15.8279 0.166303 13.0606 1.31004L12.4767 1.55798C12.4767 1.55798 11.4209 0.518221 11.405 0.510223C8.26169 -2.24114 -1.58402 8.70031 1.56725 11.3557L2.25509 11.9396C2.07913 12.4035 2.00714 12.9313 2.06313 13.4992C2.13511 14.227 2.51103 14.9309 3.12688 15.4747C3.71075 15.9866 4.47057 16.3145 5.2144 16.3145C6.43811 19.1379 9.23746 20.8655 12.5167 20.9615C16.0359 21.0654 18.9872 19.4178 20.2269 16.4505C20.3069 16.2426 20.6508 15.3068 20.6508 14.475C20.6428 13.6432 20.1789 13.2992 19.875 13.2992ZM5.47833 15.5227C5.37436 15.5387 5.26238 15.5467 5.15041 15.5467C4.08666 15.5147 2.94293 14.5629 2.82295 13.4272C2.69498 12.1715 3.33483 11.2037 4.47057 10.9798C4.60654 10.9558 4.7665 10.9398 4.95046 10.9478C5.58231 10.9798 6.52609 11.4677 6.73404 12.8593C6.926 14.0751 6.63007 15.3228 5.47833 15.5227ZM4.28661 10.22C3.58278 10.3559 2.95892 10.7558 2.57501 11.3077C2.35106 11.1158 1.92716 10.7478 1.84718 10.6039C1.23932 9.45214 2.51103 7.20466 3.39882 5.94096C5.59031 2.80569 9.02951 0.43824 10.6211 0.870139C10.8771 0.942123 11.7329 1.93389 11.7329 1.93389C11.7329 1.93389 10.1412 2.81369 8.66959 4.0454C6.69405 5.58104 5.1904 7.81252 4.28661 10.22ZM8.34167 5.93296C9.12548 5.02917 10.0853 4.24535 10.9411 3.80545C10.9731 3.78946 11.005 3.82145 10.989 3.85344C10.9171 3.97342 10.7891 4.24535 10.7491 4.44531C10.7411 4.4773 10.7731 4.50129 10.8051 4.4853C11.341 4.11738 12.2688 3.72547 13.0846 3.67748C13.1166 3.67748 13.1405 3.71748 13.1086 3.74147C12.9806 3.83745 12.8446 3.96542 12.7486 4.10139C12.7326 4.12538 12.7486 4.15737 12.7726 4.15737C13.3485 4.16537 14.1563 4.36532 14.6842 4.66126C14.7162 4.68525 14.6922 4.74924 14.6522 4.74124C13.8524 4.55728 12.5487 4.42131 11.197 4.74924C9.98928 5.04517 9.0615 5.50106 8.38966 5.98895C8.35766 6.01294 8.31767 5.96495 8.34167 5.93296ZM19.915 14.7549C19.763 15.6827 19.3711 16.4345 18.7073 17.1224C18.3073 17.5543 17.8195 17.9302 17.2596 18.2101C16.9637 18.3701 16.6437 18.498 16.3158 18.61C13.8204 19.4258 11.269 18.53 10.4452 16.6025C10.3812 16.4585 10.3252 16.3065 10.2772 16.1466C9.9253 14.8829 10.2212 13.3632 11.157 12.4035C11.213 12.3395 11.269 12.2675 11.269 12.1795C11.269 12.1075 11.221 12.0275 11.181 11.9716C10.8531 11.4997 9.72534 10.6919 9.95729 9.14021C10.1173 8.02047 11.101 7.23666 12.0128 7.27665C12.0928 7.27665 12.1648 7.28464 12.2448 7.29264C12.6367 7.31664 12.9886 7.36463 13.3085 7.38062C13.8524 7.40462 14.3403 7.32463 14.9241 6.84475C15.1161 6.68478 15.2761 6.54082 15.54 6.49283C15.564 6.48483 15.636 6.46084 15.7799 6.46883C15.9239 6.47683 16.0599 6.51682 16.1798 6.5968C16.6437 6.90873 16.7077 7.65256 16.7317 8.20443C16.7477 8.51636 16.7797 9.27618 16.7957 9.49213C16.8277 9.98801 16.9557 10.06 17.2196 10.148C17.3716 10.196 17.5075 10.236 17.7075 10.2919C18.3233 10.4679 18.6913 10.6439 18.9152 10.8678C19.0512 11.0118 19.1152 11.1557 19.1391 11.2997C19.2111 11.8276 18.7312 12.4834 17.4515 13.0753C16.0519 13.7231 14.3563 13.8911 13.1805 13.7551C13.0926 13.7471 12.7726 13.7071 12.7726 13.7071C11.8369 13.5792 11.301 14.7949 11.8608 15.6267C12.2208 16.1626 13.2125 16.5145 14.2043 16.5145C16.4758 16.5145 18.2194 15.5467 18.8672 14.7069C18.8832 14.6829 18.8912 14.6829 18.9152 14.6349C18.9472 14.5869 18.9232 14.5629 18.8832 14.5869C18.3553 14.9469 16.0039 16.3865 13.4845 15.9546C13.4845 15.9546 13.1805 15.9066 12.9006 15.7947C12.6767 15.7067 12.2128 15.4987 12.1568 15.0188C14.1883 15.6507 15.468 15.0508 15.468 15.0508C15.492 15.0428 15.508 15.0108 15.508 14.9868C15.508 14.9549 15.476 14.9309 15.444 14.9309C15.444 14.9309 13.7804 15.1788 12.2048 14.6029C12.3727 14.0431 12.8286 14.251 13.5165 14.299C14.7562 14.371 15.8679 14.195 16.6917 13.9551C17.4036 13.7471 18.3393 13.3472 19.0672 12.7714C19.3151 13.3072 19.3951 13.8991 19.3951 13.8991C19.3951 13.8991 19.587 13.8671 19.747 13.9631C19.875 14.0671 19.987 14.259 19.915 14.7549ZM12.2288 14.6669C12.2288 14.6749 12.2288 14.6749 12.2288 14.6669Z" fill="black"/>
<path d="M31.9522 11.6516C30.2965 11.6516 30.2646 13.4592 29.8726 13.4592C29.7927 13.4592 29.7287 13.3872 29.7287 13.2912C29.7287 13.1553 29.7607 13.0433 29.7607 12.8354C29.7607 12.1875 29.3048 11.6596 28.345 11.6596C27.5292 11.6596 26.9373 12.0675 26.5774 12.8194C26.3935 13.2033 26.4095 13.4672 26.2255 13.4672C26.1535 13.4672 26.1055 13.4032 26.1055 13.3072C26.1055 13.0273 26.3535 12.7794 26.3535 12.1875C26.3535 12.0355 26.3375 11.8996 26.3135 11.7956H24.7378V17.8982H26.8733V14.5869C26.8733 13.9311 27.1533 13.5152 27.6332 13.5152C27.9531 13.5152 28.233 13.7951 28.233 14.299V17.8982H30.3685V14.5869C30.3685 13.8511 30.7045 13.5152 31.1284 13.5152C31.4803 13.5152 31.7282 13.8431 31.7282 14.299V17.8982H33.8397V14.147C33.8317 12.5074 33.1839 11.6516 31.9522 11.6516Z" fill="black"/>
<path d="M46.5728 10.076H44.4613V17.8902H46.5728V10.076Z" fill="black"/>
<path d="M47.2686 14.7629C47.2686 16.8424 48.6123 18.0341 50.3559 18.0341C51.3556 18.0341 52.1235 17.6422 52.5874 17.2503V15.2348C52.1155 15.5627 51.3796 15.9306 50.5958 15.9306C49.62 15.9306 49.1082 15.5227 49.1082 14.8189C49.1082 14.147 49.7 13.7231 50.5638 13.7231C51.3476 13.7231 52.0675 14.0351 52.5874 14.395V12.2595C52.1395 11.9236 51.3556 11.6356 50.3559 11.6356C48.4843 11.6436 47.2686 12.8114 47.2686 14.7629Z" fill="black"/>
<path d="M57.2423 11.6676C56.3865 11.6676 55.8826 12.0675 55.5227 12.8034C55.3627 13.1313 55.3467 13.4512 55.1708 13.4512C55.0988 13.4512 55.0508 13.3872 55.0508 13.2912C55.0508 12.9553 55.4507 12.4514 55.4507 10.9558C55.4507 10.5799 55.4107 10.2919 55.3387 10.092H53.4911V17.8982H55.6266V14.6109C55.6266 13.9951 55.9466 13.5232 56.4425 13.5232C56.8104 13.5232 57.0663 13.8191 57.0663 14.307V17.8982H59.2018V14.0751C59.2098 12.4754 58.514 11.6676 57.2423 11.6676Z" fill="black"/>
<path d="M76.8537 11.6436C75.9099 11.6436 75.43 12.1795 75.1581 12.6754C74.9421 13.0673 74.9102 13.4432 74.7262 13.4432C74.6382 13.4432 74.5902 13.3872 74.5902 13.2832C74.5902 13.0993 74.8382 12.7794 74.8382 12.2595C74.8382 12.0515 74.8222 11.8916 74.7902 11.7796H73.1906V19.4498H75.3421V17.0424C75.614 17.6262 76.1819 18.0101 76.9657 18.0101C78.3733 18.0101 79.3331 16.8504 79.3331 14.8269C79.3331 12.9553 78.4453 11.6436 76.8537 11.6436ZM76.2778 16.6105C75.8459 16.6105 75.374 16.1626 75.374 15.0348C75.374 14.0511 75.758 13.4752 76.2778 13.4752C76.8697 13.4752 77.2056 14.0511 77.2056 15.0348C77.2056 16.1386 76.8217 16.6105 76.2778 16.6105Z" fill="black"/>
<path d="M37.6548 11.6436C36.5511 11.6436 35.5433 11.9156 34.8395 12.2675V14.0351C35.6553 13.5952 36.4951 13.2672 37.2309 13.2672C38.0148 13.2672 38.3507 13.6832 38.3027 14.227C37.9828 14.195 37.6308 14.179 37.2069 14.179C35.5353 14.179 34.4876 14.8349 34.4876 16.2506C34.4876 17.4183 35.3994 18.0181 36.3911 18.0181C37.3589 18.0181 38.0307 17.5543 38.4147 16.8584C38.6386 16.4585 38.6146 16.2186 38.7586 16.2186C38.8306 16.2186 38.8785 16.2666 38.8785 16.3465C38.8785 16.6025 38.8066 16.7544 38.8066 17.0984C38.8066 17.4183 38.8466 17.6902 38.9185 17.8902H40.4542V14.6189C40.4462 12.7634 39.5984 11.6436 37.6548 11.6436ZM36.935 16.5225C36.5351 16.5225 36.3271 16.3465 36.3271 16.0506C36.3271 15.6587 36.6951 15.3548 37.6548 15.3548C37.8628 15.3548 38.0547 15.3628 38.2307 15.3788C38.1427 15.9306 37.6548 16.5225 36.935 16.5225Z" fill="black"/>
<path d="M45.2691 6.02894V2.60573H43.7974V5.85298C43.7974 6.66079 43.2615 7.19666 42.5497 7.19666C41.8379 7.19666 41.302 6.66079 41.302 5.85298V2.60573H39.8303L39.8383 6.02894C39.8383 7.52459 41.03 8.61233 42.5497 8.61233C44.0773 8.61233 45.2691 7.52459 45.2691 6.02894Z" fill="black"/>
<path d="M50.9477 8.50036H52.4194V3.98141H54.171V2.60573H49.1961V3.98141H50.9477V8.50036Z" fill="black"/>
<path d="M48.2524 2.60573H46.7807V8.49236H48.2524V2.60573Z" fill="black"/>
<path d="M35.6633 8.50036H37.135V3.98141H38.8865V2.60573H33.9117V3.98141H35.6633V8.50036Z" fill="black"/>
<path d="M26.2015 2.60573H24.7378V8.50036H26.2015V2.60573Z" fill="black"/>
<path d="M29.1768 5.24512C29.1768 4.43731 29.7127 3.90143 30.4245 3.90143C31.1364 3.90143 31.6722 4.43731 31.6722 5.24512V8.49236H33.1439L33.1359 5.06916C33.1359 3.57351 31.9362 2.48576 30.4245 2.48576C28.9049 2.48576 27.7132 3.57351 27.7132 5.06916V8.49236H29.1848V5.24512H29.1768Z" fill="black"/>
<path d="M70.4152 11.6516C68.7596 11.6516 68.7276 13.4592 68.3357 13.4592C68.2557 13.4592 68.1917 13.3872 68.1917 13.2912C68.1917 13.1553 68.2237 13.0433 68.2237 12.8354C68.2237 12.1875 67.7678 11.6596 66.808 11.6596C65.9922 11.6596 65.4004 12.0675 65.0405 12.8194C64.8565 13.2033 64.8725 13.4672 64.6885 13.4672C64.6166 13.4672 64.5686 13.4032 64.5686 13.3072C64.5686 13.0273 64.8165 12.7794 64.8165 12.1875C64.8165 12.0355 64.8005 11.8996 64.7765 11.7956H63.2009V17.8982H65.3364V14.5869C65.3364 13.9311 65.6163 13.5152 66.0962 13.5152C66.4161 13.5152 66.6961 13.7951 66.6961 14.299V17.8982H68.8316V14.5869C68.8316 13.8511 69.1675 13.5152 69.5914 13.5152C69.9433 13.5152 70.1913 13.8431 70.1913 14.299V17.8982H72.3028V14.147C72.3028 12.5074 71.6469 11.6516 70.4152 11.6516Z" fill="black"/>
<path d="M61.1774 12.2115C60.7295 12.2115 60.3775 12.1475 60.1136 12.0195V17.8902H62.2251V12.0195C61.9532 12.1395 61.6252 12.2115 61.1774 12.2115Z" fill="black"/>
<path d="M61.1614 10.044C60.2896 10.044 59.8337 10.4279 59.8337 10.8758C59.8337 11.3557 60.3775 11.7076 61.1614 11.7076C61.9532 11.7076 62.489 11.3557 62.489 10.8758C62.497 10.4279 62.0332 10.044 61.1614 10.044Z" fill="black"/>
<path d="M42.4617 12.2115C42.0138 12.2115 41.6619 12.1475 41.398 12.0195V17.8902H43.5095V12.0195C43.2375 12.1395 42.9096 12.2115 42.4617 12.2115Z" fill="black"/>
<path d="M42.4457 10.044C41.5739 10.044 41.118 10.4279 41.118 10.8758C41.118 11.3557 41.6619 11.7076 42.4457 11.7076C43.2375 11.7076 43.7734 11.3557 43.7734 10.8758C43.7814 10.4279 43.3255 10.044 42.4457 10.044Z" fill="black"/>
</svg>
