<svg width="101" height="19" viewBox="0 0 101 19" fill="none" xmlns="http://www.w3.org/2000/svg">
<path d="M2.52934 14.596C2.159 14.5968 1.79508 14.4993 1.47476 14.3134C1.15444 14.1275 0.889202 13.8599 0.706144 13.538C0.525887 13.2183 0.435988 12.8557 0.446077 12.4888C0.456166 12.122 0.565863 11.7648 0.763417 11.4555L4.51799 5.55954C4.71016 5.24267 4.98299 4.98248 5.30861 4.80555C5.63424 4.62862 6.001 4.54129 6.37142 4.55249C6.74155 4.56136 7.10269 4.66841 7.41787 4.86269C7.73304 5.05696 7.99095 5.33149 8.16518 5.65818C8.51518 6.32 8.47143 7.11626 8.05222 7.73751L4.30004 13.6335C4.10976 13.93 3.84771 14.1736 3.53818 14.3419C3.22864 14.5102 2.88164 14.5975 2.52934 14.596Z" fill="#F62B54"/>
<path d="M8.96947 14.5958C8.21219 14.5958 7.51537 14.1909 7.14946 13.5402C6.9696 13.2214 6.87991 12.8597 6.89 12.4938C6.90009 12.1279 7.00958 11.7717 7.20673 11.4633L10.9541 5.58086C11.1435 5.25953 11.4153 4.9947 11.7415 4.81385C12.0677 4.633 12.4363 4.5427 12.8092 4.55233C13.5728 4.56903 14.2649 4.99619 14.6149 5.66438C14.9625 6.33257 14.9116 7.1336 14.4796 7.75326L10.733 13.6357C10.5433 13.9309 10.2823 14.1737 9.97412 14.3415C9.66591 14.5093 9.3204 14.5967 8.96947 14.5958Z" fill="#FFCC00"/>
<path d="M15.2655 14.6451C16.3331 14.6451 17.1985 13.7979 17.1985 12.7527C17.1985 11.7076 16.3331 10.8603 15.2655 10.8603C14.198 10.8603 13.3326 11.7076 13.3326 12.7527C13.3326 13.7979 14.198 14.6451 15.2655 14.6451Z" fill="#00CA72"/>
<path d="M99.2392 10.9701C99.823 10.9701 100.172 11.3853 100.172 12.0655V14.3962H100.965V12.0122C100.965 10.8556 100.42 10.185 99.3959 10.185C98.995 10.185 98.3586 10.2948 97.9792 11.0322C97.891 10.8147 97.7456 10.6251 97.5583 10.4836C97.371 10.3422 97.1489 10.2541 96.9156 10.2287C96.7688 10.2018 96.6192 10.193 96.4702 10.2025C96.144 10.2287 95.5633 10.4316 95.3462 10.8914V10.2733H94.5523V14.3962H95.3462V12.1712C95.3462 11.3058 95.9125 10.9701 96.4797 10.9701C97.0111 10.9701 97.3603 11.3766 97.3603 12.0567V14.3962H98.1494V12.1712C98.1494 11.4824 98.563 10.9621 99.2392 10.9701ZM91.6385 13.7073C92.0013 13.7152 92.3513 13.5705 92.605 13.308C92.8596 13.0455 92.9948 12.6883 92.9813 12.3216C92.9813 11.4911 92.3704 10.9701 91.6385 10.9701C90.9059 10.9701 90.2958 11.4911 90.2958 12.3216C90.2815 12.6875 90.4167 13.0439 90.6697 13.3056C90.9226 13.5681 91.271 13.7136 91.6322 13.7073H91.6385ZM91.6385 14.4805C90.4788 14.4805 89.5107 13.6238 89.5107 12.3168C89.5107 11.0099 90.4788 10.1802 91.6385 10.1802C92.7983 10.1802 93.7744 11.0099 93.7744 12.3168C93.7744 13.6238 92.7928 14.4844 91.633 14.4844L91.6385 14.4805ZM85.426 12.3168L85.418 12.3216C85.418 11.0146 86.4116 10.185 87.5793 10.1802C87.8727 10.1745 88.1639 10.2305 88.4343 10.3445C88.7046 10.4585 88.948 10.628 89.1487 10.842L88.5474 11.3543C88.4196 11.2289 88.2683 11.13 88.1022 11.0634C87.936 10.9968 87.7583 10.9637 87.5793 10.9661C86.8475 10.9661 86.2111 11.4872 86.2111 12.3168C86.2111 12.8776 86.5444 13.3827 87.0559 13.5975C87.5674 13.8123 88.156 13.693 88.5474 13.2968L89.1575 13.8091C88.9562 14.0253 88.7116 14.1968 88.4397 14.3125C88.1679 14.4281 87.8747 14.4854 87.5793 14.4805C86.4203 14.4805 85.426 13.6238 85.426 12.3168ZM82.8861 13.6047C82.8852 13.5326 82.8986 13.4611 82.9254 13.3941C82.9522 13.3272 82.992 13.2662 83.0423 13.2147C83.0927 13.1631 83.1528 13.122 83.219 13.0936C83.2853 13.0653 83.3565 13.0503 83.4286 13.0494C83.5007 13.0503 83.5719 13.0653 83.6382 13.0936C83.7044 13.122 83.7645 13.1631 83.8148 13.2147C83.8652 13.2662 83.9049 13.3272 83.9318 13.3941C83.9586 13.4611 83.9719 13.5326 83.9711 13.6047C83.964 13.7443 83.9039 13.8759 83.8031 13.9727C83.7023 14.0695 83.5684 14.1243 83.4286 14.1257C83.2888 14.1243 83.1549 14.0695 83.0541 13.9727C82.9532 13.8759 82.8932 13.7443 82.8861 13.6047Z" fill="#333333"/>
<path fill-rule="evenodd" clip-rule="evenodd" d="M85.0561 5.03199H82.2314L80.2515 10.1365L78.2819 5.03199H75.4573L78.8913 13.098L76.7555 18.4307H79.5595L85.0561 5.03199ZM67.8773 9.51839C67.8773 10.807 69.0037 11.655 70.1102 11.655C71.1976 11.655 72.2659 10.8659 72.2659 9.51759C72.2659 8.16929 71.1976 7.37939 70.1102 7.37939C69.0037 7.37939 67.8773 8.22895 67.8773 9.51839ZM72.2659 14.0223V13.0017C71.6932 13.8688 70.3568 14.1965 69.6711 14.1965C67.4008 14.1965 65.1298 12.4067 65.1298 9.51759C65.1298 6.62927 67.4 4.83949 69.6711 4.83949C70.243 4.83949 71.5794 5.0304 72.2659 6.03268V5.03517H74.8989V14.0239L72.2659 14.0223ZM64.3805 14.0223H61.7475V12.9055C61.3076 13.7327 60.2409 14.2148 59.1336 14.2148C56.8435 14.2148 54.8206 12.386 54.8206 9.55418C54.8206 6.66905 56.8435 4.8379 59.1336 4.8379C60.2393 4.8379 61.3092 5.29926 61.7475 6.12734V0.135132H64.3805V14.0223ZM61.6902 9.49771C61.6902 8.1502 60.7174 7.3603 59.63 7.3603C58.5036 7.3603 57.5681 8.20747 57.5681 9.49771C57.5681 10.8293 58.5036 11.6725 59.6292 11.6725C60.7373 11.6741 61.6902 10.7879 61.6902 9.49771ZM48.3106 9.26543C48.3106 7.89883 49.0169 7.43667 49.9516 7.43667C50.8481 7.43667 51.4972 8.03326 51.4972 9.22645V14.0207H54.1493V8.64974C54.1493 6.08995 52.8893 4.8379 50.8855 4.8379C49.8363 4.8379 48.7871 5.43449 48.3098 6.33973V5.03199H45.6593V14.0207H48.3106V9.26543ZM40.274 14.175C37.7556 14.175 35.6548 12.3272 35.6548 9.49691C35.6548 6.66507 37.7532 4.83551 40.274 4.83551C42.7949 4.83551 44.9116 6.66507 44.9116 9.49691C44.9116 12.3288 42.7925 14.175 40.274 14.175ZM40.274 11.5579C41.3797 11.5579 42.2969 10.7482 42.2969 9.49771C42.2969 8.28463 41.3805 7.45655 40.274 7.45655C40.0076 7.45239 39.7431 7.50249 39.4967 7.60383C39.2503 7.70517 39.027 7.85561 38.8406 8.04599C38.6531 8.23739 38.506 8.46454 38.408 8.71393C38.31 8.96331 38.2632 9.22986 38.2703 9.49771C38.2711 10.7498 39.1866 11.5579 40.274 11.5579ZM30.9003 7.43746C31.6823 7.43746 32.3695 8.05394 32.3695 9.22725V14.0223H35.0025V8.91702C35.0025 6.20291 33.6828 4.83631 31.5677 4.83631C30.9393 4.83631 29.7557 5.02722 28.8966 6.43359C28.4002 5.39392 27.4464 4.8546 26.0369 4.8546C25.5475 4.85211 25.0677 4.99062 24.655 5.25356C24.2422 5.51651 23.9139 5.89276 23.7094 6.33734V5.03278H21.0557V14.0215H23.707V9.26543C23.707 7.89883 24.4515 7.43667 25.2526 7.43667C26.0162 7.43667 26.7019 8.03326 26.7218 9.16918V14.0215H29.3738V9.26543C29.3738 7.95849 30.0611 7.43746 30.9003 7.43746Z" fill="#333333"/>
</svg>
