<svg width="76" height="23" viewBox="0 0 76 23" fill="none" xmlns="http://www.w3.org/2000/svg">
<path fill-rule="evenodd" clip-rule="evenodd" d="M0.445312 19.8825H5.02863C5.50196 19.8825 5.88904 19.4955 5.88904 19.0221V11.0809L14.4443 20.6091L22.9999 11.0809V19.0221C22.9999 19.4955 23.387 19.8825 23.8603 19.8825H28.4432V2.86643H24.5516C23.4269 2.86643 22.5886 3.40817 22.1357 3.91209L14.4443 12.4779L6.75285 3.91209C6.30034 3.40817 5.4616 2.86643 4.33733 2.86643H0.445312V19.8825Z" fill="#24ABE2"/>
<path fill-rule="evenodd" clip-rule="evenodd" d="M51.9109 19.8825H74.5849C75.0582 19.8825 75.4453 19.4955 75.4453 19.0221V14.4902H64.4206L75.4134 2.88215H52.7535C52.2806 2.88215 51.8931 3.26966 51.8931 3.74256V8.27447H62.9037L51.9109 19.8825Z" fill="#24ABE2"/>
<path fill-rule="evenodd" clip-rule="evenodd" d="M40.8373 0.272461C47.7567 0.272461 53.3662 5.10902 53.3662 11.2062C53.3662 17.303 47.7567 22.1396 40.8373 22.1396C33.9175 22.1396 28.3085 17.303 28.3085 11.2062C28.3085 5.10902 33.9175 0.272461 40.8373 0.272461ZM40.8373 5.73616C44.2114 5.73616 47.1049 8.18524 47.1049 11.2062C47.1049 14.2268 44.299 16.6759 40.8373 16.6759C37.3757 16.6759 34.5693 14.2268 34.5693 11.2062C34.5693 8.18524 37.4633 5.73616 40.8373 5.73616Z" fill="#24ABE2"/>
</svg>
