<svg width="115" height="26" viewBox="0 0 115 26" fill="none" xmlns="http://www.w3.org/2000/svg">
<path d="M13.8721 0.0341797C13.8408 0.0341797 0.470489 5.05033 0.452258 5.06943C0.445312 5.0755 0.443576 8.4578 0.447049 12.585L0.453994 20.0884L2.12083 19.4364C3.0376 19.0778 4.06027 18.6776 4.3919 18.5465L4.99613 18.3095V12.2012C4.99613 7.98813 5.00482 6.08776 5.02565 6.07561C5.076 6.04435 13.8425 3.9556 13.8651 3.96862C13.8929 3.98598 13.8929 21.9175 13.8651 21.934C13.8538 21.941 10.8631 21.5356 7.21859 21.0338C3.57498 20.5311 0.584216 20.1231 0.573798 20.1266C0.562512 20.1309 3.53157 21.2352 7.17171 22.5825C10.811 23.929 13.82 25.0324 13.8582 25.0342C13.8964 25.035 15.5875 24.5775 17.6155 24.0167L21.3034 22.9966L21.2895 2.16635L17.5947 1.10026C15.5632 0.514264 13.8877 0.0341797 13.8721 0.0341797ZM49.4035 3.96775C48.7359 3.96775 48.3184 4.0563 47.8174 4.30285C47.0457 4.6831 46.4397 5.39845 46.1662 6.2501C46.0056 6.75363 45.9952 6.86215 45.9813 8.15308L45.9683 9.3407H44.1391V10.7853H45.9726V20.064H47.6672V10.7853H51.8621V20.064H53.5567V10.7853H56.0848V9.3407H53.5567V8.417C53.5585 7.12606 53.608 6.74495 53.8389 6.26139C54.0446 5.83253 54.4292 5.53736 54.918 5.43405C55.346 5.34463 55.9823 5.41842 56.3635 5.6016L56.5024 5.66845V4.12488L56.3418 4.08148C56.0422 3.99727 55.7653 3.96775 55.293 3.96862C54.6254 3.96862 54.2079 4.05543 53.7069 4.30285C52.9352 4.6831 52.3292 5.39845 52.0557 6.2501C51.8951 6.75363 51.8847 6.86215 51.8708 8.15308L51.8578 9.3407H47.6672V8.417C47.669 7.12606 47.7185 6.74495 47.9494 6.26139C48.1551 5.83253 48.5397 5.53736 49.0285 5.43405C49.4565 5.34463 50.0928 5.41842 50.474 5.6016L50.6129 5.66845V4.12488L50.4523 4.08148C50.1527 3.99727 49.8758 3.96775 49.4035 3.96862V3.96775ZM58.5295 4.40182C58.1128 4.41484 57.7612 4.63449 57.5745 5.00779C57.3575 5.44186 57.4382 5.97837 57.769 6.29959C57.9202 6.4419 58.1066 6.54139 58.309 6.58781C59.224 6.76752 59.9359 5.94539 59.6138 5.08332C59.4853 4.74127 59.0964 4.44957 58.7118 4.40877C58.651 4.40182 58.5894 4.40009 58.5295 4.40182ZM88.0274 4.79249C87.8963 4.79422 87.7626 4.79943 87.6263 4.80811C86.6045 4.87409 85.9125 5.04425 85.1225 5.4245C84.9055 5.52868 84.7206 5.63112 84.7128 5.65108C84.7041 5.67192 84.7015 6.04609 84.7058 6.48364L84.7128 7.27886L85.0184 7.07398C85.8292 6.53052 86.6166 6.2692 87.5368 6.23795C89.2315 6.17978 90.2272 6.82134 90.4608 8.12356C90.6274 9.05074 90.4521 9.91281 89.9781 10.4988C89.6074 10.9563 89.004 11.2793 88.2253 11.4364C87.7079 11.5406 87.3867 11.5632 86.4742 11.5632H85.6434V13.0017L86.7199 13.0147C87.6315 13.026 87.8537 13.0373 88.1671 13.0868C89.0023 13.217 89.6404 13.4548 90.0901 13.8004C90.3251 13.9897 90.53 14.2136 90.6978 14.4645C91.1075 15.1486 91.1805 16.2702 90.8645 17.0585C90.5823 17.7652 89.9008 18.366 89.0813 18.6307C88.3008 18.8825 87.2773 18.9138 86.3701 18.7132C85.6035 18.5431 84.9237 18.2288 84.2058 17.7122L84.1424 17.668L84.1572 19.5223L84.5183 19.7038C85.1798 20.0354 85.9039 20.2168 86.8501 20.2872C87.2755 20.3184 88.1463 20.2967 88.5465 20.2437C89.2532 20.1517 89.8392 19.9824 90.3792 19.7133C91.3072 19.2506 92.0121 18.5595 92.4054 17.7279C92.7075 17.0889 92.8308 16.4508 92.803 15.6634C92.7831 15.0687 92.6919 14.6885 92.4618 14.2301C91.9305 13.171 90.8653 12.4591 89.5119 12.2551C89.3851 12.236 89.2827 12.2117 89.2827 12.2004C89.2827 12.19 89.4173 12.1353 89.5813 12.0788C89.9351 11.9543 90.2768 11.798 90.6023 11.6118C90.8739 11.4368 91.1252 11.2321 91.3515 11.0015C91.8116 10.4979 92.1033 9.8642 92.2127 9.13235C92.2682 8.76773 92.2682 8.00636 92.2136 7.69383C92.0312 6.64598 91.3923 5.79867 90.3991 5.28907C89.7324 4.94615 88.9441 4.7812 88.0265 4.79249H88.0274ZM36.2112 4.79249C35.5277 4.78477 34.8458 4.8585 34.1797 5.01213C33.1469 5.24993 32.1847 5.7279 31.3713 6.40724C30.1012 7.47419 29.2461 9.15145 28.9596 11.1464C28.8024 12.2473 28.8337 13.638 29.0403 14.6624C29.3737 16.3119 30.2062 17.793 31.3305 18.7358C32.0807 19.3566 32.9556 19.8089 33.8958 20.0623C34.3313 20.1707 34.7745 20.245 35.2215 20.2846C35.6382 20.3184 36.5064 20.2976 36.9404 20.2437C38.9893 19.9894 40.6578 18.9789 41.7291 17.3415C42.0135 16.8787 42.2575 16.3921 42.4584 15.8874C42.7016 15.1974 42.8709 14.4835 42.9636 13.7578C43.0044 13.4557 43.014 13.1901 43.014 12.3966C43.014 11.3357 42.9923 11.0701 42.843 10.3564C42.2517 7.5202 40.3653 5.5252 37.7357 4.95309C37.2342 4.84856 36.7234 4.79504 36.2112 4.79336V4.79249ZM100.812 4.80117C100.135 4.79856 99.8576 4.82982 99.3254 4.96612C98.3036 5.22743 97.3825 5.80909 96.6619 6.64772C95.8433 7.60007 95.2495 8.85888 94.9117 10.3547C94.5254 12.0684 94.4907 14.3612 94.8267 15.9542C94.9769 16.6679 95.1609 17.207 95.4517 17.786C96.1983 19.2792 97.3643 20.1248 98.8965 20.2863C99.2403 20.3219 99.9157 20.2958 100.287 20.2325C101.099 20.0899 101.858 19.7313 102.484 19.1942C103.199 18.5778 103.775 17.5647 103.994 16.5359C104.154 15.785 104.158 14.8395 104.004 14.0408C103.749 12.7161 102.921 11.5996 101.795 11.0622C100.611 10.4962 98.913 10.5205 97.893 11.1195C97.3287 11.4503 96.9206 11.8731 96.5647 12.4938C96.5116 12.5804 96.464 12.6703 96.4223 12.7629C96.4223 12.7751 96.4102 12.7855 96.3945 12.7855C96.3338 12.7855 96.3746 11.8288 96.4657 11.1464C96.7956 8.67136 98.011 6.86041 99.6614 6.38206C100.106 6.25358 100.384 6.22232 100.938 6.23882C101.672 6.26052 102.325 6.41158 102.946 6.70241C103.026 6.7416 103.108 6.77836 103.191 6.81266C103.196 6.81266 103.201 6.45065 103.201 6.00963V5.20573L103.01 5.13367C102.439 4.9149 101.708 4.80377 100.812 4.80117ZM110.077 5.0347C108.175 5.0347 106.617 5.03817 106.616 5.04165C106.607 5.07898 106.101 12.552 106.107 12.5598C106.112 12.5659 106.251 12.5563 106.416 12.539C107.388 12.4382 109.148 12.427 109.674 12.519C110.693 12.6978 111.398 13.0677 111.88 13.6771C112.289 14.1954 112.48 14.8057 112.48 15.6026C112.48 16.8024 111.968 17.7409 110.992 18.3338C109.953 18.9632 108.383 19.0145 106.987 18.464C106.608 18.3192 106.245 18.1369 105.902 17.9197L105.812 17.865V19.6933L106.083 19.821C106.395 19.9674 106.724 20.0753 107.062 20.1422C107.34 20.2029 107.971 20.2802 108.299 20.295C109.839 20.3627 110.962 20.1483 111.93 19.6031C112.995 19.0023 113.774 18.0074 114.06 16.8832C114.323 15.8457 114.274 14.5452 113.939 13.6736C113.398 12.2664 112.183 11.3505 110.479 11.0657C109.88 10.9659 109.437 10.9459 108.582 10.9815C108.156 10.9989 107.804 11.0075 107.797 11.0006C107.785 10.9893 108.04 7.15471 108.078 6.76405L108.095 6.59042H113.535V5.0347H110.077ZM35.9759 6.3673C36.4004 6.36383 36.8345 6.40203 37.2356 6.48277C39.1542 6.86562 40.5207 8.32845 40.9999 10.511C41.2916 11.8444 41.276 13.5365 40.9599 14.7675C40.3653 17.0794 38.8347 18.451 36.5689 18.7019C36.2286 18.7401 35.488 18.7323 35.1659 18.6889C32.6674 18.3442 30.9893 16.338 30.7202 13.3724C30.6768 12.894 30.7002 11.7958 30.7618 11.3965C30.9459 10.2184 31.3088 9.28167 31.9156 8.417C32.1474 8.0871 32.7169 7.5176 33.0546 7.27886C33.5757 6.91819 34.1582 6.65548 34.7735 6.5036C35.1364 6.41679 35.5514 6.37078 35.9759 6.3673ZM66.8133 9.09762C66.6354 9.09502 66.4557 9.1011 66.2751 9.11412C65.1291 9.19572 64.3113 9.4579 63.4996 10.0031C62.2148 10.8669 61.4091 12.2794 61.2077 14.0252C61.1452 14.5687 61.1652 15.64 61.2468 16.0914C61.4577 17.253 61.9673 18.2383 62.7348 18.9719C63.5647 19.7645 64.5032 20.1639 65.8497 20.2976C66.0615 20.3184 66.9062 20.2854 67.1918 20.2446C67.777 20.1685 68.3448 19.9929 68.8708 19.7255L69.1973 19.5597V17.9267L68.9221 18.1064C68.4515 18.4175 67.9281 18.6402 67.3776 18.7636C67.0069 18.8434 66.3263 18.8617 65.9218 18.8018C65.1691 18.6906 64.5735 18.4068 64.0613 17.9128C63.3651 17.2426 63.0048 16.3953 62.918 15.2215C62.8494 14.3056 63.0265 13.2882 63.3729 12.5997C63.6403 12.0702 64.1733 11.4477 64.6143 11.1543C65.2602 10.7228 65.9487 10.5405 66.8081 10.5726C67.5657 10.5923 68.3036 10.8177 68.9429 11.2246C69.0696 11.3036 69.179 11.3687 69.186 11.3687C69.1921 11.3687 69.1973 10.9763 69.1973 10.4971V9.62459L68.9681 9.52736C68.3274 9.25302 67.5851 9.10631 66.8133 9.09762ZM75.2847 9.09762C74.1714 9.1072 73.0988 9.51775 72.2636 10.254C71.3147 11.0761 70.6349 12.4747 70.4769 13.9306C70.4335 14.336 70.4405 15.3491 70.4908 15.7858C70.6523 17.1731 71.1193 18.2383 71.9189 19.037C72.3488 19.4817 72.8786 19.8174 73.4642 20.0163C73.9061 20.17 74.2169 20.2316 74.8793 20.2976C75.1033 20.3201 76.06 20.2854 76.3951 20.2429C77.3483 20.1213 78.2008 19.8279 78.8441 19.3973L79.0316 19.2723V17.6784L78.6774 17.9171C77.7572 18.5387 76.7823 18.8417 75.7023 18.8417C74.6805 18.8417 73.8705 18.5552 73.2715 17.9822C72.629 17.3676 72.3044 16.5654 72.2106 15.3622L72.1915 15.1191H79.7904L79.773 14.3204C79.7643 13.8655 79.7383 13.3724 79.7122 13.1744C79.5525 11.9043 79.1349 10.9667 78.4083 10.2427C77.7051 9.54211 76.9177 9.20441 75.7752 9.11412C75.6103 9.1011 75.4462 9.09589 75.2847 9.09762ZM57.6961 9.3407V20.064H59.3907V9.3407H57.6961ZM75.3264 10.5674C75.3828 10.5674 75.4392 10.5691 75.4974 10.5717C76.2006 10.6013 76.6876 10.7888 77.1208 11.1968C77.6582 11.7038 77.9395 12.4035 78.0194 13.4314L78.0385 13.6745H72.2228L72.241 13.5703C72.3825 12.7499 72.7298 12.0233 73.2359 11.4885C73.8306 10.8591 74.486 10.5691 75.3264 10.5683V10.5674ZM99.4643 12.1084C99.9505 12.1084 100.015 12.1144 100.27 12.183C100.756 12.3132 101.069 12.4886 101.419 12.8254C101.771 13.1632 102.002 13.546 102.169 14.0704C102.299 14.4732 102.343 14.7727 102.36 15.3274C102.376 15.8891 102.334 16.272 102.212 16.6956C101.905 17.7582 101.181 18.504 100.207 18.7618C99.96 18.8278 99.262 18.8573 99.0085 18.8122C98.7208 18.7502 98.4421 18.6516 98.1795 18.5187C97.544 18.1645 96.9693 17.4292 96.7036 16.6297C96.5517 16.1765 96.5031 15.8744 96.4866 15.2997C96.4709 14.7041 96.5065 14.4558 96.6715 14.0044C96.938 13.2751 97.6021 12.5893 98.321 12.3028C98.7411 12.1344 98.8931 12.1084 99.4643 12.1084Z" fill="#EB3C00"/>
</svg>
