<svg width="121" height="20" viewBox="0 0 121 20" fill="none" xmlns="http://www.w3.org/2000/svg">
<path fill-rule="evenodd" clip-rule="evenodd" d="M4.21856 4.02525C4.01821 4.02525 3.19678 4.03193 2.99643 4.04529V9.40798C3.21014 9.43469 4.09168 9.44805 4.39888 9.44805C4.70608 9.44805 5.02664 9.38127 5.36056 9.2477C5.68112 9.12749 5.96828 8.9405 6.20203 8.6934C6.67619 8.1992 6.90993 7.54473 6.90993 6.73665C6.90993 4.92682 6.01503 4.02525 4.21189 4.02525H4.21856ZM0.445312 1.75462C1.39363 1.63441 2.34863 1.56763 3.30363 1.56763C5.12014 1.56763 7.11696 2.00172 8.06528 2.8699C9.0136 3.73808 9.48776 5.03368 9.48776 6.75668C9.48776 8.29938 8.97353 9.52151 7.93171 10.4164C6.96335 11.2579 5.71451 11.6853 4.19185 11.6853C4.01154 11.6853 3.21014 11.6719 3.00311 11.6519V15.3851H0.445312V1.75462ZM18.1162 8.85368C17.8423 7.3978 17.061 6.66319 15.7654 6.66319C14.7503 6.66319 13.9823 7.10396 13.448 7.99885C13.2877 8.27266 13.1675 8.56651 13.0807 8.89375C13.241 8.90043 13.4413 8.9071 13.6684 8.91378H14.4097C14.6568 8.92046 14.8905 8.92714 15.1243 8.92714H15.6986C16.0392 8.92714 16.3731 8.92714 16.7003 8.91378L17.5218 8.88039C17.7422 8.88039 17.9358 8.86704 18.1162 8.847V8.85368ZM10.4561 10.1359C10.4561 9.3412 10.583 8.60658 10.8568 7.92539C11.1106 7.26424 11.4979 6.65651 11.9921 6.14228C13.034 5.06039 14.3963 4.51945 16.0859 4.51945C17.5084 4.51945 18.6504 5.00029 19.5119 5.95529C20.3601 6.87689 20.7875 8.03892 20.7875 9.44137C20.7875 9.97564 20.7474 10.3429 20.6673 10.5433C19.9994 10.7303 18.6371 10.8238 16.5868 10.8238H13.0607C13.2343 11.5517 13.635 12.1194 14.2761 12.5201C14.9106 12.9275 15.732 13.1278 16.7538 13.1278C17.7756 13.1278 18.7306 12.9341 19.4852 12.5468C19.6455 12.4667 19.7991 12.3732 19.9393 12.2596C19.926 12.5468 19.9126 12.834 19.8859 13.1345L19.7724 14.7239C19.2648 15.0712 18.4434 15.3183 17.3081 15.4585C16.9875 15.4986 16.667 15.5186 16.3464 15.5186C14.6501 15.5186 13.2477 15.0178 12.1391 14.0093C11.0171 13.0009 10.4628 11.7053 10.4628 10.1292L10.4561 10.1359ZM24.3871 10.0424C24.3871 10.4698 24.4606 10.8839 24.6008 11.2846C24.741 11.6853 24.9414 12.0259 25.2019 12.313C25.7562 12.9275 26.4841 13.2413 27.3857 13.2413C28.2205 13.2413 28.8816 12.9408 29.3624 12.3331C29.8299 11.7521 30.0637 10.9907 30.0637 10.0491C30.0637 9.10745 29.8233 8.33277 29.3424 7.74508C28.8282 7.11731 28.1203 6.81011 27.2254 6.81011C26.3305 6.81011 25.6026 7.13735 25.0883 7.80518C24.6208 8.41291 24.3871 9.16088 24.3871 10.0357V10.0424ZM21.9495 10.1025C21.9495 9.35455 22.0764 8.63997 22.3235 7.95878C22.5639 7.29763 22.9312 6.6899 23.3987 6.16899C24.4272 5.06707 25.7495 4.51277 27.379 4.51277C29.0085 4.51277 30.2974 5.03368 31.2524 6.0755C32.1673 7.06389 32.6281 8.3528 32.6281 9.94224C32.6281 11.5317 32.154 12.834 31.219 13.8758C30.224 14.9777 28.9016 15.5253 27.2588 15.5253C25.6159 15.5253 24.2335 14.9844 23.2718 13.9092C22.397 12.9208 21.9562 11.6519 21.9562 10.1025H21.9495ZM36.2612 12.5869C36.7687 13.021 37.4299 13.2413 38.2313 13.2413C39.5536 13.2413 40.4151 12.5935 40.8024 11.2979C40.936 10.8371 41.0094 10.3563 41.0028 9.87546C41.0028 9.36791 40.956 8.96053 40.8625 8.66001C40.7824 8.3862 40.6555 8.11906 40.4952 7.87864C40.355 7.67162 40.1813 7.47794 39.9877 7.33102C39.8073 7.19078 39.6203 7.07057 39.42 6.97707C39.0928 6.82347 38.7255 6.74333 38.3648 6.74333C38.0042 6.74333 37.6302 6.82347 37.2429 6.9971C36.8756 7.15738 36.5416 7.39113 36.2612 7.67829V12.5935V12.5869ZM36.2612 15.1513V18.1499C36.2612 18.7376 36.2745 19.1116 36.3012 19.2919H33.8035V4.72648H36.2612V5.38763C37.0692 4.80661 37.8439 4.51945 38.5852 4.51945C39.3265 4.51945 39.981 4.6263 40.5553 4.84001C41.1297 5.04703 41.6439 5.38095 42.0713 5.82172C43.0263 6.77672 43.5005 8.14578 43.5005 9.91553C43.5005 11.0909 43.2333 12.1394 42.6924 13.061C42.2316 13.8424 41.5704 14.4902 40.7757 14.9376C40.0611 15.3517 39.253 15.5654 38.4316 15.5587C37.5835 15.5587 36.8622 15.4318 36.2545 15.158L36.2612 15.1513ZM47.3271 14.2297C47.3271 14.8107 47.3405 15.1914 47.3672 15.3717H44.8228V0.191895H47.3338V14.2364L47.3271 14.2297ZM56.4831 8.847C56.2093 7.39113 55.4279 6.65651 54.139 6.65651C53.1172 6.65651 52.3426 7.09728 51.8216 7.99217C51.6614 8.26599 51.5412 8.55983 51.4543 8.88707C51.6146 8.89375 51.8083 8.90043 52.042 8.9071H52.7833C53.0304 8.91378 53.2642 8.92046 53.4979 8.92046H54.0722C54.4128 8.92046 54.7468 8.92046 55.074 8.9071L55.8954 8.87371C56.0891 8.87371 56.2894 8.86036 56.4831 8.84032V8.847ZM48.8231 10.1292C48.8231 9.33452 48.95 8.5999 49.2171 7.91871C49.4909 7.2442 49.8649 6.64315 50.3524 6.1356C51.3942 5.05371 52.7566 4.51277 54.4395 4.51277C55.8687 4.51277 57.0107 4.99361 57.8722 5.94861C58.7203 6.87022 59.1478 8.03224 59.1478 9.43469C59.1478 9.96896 59.1077 10.3363 59.0276 10.5366C58.3597 10.7236 56.9973 10.8171 54.9471 10.8171H51.4209C51.5946 11.545 52.002 12.1127 52.6364 12.5134C53.2708 12.9208 54.099 13.1211 55.1141 13.1211C56.1292 13.1211 57.0908 12.9275 57.8522 12.5401C58.0124 12.46 58.166 12.3665 58.3063 12.2529C58.2929 12.5401 58.2796 12.8273 58.2595 13.1278L58.146 14.7172C57.6385 15.0645 56.817 15.3116 55.6817 15.4519C55.3612 15.4919 55.0406 15.512 54.72 15.512C53.0237 15.512 51.6213 15.0111 50.506 14.0027C49.3907 12.9942 48.8364 11.6986 48.8364 10.1226L48.8231 10.1292Z" fill="#33D4C0"/>
<path fill-rule="evenodd" clip-rule="evenodd" d="M64.3769 15.3784C63.3952 15.3784 62.7407 15.3984 62.4201 15.4385V1.76798C62.5804 1.80805 62.9143 1.82808 63.4219 1.82808C63.9294 1.82808 64.5171 1.81473 65.185 1.78801V12.9341H67.2619C67.863 12.9341 68.3438 12.9141 68.7044 12.874C68.6577 14.4635 68.6377 15.2916 68.6377 15.3517V15.4519C67.9832 15.4051 66.8813 15.3784 65.3386 15.3784H64.3769ZM95.0972 14.4701C95.0972 15.0578 95.1172 15.5053 95.1706 15.8192H92.6462V1.24039H95.0972V10.1693L99.6785 5.16724H102.657L98.7035 9.39462L100.961 12.5201C101.321 13.1011 101.682 13.6821 102.063 14.2564L102.724 15.2048C102.924 15.4719 103.091 15.6722 103.225 15.8125H101.642C101.054 15.8125 100.547 15.8659 100.126 15.9661L97.0005 11.318L95.0972 13.3749V14.4701Z" fill="#030C0D"/>
<path fill-rule="evenodd" clip-rule="evenodd" d="M110.584 8.85368C110.31 7.3978 109.529 6.66319 108.24 6.66319C107.225 6.66319 106.45 7.10396 105.923 7.99885C105.762 8.27266 105.636 8.56651 105.549 8.89375C105.709 8.90043 105.909 8.9071 106.143 8.91378H106.884C107.132 8.92046 107.372 8.92714 107.599 8.92714H108.167C108.507 8.92714 108.841 8.92714 109.168 8.91378L109.996 8.88039C110.217 8.88039 110.411 8.86704 110.584 8.847V8.85368ZM102.924 10.1359C102.924 9.3412 103.058 8.60658 103.325 7.92539C103.579 7.26424 103.966 6.65651 104.46 6.14228C105.509 5.06039 106.864 4.51945 108.554 4.51945C109.976 4.51945 111.118 5.00029 111.98 5.95529C112.828 6.87689 113.256 8.03892 113.256 9.44137C113.256 9.97564 113.215 10.3429 113.135 10.5433C112.467 10.7303 111.105 10.8238 109.055 10.8238H105.522C105.696 11.5517 106.096 12.1194 106.731 12.5201C107.365 12.9275 108.193 13.1278 109.208 13.1278C110.277 13.1278 111.185 12.9341 111.947 12.5468C112.147 12.4466 112.294 12.3531 112.401 12.2596C112.387 12.5468 112.367 12.834 112.347 13.1345L112.24 14.7239C111.726 15.0712 110.905 15.3183 109.769 15.4585C109.436 15.4986 109.115 15.5186 108.808 15.5186C107.111 15.5186 105.709 15.0178 104.6 14.0093C103.485 13.0009 102.924 11.7053 102.924 10.1292V10.1359Z" fill="#030C0D"/>
<path fill-rule="evenodd" clip-rule="evenodd" d="M69.7796 3.66462C69.7796 3.66462 69.8598 3.49766 70.0267 3.22385L70.1603 2.99679C70.2137 2.91665 70.2872 2.83651 70.3607 2.74969C70.5076 2.56938 70.6812 2.36235 70.9016 2.18203L71.2422 1.89487L71.6362 1.62773C71.91 1.44074 72.2306 1.31385 72.5578 1.15357C72.8984 1.04672 73.2524 0.906475 73.6264 0.853048C73.9937 0.76623 74.3877 0.752874 74.7684 0.732839C75.1557 0.759552 75.543 0.76623 75.9103 0.853048C76.2843 0.906475 76.6383 1.04004 76.9789 1.15357C77.3061 1.30717 77.6267 1.43406 77.9005 1.62773L78.2945 1.88819L78.6351 2.18203C78.8555 2.36235 79.0225 2.5627 79.1627 2.73634C79.2362 2.82315 79.3096 2.90329 79.363 2.98343L79.51 3.21717C79.6035 3.3641 79.6836 3.51102 79.7504 3.66462C79.7504 3.66462 79.5767 3.59784 79.2896 3.46427C79.156 3.39081 78.9824 3.32403 78.7887 3.25057C78.595 3.17043 78.3813 3.08361 78.1476 3.01015C78.0274 2.97008 77.9138 2.93001 77.787 2.88326L77.3996 2.77641C77.1392 2.68291 76.852 2.6562 76.5715 2.57606C76.2777 2.54266 75.9905 2.47588 75.6833 2.45585C75.3828 2.41578 75.0756 2.42245 74.7684 2.40242C74.4612 2.41578 74.1539 2.4091 73.8534 2.45585C73.5462 2.4692 73.2524 2.53599 72.9652 2.57606C72.6847 2.64952 72.3909 2.68291 72.1371 2.77641L71.7431 2.88326L71.3824 3.01015C71.142 3.08361 70.935 3.17043 70.748 3.24389C70.6478 3.28396 70.561 3.32403 70.4742 3.35742L70.2405 3.47095C70.0935 3.54441 69.9332 3.6112 69.7796 3.6713V3.66462Z" fill="#33D4C0"/>
<path fill-rule="evenodd" clip-rule="evenodd" d="M80.3915 9.78196C80.3915 13.0543 77.7803 15.7056 74.568 15.7056C71.3557 15.7056 68.7445 13.0543 68.7445 9.78196C68.7445 6.50959 71.3491 3.86497 74.568 3.86497C77.787 3.86497 80.3915 6.51626 80.3915 9.78196Z" fill="#030C0D"/>
<path fill-rule="evenodd" clip-rule="evenodd" d="M78.0207 9.78196C78.0207 11.7254 76.478 13.2948 74.568 13.2948C72.658 13.2948 71.1086 11.7187 71.1086 9.78196C71.1086 7.84525 72.658 6.26917 74.568 6.26917C76.478 6.26917 78.0207 7.84525 78.0207 9.78196Z" fill="white"/>
<path fill-rule="evenodd" clip-rule="evenodd" d="M75.9838 10.6301C75.6966 11.1243 75.1691 11.4582 74.568 11.4582C73.6598 11.4582 72.9251 10.7103 72.9251 9.78864C72.9251 8.86703 73.6598 8.11906 74.568 8.11906C75.1757 8.11906 75.71 8.45966 75.9972 8.96721C75.543 8.96721 75.1757 9.3412 75.1757 9.802C75.1757 10.2561 75.5364 10.6301 75.9905 10.6368L75.9838 10.6301Z" fill="#33D4C0"/>
<path fill-rule="evenodd" clip-rule="evenodd" d="M80.8189 3.66462C80.8189 3.66462 80.8991 3.49766 81.0593 3.22385C81.0994 3.15039 81.1462 3.07693 81.1996 2.99679C81.253 2.91665 81.3265 2.83651 81.3999 2.74969C81.5469 2.56938 81.7205 2.36235 81.9409 2.18203L82.2815 1.89487L82.6822 1.62773C82.9493 1.44074 83.2765 1.30717 83.6038 1.15357C83.9444 1.04672 84.2983 0.906475 84.6723 0.853048C85.0396 0.76623 85.4336 0.752874 85.8143 0.732839C86.2016 0.759552 86.589 0.76623 86.9563 0.853048C87.337 0.906475 87.6842 1.04004 88.0248 1.15357C88.3521 1.30717 88.6726 1.43406 88.9464 1.62773L89.3471 1.88819L89.6877 2.18203C89.9081 2.36235 90.0751 2.5627 90.2153 2.73634C90.2888 2.82315 90.3622 2.90329 90.4223 2.98343L90.5626 3.21717C90.6561 3.3641 90.7362 3.51102 90.8097 3.66462C90.8097 3.66462 90.6294 3.59784 90.3489 3.46427C90.2153 3.39081 90.0417 3.32403 89.848 3.25057C89.6543 3.17043 89.4406 3.08361 89.2002 3.01015C89.08 2.97008 88.9665 2.93001 88.8396 2.88326L88.4522 2.77641C88.1985 2.68291 87.9046 2.6562 87.6241 2.57606C87.3303 2.54266 87.0431 2.47588 86.7359 2.45585C86.4354 2.41578 86.1282 2.42245 85.821 2.40242C85.5138 2.41578 85.2066 2.4091 84.9061 2.45585C84.5988 2.4692 84.3117 2.53599 84.0178 2.57606C83.7373 2.64952 83.4435 2.68291 83.1897 2.77641L82.8024 2.88326L82.4417 3.01015C82.2013 3.08361 81.9943 3.17043 81.8073 3.24389C81.7138 3.28396 81.6203 3.32403 81.5335 3.35742L81.2998 3.47095C81.0126 3.6112 80.839 3.6713 80.839 3.6713L80.8189 3.66462Z" fill="#33D4C0"/>
<path fill-rule="evenodd" clip-rule="evenodd" d="M91.8382 9.78196C91.8382 13.0543 89.2336 15.7056 86.0147 15.7056C82.7957 15.7056 80.1912 13.0543 80.1912 9.78196C80.1912 6.50959 82.8024 3.86497 86.0147 3.86497C89.2269 3.86497 91.8382 6.51626 91.8382 9.78196Z" fill="#030C0D"/>
<path fill-rule="evenodd" clip-rule="evenodd" d="M89.474 9.78196C89.474 11.7254 87.9247 13.2948 86.0213 13.2948C84.118 13.2948 82.562 11.7187 82.562 9.78196C82.562 7.84525 84.1047 6.26917 86.0213 6.26917C87.938 6.26917 89.474 7.84525 89.474 9.78196Z" fill="white"/>
<path fill-rule="evenodd" clip-rule="evenodd" d="M87.4305 10.6301C87.1433 11.1243 86.6157 11.4582 86.0147 11.4582C85.1131 11.4582 84.3718 10.7103 84.3718 9.78864C84.3718 8.86703 85.1131 8.11906 86.0147 8.11906C86.6291 8.11906 87.1633 8.45966 87.4438 8.96721C86.9897 8.96721 86.6224 9.3412 86.6224 9.802C86.6224 10.2561 86.9763 10.6301 87.4305 10.6368V10.6301Z" fill="#33D4C0"/>
<path fill-rule="evenodd" clip-rule="evenodd" d="M117.383 14.2364C117.383 14.8174 117.396 15.2048 117.423 15.3784H114.925V4.72648H117.383V5.51452C117.95 4.85336 118.545 4.52613 119.173 4.52613C119.8 4.52613 120.288 4.60627 120.648 4.75987L120.468 7.50466L120.428 7.53805C120.194 7.11731 119.707 6.90361 118.972 6.90361C118.692 6.90361 118.405 6.9971 118.117 7.19745C117.823 7.39113 117.583 7.6449 117.383 7.96546V14.2431V14.2364Z" fill="#231F20"/>
</svg>
