<svg width="80" height="56" viewBox="0 0 80 56" fill="none" xmlns="http://www.w3.org/2000/svg">
<path fill-rule="evenodd" clip-rule="evenodd" d="M33.6526 6.31254C36.1879 3.67899 39.7166 2.04814 43.6149 2.04814C48.8126 2.04814 53.3173 4.92949 55.7429 9.2227C57.896 8.26228 60.2281 7.76643 62.5866 7.76762C71.9425 7.76762 79.5369 15.4032 79.5369 24.8252C79.5369 34.2472 71.9425 41.8828 62.5866 41.8828C61.4431 41.8828 60.3284 41.7681 59.2369 41.5514C57.1145 45.326 53.0574 47.8904 48.4372 47.8904C46.5562 47.8941 44.6992 47.4683 43.0085 46.6457C40.8572 51.688 35.8472 55.2321 30.0142 55.2321C23.9213 55.2321 18.7524 51.3999 16.76 46.0118C15.8732 46.1985 14.9693 46.2924 14.0629 46.2918C6.815 46.2918 0.953125 40.3562 0.953125 33.0664C0.953125 28.1681 3.59241 23.9037 7.50803 21.5987C6.67733 19.6892 6.24974 17.6295 6.25191 15.5478C6.25191 7.1343 13.0956 0.334319 21.5274 0.334319C26.4653 0.334319 30.8833 2.68262 33.6555 6.32752" fill="#00A1E0"/>
<path fill-rule="evenodd" clip-rule="evenodd" d="M12.3997 28.7871C12.3503 28.9156 12.4173 28.9424 12.4332 28.9651C12.5807 29.0717 12.7306 29.149 12.8807 29.2357C13.6835 29.6592 14.4401 29.7831 15.2313 29.7831C16.8426 29.7831 17.8446 28.9274 17.8446 27.5501V27.523C17.8446 26.2495 16.7126 25.7856 15.6557 25.4542L15.5174 25.4095C14.7176 25.1508 14.0274 24.9255 14.0274 24.4011V24.3743C14.0274 23.9248 14.4317 23.5934 15.0554 23.5934C15.7484 23.5934 16.5743 23.8236 17.1027 24.115C17.1027 24.115 17.2592 24.2158 17.3161 24.0651C17.347 23.9836 17.6164 23.2641 17.6453 23.1834C17.6759 23.099 17.6222 23.0353 17.5671 23.0025C16.9607 22.6336 16.1233 22.383 15.257 22.383L15.0961 22.3835C13.6206 22.3835 12.5897 23.2739 12.5897 24.5474V24.5748C12.5897 25.9175 13.7274 26.3555 14.79 26.658L14.961 26.711C15.7349 26.9485 16.4048 27.1548 16.4048 27.6965V27.7236C16.4048 28.222 15.9688 28.5937 15.27 28.5937C14.9982 28.5937 14.1322 28.5891 13.1938 27.9973C13.0803 27.9313 13.0156 27.8838 12.9281 27.8305C12.8819 27.8025 12.7664 27.7521 12.7161 27.9031L12.3985 28.7848M35.9904 28.7848C35.941 28.9133 36.008 28.9401 36.0245 28.9628C36.1714 29.0694 36.3219 29.1466 36.472 29.2334C37.2748 29.6569 38.0314 29.7808 38.8226 29.7808C40.4339 29.7808 41.4359 28.9251 41.4359 27.5478V27.5207C41.4359 26.2471 40.3068 25.7832 39.2471 25.4519L39.1087 25.4072C38.3089 25.1485 37.6187 24.9232 37.6187 24.3988V24.372C37.6187 23.9225 38.023 23.5911 38.6467 23.5911C39.3397 23.5911 40.1627 23.8213 40.694 24.1126C40.694 24.1126 40.8506 24.2135 40.9077 24.0628C40.9383 23.9813 41.208 23.2618 41.234 23.1811C41.2649 23.0967 41.2109 23.033 41.1561 23.0002C40.5497 22.6313 39.7123 22.3807 38.846 22.3807L38.6848 22.3812C37.2093 22.3812 36.1784 23.2716 36.1784 24.5451V24.5725C36.1784 25.9152 37.3161 26.3532 38.3787 26.6557L38.5494 26.7087C39.3262 26.9462 39.9932 27.1525 39.9932 27.6942V27.7212C39.9932 28.2197 39.5572 28.5914 38.8584 28.5914C38.5861 28.5914 37.7178 28.5868 36.7822 27.995C36.6687 27.929 36.6023 27.8835 36.5162 27.8281C36.4871 27.8097 36.3511 27.7567 36.3046 27.9008L35.9869 28.7824M52.0999 26.0855C52.0999 26.8635 51.9543 27.4772 51.6696 27.9123C51.3855 28.3416 50.9564 28.5519 50.3586 28.5519C49.7609 28.5519 49.3335 28.3433 49.0534 27.9152C48.7713 27.483 48.6289 26.8664 48.6289 26.0884C48.6289 25.3104 48.7722 24.6996 49.0534 24.2703C49.3329 23.8438 49.758 23.6392 50.3586 23.6392C50.9593 23.6392 51.3866 23.8458 51.6696 24.2703C51.9561 24.6996 52.0999 25.3104 52.0999 26.0884M53.4455 24.6448C53.313 24.1982 53.1076 23.8064 52.8333 23.4779C52.5587 23.1494 52.2125 22.8843 51.7996 22.6942C51.3895 22.5025 50.9044 22.406 50.3557 22.406C49.8071 22.406 49.3249 22.5031 48.9119 22.6942C48.5019 22.8855 48.1525 23.1494 47.8782 23.4779C47.6044 23.8064 47.3988 24.1982 47.266 24.6448C47.1346 25.0886 47.0679 25.5726 47.0679 26.0884C47.0679 26.6041 47.1346 27.0882 47.266 27.5319C47.3979 27.9786 47.6038 28.3704 47.8782 28.6989C48.1528 29.0274 48.5019 29.2896 48.9119 29.4769C49.3249 29.6636 49.81 29.7586 50.3557 29.7586C50.9015 29.7586 51.3866 29.6636 51.7967 29.4769C52.2067 29.2901 52.5561 29.0274 52.8304 28.6989C53.1045 28.3704 53.3098 27.9786 53.4426 27.5319C53.5737 27.0882 53.6404 26.6041 53.6404 26.0884C53.6404 25.5755 53.5737 25.0886 53.4426 24.6448M64.5022 28.333C64.458 28.2024 64.3304 28.2517 64.3304 28.2517C64.1349 28.3263 63.9261 28.3955 63.7038 28.4301C63.4797 28.4652 63.2302 28.4828 62.9674 28.4828C62.3177 28.4828 61.798 28.2895 61.4283 27.9065C61.0558 27.5233 60.8479 26.9067 60.8508 26.0711C60.8528 25.3104 61.0371 24.7399 61.3677 24.3019C61.694 23.8697 62.1964 23.645 62.8606 23.645C63.415 23.645 63.8395 23.7093 64.2842 23.8481C64.2842 23.8481 64.3896 23.894 64.4401 23.7554C64.5582 23.4298 64.6454 23.1964 64.7722 22.8391C64.808 22.7368 64.7202 22.6936 64.6882 22.6812C64.5138 22.6132 64.102 22.5017 63.7901 22.4547C63.4985 22.4103 63.1606 22.3873 62.7795 22.3873C62.2135 22.3873 61.711 22.4838 61.2808 22.6751C60.8505 22.8662 60.4867 23.1304 60.1979 23.4589C59.9092 23.7873 59.6897 24.1792 59.5424 24.6258C59.3966 25.0695 59.323 25.5565 59.323 26.0723C59.323 27.1845 59.6233 28.0863 60.2181 28.7461C60.813 29.4088 61.7081 29.7431 62.8747 29.7431C63.5649 29.7431 64.2724 29.6039 64.7806 29.4031C64.7806 29.4031 64.8776 29.3564 64.8354 29.2435L64.5022 28.333ZM66.8568 25.3364C66.9212 24.9042 67.0399 24.544 67.2264 24.2645C67.5056 23.8381 67.931 23.6047 68.5287 23.6047C69.1265 23.6047 69.5221 23.8392 69.805 24.2645C69.9927 24.5454 70.0748 24.9186 70.1054 25.3364L66.8423 25.3358L66.8568 25.3364ZM71.3904 24.3855C71.2757 23.9562 70.9919 23.5211 70.807 23.3223C70.5125 23.0082 70.2266 22.7864 69.9408 22.6653C69.528 22.4902 69.084 22.4003 68.6356 22.4011C68.0667 22.4011 67.5498 22.4971 67.1311 22.6921C66.7124 22.8887 66.3601 23.156 66.0829 23.4903C65.806 23.8245 65.5978 24.2193 65.4649 24.6716C65.3321 25.1182 65.2651 25.6081 65.2651 26.1209C65.2651 26.6453 65.3347 27.1323 65.4716 27.5731C65.6099 28.0169 65.8325 28.4059 66.1329 28.7286C66.4332 29.0542 66.8172 29.3077 67.2792 29.4864C67.7384 29.6636 68.2957 29.7555 68.9338 29.7535C70.2506 29.7491 70.9436 29.4567 71.2266 29.2982C71.2772 29.27 71.3248 29.2213 71.2653 29.081L70.9679 28.2482C70.9223 28.1241 70.7964 28.169 70.7964 28.169C70.4701 28.2906 70.008 28.509 68.9252 28.5061C68.2177 28.505 67.6951 28.2967 67.3659 27.9702C67.0309 27.636 66.8634 27.149 66.8374 26.4575L71.3999 26.4609C71.3999 26.4609 71.52 26.4598 71.5324 26.3428C71.5373 26.2944 71.6886 25.4093 71.3964 24.3864L71.3904 24.3855ZM30.3861 25.3364C30.4505 24.9042 30.5695 24.544 30.7557 24.2645C31.0352 23.8381 31.4603 23.6047 32.058 23.6047C32.6558 23.6047 33.0514 23.8392 33.3344 24.2645C33.5218 24.5454 33.6038 24.9186 33.6347 25.3364L30.3717 25.3358L30.3861 25.3364ZM34.9197 24.3855C34.8053 23.9562 34.5212 23.5211 34.3364 23.3223C34.0418 23.0082 33.7559 22.7864 33.4701 22.6653C33.0574 22.4902 32.6134 22.4003 32.1649 22.4011C31.596 22.4011 31.0791 22.4971 30.6604 22.6921C30.2417 22.8887 29.8894 23.156 29.6122 23.4903C29.3359 23.8245 29.1271 24.2193 28.9943 24.6716C28.8617 25.1182 28.795 25.6081 28.795 26.1209C28.795 26.6453 28.864 27.1323 29.0018 27.5731C29.1398 28.0169 29.3627 28.4059 29.6601 28.7286C29.9605 29.0542 30.3445 29.3077 30.8065 29.4864C31.2657 29.6636 31.8201 29.7555 32.4611 29.7535C33.7779 29.7491 34.4709 29.4567 34.7539 29.2982C34.8042 29.27 34.8521 29.2213 34.7923 29.081L34.4949 28.2482C34.449 28.1241 34.3231 28.169 34.3231 28.169C33.9968 28.2906 33.5348 28.509 32.4519 28.5061C31.7473 28.505 31.2218 28.2967 30.8926 27.9702C30.5576 27.636 30.3901 27.149 30.3641 26.4575L34.9266 26.4609C34.9266 26.4609 35.0467 26.4598 35.0591 26.3428C35.064 26.2944 35.2154 25.4093 34.9228 24.3864L34.9197 24.3855ZM20.5393 28.3041C20.3606 28.1618 20.3357 28.1269 20.2765 28.0345C20.1861 27.8953 20.1399 27.6973 20.1399 27.4438C20.1399 27.0461 20.2728 26.758 20.5471 26.565C20.5442 26.5655 20.9398 26.225 21.8696 26.2365C22.2835 26.2439 22.6964 26.279 23.1055 26.3417V28.4076C23.1055 28.4076 22.5286 28.5318 21.876 28.571C20.9491 28.6266 20.539 28.3047 20.5419 28.3056L20.5393 28.3041ZM22.3527 25.1058C22.1679 25.0923 21.9282 25.0857 21.6424 25.0857C21.2525 25.0857 20.8743 25.1341 20.522 25.2292C20.1668 25.3248 19.8463 25.4729 19.5719 25.67C19.2969 25.8658 19.0706 26.1222 18.9107 26.4192C18.7493 26.7188 18.667 27.0703 18.667 27.468C18.667 27.8714 18.7371 28.22 18.8757 28.5053C19.0116 28.7882 19.216 29.0328 19.4706 29.217C19.7238 29.4008 20.0366 29.5368 20.3975 29.6175C20.7556 29.699 21.1598 29.7402 21.6045 29.7402C22.0723 29.7402 22.5372 29.701 22.9877 29.6252C23.3714 29.5592 23.7536 29.485 24.1341 29.4028C24.286 29.3679 24.4546 29.3221 24.4546 29.3221C24.5672 29.2936 24.5586 29.1734 24.5586 29.1734L24.556 25.0243C24.556 24.1138 24.3123 23.4367 23.8312 23.0189C23.3518 22.6011 22.6502 22.3908 21.7405 22.3908C21.3998 22.3908 20.8483 22.4369 20.5191 22.5028C20.5191 22.5028 19.5257 22.6953 19.1157 23.0157C19.1157 23.0157 19.0256 23.071 19.0747 23.1964L19.3981 24.0608C19.4382 24.1729 19.5477 24.1345 19.5477 24.1345C19.5477 24.1345 19.5821 24.121 19.6225 24.0971C20.4974 23.6217 21.6063 23.6361 21.6063 23.6361C22.0972 23.6361 22.4783 23.7355 22.7324 23.93C22.9811 24.1204 23.1078 24.4083 23.1078 25.0134V25.2055C22.718 25.1491 22.3571 25.1165 22.3571 25.1165L22.3527 25.1058ZM59.0255 22.7633C59.0321 22.7481 59.0355 22.7318 59.0356 22.7152C59.0357 22.6987 59.0325 22.6823 59.0261 22.667C59.0197 22.6517 59.0103 22.6379 58.9985 22.6263C58.9866 22.6148 58.9726 22.6057 58.9571 22.5996C58.8794 22.5703 58.4922 22.4887 58.1948 22.4703C57.623 22.4345 57.3054 22.5308 57.0195 22.6587C56.7371 22.7858 56.4247 22.9901 56.2514 23.2263L56.2508 22.6731C56.2508 22.5971 56.1968 22.5357 56.12 22.5357H54.9534C54.8778 22.5357 54.8229 22.5971 54.8229 22.6731V29.4443C54.823 29.4809 54.8376 29.5159 54.8635 29.5418C54.8894 29.5677 54.9246 29.5822 54.9612 29.5823H56.1567C56.1933 29.5822 56.2284 29.5677 56.2543 29.5418C56.2802 29.5159 56.2947 29.4808 56.2947 29.4443V26.0443C56.2947 25.589 56.345 25.1367 56.4452 24.8514C56.5439 24.5693 56.6782 24.3443 56.8437 24.1829C57.0015 24.0271 57.1946 23.9115 57.4067 23.8458C57.6058 23.7888 57.8118 23.7599 58.0189 23.76C58.2572 23.76 58.5185 23.8211 58.5185 23.8211C58.6063 23.8309 58.6551 23.7773 58.6848 23.6983C58.7631 23.4906 58.9851 22.8685 59.0284 22.7446" fill="#FFFFFE"/>
<path fill-rule="evenodd" clip-rule="evenodd" d="M47.86 19.6382C47.7122 19.5936 47.5619 19.558 47.4098 19.5316C47.2052 19.4975 46.9981 19.4815 46.7907 19.4838C45.9668 19.4838 45.3174 19.716 44.8615 20.1747C44.4087 20.63 44.1006 21.3235 43.9461 22.236L43.8904 22.544H42.8563C42.8563 22.544 42.7301 22.5389 42.7035 22.6763L42.5338 23.6214C42.5219 23.7119 42.5609 23.7683 42.6822 23.7677H43.6888L42.6674 29.4564C42.5875 29.9145 42.4959 30.2914 42.3946 30.577C42.2947 30.8587 42.1971 31.07 42.0769 31.2232C41.9606 31.3716 41.8502 31.4808 41.66 31.5445C41.5029 31.5972 41.3221 31.6214 41.124 31.6214C41.0137 31.6214 40.867 31.603 40.7587 31.5814C40.6504 31.5601 40.5941 31.5359 40.513 31.5019C40.513 31.5019 40.3949 31.4569 40.3484 31.5751C40.3106 31.6716 40.0423 32.4078 40.0105 32.4988C39.9782 32.5887 40.0235 32.6596 40.0807 32.68C40.2147 32.7279 40.3143 32.7584 40.4968 32.8014C40.7504 32.861 40.964 32.8647 41.1642 32.8647C41.5834 32.8647 41.9655 32.806 42.2822 32.6919C42.601 32.5769 42.8785 32.3766 43.124 32.1055C43.3894 31.8131 43.5563 31.5068 43.7159 31.089C43.8739 30.6749 44.0085 30.1609 44.1162 29.5619L45.1424 23.7677H46.6428C46.6428 23.7677 46.7693 23.7724 46.7956 23.6355L46.9654 22.6904C46.9772 22.5999 46.9385 22.5435 46.8167 22.544H45.3604C45.3677 22.5112 45.4338 22 45.601 21.5189C45.6723 21.3134 45.8066 21.1477 45.9204 21.0339C46.0266 20.9255 46.1574 20.8443 46.3018 20.7971C46.4601 20.7483 46.625 20.7245 46.7907 20.7268C46.9278 20.7268 47.0624 20.7432 47.1649 20.7645C47.3061 20.7945 47.361 20.8103 47.398 20.8213C47.5464 20.8665 47.5663 20.8227 47.5955 20.751L47.9437 19.7967C47.9795 19.6941 47.8923 19.6509 47.86 19.6382ZM27.5097 29.4685C27.5097 29.5446 27.4554 29.6065 27.3792 29.6065H26.1713C26.0948 29.6065 26.0405 29.5446 26.0405 29.4685V19.7676C26.0405 19.6918 26.0948 19.6304 26.1713 19.6304H27.3792C27.4554 19.6304 27.5097 19.6918 27.5097 19.7676V29.4685Z" fill="#FFFFFE"/>
</svg>
