<svg width="153" height="22" viewBox="0 0 153 22" fill="none" xmlns="http://www.w3.org/2000/svg">
<path d="M105.388 8.89862C105.388 6.314 103.83 4.45631 100.948 4.45631H91.4427V17.864H94.5591V13.2602H98.2208L101.805 17.864H105.311V17.5409L101.805 13.1794C104.064 12.6948 105.388 10.9986 105.388 8.89862ZM100.558 10.514H94.5591V7.20246H100.558C101.649 7.20246 102.35 7.84862 102.35 8.89862C102.428 9.94862 101.727 10.514 100.558 10.514Z" fill="black"/>
<path d="M152.445 4.37554H149.563V9.464H141.694V4.37554H138.578V17.7832H141.694V12.5332H149.563V17.7832H152.445V4.37554Z" fill="black"/>
<path d="M83.1065 4.37554L79.6785 15.6025H79.5227L76.0168 4.37554H70.4853V17.7832H73.4458V6.79862H73.6016L77.0296 17.7832H81.7821L85.288 6.79862H85.4438V17.7832H88.4822V4.37554H83.1065Z" fill="black"/>
<path d="M49.2162 9.86785C48.1255 9.78708 46.0998 9.54477 44.9312 9.464C43.8405 9.38323 43.2172 8.97939 43.2172 8.25246C43.2172 7.52554 43.9184 6.96016 46.5673 6.96016C48.9046 6.96016 51.086 7.52554 53.0337 8.414V5.42554C51.1639 4.45631 49.0604 4.05246 46.4115 4.05246C42.7498 4.05246 40.1788 5.66785 40.1788 8.33323C40.1788 10.5948 41.659 11.8871 44.6975 12.2102C45.7882 12.3717 47.658 12.5332 48.9046 12.614C50.3069 12.6948 50.6965 13.1794 50.6965 13.8255C50.6965 14.714 49.6836 15.2794 47.2685 15.2794C44.7754 15.2794 42.2044 14.3909 40.3346 13.2602V16.3294C41.8149 17.3794 44.3079 18.1871 47.1906 18.1871C51.1639 18.1871 53.7349 16.5717 53.7349 13.7448C53.7349 11.564 52.4105 10.1909 49.2162 9.86785Z" fill="black"/>
<path d="M55.8384 4.37554V17.7832H67.8364V15.0371H58.799V12.2909H67.6806V9.54477H58.799V7.12169H67.8364V4.37554H55.8384Z" fill="black"/>
<path d="M132.111 9.86785C131.02 9.78708 128.995 9.54477 127.826 9.464C126.735 9.38323 126.112 8.97939 126.112 8.25246C126.112 7.52554 126.813 6.96016 129.462 6.96016C131.799 6.96016 133.981 7.44477 135.929 8.414V5.42554C134.059 4.45631 131.955 4.05246 129.306 4.05246C125.645 4.05246 123.074 5.66785 123.074 8.33323C123.074 10.5948 124.554 11.8871 127.592 12.2102C128.683 12.3717 130.553 12.5332 131.799 12.614C133.202 12.6948 133.591 13.1794 133.591 13.8255C133.591 14.714 132.579 15.2794 130.163 15.2794C127.67 15.2794 125.099 14.3909 123.23 13.2602V16.3294C124.71 17.3794 127.203 18.1871 130.085 18.1871C134.059 18.1871 136.63 16.5717 136.63 13.7448C136.63 11.564 135.227 10.1909 132.111 9.86785Z" fill="black"/>
<path d="M117.854 4.37554V11.2409C117.854 13.8255 116.296 15.2794 114.036 15.2794C111.699 15.2794 110.219 13.9063 110.219 11.2409V4.37554H107.102V10.9178C107.102 15.764 110.063 18.1871 114.036 18.1871C117.932 18.1871 120.892 15.8448 120.892 11.0794V4.37554H117.854Z" fill="black"/>
<path d="M29.5832 10.9986C29.5832 11.6448 29.2716 11.7255 28.4925 11.7255C27.6355 11.7255 27.4797 11.564 27.4017 10.9178C27.2459 9.22169 26.1552 7.76785 24.2854 7.68708C23.74 7.60631 23.5842 7.44477 23.5842 6.63708C23.5842 5.91016 23.6621 5.58708 24.2075 5.58708C27.3238 5.66785 29.5832 8.33323 29.5832 10.9986ZM34.1798 10.9986C34.1798 5.99093 30.9076 0.660156 23.2726 0.660156H8.23619C7.92455 0.660156 7.69083 0.821695 7.69083 1.14477C7.69083 1.30631 7.76874 1.46785 7.92455 1.54862C8.46992 2.03323 9.249 2.51785 10.3397 3.08323C11.3525 3.64862 12.2095 3.97169 12.9886 4.29477C13.3003 4.45631 13.4561 4.61785 13.4561 4.77939C13.4561 5.02169 13.3003 5.264 12.9107 5.264H0.990674C0.60113 5.18323 0.445312 5.42554 0.445312 5.66785C0.445312 5.91016 0.523221 6.07169 0.679039 6.23323C1.61394 7.28323 3.17212 8.57554 5.43147 10.0294C7.37919 11.3217 9.87227 12.6948 11.82 13.664C12.1316 13.8255 12.2874 13.9871 12.2874 14.2294C12.2874 14.4717 12.1316 14.6332 11.7421 14.6332H6.21056C5.89893 14.6332 5.74311 14.7948 5.74311 15.0371C5.74311 15.1986 5.82102 15.3602 5.97683 15.5217C7.22337 16.7332 9.249 17.9448 11.8979 19.1563C15.4817 20.6909 19.0655 21.6602 23.1168 21.6602C30.8297 21.6602 34.1798 15.6832 34.1798 10.9986ZM24.1296 18.1871C20.39 18.1871 17.1957 15.0371 17.1957 10.9986C17.1957 7.12169 20.312 3.97169 24.1296 3.97169C28.025 3.97169 31.0635 7.12169 31.0635 10.9986C31.0635 14.9563 28.025 18.1871 24.1296 18.1871Z" fill="#FF642D"/>
</svg>
