<svg width="106" height="31" viewBox="0 0 106 31" fill="none" xmlns="http://www.w3.org/2000/svg">
<path d="M23.2531 6.25427C23.2326 6.10525 23.1024 6.02258 22.9944 6.01358C22.8872 6.00458 20.7865 5.97266 20.7865 5.97266C20.7865 5.97266 19.0296 4.26657 18.8561 4.09301C18.6826 3.91946 18.3436 3.97185 18.2118 4.01115C18.2102 4.01197 17.8819 4.11348 17.3293 4.28458C17.2368 3.98495 17.1009 3.61655 16.9069 3.24652C16.2814 2.05292 15.3653 1.42173 14.2585 1.4201C14.2569 1.4201 14.256 1.4201 14.2544 1.4201C14.1774 1.4201 14.1013 1.42747 14.0244 1.43401C13.9916 1.39472 13.9589 1.35624 13.9245 1.31858C13.4423 0.80283 12.8242 0.551503 12.0833 0.573606C10.654 0.614539 9.23035 1.64687 8.07603 3.48066C7.26392 4.77086 6.64582 6.39182 6.47064 7.64681C4.82922 8.15518 3.68146 8.51046 3.65608 8.51868C2.8276 8.77899 2.80141 8.80436 2.69335 9.5854C2.61312 10.1756 0.445312 26.9385 0.445312 26.9385L18.6121 30.0805L26.486 28.123C26.486 28.123 23.2735 6.40328 23.2531 6.25427ZM16.4198 4.5662C16.0014 4.69554 15.5258 4.8429 15.01 5.00254C14.9994 4.27885 14.9134 3.2719 14.5761 2.40167C15.6609 2.60715 16.1946 3.83432 16.4198 4.5662ZM14.0596 5.29726C13.1075 5.59195 12.0686 5.91369 11.0265 6.23627C11.3195 5.11388 11.8754 3.99641 12.5582 3.26371C12.812 2.9911 13.1672 2.68738 13.588 2.51382C13.9834 3.33903 14.0694 4.50725 14.0596 5.29726ZM12.112 1.52488C12.4476 1.51752 12.7301 1.5912 12.9716 1.75002C12.5852 1.95059 12.2119 2.23876 11.8615 2.61452C10.9536 3.58872 10.2577 5.10078 9.9802 6.55963C9.11487 6.82732 8.26838 7.09013 7.48902 7.33082C7.98107 5.03447 9.90569 1.58874 12.112 1.52488Z" fill="#95BF47"/>
<path d="M22.9952 6.01441C22.888 6.00541 20.7873 5.9735 20.7873 5.9735C20.7873 5.9735 19.0305 4.2674 18.8569 4.09385C18.7922 4.02917 18.7046 3.9956 18.6129 3.98169L18.6138 30.0797L26.4868 28.1231C26.4868 28.1231 23.2744 6.40412 23.2539 6.2551C23.2334 6.10609 23.1024 6.02341 22.9952 6.01441Z" fill="#5E8E3E"/>
<path d="M14.2487 10.0627L13.3342 13.4838C13.3342 13.4838 12.3142 13.0197 11.1051 13.0958C9.3318 13.208 9.31297 14.3262 9.33102 14.6071C9.42761 16.1371 13.4529 16.4711 13.6789 20.0552C13.8565 22.8747 12.1832 24.8034 9.77226 24.9557C6.8783 25.1382 5.28519 23.4313 5.28519 23.4313L5.89838 20.8231C5.89838 20.8231 7.5021 22.0331 8.78576 21.952C9.62408 21.8988 9.92369 21.2169 9.89339 20.7347C9.76735 18.7388 6.48943 18.8567 6.28233 15.5771C6.10794 12.8175 7.92048 10.0209 11.9196 9.76879C13.4603 9.66974 14.2487 10.0627 14.2487 10.0627Z" fill="white"/>
<path d="M36.8546 17.2265C35.9492 16.7353 35.4839 16.3212 35.4839 15.752C35.4839 15.0277 36.1303 14.5624 37.1396 14.5624C38.3145 14.5624 39.3636 15.0537 39.3636 15.0537L40.191 12.5187C40.191 12.5187 39.4302 11.9235 37.1907 11.9235C34.0743 11.9235 31.9145 13.7082 31.9145 16.2172C31.9145 17.6398 32.923 18.7262 34.2684 19.5017C35.3548 20.122 35.743 20.5622 35.743 21.2085C35.743 21.8808 35.1998 22.424 34.1913 22.424C32.6883 22.424 31.2689 21.6478 31.2689 21.6478L30.3896 24.1828C30.3896 24.1828 31.7009 25.0622 33.9071 25.0622C37.1144 25.0622 39.4164 23.4844 39.4164 20.6393C39.4156 19.1144 38.252 18.0279 36.8546 17.2265Z" fill="black"/>
<path d="M49.632 11.8983C48.0542 11.8983 46.8127 12.6486 45.8562 13.7862L45.8042 13.7602L47.1748 6.59607H43.6054L40.1398 24.8299H43.7093L44.8989 18.5972C45.3641 16.2432 46.5797 14.7955 47.7181 14.7955C48.5195 14.7955 48.8305 15.3387 48.8305 16.1149C48.8305 16.6062 48.7785 17.2014 48.6754 17.6926L47.3307 24.8308H50.9004L52.2966 17.4596C52.452 16.6833 52.5558 15.7528 52.5558 15.1316C52.5543 13.1138 51.494 11.8983 49.632 11.8983Z" fill="black"/>
<path d="M60.6238 11.8983C56.3299 11.8983 53.4858 15.778 53.4858 20.0969C53.4858 22.8641 55.1924 25.0882 58.3999 25.0882C62.6156 25.0882 65.4607 21.3124 65.4607 16.8896C65.4607 14.3294 63.9602 11.8983 60.6238 11.8983ZM58.8652 22.3477C57.6494 22.3477 57.132 21.3132 57.132 20.0197C57.132 17.9768 58.1929 14.6404 60.1325 14.6404C61.3999 14.6404 61.813 15.7268 61.813 16.7873C61.813 18.9853 60.7537 22.3477 58.8652 22.3477Z" fill="black"/>
<path d="M74.5906 11.8983C72.1812 11.8983 70.814 14.0192 70.814 14.0192H70.7629L70.9699 12.1053H67.8145C67.6596 13.3988 67.3743 15.3638 67.0906 16.8384L64.6074 29.8991H68.1769L69.1591 24.6229H69.2373C69.2373 24.6229 69.9696 25.0882 71.3324 25.0882C75.522 25.0882 78.2633 20.7952 78.2633 16.4495C78.2633 14.0452 77.2025 11.8983 74.5906 11.8983ZM71.1765 22.3988C70.2499 22.3988 69.7015 21.8816 69.7015 21.8816L70.2966 18.5452C70.7107 16.3212 71.8743 14.8466 73.1161 14.8466C74.2025 14.8466 74.5384 15.8551 74.5384 16.8124C74.5384 19.1144 73.1678 22.3988 71.1765 22.3988Z" fill="black"/>
<path d="M83.3584 6.77715C82.2209 6.77715 81.3155 7.68251 81.3155 8.84607C81.3155 9.90654 81.9878 10.6308 82.9965 10.6308H83.0481C84.1606 10.6308 85.1171 9.88053 85.1432 8.56191C85.1432 7.5274 84.4448 6.77715 83.3584 6.77715Z" fill="black"/>
<path d="M78.3671 24.8299H81.9356L84.3676 12.1833H80.772L78.3671 24.8299Z" fill="black"/>
<path d="M93.4458 12.1573H90.9627L91.0915 11.5622C91.2986 10.3466 92.023 9.26017 93.2127 9.26017C93.8476 9.26017 94.3502 9.44125 94.3502 9.44125L95.0486 6.64805C95.0486 6.64805 94.4279 6.33787 93.1084 6.33787C91.841 6.33787 90.5747 6.69999 89.6171 7.5274C88.4014 8.56191 87.8324 10.0616 87.5481 11.5622L87.4453 12.1573H85.7894L85.272 14.8474H86.9279L85.0399 24.8308H88.6094L90.4974 14.8474H92.9545L93.4458 12.1573Z" fill="black"/>
<path d="M102.032 12.1833C102.032 12.1833 99.8009 17.8047 98.7991 20.8732H98.747C98.6791 19.885 97.8676 12.1833 97.8676 12.1833H94.1171L96.2648 23.7955C96.317 24.0537 96.2909 24.2096 96.1871 24.3906C95.7725 25.1921 95.0747 25.9683 94.247 26.5376C93.5747 27.0288 92.8247 27.339 92.2301 27.546L93.2127 30.5723C93.9371 30.4172 95.4366 29.822 96.704 28.6324C98.3338 27.1067 99.8333 24.7528 101.385 21.5455L105.756 12.1825H102.032V12.1833Z" fill="black"/>
</svg>
