<svg width="179" height="28" viewBox="0 0 179 28" fill="none" xmlns="http://www.w3.org/2000/svg">
<path d="M18.9372 1.77185C18.7012 1.68788 18.4574 1.6007 18.2035 1.52465C14.1703 0.294656 11.9267 2.30867 11.3304 4.38673C10.5135 7.22588 11.9061 9.17113 15.5148 12.0332C19.9385 15.5398 21.7695 18.7965 20.4867 23.2641C20.1083 24.5862 19.4752 25.7718 18.6077 26.7529C22.1829 25.2539 25.0922 22.1532 26.2729 18.0433C28.1802 11.4141 24.9336 4.47948 18.9372 1.77185Z" fill="#FF9700"/>
<path d="M12.6655 14.6489C8.35238 11.4263 6.1113 7.94348 7.3409 3.66248C7.5253 3.02756 7.76984 2.43762 8.07016 1.89374C4.76265 3.47697 2.10907 6.46093 0.991024 10.3448C-0.175929 14.3996 0.586846 18.5662 2.72408 21.8158C4.19884 23.6726 5.62658 25.0671 8.52471 25.8901C12.4491 27.0057 15.6132 25.4559 16.4938 22.3879C17.3123 19.5479 16.2028 17.4463 12.6655 14.6489Z" fill="#2B3D52"/>
<path d="M38.7221 12.6805C37.5601 11.8813 36.7462 11.1674 36.2804 10.5391C35.8144 9.91101 35.5817 9.17434 35.5817 8.32906C35.5817 7.47243 35.7761 6.79574 36.1655 6.29899C36.5545 5.80223 37.1108 5.55375 37.8342 5.55375C38.4919 5.55375 39.1084 5.67949 39.684 5.93076C40.2595 6.18203 40.8102 6.46779 41.3365 6.78739L42.8163 3.05262C41.1172 1.97921 39.3471 1.44218 37.5056 1.44218C35.5763 1.44218 34.0389 2.07046 32.8936 3.3266C31.7481 4.58316 31.1755 6.28485 31.1755 8.43188C31.1755 9.55135 31.3206 10.5335 31.6113 11.3786C31.9016 12.2238 32.3127 12.9862 32.8445 13.6657C33.376 14.3454 34.1571 15.0564 35.1875 15.7986C36.3713 16.6439 37.2207 17.412 37.736 18.1029C38.2511 18.7941 38.5088 19.5563 38.5088 20.39C38.5088 21.2353 38.2923 21.9034 37.8594 22.3944C37.4263 22.8856 36.7826 23.131 35.9276 23.131C34.4258 23.131 32.7762 22.5201 30.9786 21.298V25.9066C32.4474 26.7632 34.2285 27.1914 36.3222 27.1914C38.4596 27.1914 40.0957 26.5691 41.2302 25.3241C42.3647 24.0793 42.9318 22.2862 42.9318 19.9446C42.9318 18.4829 42.6219 17.1809 42.0028 16.0385C41.3828 14.8966 40.2895 13.7771 38.7221 12.6805ZM45.6605 26.8487H50.0341V7.76376H45.6605V26.8487ZM47.8802 0.328501C47.1239 0.328501 46.5345 0.548496 46.1126 0.988057C45.6905 1.42783 45.4797 2.02462 45.4797 2.77843C45.4797 3.55516 45.6988 4.15752 46.1374 4.58594C46.5757 5.01415 47.1567 5.22836 47.8802 5.22836C48.5707 5.22836 49.1352 5.01415 49.5737 4.58594C50.012 4.15774 50.2314 3.55537 50.2314 2.77843C50.2314 2.02462 50.0176 1.42783 49.5901 0.988057C49.1626 0.548496 48.5926 0.328501 47.8802 0.328501ZM71.4251 7.4041C69.3642 7.4041 67.868 8.50643 66.9365 10.7104H66.772C66.0265 8.50643 64.536 7.4041 62.2999 7.4041C61.4339 7.4041 60.6199 7.62967 59.8584 8.08079C59.0964 8.53214 58.4962 9.2431 58.0579 10.2137H57.7784L57.2522 7.76376H53.783V26.8487H58.1565V17.6832C58.1565 15.3991 58.3703 13.76 58.7978 12.7664C59.2253 11.7727 59.9102 11.276 60.853 11.276C62.2012 11.276 62.8753 12.6752 62.8753 15.4732V26.8487H67.2817V17.5804C67.2817 15.3764 67.4899 13.7745 67.9065 12.775C68.323 11.7757 69.0135 11.276 69.9782 11.276C71.3044 11.276 71.9677 12.6752 71.9677 15.4732V26.8487H76.3741V14.3938C76.3741 12.1097 75.9547 10.3737 75.1162 9.18569C74.2776 7.99789 73.0472 7.4041 71.4251 7.4041ZM79.942 26.8487H84.3155V7.76376H79.942V26.8487ZM82.1616 0.328501C81.4053 0.328501 80.8159 0.548496 80.3942 0.988057C79.9721 1.42783 79.7611 2.02462 79.7611 2.77843C79.7611 3.55516 79.9802 4.15752 80.4188 4.58594C80.8571 5.01415 81.4382 5.22836 82.1616 5.22836C82.8521 5.22836 83.4166 5.01415 83.8551 4.58594C84.2934 4.15774 84.5128 3.55537 84.5128 2.77843C84.5128 2.02462 84.299 1.42783 83.8715 0.988057C83.4441 0.548496 82.874 0.328501 82.1616 0.328501ZM88.0642 26.8487H92.4377V0.191406H88.0642V26.8487ZM102.336 7.36961C100.198 7.36961 98.2196 7.96919 96.4002 9.16856L97.9129 12.3209C99.3377 11.43 100.598 10.9846 101.694 10.9846C103.174 10.9846 103.914 11.8755 103.914 13.6571V15.0277L101.481 15.1305C99.3762 15.2333 97.7949 15.7729 96.7372 16.7495C95.6793 17.7261 95.1504 19.2193 95.1504 21.2295C95.1504 23.1028 95.5369 24.5645 96.3097 25.6152C97.0824 26.6662 98.1428 27.1914 99.4911 27.1914C100.543 27.1914 101.415 26.98 102.105 26.5576C102.796 26.1351 103.464 25.3642 104.111 24.2447H104.21L105.081 26.8487H108.287V14.0341C108.287 11.9098 107.78 10.2681 106.767 9.10879C105.753 7.94948 104.276 7.36961 102.336 7.36961ZM103.914 19.5162C103.914 20.7612 103.676 21.7577 103.199 22.5058C102.722 23.254 102.083 23.628 101.283 23.628C100.209 23.628 99.6721 22.8399 99.6721 21.2638C99.6721 20.2015 99.9048 19.4023 100.371 18.8652C100.837 18.3284 101.568 18.0317 102.566 17.9743L103.914 17.9058V19.5162H103.914ZM117.643 8.17505C117.073 8.68894 116.547 9.54557 116.065 10.7447H115.917L115.423 7.76376H111.823V26.8487H116.196V17.032C116.196 15.3646 116.481 14.0939 117.051 13.2201C117.621 12.3464 118.438 11.9096 119.501 11.9096C119.994 11.9096 120.394 11.9668 120.701 12.081L121.211 7.66094C120.696 7.48957 120.169 7.40389 119.633 7.40389C118.876 7.4041 118.213 7.66094 117.643 8.17505ZM141.171 15.9357C140.996 17.0209 140.717 19.2536 140.333 22.6343C140.136 20.3502 139.867 18.1515 139.527 16.0385L136.962 1.80184H132.326L129.761 16.0385C129.52 17.3521 129.262 19.5394 128.988 22.6C128.637 19.5736 128.358 17.3521 128.15 15.9357L125.996 1.80184H121.606L125.963 26.8487H131.553L133.838 13.7942L134.513 8.63753L134.644 7.36983C134.797 9.81419 135.055 11.9327 135.417 13.7257L137.768 26.8487H143.358L147.682 1.80184H143.26L141.171 15.9357ZM155.476 7.4041C153.338 7.4041 151.672 8.28943 150.478 10.0595C149.283 11.8299 148.685 14.291 148.685 17.4433C148.685 20.55 149.346 22.9511 150.667 24.6472C151.988 26.3433 153.793 27.1914 156.084 27.1914C158.046 27.1914 159.729 26.7518 161.132 25.8723V22.1204C159.641 23.0456 158.183 23.508 156.759 23.508C155.641 23.508 154.763 23.0942 154.128 22.2661C153.492 21.4381 153.158 20.1732 153.125 18.4713H161.921V16.0385C161.921 13.3088 161.346 11.1875 160.195 9.67409C159.044 8.16069 157.471 7.4041 155.476 7.4041ZM153.19 15.1647C153.256 13.7143 153.492 12.6437 153.897 11.9524C154.303 11.2616 154.818 10.9159 155.443 10.9159C156.111 10.9159 156.638 11.2757 157.021 11.9953C157.405 12.7148 157.608 13.7713 157.63 15.1647H153.19ZM177.015 9.99091C176.061 8.26651 174.751 7.4041 173.085 7.4041C172.274 7.4041 171.556 7.61553 170.931 8.03795C170.307 8.46059 169.726 9.19726 169.189 10.248H168.958C169.09 8.53471 169.161 7.53563 169.172 7.24987C169.183 6.96454 169.189 6.69035 169.189 6.42751V0.191406H164.815V26.8487H168.038L168.778 24.6729H169.057C169.616 25.6095 170.21 26.2634 170.841 26.6345C171.471 27.0055 172.198 27.1912 173.02 27.1912C174.718 27.1912 176.048 26.329 177.007 24.6044C177.966 22.88 178.445 20.4356 178.445 17.2719C178.445 14.1427 177.968 11.7155 177.015 9.99091ZM171.605 23.2681C170.75 23.2681 170.134 22.817 169.755 21.9147C169.377 21.0127 169.188 19.4537 169.188 17.2377V16.7752C169.21 14.731 169.405 13.3033 169.772 12.4923C170.139 11.6815 170.739 11.276 171.572 11.276C173.173 11.276 173.973 13.2521 173.973 17.2036C173.973 21.2466 173.184 23.2681 171.605 23.2681Z" fill="#2B3D52"/>
</svg>
