<svg width="80" height="21" viewBox="0 0 80 21" fill="none" xmlns="http://www.w3.org/2000/svg">
<path d="M26.0264 15.8544L27.0054 13.5807C28.0632 14.3702 29.4685 14.7807 30.8579 14.7807C31.8842 14.7807 32.5316 14.386 32.5316 13.786C32.5158 12.1123 26.3896 13.4228 26.3422 9.22293C26.3264 7.09139 28.2211 5.44932 30.9053 5.44932C32.5 5.44932 34.0947 5.84405 35.2315 6.74403L34.3157 9.06503C33.2737 8.40189 31.9789 7.92821 30.7474 7.92821C29.9106 7.92821 29.3579 8.32294 29.3579 8.8282C29.3737 10.4703 35.5473 9.57029 35.6104 13.5807C35.6104 15.7596 33.7631 17.2912 31.1105 17.2912C29.1685 17.2912 27.3843 16.8333 26.0264 15.8544ZM63.5888 12.7597C63.0994 13.6123 62.1836 14.1965 61.1257 14.1965C59.5626 14.1965 58.2995 12.9334 58.2995 11.3702C58.2995 9.80712 59.5626 8.54399 61.1257 8.54399C62.1836 8.54399 63.0994 9.12819 63.5888 9.9808L66.2888 8.48083C65.2783 6.68087 63.3362 5.44932 61.1257 5.44932C57.8574 5.44932 55.2048 8.10189 55.2048 11.3702C55.2048 14.6386 57.8574 17.2912 61.1257 17.2912C63.352 17.2912 65.2783 16.0754 66.2888 14.2597L63.5888 12.7597ZM36.9683 0.538889H40.3472V17.0701H36.9683V0.538889ZM67.6151 0.538889V17.0701H70.9939V12.1123L75.0044 17.0701H79.3306L74.2307 11.1808L78.9517 5.68615H74.8149L70.9939 10.2492V0.538889H67.6151ZM50.3891 12.7913C49.8996 13.5965 48.8891 14.1965 47.7523 14.1965C46.1892 14.1965 44.9261 12.9334 44.9261 11.3702C44.9261 9.80712 46.1892 8.54399 47.7523 8.54399C48.8891 8.54399 49.8996 9.17556 50.3891 9.99659V12.7913ZM50.3891 5.68615V7.02823C49.8365 6.09667 48.4628 5.44932 47.026 5.44932C44.0576 5.44932 41.7208 8.07032 41.7208 11.3545C41.7208 14.6386 44.0576 17.2912 47.026 17.2912C48.4628 17.2912 49.8365 16.6438 50.3891 15.7123V17.0543H53.768V5.68615H50.3891Z" fill="black"/>
<path d="M5.1375 12.7755C5.1375 13.9281 4.20594 14.8596 3.05333 14.8596C1.90072 14.8596 0.969159 13.9281 0.969159 12.7755C0.969159 11.6229 1.90072 10.6913 3.05333 10.6913H5.1375V12.7755ZM6.17958 12.7755C6.17958 11.6229 7.11114 10.6913 8.26375 10.6913C9.41636 10.6913 10.3479 11.6229 10.3479 12.7755V17.9859C10.3479 19.1385 9.41636 20.0701 8.26375 20.0701C7.11114 20.0701 6.17958 19.1385 6.17958 17.9859V12.7755Z" fill="#E01E5A"/>
<path d="M8.2635 4.40723C7.1109 4.40723 6.17934 3.47567 6.17934 2.32306C6.17934 1.17045 7.1109 0.238892 8.2635 0.238892C9.41611 0.238892 10.3477 1.17045 10.3477 2.32306V4.40723H8.2635ZM8.2635 5.4651C9.41611 5.4651 10.3477 6.39666 10.3477 7.54927C10.3477 8.70188 9.41611 9.63344 8.2635 9.63344H3.03729C1.88469 9.63344 0.953125 8.70188 0.953125 7.54927C0.953125 6.39666 1.88469 5.4651 3.03729 5.4651H8.2635Z" fill="#36C5F0"/>
<path d="M16.6158 7.54927C16.6158 6.39666 17.5474 5.4651 18.7 5.4651C19.8526 5.4651 20.7842 6.39666 20.7842 7.54927C20.7842 8.70188 19.8526 9.63344 18.7 9.63344H16.6158V7.54927ZM15.5738 7.54927C15.5738 8.70188 14.6422 9.63344 13.4896 9.63344C12.337 9.63344 11.4054 8.70188 11.4054 7.54927V2.32306C11.4054 1.17045 12.337 0.238892 13.4896 0.238892C14.6422 0.238892 15.5738 1.17045 15.5738 2.32306V7.54927Z" fill="#2EB67D"/>
<path d="M13.4896 15.9017C14.6422 15.9017 15.5738 16.8333 15.5738 17.9859C15.5738 19.1385 14.6422 20.0701 13.4896 20.0701C12.337 20.0701 11.4054 19.1385 11.4054 17.9859V15.9017H13.4896ZM13.4896 14.8596C12.337 14.8596 11.4054 13.9281 11.4054 12.7755C11.4054 11.6229 12.337 10.6913 13.4896 10.6913H18.7158C19.8684 10.6913 20.8 11.6229 20.8 12.7755C20.8 13.9281 19.8684 14.8596 18.7158 14.8596H13.4896Z" fill="#ECB22E"/>
</svg>
