<svg width="80" height="29" viewBox="0 0 80 29" fill="none" xmlns="http://www.w3.org/2000/svg">
<path d="M39.627 10.2523C39.627 9.32352 38.9849 8.88026 37.7434 8.88026C36.4805 8.88026 35.8384 9.32352 35.8384 10.2523V10.5478C35.8384 11.2232 36.3307 11.4554 36.6304 11.5821L40.0123 12.7641C41.3394 13.2285 42.3027 14.0939 42.3027 15.5081V16.9857C42.3027 18.5899 41.1682 20.1096 37.6792 20.1096C34.233 20.1096 33.0557 18.5899 33.0557 16.9857V15.7825C33.0557 15.4448 33.1842 15.2759 33.5266 15.2759H35.1534C35.4959 15.2759 35.6243 15.4237 35.6243 15.7825V16.6479C35.6243 17.5767 36.3521 18.02 37.6792 18.02C38.9849 18.02 39.7341 17.5767 39.7341 16.6479V16.0358C39.7341 15.2548 38.9635 14.9382 38.0859 14.6216L35.0892 13.5029C34.1688 13.1651 33.334 12.1942 33.334 11.0333V9.91454C33.334 8.31035 34.34 6.79058 37.7434 6.79058C41.1254 6.79058 42.217 8.31035 42.217 9.91454V10.6955C42.217 11.0122 42.0886 11.181 41.7247 11.181H40.098C39.7769 11.181 39.6484 11.0333 39.6484 10.6955L39.627 10.2523Z" fill="#333333"/>
<path d="M69.7009 6.93834C70.022 6.93834 70.1932 7.04388 70.1932 7.40271V8.60586C70.1932 8.94358 70.0434 9.09134 69.7009 9.09134H64.7564V12.1942H69.3798C69.7223 12.1942 69.8722 12.2997 69.8722 12.6586V13.8828C69.8722 14.2205 69.7437 14.3683 69.3798 14.3683H64.7564V19.4764C64.7564 19.8141 64.6494 19.983 64.2855 19.983H62.5945C62.252 19.983 62.1236 19.8352 62.1236 19.4764V7.44493C62.1236 7.1072 62.2306 6.93834 62.5945 6.93834H69.7009Z" fill="#333333"/>
<path d="M75.0736 17.8722C75.0521 17.8722 74.7525 17.9144 74.6455 17.9144C73.8321 17.9144 73.5966 17.5978 73.5966 16.9012V10.9066C73.5966 10.5689 73.4468 10.4211 73.1043 10.4211H71.5203C71.1993 10.4211 71.0494 10.5478 71.0494 10.9066V17.5345C71.0494 19.0331 72.0769 20.0885 73.8321 20.0885C74.2602 20.0885 74.6454 20.0463 74.9879 19.9619C75.0093 19.9619 75.0307 19.9408 75.0736 19.9408C75.1164 19.9408 75.202 17.8511 75.0736 17.8722Z" fill="#333333"/>
<path d="M78.8408 10.4211H77.2354C76.893 10.4211 76.7645 10.5478 76.7645 10.9066V17.0912L76.8716 19.4764C76.9144 19.8141 77 19.9619 77.3639 19.9619H78.8622C79.1833 19.9619 79.3331 19.8352 79.3331 19.4764V10.9066C79.3117 10.5478 79.1619 10.4211 78.8408 10.4211Z" fill="#333333"/>
<path d="M60.6895 10.4211H59.2125C58.8914 10.4211 58.7844 10.59 58.6988 10.9066L55.6593 20.1941L54.7175 23.318C54.6105 23.6346 54.8245 23.8035 55.1884 23.8035H56.3443C56.6867 23.8035 56.8152 23.5713 56.8794 23.318L61.1604 10.9066C61.2674 10.59 61.0319 10.4211 60.6895 10.4211Z" fill="#333333"/>
<path d="M47.7181 17.8511C47.397 17.7667 47.2472 17.9566 47.2472 18.2944V19.4131C47.2472 19.7508 47.4612 19.8563 47.7181 19.9197V17.8511Z" fill="#333333"/>
<path d="M75.0307 17.8933C75.3518 17.8089 75.5016 17.9988 75.5016 18.3366V19.4342C75.5016 19.7719 75.2876 19.8774 75.0307 19.9408V17.8933Z" fill="#333333"/>
<path d="M56.0232 14.0728C55.959 13.8828 54.9744 10.8855 54.9744 10.8855C54.8673 10.59 54.7817 10.4 54.4392 10.4H52.8339C52.5128 10.4 52.2773 10.5689 52.3844 10.8855L54.8031 17.7878C54.8031 17.7878 54.9958 18.02 55.06 17.7878C55.3168 16.9223 55.9376 14.9382 56.0232 14.6849C56.1088 14.3472 56.0874 14.2628 56.0232 14.0728Z" fill="#333333"/>
<path d="M49.0666 10.2734C47.4826 10.2734 46.498 10.9488 45.9629 11.371L45.9201 10.9066C45.8987 10.5689 45.8131 10.4211 45.4492 10.4211H43.9508C43.6084 10.4211 43.4585 10.5478 43.4585 10.9066V23.318C43.4585 23.6557 43.5869 23.8035 43.9508 23.8035H45.5562C45.8773 23.8035 46.0057 23.6769 46.0057 23.318V13.334C46.4124 13.0385 47.2686 12.4475 48.2532 12.4475C49.1522 12.4475 49.3021 12.9541 49.3021 13.4396V16.9012C49.3021 17.4078 49.1522 17.9144 48.2532 17.9144C48.0392 17.9144 47.8465 17.8933 47.6539 17.8511C47.5255 17.83 47.5255 19.8774 47.6539 19.8986C48.0606 20.0041 48.5101 20.0885 49.0452 20.0885C50.9716 20.0885 51.8492 18.9909 51.8492 17.3023V13.0596C51.892 11.3499 50.993 10.2734 49.0666 10.2734Z" fill="#333333"/>
<path d="M18.372 1.7247C17.3231 1.4503 16.2957 1.28144 15.2469 1.23922L15.3539 2.44237C16.2529 2.48458 17.1305 2.63234 18.0295 2.86452C24.6222 4.65869 28.5179 11.3499 26.8269 17.8511C26.0777 20.5107 24.4938 22.7481 22.4389 24.3101L20.0844 21.545C20.0416 21.5027 20.0416 21.4394 20.0416 21.3761L20.962 18.4632L15.9104 19.392C15.8676 19.392 15.8034 19.392 15.7606 19.3497C15.7178 19.3075 15.6964 19.2653 15.6964 19.2231L15.7178 18.3999C15.7178 18.3366 15.7392 18.2944 15.782 18.2732L19.9345 15.2548C19.7419 14.5583 18.7145 10.7377 17.5158 9.21798C17.473 9.17577 17.473 9.09134 17.4944 9.04912C17.5158 9.00691 17.58 8.94358 17.6442 8.94358L23.8088 8.64807L15.2897 4.57426C15.2469 4.55315 15.2041 4.48983 15.2041 4.4265L14.8188 0.416016L4.95111 3.16003L5.63607 5.96738C5.65747 6.0307 5.63607 6.09402 5.57185 6.13624L2.36112 8.4581L2.2755 8.88026L6.57788 9.28131C6.6421 9.28131 6.70631 9.34463 6.72771 9.40795L8.99663 18.6321C8.99663 18.6532 8.99663 18.6743 8.99663 18.6954L9.06085 18.9276L8.8682 18.8432C8.8468 18.8432 8.80399 18.8432 8.78259 18.8432L3.51698 16.8801L3.94508 20.764C2.44674 18.2099 1.8474 15.1071 2.51095 12.0253C2.55376 11.8354 2.59657 11.6665 2.63938 11.4765C2.78921 10.9066 3.1531 10.0201 3.47417 9.32352L2.18988 9.19688C1.93302 9.74568 1.71897 10.3367 1.54773 10.9277L1.50492 10.9699C1.4193 11.2443 1.35509 11.5187 1.29087 11.7931C-0.314496 18.8009 3.94508 25.9143 11.0515 27.8562C18.3506 29.8403 25.9493 25.5977 27.9614 18.3999C29.9734 11.2021 25.671 3.70884 18.372 1.7247ZM11.5438 17.7878L19.0569 15.5714L14.8616 18.0622L11.5438 17.7878Z" fill="#333333"/>
<path d="M18.1793 26.4631L15.3111 20.8906L12.0361 20.5529L16.8308 26.7586C17.2803 26.6953 17.7298 26.5897 18.1793 26.4631Z" fill="#EC1C27"/>
</svg>
