<svg width="95" height="20" viewBox="0 0 95 20" fill="none" xmlns="http://www.w3.org/2000/svg">
<path fill-rule="evenodd" clip-rule="evenodd" d="M17.0073 0.659973H2.6793C1.4467 0.659973 0.44701 1.65831 0.445331 2.89092V17.1979C0.442947 17.7919 0.677249 18.3624 1.09646 18.7833C1.51566 19.2042 2.08525 19.4408 2.6793 19.4408H17.0073C17.6008 19.44 18.1697 19.2031 18.5882 18.7823C19.0068 18.3615 19.2407 17.7914 19.2383 17.1979V2.89092C19.2366 1.65949 18.2387 0.661632 17.0073 0.659973ZM8.5502 14.1871C8.54941 14.3857 8.46956 14.5757 8.32832 14.7153C8.18708 14.8548 7.99607 14.9324 7.79752 14.9308H4.66638C4.25685 14.9291 3.92574 14.5967 3.92574 14.1871V4.86896C3.92574 4.45943 4.25685 4.12697 4.66638 4.12531H7.79752C8.20754 4.12696 8.53952 4.45894 8.54117 4.86896L8.5502 14.1871ZM15.7759 9.9089C15.7759 10.1077 15.6964 10.2982 15.5549 10.438C15.4135 10.5777 15.222 10.655 15.0232 10.6526H11.8921C11.4821 10.6509 11.1501 10.3189 11.1485 9.9089V4.86896C11.1501 4.45894 11.4821 4.12696 11.8921 4.12531H15.0232C15.4328 4.12697 15.7639 4.45943 15.7639 4.86896L15.7759 9.9089Z" fill="url(#paint0_linear_157_2144)"/>
<path d="M39.386 2.03587V5.6668H35.0837V19.4408H30.9349V5.6668H26.6326V2.03587H39.386Z" fill="#293856"/>
<path d="M44.6668 19.4408H40.8311V5.8926H44.6668V8.48784C45.3954 6.66033 46.5605 5.57347 48.6349 5.70594V9.71922C45.9253 9.50847 44.6668 10.1708 44.6668 12.3416V19.4408Z" fill="#293856"/>
<path d="M69.5895 19.5462C67.0756 19.5462 65.4949 18.3419 65.4949 15.4938V0.659973H69.3577V14.9639C69.3577 15.7858 69.8996 16.0779 70.562 16.0779C70.753 16.0817 70.9442 16.0727 71.134 16.0508V19.3897C70.6288 19.5127 70.1091 19.5654 69.5895 19.5462Z" fill="#293856"/>
<path d="M77.6462 19.5462C75.1322 19.5462 73.5486 18.3419 73.5486 15.4938V0.659973H77.4114V14.9639C77.4114 15.7858 77.9563 16.0779 78.6307 16.0779C78.8208 16.0818 79.0109 16.0728 79.1997 16.0508V19.3897C78.6917 19.5139 78.1688 19.5666 77.6462 19.5462Z" fill="#293856"/>
<path d="M81.0513 12.6607C81.0513 8.4758 83.4599 5.61261 87.6087 5.61261C91.7574 5.61261 94.1148 8.46677 94.1148 12.6607C94.1148 16.8546 91.7303 19.76 87.6087 19.76C83.487 19.76 81.0513 16.8185 81.0513 12.6607ZM84.8117 12.6607C84.8117 14.699 85.6667 16.3157 87.6087 16.3157C89.5506 16.3157 90.3574 14.699 90.3574 12.6607C90.3574 10.6224 89.5295 9.04784 87.6087 9.04784C85.6878 9.04784 84.8117 10.6194 84.8117 12.6607Z" fill="#293856"/>
<path d="M53.8133 13.8861C54.8873 14.0041 55.9665 14.0674 57.0469 14.0757C59.9853 14.0757 62.4662 13.2869 62.4662 10.4418C62.4662 7.68097 59.9161 5.60658 56.8482 5.60658C52.7174 5.60658 50.071 8.60225 50.071 12.7871C50.071 17.1316 52.3532 19.7118 57.5105 19.7118C59.0405 19.7243 60.5595 19.4527 61.9905 18.9109V15.6654C60.6657 16.0899 59.1754 16.5114 57.646 16.5114C55.5927 16.5114 54.1626 15.837 53.8133 13.8861ZM56.7699 8.56311C57.8567 8.56311 58.7299 9.30074 58.7299 10.3093C58.7299 11.6069 57.36 12.0134 55.7824 12.0134C55.1109 12.0103 54.4407 11.957 53.7772 11.8538C53.8273 11.2212 54.0088 10.6059 54.3101 10.0474C54.8023 9.14602 55.7429 8.58073 56.7699 8.56913V8.56311Z" fill="#293856"/>
<defs>
<linearGradient id="paint0_linear_157_2144" x1="14626.9" y1="1223.06" x2="14626.9" y2="0.659973" gradientUnits="userSpaceOnUse">
<stop stop-color="#0052CC"/>
<stop offset="1" stop-color="#2684FF"/>
</linearGradient>
</defs>
</svg>
