<svg width="95" height="23" viewBox="0 0 95 23" fill="none" xmlns="http://www.w3.org/2000/svg">
<path d="M37.7391 19.6455C38.0638 19.6455 38.3126 19.7364 38.4896 19.917C38.6201 20.0543 38.7 20.2402 38.7 20.4725C38.7 20.8214 38.5058 21.0455 38.169 21.1446V21.157C38.5523 21.2478 38.8274 21.5059 38.8274 21.9271C38.8274 22.1811 38.7384 22.3969 38.5867 22.5518C38.4097 22.7407 38.1396 22.8491 37.8018 22.8491H36.3888V19.6455H37.7391ZM37.6804 21.0104C38.0476 21.0104 38.2671 20.8256 38.2671 20.5024C38.2671 20.201 38.0688 20.0244 37.731 20.0244H36.8197V21.0104H37.6804ZM37.7775 22.4609C37.993 22.4609 38.1487 22.4052 38.2499 22.3019C38.3389 22.2162 38.3894 22.0913 38.3894 21.9406C38.3894 21.5575 38.1234 21.3676 37.7522 21.3676H36.8197V22.4609H37.7775Z" fill="#204486"/>
<path d="M40.0168 21.5049L38.8861 19.6445H39.3665L39.9319 20.6088C40.0624 20.8369 40.2394 21.2076 40.2394 21.2076H40.2475C40.2475 21.2076 40.4285 20.8369 40.56 20.6088L41.1294 19.6445H41.5896L40.4467 21.5255V22.847H40.0168V21.5039V21.5049Z" fill="#204486"/>
<path d="M42.8297 21.2468C42.8297 20.3042 43.3859 19.5763 44.3185 19.5763C44.6856 19.5763 44.981 19.6837 45.1914 19.8603C45.4149 20.0451 45.5494 20.3083 45.5919 20.6139H45.162C45.0902 20.2226 44.7908 19.9594 44.3104 19.9594C43.6439 19.9594 43.2686 20.5107 43.2686 21.2468C43.2686 21.9829 43.6823 22.5301 44.3144 22.5301C44.8839 22.5301 45.158 22.1388 45.1964 21.6814H45.6263C45.6222 22.0005 45.4746 22.3535 45.251 22.5724C45.0316 22.7964 44.7109 22.9121 44.3064 22.9121C43.4122 22.9121 42.8297 22.2142 42.8297 21.2458V21.2468Z" fill="#204486"/>
<path d="M46.0521 19.6455H47.5197C48.081 19.6455 48.4603 19.9986 48.4603 20.5282C48.4603 20.9195 48.3046 21.1952 47.8868 21.3294V21.3418C48.2408 21.4491 48.342 21.6649 48.3723 22.1254C48.4108 22.6292 48.4522 22.7841 48.516 22.8274V22.8491H48.0557C47.9839 22.7892 47.9758 22.6426 47.9415 22.1305C47.9121 21.6783 47.726 21.5152 47.3174 21.5152H46.482V22.8501H46.0521V19.6455ZM46.482 21.1611H47.3801C47.8059 21.1611 48.0173 20.9412 48.0173 20.5933C48.0173 20.2185 47.8444 20.0254 47.4013 20.0254H46.482V21.1621V21.1611Z" fill="#204486"/>
<path d="M50.3032 19.6455L51.4592 22.8491H50.9869L50.6744 21.9148H49.4384L49.1178 22.8491H48.6747L49.8217 19.6455H50.3032ZM49.5567 21.5699H50.5601L50.2607 20.6748C50.1555 20.3651 50.0705 19.9945 50.0705 19.9945H50.0584C50.0584 19.9945 49.9653 20.3775 49.8642 20.6748L49.5567 21.5699Z" fill="#204486"/>
<path d="M51.2994 19.6455H51.7505L52.2016 21.5317C52.2775 21.8456 52.3493 22.3804 52.3493 22.3804H52.3574C52.3574 22.3804 52.4413 21.8425 52.5223 21.5276L53.028 19.6465H53.4831L53.9727 21.5276C54.0526 21.8415 54.1375 22.3804 54.1375 22.3804H54.1456C54.1456 22.3804 54.2255 21.8466 54.3014 21.5317L54.7697 19.6455H55.2127L54.3398 22.8491H53.9221L53.4073 20.7998C53.3354 20.5158 53.2596 19.9986 53.2596 19.9986H53.2515C53.2515 19.9986 53.1716 20.5148 53.0998 20.7946L52.5475 22.8481H52.1177L51.2994 19.6445V19.6455Z" fill="#204486"/>
<path d="M55.5333 19.6455H57.6806V20.0327H55.9642V20.9928H57.3943V21.3676H55.9642V22.8491H55.5343V19.6455H55.5333Z" fill="#204486"/>
<path d="M57.8707 21.2468C57.8707 20.2866 58.4574 19.5763 59.4061 19.5763C60.3548 19.5763 60.9455 20.2866 60.9455 21.2468C60.9455 22.2069 60.3508 22.9172 59.4061 22.9172C58.4614 22.9172 57.8707 22.2028 57.8707 21.2468ZM60.4984 21.2468C60.4984 20.5107 60.1192 19.9552 59.4061 19.9552C58.693 19.9552 58.3097 20.5107 58.3097 21.2468C58.3097 21.9829 58.693 22.5301 59.4061 22.5301C60.1192 22.5301 60.4984 21.9788 60.4984 21.2468Z" fill="#204486"/>
<path d="M61.3875 19.6455H62.8551C63.4164 19.6455 63.7957 19.9986 63.7957 20.5282C63.7957 20.9195 63.64 21.1952 63.2222 21.3294V21.3418C63.5762 21.4491 63.6774 21.6649 63.7077 22.1254C63.7462 22.6292 63.7876 22.7841 63.8514 22.8274V22.8491H63.3912C63.3193 22.7892 63.3113 22.6426 63.2769 22.1305C63.2475 21.6783 63.0614 21.5152 62.6528 21.5152H61.8174V22.8501H61.3875V19.6455ZM61.8174 21.1611H62.7155C63.1413 21.1611 63.3527 20.9412 63.3527 20.5933C63.3527 20.2185 63.1798 20.0254 62.7368 20.0254H61.8174V21.1621V21.1611Z" fill="#204486"/>
<path d="M64.2559 19.6455H65.4161C66.3526 19.6455 66.8169 20.3001 66.8169 21.2602C66.8169 22.2204 66.3274 22.8491 65.3867 22.8491H64.2559V19.6455ZM65.3695 22.465C66.0785 22.465 66.3688 21.9953 66.3688 21.2592C66.3688 20.5231 66.1069 20.0275 65.3948 20.0275H64.6909V22.464H65.3695V22.465Z" fill="#204486"/>
<path d="M68.149 22.018C68.149 21.5317 68.4615 21.2943 68.8661 21.0496L68.8195 20.9846C68.6173 20.7306 68.5282 20.5065 68.5282 20.2608C68.5282 19.8819 68.8408 19.5887 69.2534 19.5887C69.6246 19.5887 69.9746 19.821 69.9746 20.2866C69.9746 20.6872 69.6924 20.902 69.3758 21.0961C69.4851 21.2334 69.8482 21.699 70.0211 21.9137C70.0929 21.7289 70.1354 21.5132 70.1395 21.2767H70.4813C70.4773 21.6164 70.4055 21.9437 70.2619 22.2152L70.7595 22.8481H70.279L70.0424 22.5425C70.0424 22.5425 70.0383 22.5383 70.0343 22.5342C69.8148 22.7706 69.5195 22.9131 69.1523 22.9131C68.6334 22.9131 68.1479 22.5642 68.1479 22.018H68.149ZM69.8148 22.2586L69.0552 21.2901C68.768 21.4842 68.5535 21.6773 68.5535 22.0139C68.5535 22.3504 68.8357 22.5611 69.1735 22.5611C69.4264 22.5611 69.6459 22.4496 69.8148 22.2596V22.2586ZM69.1311 20.7822L69.1897 20.8596C69.4557 20.6831 69.5903 20.5148 69.5903 20.2784C69.5903 20.0585 69.4557 19.917 69.2524 19.917C69.0491 19.917 68.9025 20.0636 68.9025 20.2619C68.9025 20.4601 68.9864 20.6067 69.1301 20.7832L69.1311 20.7822Z" fill="#204486"/>
<path d="M71.9155 21.2468C71.9155 20.3042 72.4718 19.5763 73.4044 19.5763C73.7715 19.5763 74.0669 19.6837 74.2773 19.8603C74.5008 20.0451 74.6353 20.3083 74.6778 20.6139H74.2479C74.1761 20.2226 73.8767 19.9594 73.3963 19.9594C72.7298 19.9594 72.3545 20.5107 72.3545 21.2468C72.3545 21.9829 72.7682 22.5301 73.4003 22.5301C73.9698 22.5301 74.2439 22.1388 74.2823 21.6814H74.7122C74.7081 22.0005 74.5605 22.3535 74.3369 22.5724C74.1174 22.7964 73.7968 22.9121 73.3923 22.9121C72.4981 22.9121 71.9155 22.2142 71.9155 21.2458V21.2468Z" fill="#204486"/>
<path d="M75.0196 21.2468C75.0196 20.2866 75.6063 19.5763 76.555 19.5763C77.5037 19.5763 78.0944 20.2866 78.0944 21.2468C78.0944 22.2069 77.4997 22.9172 76.555 22.9172C75.6103 22.9172 75.0196 22.2028 75.0196 21.2468ZM77.6474 21.2468C77.6474 20.5107 77.2681 19.9552 76.555 19.9552C75.8419 19.9552 75.4586 20.5107 75.4586 21.2468C75.4586 21.9829 75.8419 22.5301 76.555 22.5301C77.2681 22.5301 77.6474 21.9788 77.6474 21.2468Z" fill="#204486"/>
<path d="M79.0937 19.6455L79.7471 21.3851C79.8735 21.7341 80.0637 22.3886 80.0637 22.3886H80.0718C80.0718 22.3886 80.266 21.7382 80.3924 21.3851L81.0337 19.6455H81.6071V22.8491H81.1935V20.9113C81.1935 20.6273 81.2188 20.0895 81.2188 20.0895H81.2107C81.2107 20.0895 81.0842 20.5716 80.9912 20.8214L80.2275 22.8491H79.8897L79.1261 20.8214C79.0371 20.5716 78.9066 20.0895 78.9066 20.0895H78.8985C78.8985 20.0895 78.9238 20.6273 78.9238 20.9113V22.8491H78.5354V19.6455H79.0937Z" fill="#204486"/>
<path d="M82.1685 19.6455H83.4884C83.8212 19.6455 84.0791 19.757 84.2389 19.9552C84.3785 20.1235 84.4624 20.33 84.4624 20.584C84.4624 21.1735 84.1246 21.5307 83.4459 21.5307H82.6024V22.8481H82.1675V19.6445L82.1685 19.6455ZM83.4045 21.1735C83.8303 21.1735 84.0326 20.9536 84.0326 20.5964C84.0326 20.2392 83.809 20.0285 83.4206 20.0285H82.6024V21.1735H83.4045Z" fill="#204486"/>
<path d="M85.9644 19.6455L87.1205 22.8491H86.6481L86.3356 21.9148H85.0996L84.779 22.8491H84.336L85.483 19.6455H85.9644ZM85.218 21.5699H86.2213L85.9219 20.6748C85.8167 20.3651 85.7318 19.9945 85.7318 19.9945H85.7196C85.7196 19.9945 85.6266 20.3775 85.5254 20.6748L85.218 21.5699Z" fill="#204486"/>
<path d="M87.4401 19.6455H87.8912L89.1777 21.6515C89.3295 21.8879 89.5277 22.2885 89.5277 22.2885H89.5409C89.5409 22.2885 89.5115 21.8714 89.5115 21.604V19.6455H89.9161V22.8491H89.469L88.1865 20.8431C88.0348 20.6015 87.8285 20.2102 87.8285 20.2102H87.8204C87.8204 20.2102 87.8457 20.6273 87.8457 20.8865V22.8501H87.4411V19.6465L87.4401 19.6455Z" fill="#204486"/>
<path d="M91.3635 21.5049L90.2327 19.6445H90.7131L91.2785 20.6088C91.409 20.8369 91.586 21.2076 91.586 21.2076H91.5941C91.5941 21.2076 91.7751 20.8369 91.9066 20.6088L92.476 19.6445H92.9362L91.7933 21.5255V22.847H91.3635V21.5039V21.5049Z" fill="#204486"/>
<path d="M16.683 5.35172H18.803L20.9078 13.6028H20.9381L23.3352 5.35172H25.3328L27.6834 13.6028H27.7137L29.8651 5.35172H31.9233L28.7434 16.603H26.8692L24.3183 8.10208H24.288L21.7371 16.603H19.863L16.683 5.35172Z" fill="#204486"/>
<path d="M38.9629 12.8553V13.1062C38.9629 13.1898 38.9093 13.3519 38.8992 13.3519H33.2918C33.312 13.6018 33.3818 13.8743 33.4991 14.0994C33.6165 14.3244 33.7732 14.5185 33.9674 14.6806C34.1616 14.8427 34.3821 14.9718 34.6279 15.0657C34.8737 15.1597 35.1296 15.2072 35.3966 15.2072C35.8578 15.2072 36.2462 15.1215 36.5648 14.9491C36.8824 14.7766 37.1434 14.5392 37.3487 14.2357L38.5776 15.2392C37.8503 16.2427 36.7954 16.7444 35.4128 16.7444C34.8393 16.7444 34.3113 16.6525 33.8309 16.4698C33.3495 16.2871 32.9317 16.0279 32.5787 15.6934C32.2257 15.3589 31.9486 14.948 31.7494 14.4618C31.5491 13.9755 31.45 13.4242 31.45 12.8068C31.45 12.1894 31.5501 11.6484 31.7494 11.1518C31.9486 10.6552 32.2227 10.2319 32.5717 9.88196C32.9196 9.53197 33.3323 9.26045 33.8086 9.06635C34.285 8.87329 34.7999 8.77624 35.3531 8.77624C35.8649 8.77624 36.3383 8.86297 36.7742 9.03538C37.2091 9.20779 37.5854 9.46383 37.9029 9.80453C38.2205 10.1442 38.4926 10.5675 38.6726 11.0744C38.8517 11.5813 38.966 12.175 38.966 12.8543L38.9629 12.8553ZM37.0705 12.1017C37.0705 11.8518 37.0372 11.5844 36.9704 11.3645C36.9036 11.1446 36.7985 10.9288 36.6558 10.7616C36.5122 10.5943 36.3302 10.4488 36.1107 10.3496C35.8902 10.2505 35.6323 10.1948 35.3349 10.1948C34.7816 10.1948 34.3134 10.4085 33.929 10.7482C33.5447 11.0878 33.3323 11.3511 33.2918 12.1017H37.0715H37.0705Z" fill="#204486"/>
<path d="M49.9856 15.9453C49.496 16.2179 48.7981 16.4295 48.1377 16.5803C47.4772 16.732 46.7024 16.8074 45.8417 16.8074C44.981 16.8074 44.1506 16.6639 43.4224 16.3759C42.6951 16.0888 42.067 15.6852 41.5441 15.1679C41.0222 14.6507 40.6126 14.0333 40.3213 13.3168C40.029 12.6003 39.8823 11.8084 39.8823 10.9412C39.8823 10.074 40.033 9.25012 40.3354 8.53363C40.6379 7.81816 41.0526 7.20801 41.5795 6.70728C42.1065 6.20553 42.7295 5.81837 43.4456 5.54685C44.1627 5.27532 44.9405 5.13904 45.781 5.13904C46.6215 5.13904 47.4489 5.26706 48.17 5.5231C48.8922 5.77914 49.4728 6.11674 49.9138 6.53384L48.5776 8.00813C48.3015 7.69427 47.9141 7.42791 47.4175 7.208C46.9209 6.98913 46.3808 6.87866 45.7972 6.87866C45.2136 6.87866 44.7038 6.98294 44.2376 7.19252C43.7713 7.4021 43.3748 7.68911 43.0471 8.05458C42.7194 8.42109 42.4655 8.84954 42.2865 9.34097C42.1075 9.8324 42.0175 10.3662 42.0175 10.9402C42.0175 11.5142 42.1075 12.082 42.2865 12.5786C42.4655 13.0752 42.7214 13.5068 43.0552 13.8722C43.388 14.2377 43.7925 14.5227 44.2689 14.7271C44.7453 14.9315 45.2703 15.0327 45.8741 15.0327C46.7035 15.0327 47.5359 14.9026 48.0254 14.6404V11.8487H45.8205V10.0988H49.9846V15.9422L49.9856 15.9453Z" fill="#204486"/>
<path d="M51.3743 12.7304C51.3743 12.1347 51.4795 11.5937 51.6898 11.1074C51.8992 10.6212 52.1834 10.2061 52.5425 9.86028C52.9005 9.51545 53.3263 9.24909 53.8179 9.06016C54.3095 8.87226 54.8324 8.77831 55.3846 8.77831C55.9369 8.77831 56.4598 8.87226 56.9513 9.06016C57.4429 9.24806 57.8677 9.51442 58.2268 9.86028C58.5848 10.2051 58.869 10.6212 59.0794 11.1074C59.2888 11.5937 59.394 12.1347 59.394 12.7304C59.394 13.3261 59.2888 13.8702 59.0794 14.3616C58.869 14.853 58.5848 15.2743 58.2268 15.6243C57.8677 15.9742 57.4429 16.2489 56.9513 16.4471C56.4598 16.6453 55.9369 16.7455 55.3846 16.7455C54.8324 16.7455 54.3095 16.6463 53.8179 16.4471C53.3263 16.2489 52.9015 15.9742 52.5425 15.6243C52.1834 15.2743 51.8992 14.853 51.6898 14.3616C51.4795 13.8702 51.3743 13.3261 51.3743 12.7304ZM53.2485 12.7304C53.2485 13.0236 53.292 13.3158 53.3789 13.609C53.4659 13.9022 53.5964 14.1634 53.7704 14.3936C53.9443 14.6238 54.1648 14.8117 54.4308 14.9583C54.6968 15.1049 55.0144 15.1783 55.3836 15.1783C55.7528 15.1783 56.0694 15.1049 56.3364 14.9583C56.6024 14.8117 56.8229 14.6238 56.9969 14.3936C57.1708 14.1644 57.3013 13.9022 57.3883 13.609C57.4753 13.3168 57.5188 13.0236 57.5188 12.7304C57.5188 12.4372 57.4753 12.1481 57.3883 11.8601C57.3013 11.5731 57.1708 11.3139 56.9969 11.0837C56.8229 10.8535 56.6024 10.6676 56.3364 10.5272C56.0704 10.3858 55.7528 10.3156 55.3836 10.3156C55.0144 10.3156 54.6968 10.3858 54.4308 10.5272C54.1648 10.6687 53.9443 10.8545 53.7704 11.0837C53.5964 11.3139 53.4659 11.572 53.3789 11.8601C53.292 12.1481 53.2485 12.4382 53.2485 12.7304Z" fill="#204486"/>
<path d="M62.7226 5.35172V14.853H67.3762V16.603H60.7624V5.35172H62.7226Z" fill="#204486"/>
<path d="M67.5522 12.7304C67.5522 12.1347 67.6574 11.5937 67.8678 11.1074C68.0771 10.6212 68.3614 10.2061 68.7204 9.86028C69.0785 9.51545 69.5043 9.24909 69.9958 9.06016C70.4874 8.87226 71.0103 8.77831 71.5626 8.77831C72.1148 8.77831 72.6377 8.87226 73.1293 9.06016C73.6208 9.24806 74.0456 9.51442 74.4047 9.86028C74.7627 10.2051 75.047 10.6212 75.2573 11.1074C75.4667 11.5937 75.5719 12.1347 75.5719 12.7304C75.5719 13.3261 75.4667 13.8702 75.2573 14.3616C75.047 14.853 74.7627 15.2743 74.4047 15.6243C74.0456 15.9742 73.6208 16.2489 73.1293 16.4471C72.6377 16.6453 72.1148 16.7455 71.5626 16.7455C71.0103 16.7455 70.4874 16.6463 69.9958 16.4471C69.5043 16.2489 69.0795 15.9742 68.7204 15.6243C68.3614 15.2743 68.0771 14.853 67.8678 14.3616C67.6574 13.8702 67.5522 13.3261 67.5522 12.7304ZM69.4264 12.7304C69.4264 13.0236 69.4699 13.3158 69.5569 13.609C69.6439 13.9022 69.7743 14.1634 69.9483 14.3936C70.1223 14.6238 70.3428 14.8117 70.6088 14.9583C70.8748 15.1049 71.1924 15.1783 71.5615 15.1783C71.9307 15.1783 72.2473 15.1049 72.5143 14.9583C72.7803 14.8117 73.0008 14.6238 73.1748 14.3936C73.3488 14.1644 73.4792 13.9022 73.5662 13.609C73.6532 13.3168 73.6967 13.0236 73.6967 12.7304C73.6967 12.4372 73.6532 12.1481 73.5662 11.8601C73.4792 11.5731 73.3488 11.3139 73.1748 11.0837C73.0008 10.8535 72.7803 10.6676 72.5143 10.5272C72.2483 10.3858 71.9307 10.3156 71.5615 10.3156C71.1924 10.3156 70.8748 10.3858 70.6088 10.5272C70.3428 10.6687 70.1223 10.8545 69.9483 11.0837C69.7743 11.3139 69.6439 11.572 69.5569 11.8601C69.4699 12.1481 69.4264 12.4382 69.4264 12.7304Z" fill="#204486"/>
<path d="M76.5398 12.7304C76.5398 12.1347 76.645 11.5937 76.8554 11.1074C77.0648 10.6212 77.349 10.2061 77.7081 9.86028C78.0661 9.51545 78.4919 9.24909 78.9835 9.06016C79.475 8.87226 79.9979 8.77831 80.5502 8.77831C81.1024 8.77831 81.6253 8.87226 82.1169 9.06016C82.6085 9.24806 83.0333 9.51442 83.3923 9.86028C83.7504 10.2051 84.0346 10.6212 84.245 11.1074C84.4543 11.5937 84.5595 12.1347 84.5595 12.7304C84.5595 13.3261 84.4543 13.8702 84.245 14.3616C84.0346 14.853 83.7504 15.2743 83.3923 15.6243C83.0333 15.9742 82.6085 16.2489 82.1169 16.4471C81.6253 16.6453 81.1024 16.7455 80.5502 16.7455C79.9979 16.7455 79.475 16.6463 78.9835 16.4471C78.4919 16.2489 78.0671 15.9742 77.7081 15.6243C77.349 15.2743 77.0648 14.853 76.8554 14.3616C76.645 13.8702 76.5398 13.3261 76.5398 12.7304ZM78.414 12.7304C78.414 13.0236 78.4575 13.3158 78.5445 13.609C78.6315 13.9022 78.762 14.1634 78.9359 14.3936C79.1099 14.6238 79.3304 14.8117 79.5964 14.9583C79.8624 15.1049 80.18 15.1783 80.5492 15.1783C80.9184 15.1783 81.2349 15.1049 81.502 14.9583C81.768 14.8117 81.9885 14.6238 82.1624 14.3936C82.3364 14.1644 82.4669 13.9022 82.5538 13.609C82.6408 13.3168 82.6843 13.0236 82.6843 12.7304C82.6843 12.4372 82.6408 12.1481 82.5538 11.8601C82.4669 11.5731 82.3364 11.3139 82.1624 11.0837C81.9885 10.8535 81.768 10.6676 81.502 10.5272C81.236 10.3858 80.9184 10.3156 80.5492 10.3156C80.18 10.3156 79.8624 10.3858 79.5964 10.5272C79.3304 10.6687 79.1099 10.8545 78.9359 11.0837C78.762 11.3139 78.6315 11.572 78.5445 11.8601C78.4575 12.1481 78.414 12.4382 78.414 12.7304Z" fill="#204486"/>
<path d="M87.4624 4.851V12.1017H87.5706L90.3662 9.10145H92.7319L89.5358 12.4909L92.9312 16.602H90.4886L87.5696 12.6013H87.4613V16.602H85.747V4.851H87.4624Z" fill="#204486"/>
<path fill-rule="evenodd" clip-rule="evenodd" d="M10.8197 2.87805C11.5115 2.81508 12.1002 2.68809 12.4339 2.50329C10.491 2.93277 11.0392 1.9974 9.39761 1.2902C8.09589 0.729598 5.81005 0.744052 5.92029 1.72691C5.0282 2.01805 4.45978 2.61169 4.79456 3.51093C5.17992 4.54644 6.76788 3.52125 8.38112 3.49337C10.6902 3.45208 11.0513 5.37547 13.321 3.12274C11.8382 3.82581 11.4498 3.45414 10.8197 2.87805Z" fill="#204486"/>
<path d="M15.7373 13.2972C15.6463 13.0917 14.1311 10.3786 14.1311 10.3786C14.1311 10.3786 13.8884 10.6676 13.4717 10.8948C13.2057 11.0403 12.8142 11.1869 12.8142 11.1869L13.3928 12.8801L10.2462 11.1673H9.32985L8.2203 11.7351L7.19673 11.1683H6.28036L3.13378 12.8801L3.71232 11.1869C3.71232 11.1869 3.32191 11.0372 3.05489 10.8948C2.78787 10.7523 2.39543 10.3786 2.39543 10.3786C2.39543 10.3786 0.880301 13.0917 0.789271 13.2972C0.698242 13.5026 0.174318 14.469 0.627441 14.9067C0.936941 15.2061 1.41737 15.0595 1.96658 14.8974C2.51579 14.7364 6.22473 12.7159 6.22473 12.7159L6.49276 16.5906H10.0318L10.2816 12.6943C10.2816 12.6943 14.0088 14.7353 14.558 14.8964C15.1072 15.0575 15.5866 15.2051 15.8971 14.9057C16.3502 14.4679 15.8263 13.5016 15.7353 13.2962L15.7373 13.2972ZM8.23547 15.5922L7.57804 14.9656L8.08578 12.3918L7.81573 12.1512L8.22232 11.7362L8.62892 12.1512L8.36797 12.3918L8.84436 14.9542L8.23547 15.5912V15.5922Z" fill="#204486"/>
<path d="M12.7566 4.86545C10.9441 4.26459 9.27017 5.47355 8.8838 7.09031H7.64277C7.25741 5.47768 5.59158 4.27078 3.78414 4.86029C2.73224 5.20409 1.92512 6.14152 1.75115 7.2555C1.44873 9.18198 2.89508 10.8184 4.72073 10.8184C6.14888 10.8184 7.34237 9.74878 7.65086 8.42006H8.87773C9.18521 9.74878 10.3787 10.8111 11.8079 10.8111C13.6295 10.8111 15.0728 9.18405 14.7795 7.26272C14.6095 6.15081 13.8065 5.21338 12.7586 4.86545H12.7566ZM4.73893 9.43286C3.82864 9.43286 3.09029 8.6792 3.09029 7.75002C3.09029 6.82085 3.82864 6.06719 4.73893 6.06719C5.64923 6.06719 6.38758 6.82085 6.38758 7.75002C6.38758 8.6792 5.64923 9.43286 4.73893 9.43286ZM11.8069 9.43286C10.8966 9.43286 10.1582 8.6792 10.1582 7.75002C10.1582 6.82085 10.8966 6.06719 11.8069 6.06719C12.7171 6.06719 13.4555 6.82085 13.4555 7.75002C13.4555 8.6792 12.7171 9.43286 11.8069 9.43286Z" fill="#204486"/>
<path d="M94.2309 8.76076C94.3705 8.9053 94.4453 9.09629 94.4453 9.30278C94.4453 9.50926 94.3664 9.70645 94.2228 9.84892C94.0751 9.99553 93.883 10.074 93.6877 10.074C93.4925 10.074 93.2963 9.9914 93.1507 9.83963C93.0091 9.69303 92.9342 9.501 92.9342 9.30174C92.9342 9.1634 92.9696 9.02919 93.0445 8.90013C93.18 8.66577 93.4157 8.52743 93.6888 8.52743C93.8971 8.52743 94.0863 8.60796 94.2329 8.75972L94.2309 8.76076ZM93.2498 8.83922C93.1264 8.96518 93.0576 9.13036 93.0576 9.30071C93.0576 9.47106 93.1203 9.63005 93.2387 9.75188C93.359 9.87783 93.5198 9.947 93.6867 9.947C93.8536 9.947 94.0094 9.87886 94.1348 9.75807C94.2531 9.64141 94.3199 9.47932 94.3199 9.3131C94.3199 9.1283 94.2592 8.9724 94.1409 8.84955C94.0175 8.72153 93.8637 8.65648 93.6888 8.65648C93.5138 8.65648 93.3681 8.71843 93.2488 8.83922H93.2498ZM93.7039 8.85884C93.9436 8.85884 94.062 8.94143 94.062 9.10558C94.062 9.21812 93.9932 9.30381 93.8789 9.33272L94.066 9.71574H93.8384L93.6776 9.36472H93.5775V9.71574H93.3732V8.85884H93.7039ZM93.5785 9.2398H93.6786C93.795 9.2398 93.8516 9.20366 93.8516 9.11901C93.8516 9.02919 93.7909 8.99099 93.6685 8.99099H93.5785V9.2398Z" fill="#204486"/>
</svg>
