<svg width="133" height="31" viewBox="0 0 133 31" fill="none" xmlns="http://www.w3.org/2000/svg">
<path d="M77.1305 12.0126H71.9257V12.5647C73.5537 12.5647 73.8155 12.9136 73.8155 14.9782V18.7002C73.8155 20.7646 73.554 21.1426 71.9257 21.1426C70.6757 20.9683 69.8322 20.2993 68.6692 19.02L67.3318 17.5663C69.1344 17.246 70.0937 16.1124 70.0937 14.8328C70.0937 13.2339 68.7274 12.0126 66.1685 12.0126H61.0511V12.5647C62.6791 12.5647 62.9408 12.9136 62.9408 14.9782V18.7002C62.9408 20.7646 62.6791 21.1426 61.0511 21.1426V21.695H66.8372V21.1426C65.2092 21.1426 64.9474 20.7646 64.9474 18.7002V17.6537H65.4415L68.6692 21.695H77.1305C81.2883 21.695 83.0912 19.4855 83.0912 16.8391C83.0912 14.1932 81.2886 12.0126 77.1305 12.0126ZM64.9476 16.7517V12.885H66.1396C67.4478 12.885 68.0296 13.7863 68.0296 14.833C68.0296 15.8509 67.4478 16.7519 66.1396 16.7519L64.9476 16.7517ZM77.2179 20.7937H77.0142C75.9677 20.7937 75.8223 20.5322 75.8223 19.1946V12.885C75.8223 12.885 77.1016 12.885 77.2179 12.885C80.2418 12.885 80.794 15.0945 80.794 16.8102C80.794 18.5837 80.2416 20.7937 77.2179 20.7937Z" fill="#00749A"/>
<path d="M44.8561 17.8281L46.8624 11.896C47.4442 10.1806 47.1824 9.68648 45.3215 9.68648V9.10472H50.7879V9.68648C48.9561 9.68648 48.52 10.1226 47.7931 12.2452L44.478 22.1894H44.1002L41.1341 13.0882L38.1104 22.1894H37.7324L34.505 12.2452C33.8071 10.1226 33.3419 9.68648 31.6554 9.68648V9.10472H38.1104V9.68648C36.3947 9.68648 35.9293 10.0934 36.5402 11.896L38.4882 17.8281L41.425 9.10472H41.9776L44.8561 17.8281Z" fill="#00749A"/>
<path d="M54.7417 22.0728C51.5435 22.0728 48.9265 19.7178 48.9265 16.8389C48.9265 13.9895 51.5437 11.634 54.7417 11.634C57.9402 11.634 60.557 13.9895 60.557 16.8389C60.557 19.7178 57.9402 22.0728 54.7417 22.0728ZM54.7417 12.5361C52.067 12.5361 51.1363 14.9491 51.1363 16.8391C51.1363 18.7585 52.067 21.1426 54.7417 21.1426C57.4461 21.1426 58.3766 18.7585 58.3766 16.8391C58.3766 14.9491 57.4461 12.5361 54.7417 12.5361Z" fill="#00749A"/>
<path d="M90.2727 21.1135V21.695H83.6142V21.1135C85.5625 21.1135 85.9114 20.6194 85.9114 17.7113V13.0593C85.9114 10.1512 85.5625 9.68624 83.6142 9.68624V9.10447H89.6329C92.6277 9.10447 94.2856 10.6456 94.2856 12.7104C94.2856 14.7167 92.6277 16.2867 89.6329 16.2867H87.9755V17.711C87.9755 20.6194 88.3244 21.1135 90.2727 21.1135ZM89.6329 10.1512H87.9755V15.2108H89.6329C91.2614 15.2108 92.0173 14.0769 92.0173 12.7104C92.0173 11.3147 91.2614 10.1512 89.6329 10.1512Z" fill="#464342"/>
<path d="M114.261 18.962L114.115 19.4852C113.854 20.4448 113.533 20.7937 111.469 20.7937H111.062C109.55 20.7937 109.288 20.4448 109.288 18.3804V17.0431C111.556 17.0431 111.731 17.2463 111.731 18.7585H112.283V14.4258H111.731C111.731 15.9378 111.556 16.1413 109.288 16.1413V12.885H110.887C112.952 12.885 113.272 13.2339 113.533 14.1935L113.679 14.7456H114.144L113.941 12.0126H105.392V12.5647C107.02 12.5647 107.282 12.9136 107.282 14.9782V18.7002C107.282 20.5888 107.06 21.0645 105.776 21.1323C104.556 20.946 103.718 20.2805 102.572 19.02L101.234 17.5663C103.037 17.246 103.997 16.1124 103.997 14.8328C103.997 13.2339 102.63 12.0126 100.072 12.0126H94.9543V12.5647C96.5823 12.5647 96.844 12.9136 96.844 14.9782V18.7002C96.844 20.7646 96.5825 21.1426 94.9543 21.1426V21.695H100.741V21.1426C99.1126 21.1426 98.8506 20.7646 98.8506 18.7002V17.6537H99.3449L102.572 21.695H114.523L114.697 18.9622L114.261 18.962ZM98.8503 16.7517V12.885H100.042C101.351 12.885 101.933 13.7863 101.933 14.833C101.933 15.8509 101.351 16.7519 100.042 16.7519L98.8503 16.7517Z" fill="#464342"/>
<path d="M120.163 22.0728C119 22.0728 117.982 21.4624 117.546 21.0841C117.401 21.2298 117.139 21.6659 117.081 22.0728H116.528V18.0607H117.11C117.343 19.9796 118.68 21.1135 120.396 21.1135C121.326 21.1135 122.082 20.5902 122.082 19.7181C122.082 18.9622 121.413 18.3804 120.221 17.8281L118.564 17.0431C117.401 16.4902 116.528 15.5306 116.528 14.2515C116.528 12.8558 117.837 11.6639 119.64 11.6639C120.599 11.6639 121.413 12.0128 121.908 12.4198C122.053 12.3035 122.198 11.9834 122.286 11.6343H122.838V15.0656H122.228C122.024 13.6989 121.268 12.565 119.727 12.565C118.913 12.565 118.157 13.0302 118.157 13.7574C118.157 14.5133 118.767 14.9202 120.163 15.56L121.762 16.345C123.158 17.0137 123.71 18.09 123.71 18.9622C123.71 20.7937 122.111 22.0728 120.163 22.0728Z" fill="#464342"/>
<path d="M129.118 22.0728C127.955 22.0728 126.937 21.4624 126.501 21.0841C126.356 21.2298 126.095 21.6659 126.037 22.0728H125.484V18.0607H126.065C126.298 19.9796 127.635 21.1135 129.351 21.1135C130.282 21.1135 131.038 20.5902 131.038 19.7181C131.038 18.9622 130.369 18.3804 129.176 17.8281L127.519 17.0431C126.356 16.4902 125.484 15.5306 125.484 14.2515C125.484 12.8558 126.792 11.6639 128.595 11.6639C129.555 11.6639 130.368 12.0128 130.863 12.4198C131.008 12.3035 131.154 11.9834 131.241 11.6343H131.793V15.0656H131.183C130.979 13.6989 130.223 12.565 128.682 12.565C127.868 12.565 127.112 13.0302 127.112 13.7574C127.112 14.5133 127.723 14.9202 129.118 15.56L130.717 16.345C132.113 17.0137 132.665 18.09 132.665 18.9622C132.665 20.7937 131.066 22.0728 129.118 22.0728Z" fill="#464342"/>
<path d="M2.57748 15.2037C2.57748 20.2971 5.5375 24.6988 9.82975 26.7847L3.69156 9.96684C2.97757 11.5672 2.57748 13.3382 2.57748 15.2037Z" fill="#464342"/>
<path d="M24.1323 14.5544C24.1323 12.9641 23.5611 11.8627 23.0711 11.0055C22.4188 9.94554 21.8074 9.04791 21.8074 7.98795C21.8074 6.80507 22.7046 5.70397 23.9682 5.70397C24.0253 5.70397 24.0794 5.71107 24.135 5.71425C21.8456 3.61685 18.7955 2.33627 15.4454 2.33627C10.95 2.33627 6.99486 4.64278 4.69398 8.13633C4.99589 8.14539 5.2804 8.15175 5.52207 8.15175C6.86802 8.15175 8.95147 7.98844 8.95147 7.98844C9.64514 7.94755 9.72692 8.96637 9.03399 9.0484C9.03399 9.0484 8.33689 9.13043 7.5612 9.17107L12.2472 23.1093L15.0632 14.6636L13.0584 9.17058C12.3654 9.12994 11.709 9.04791 11.709 9.04791C11.0156 9.00726 11.0969 7.94706 11.7903 7.98795C11.7903 7.98795 13.9154 8.15126 15.1798 8.15126C16.5255 8.15126 18.6092 7.98795 18.6092 7.98795C19.3033 7.94706 19.3849 8.96588 18.6917 9.04791C18.6917 9.04791 17.9931 9.12994 17.2189 9.17058L21.8691 23.0032L23.1526 18.7142C23.7089 16.9343 24.1323 15.656 24.1323 14.5544Z" fill="#464342"/>
<path d="M15.6712 16.3293L11.8104 27.5482C12.9631 27.8871 14.1822 28.0724 15.4454 28.0724C16.9439 28.0724 18.381 27.8134 19.7186 27.343C19.6841 27.2879 19.6527 27.2294 19.627 27.1657L15.6712 16.3293Z" fill="#464342"/>
<path d="M26.7365 9.03004C26.7919 9.43992 26.8232 9.87992 26.8232 10.3532C26.8232 11.659 26.5793 13.1269 25.8448 14.9623L21.9142 26.3266C25.7397 24.0958 28.3129 19.9512 28.3129 15.204C28.3131 12.9668 27.7417 10.863 26.7365 9.03004Z" fill="#464342"/>
<path d="M15.4454 0.204102C7.17458 0.204102 0.445312 6.93288 0.445312 15.2037C0.445312 23.4756 7.17458 30.2041 15.4454 30.2041C23.716 30.2041 30.4463 23.4756 30.4463 15.2037C30.446 6.93288 23.716 0.204102 15.4454 0.204102ZM15.4454 29.5166C7.55386 29.5166 1.1331 23.0958 1.1331 15.2037C1.1331 7.31215 7.55361 0.891891 15.4454 0.891891C23.3368 0.891891 29.757 7.31215 29.757 15.2037C29.757 23.0958 23.3368 29.5166 15.4454 29.5166Z" fill="#464342"/>
</svg>
