<svg width="80" height="79" viewBox="0 0 80 79" fill="none" xmlns="http://www.w3.org/2000/svg">
<path d="M40.0782 78.7002C61.6864 78.7002 79.2031 61.1835 79.2031 39.5751C79.2031 17.967 61.6864 0.450195 40.0782 0.450195C18.47 0.450195 0.953125 17.967 0.953125 39.5751C0.953125 61.1835 18.47 78.7002 40.0782 78.7002Z" fill="#1AB4D7"/>
<path d="M19.6817 39.4621L26.3587 32.7686C26.58 32.543 26.7036 32.2443 26.7036 31.9275C26.7036 31.2673 26.1669 30.7311 25.5066 30.7311C25.1851 30.7311 24.8836 30.8572 24.6562 31.0873C24.6555 31.0886 17.9852 37.7551 17.9852 37.7551L11.2844 31.0773C11.0579 30.8541 10.7579 30.7311 10.4398 30.7311C9.78037 30.7311 9.24354 31.267 9.24354 31.9266C9.24354 32.2483 9.37199 32.5502 9.60253 32.7777L16.2786 39.4528L9.606 46.1379C9.37146 46.3689 9.24354 46.6714 9.24354 46.9946C9.24354 47.6547 9.78037 48.1902 10.4398 48.1902C10.7585 48.1902 11.0587 48.0665 11.2844 47.8408L17.9748 41.1594L24.6398 47.8164C24.8762 48.0608 25.1812 48.191 25.5066 48.191C26.1662 48.191 26.7029 47.6547 26.7029 46.9946C26.7029 46.6761 26.5795 46.3768 26.3549 46.1512L19.6817 39.4621Z" fill="white"/>
<path d="M59.3754 39.4601C59.3754 40.6589 60.3501 41.6341 61.5504 41.6341C62.7478 41.6341 63.723 40.6589 63.723 39.4601C63.723 38.2611 62.7478 37.2861 61.5504 37.2861C60.3501 37.2861 59.3754 38.2611 59.3754 39.4601Z" fill="white"/>
<path d="M55.2522 39.4612C55.2522 35.9897 58.0762 33.1651 61.5481 33.1651C65.0183 33.1651 67.843 35.9897 67.843 39.4612C67.843 42.9319 65.0183 45.7552 61.5481 45.7552C58.0762 45.7552 55.2522 42.9319 55.2522 39.4612ZM52.7756 39.4612C52.7756 44.2976 56.7109 48.2324 61.5481 48.2324C66.3852 48.2324 70.3225 44.2976 70.3225 39.4612C70.3225 34.6241 66.3852 30.6882 61.5481 30.6882C56.7109 30.6882 52.7756 34.6241 52.7756 39.4612Z" fill="white"/>
<path d="M52.1529 30.8383L51.7848 30.8372C50.6799 30.8372 49.6142 31.1857 48.7241 31.8716C48.6069 31.3349 48.1272 30.931 47.5557 30.931C46.898 30.931 46.371 31.458 46.3694 32.117C46.3694 32.1194 46.3734 46.8921 46.3734 46.8921C46.3752 47.5499 46.9117 48.0846 47.5698 48.0846C48.2278 48.0846 48.7642 47.5499 48.7659 46.8907C48.7659 46.8877 48.7665 37.8058 48.7665 37.8058C48.7665 34.7779 49.0433 33.555 51.6371 33.2309C51.8768 33.2011 52.1376 33.2057 52.1386 33.2057C52.8484 33.1814 53.3527 32.6937 53.3527 32.0345C53.3527 31.375 52.8143 30.8383 52.1529 30.8383Z" fill="white"/>
<path d="M29.1818 38.017C29.1818 37.9842 29.1843 37.9501 29.1859 37.9165C29.8805 35.1708 32.3671 33.139 35.3285 33.139C38.3257 33.139 40.835 35.2207 41.4941 38.017H29.1818ZM43.9439 37.7911C43.4284 35.3503 42.0921 33.3454 40.0573 32.0578C37.0828 30.1694 33.1551 30.2739 30.2821 32.317C27.9385 33.9842 26.5858 36.7114 26.5858 39.5208C26.5858 40.2252 26.6707 40.9363 26.8474 41.6362C27.7324 45.1172 30.7249 47.7524 34.2927 48.1891C35.3515 48.3173 36.382 48.256 37.4492 47.9796C38.3661 47.7565 39.2534 47.3846 40.071 46.8607C40.9196 46.3152 41.6285 45.5959 42.3151 44.7348C42.3289 44.719 42.3429 44.705 42.3567 44.6884C42.8333 44.0974 42.7449 43.2569 42.2212 42.8557C41.7796 42.5172 41.0382 42.38 40.4548 43.1271C40.3294 43.3058 40.1895 43.4896 40.0355 43.6734C39.5716 44.186 38.996 44.6826 38.3064 45.0679C37.4288 45.5367 36.4287 45.8046 35.3656 45.8106C31.8859 45.7719 30.0238 43.3429 29.3615 41.6092C29.2458 41.2854 29.1566 40.9496 29.0945 40.6038C29.0863 40.5391 29.0803 40.4767 29.0779 40.4192C29.7974 40.4192 41.5652 40.4172 41.5652 40.4172C43.2771 40.3812 44.1984 39.1729 43.9439 37.7911Z" fill="white"/>
</svg>
