<svg width="136" height="21" viewBox="0 0 136 21" fill="none" xmlns="http://www.w3.org/2000/svg">
<path d="M12.4396 5.58911V20.0798H0.445312L12.4396 5.58911Z" fill="#03363D"/>
<path d="M12.4396 0.395425C12.4396 3.69528 9.7423 6.39256 6.44244 6.39256C3.14259 6.39256 0.445312 3.72398 0.445312 0.395425H12.4396Z" fill="#03363D"/>
<path d="M14.4195 20.0798C14.4195 16.7799 17.1168 14.0827 20.4166 14.0827C23.7165 14.0827 26.4138 16.7799 26.4138 20.0798H14.4195Z" fill="#03363D"/>
<path d="M14.4195 14.8861V0.395425H26.4138L14.4195 14.8861Z" fill="#03363D"/>
<path d="M100.015 6.1917H99.7854C95.9977 6.27778 92.9561 9.40547 93.0422 13.2218C93.0422 17.2677 95.9403 20.252 100.445 20.252C103.057 20.252 104.749 19.3337 105.983 18.0712L104.147 16.0913C103.143 17.0382 101.823 17.5547 100.417 17.526C98.0063 17.526 96.629 16.2634 96.2559 14.3122H106.815C107.016 9.57764 104.491 6.1917 100.015 6.1917ZM96.2559 12.0454C96.629 10.0081 98.035 8.86027 100.072 8.86027C102.253 8.86027 103.343 10.2089 103.63 12.0454H96.2559Z" fill="#03363D"/>
<path d="M31.1196 17.3538L39.2401 9.08983H31.2918V6.50733H42.9991V9.14722L34.8786 17.3825H43.1139V19.9937H31.1196V17.3538Z" fill="#03363D"/>
<path d="M51.837 6.1917H51.5787C47.7911 6.27778 44.7495 9.40547 44.8356 13.2218C44.8356 17.2677 47.7337 20.252 52.2387 20.252C54.8499 20.252 56.5429 19.3337 57.7767 18.0712L55.9403 16.0913C54.936 17.0382 53.616 17.5547 52.21 17.526C49.7997 17.526 48.4224 16.2634 48.0493 14.3122H58.6089C58.8384 9.57764 56.3133 6.1917 51.837 6.1917ZM48.078 12.0454C48.4511 10.0081 49.8571 8.86027 51.8944 8.86027C54.0752 8.86027 55.1655 10.2089 55.4525 12.0454H48.078Z" fill="#03363D"/>
<path d="M87.4181 0.251953V8.2003C86.299 6.88036 84.6347 6.163 82.913 6.163C79.3549 6.163 76.1412 8.86027 76.1412 13.1644C76.1412 17.4399 79.441 20.1659 82.8843 20.1659C84.6347 20.1659 86.299 19.3911 87.4181 18.0425V19.9076H90.2875V0.251953H87.4181ZM87.5902 13.1644C87.5902 15.6035 85.7825 17.5547 83.3148 17.5547C80.9905 17.5547 79.0967 15.7182 79.0393 13.394C78.9819 11.041 80.847 9.06114 83.2 9.00375C85.5529 8.94636 87.5328 10.8115 87.5902 13.1644Z" fill="#03363D"/>
<path d="M108.681 17.0669L111.292 15.7182C111.98 16.9808 113.329 17.7268 114.764 17.6982C116.399 17.6982 117.232 16.866 117.232 15.9191C117.232 14.8287 115.653 14.5992 113.96 14.2548C111.665 13.767 109.283 13.021 109.283 10.2376C109.283 8.11422 111.32 6.13431 114.506 6.163C117.031 6.163 118.896 7.16731 119.958 8.77419L117.547 10.0941C116.859 9.08983 115.711 8.51594 114.506 8.54464C112.956 8.54464 112.181 9.29069 112.181 10.1515C112.181 11.1271 113.415 11.3854 115.366 11.8158C117.576 12.3036 120.101 13.021 120.101 15.833C120.101 17.6982 118.465 20.1946 114.62 20.1659C111.808 20.1946 109.828 19.0755 108.681 17.0669Z" fill="#03363D"/>
<path d="M127.877 13.9679L125.61 16.4356V19.9363H122.741V0.251953H125.61V13.1357L131.694 6.44994H135.194L129.914 12.2175L135.309 19.9363H132.067L127.877 13.9392V13.9679Z" fill="#03363D"/>
<path d="M67.5041 6.1917C64.0895 6.1917 61.2488 8.40116 61.2488 12.074V19.965H64.1469V12.4471C64.1469 10.2376 65.4094 8.91766 67.5902 8.91766C69.771 8.91766 70.8327 10.2376 70.8327 12.4471V19.965H73.7308V12.074C73.7595 8.40116 70.8901 6.1917 67.5041 6.1917Z" fill="#03363D"/>
</svg>
