<svg width="46" height="46" viewBox="0 0 46 46" fill="none" xmlns="http://www.w3.org/2000/svg">
<circle cx="22.9618" cy="23.1033" r="22.3056" fill="#FFF5EC"/>
<path d="M28.8659 12.9168C28.7346 12.7844 28.5556 12.7101 28.3691 12.7101C28.1826 12.7101 28.0038 12.7846 27.8724 12.917L25.8043 15.0011C25.6674 15.1389 25.4857 15.2149 25.2928 15.2149C25.1458 15.2149 21.6309 15.2149 21.0149 15.2149C20.8218 15.2149 20.6403 15.1389 20.5021 15L18.4703 12.9626C18.3391 12.8308 18.1606 12.7567 17.9746 12.7567C17.9745 12.7567 17.9741 12.7567 17.9739 12.7567C17.7876 12.7569 17.6091 12.8315 17.4779 12.9636L11.4278 19.0584C11.1564 19.3318 11.1569 19.7732 11.4291 20.0461L13.1643 21.7845C13.4929 22.1157 13.674 22.5564 13.674 23.0254C13.674 23.6323 13.8442 24.2128 14.1607 24.7128C13.472 25.5503 13.5165 26.7976 14.2949 27.5817C14.6717 27.9614 15.1652 28.1809 15.6944 28.2068C15.7187 28.7187 15.9243 29.2233 16.3115 29.6133C16.6883 29.993 17.1818 30.2125 17.7112 30.2384C17.7353 30.7503 17.9411 31.2549 18.3281 31.6448C18.9376 32.2588 19.8121 32.4136 20.5506 32.1484C20.6523 32.4422 20.8193 32.7179 21.0519 32.9521C21.883 33.7896 23.2308 33.7898 24.0621 32.9521L24.3576 32.6546C24.5422 32.4685 24.6854 32.2561 24.7874 32.0295C25.6142 32.76 26.8885 32.7437 27.6941 31.9321C28.0813 31.5422 28.2869 31.0376 28.311 30.5257C28.8402 30.5 29.3339 30.2803 29.7107 29.9006C30.0979 29.5106 30.3035 29.006 30.3278 28.4941C30.8568 28.4684 31.3505 28.2487 31.7273 27.8692C32.5014 27.0895 32.55 25.8515 31.8733 25.014C32.3665 24.3192 32.6335 23.4899 32.6335 22.6191C32.6335 22.4151 32.7154 22.2156 32.8581 22.0718L34.9159 19.9979C35.1868 19.725 35.1868 19.2846 34.9159 19.0117L28.8659 12.9168ZM15.2886 25.5501L16.2969 24.5343C16.58 24.249 17.0365 24.2489 17.3198 24.5343C17.606 24.8226 17.606 25.2914 17.3198 25.5795L16.3115 26.5954C16.0282 26.8807 15.5719 26.8807 15.2886 26.5954C15.0026 26.3072 15.0026 25.8383 15.2886 25.5501ZM17.3052 27.5817L19.3219 25.5501C19.6052 25.2648 20.0616 25.2646 20.3449 25.5501C20.631 25.8383 20.631 26.3072 20.3449 26.5954C19.6261 27.3195 19.5878 27.358 18.3281 28.627C18.0448 28.9121 17.5885 28.9123 17.3052 28.6268C17.0192 28.3388 17.0192 27.8699 17.3052 27.5817ZM19.3219 30.6584C19.0358 30.3704 19.0358 29.9015 19.3219 29.6133L20.3302 28.5975C20.6135 28.3122 21.0699 28.3122 21.3532 28.5975C21.6174 28.8636 21.6371 29.2835 21.4132 29.5733C21.3516 29.6302 21.4433 29.5387 20.3449 30.6584C20.0616 30.9439 19.6053 30.9441 19.3219 30.6584ZM23.364 31.6682L23.0685 31.9657C22.7852 32.2512 22.3289 32.2512 22.0456 31.9657C21.7849 31.7032 21.7625 31.291 21.9769 31.0019C22.3612 30.6134 22.3424 30.6363 22.4093 30.5631C22.6952 30.3383 23.1033 30.3605 23.364 30.623C23.6501 30.9113 23.6499 31.3801 23.364 31.6682ZM30.7338 26.8827C30.4505 27.1681 29.994 27.1681 29.7107 26.8827L28.407 25.5694C28.1347 25.2951 27.6913 25.2934 27.417 25.5658C27.1426 25.8382 27.141 26.2813 27.4133 26.5557L28.7171 27.869C29.0032 28.1572 29.0032 28.6261 28.7171 28.9141C28.4338 29.1996 27.9774 29.1996 27.6941 28.9141L26.3904 27.6008C26.1179 27.3265 25.6747 27.3248 25.4003 27.5972C25.126 27.8695 25.1243 28.3129 25.3967 28.5873L26.7003 29.9006C26.9865 30.1888 26.9865 30.6577 26.7003 30.9457C26.4172 31.2312 25.9607 31.2312 25.6773 30.9457C24.3049 29.5744 24.3707 29.6045 24.2325 29.521C23.8759 29.214 23.4342 29.0361 22.9635 29.012C22.9382 28.5021 22.7325 27.9997 22.347 27.611C22.1492 27.412 21.9191 27.257 21.6688 27.1509C22.1435 26.3337 22.0336 25.2639 21.3385 24.5639C20.626 23.8461 19.5603 23.7592 18.7657 24.2246C18.6627 23.9787 18.5123 23.7481 18.3135 23.5481C17.4823 22.7106 16.1347 22.7106 15.3032 23.5481L15.1916 23.6606C15.1147 23.4608 15.074 23.2462 15.074 23.0254C15.074 22.1843 14.7486 21.3935 14.1565 20.7968L12.9123 19.5502L17.9757 14.4492L19.5096 15.9873C19.8524 16.3326 20.2919 16.545 20.7668 16.6L17.6385 20.3538C17.3911 20.6509 17.4312 21.0923 17.7282 21.3397C18.4463 21.9382 19.3545 22.2213 20.2855 22.1367C21.2163 22.0521 22.0588 21.61 22.658 20.8909C22.9086 20.5901 23.3303 20.4995 23.6838 20.6701C24.4052 21.0186 25.198 21.1459 25.9779 21.0464L30.7338 25.8374C31.0198 26.1256 31.0198 26.5945 30.7338 26.8827ZM31.8646 21.0854C31.4575 21.4954 31.2334 22.0401 31.2334 22.6191C31.2334 23.1076 31.1067 23.5762 30.8701 23.9874L27.4653 20.5576C28.1613 20.1704 28.7321 19.5883 29.1107 18.8668C29.2903 18.5244 29.1583 18.1013 28.8159 17.9217C28.4736 17.742 28.0505 17.8739 27.8709 18.2163C27.491 18.9404 26.8389 19.4237 26.1084 19.6027C26.0763 19.6076 26.0444 19.6146 26.0132 19.624C25.4519 19.7402 24.8502 19.6787 24.2929 19.4095C23.3597 18.9586 22.2452 19.1993 21.5817 19.9956C21.2225 20.4264 20.7172 20.6916 20.1588 20.7425C19.8414 20.7713 19.5286 20.7288 19.2384 20.621L22.4791 16.7316C22.7331 16.6542 22.9963 16.609 23.2618 16.609H25.2928C25.8616 16.609 26.3961 16.392 26.798 15.9873L28.3693 14.4038L33.4329 19.5048L31.8646 21.0854Z" fill="#FF7A00"/>
</svg>
