<svg width="46" height="45" viewBox="0 0 46 45" fill="none" xmlns="http://www.w3.org/2000/svg">
<circle cx="22.9618" cy="22.5785" r="22.3056" fill="#FFF5EC"/>
<path d="M30.5741 29.8384H14.9214C13.8425 29.8384 12.9648 28.9608 12.9648 27.8818V14.8379C12.9648 13.759 13.8425 12.8813 14.9214 12.8813H30.5741C31.653 12.8813 32.5307 13.759 32.5307 14.8379V27.8818C32.5307 28.9608 31.653 29.8384 30.5741 29.8384ZM14.9214 14.1857C14.5615 14.1857 14.2692 14.4784 14.2692 14.8379V27.8818C14.2692 28.2414 14.5615 28.534 14.9214 28.534H30.5741C30.934 28.534 31.2263 28.2414 31.2263 27.8818V14.8379C31.2263 14.4784 30.934 14.1857 30.5741 14.1857H14.9214Z" fill="#FF7A00"/>
<path d="M31.8785 27.2296H13.617C13.2566 27.2296 12.9648 26.9376 12.9648 26.5774C12.9648 26.2173 13.2566 25.9252 13.617 25.9252H31.8785C32.239 25.9252 32.5307 26.2173 32.5307 26.5774C32.5307 26.9376 32.239 27.2296 31.8785 27.2296Z" fill="#FF7A00"/>
<path d="M26.6609 33.7516H18.8346C18.6085 33.7516 18.3989 33.6344 18.2798 33.4424C18.1608 33.25 18.1499 33.0099 18.2512 32.8077L20.2078 28.8946C20.3186 28.6735 20.5441 28.5341 20.7912 28.5341H24.7044C24.9515 28.5341 25.1769 28.6736 25.2877 28.8946L27.2443 32.8077C27.3456 33.01 27.3348 33.25 27.2157 33.4424C27.0966 33.6344 26.8871 33.7516 26.6609 33.7516ZM19.89 32.4472H25.6056L24.3012 29.8384H21.1944L19.89 32.4472Z" fill="#FF7A00"/>
<path d="M27.9653 33.7516H17.5302C17.1697 33.7516 16.878 33.4595 16.878 33.0994C16.878 32.7392 17.1697 32.4472 17.5302 32.4472H27.9653C28.3258 32.4472 28.6175 32.7392 28.6175 33.0994C28.6175 33.4595 28.3258 33.7516 27.9653 33.7516Z" fill="#FF7A00"/>
<path d="M20.139 23.3165H18.8346C17.7557 23.3165 16.878 22.4388 16.878 21.3599V20.0555C16.878 18.9766 17.7557 18.0989 18.8346 18.0989H20.139C20.4995 18.0989 20.7912 18.391 20.7912 18.7511V22.6643C20.7912 23.0244 20.4995 23.3165 20.139 23.3165ZM18.8346 19.4033C18.4747 19.4033 18.1824 19.6959 18.1824 20.0555V21.3599C18.1824 21.7194 18.4747 22.0121 18.8346 22.0121H19.4868V19.4033H18.8346Z" fill="#FF7A00"/>
<path d="M26.6609 23.3165H25.3565C24.9961 23.3165 24.7044 23.0244 24.7044 22.6643V18.7511C24.7044 18.391 24.9961 18.0989 25.3565 18.0989H26.6609C27.7399 18.0989 28.6175 18.9766 28.6175 20.0555V21.3599C28.6175 22.4388 27.7399 23.3165 26.6609 23.3165ZM26.0087 22.0121H26.6609C27.0208 22.0121 27.3131 21.7194 27.3131 21.3599V20.0555C27.3131 19.6959 27.0208 19.4033 26.6609 19.4033H26.0087V22.0121Z" fill="#FF7A00"/>
<path d="M18.8938 19.4033C18.8588 19.4033 18.8225 19.4004 18.7868 19.3947C18.4314 19.3358 18.1906 19.0001 18.2499 18.6447C18.6149 16.4388 20.5065 14.8379 22.7478 14.8379C23.9732 14.8379 25.1196 15.314 25.9763 16.1786C26.6558 16.8506 27.0966 17.7063 27.2463 18.6489C27.303 19.0046 27.0603 19.3387 26.7049 19.3953C26.3419 19.4527 26.0145 19.2091 25.9585 18.8533C25.8521 18.1871 25.54 17.5814 25.0547 17.1015C24.4401 16.4815 23.6223 16.1423 22.7478 16.1423C21.1473 16.1423 19.797 17.2843 19.5366 18.8575C19.4837 19.1769 19.2072 19.4033 18.8938 19.4033Z" fill="#FF7A00"/>
<path d="M25.5406 25.2731H24.7044C24.3439 25.2731 24.0522 24.981 24.0522 24.6209C24.0522 24.2607 24.3439 23.9687 24.7044 23.9687H25.5406C25.6495 23.9687 25.738 23.8798 25.738 23.7709V23.3165C25.738 22.9563 26.0297 22.6643 26.3902 22.6643C26.7507 22.6643 27.0424 22.9563 27.0424 23.3165V23.7709C27.0424 24.5992 26.3686 25.2731 25.5406 25.2731Z" fill="#FF7A00"/>
<path d="M30.5741 29.8384H14.9214C13.8425 29.8384 12.9648 28.9608 12.9648 27.8818V14.8379C12.9648 13.759 13.8425 12.8813 14.9214 12.8813H30.5741C31.653 12.8813 32.5307 13.759 32.5307 14.8379V27.8818C32.5307 28.9608 31.653 29.8384 30.5741 29.8384ZM14.9214 14.1857C14.5615 14.1857 14.2692 14.4784 14.2692 14.8379V27.8818C14.2692 28.2414 14.5615 28.534 14.9214 28.534H30.5741C30.934 28.534 31.2263 28.2414 31.2263 27.8818V14.8379C31.2263 14.4784 30.934 14.1857 30.5741 14.1857H14.9214Z" stroke="#FF7A00" stroke-width="0.2"/>
<path d="M31.8785 27.2296H13.617C13.2566 27.2296 12.9648 26.9376 12.9648 26.5774C12.9648 26.2173 13.2566 25.9252 13.617 25.9252H31.8785C32.239 25.9252 32.5307 26.2173 32.5307 26.5774C32.5307 26.9376 32.239 27.2296 31.8785 27.2296Z" stroke="#FF7A00" stroke-width="0.2"/>
<path d="M26.6609 33.7516H18.8346C18.6085 33.7516 18.3989 33.6344 18.2798 33.4424C18.1608 33.25 18.1499 33.0099 18.2512 32.8077L20.2078 28.8946C20.3186 28.6735 20.5441 28.5341 20.7912 28.5341H24.7044C24.9515 28.5341 25.1769 28.6736 25.2877 28.8946L27.2443 32.8077C27.3456 33.01 27.3348 33.25 27.2157 33.4424C27.0966 33.6344 26.8871 33.7516 26.6609 33.7516ZM19.89 32.4472H25.6056L24.3012 29.8384H21.1944L19.89 32.4472Z" stroke="#FF7A00" stroke-width="0.2"/>
<path d="M27.9653 33.7516H17.5302C17.1697 33.7516 16.878 33.4595 16.878 33.0994C16.878 32.7392 17.1697 32.4472 17.5302 32.4472H27.9653C28.3258 32.4472 28.6175 32.7392 28.6175 33.0994C28.6175 33.4595 28.3258 33.7516 27.9653 33.7516Z" stroke="#FF7A00" stroke-width="0.2"/>
<path d="M20.139 23.3165H18.8346C17.7557 23.3165 16.878 22.4388 16.878 21.3599V20.0555C16.878 18.9766 17.7557 18.0989 18.8346 18.0989H20.139C20.4995 18.0989 20.7912 18.391 20.7912 18.7511V22.6643C20.7912 23.0244 20.4995 23.3165 20.139 23.3165ZM18.8346 19.4033C18.4747 19.4033 18.1824 19.6959 18.1824 20.0555V21.3599C18.1824 21.7194 18.4747 22.0121 18.8346 22.0121H19.4868V19.4033H18.8346Z" stroke="#FF7A00" stroke-width="0.2"/>
<path d="M26.6609 23.3165H25.3565C24.9961 23.3165 24.7044 23.0244 24.7044 22.6643V18.7511C24.7044 18.391 24.9961 18.0989 25.3565 18.0989H26.6609C27.7399 18.0989 28.6175 18.9766 28.6175 20.0555V21.3599C28.6175 22.4388 27.7399 23.3165 26.6609 23.3165ZM26.0087 22.0121H26.6609C27.0208 22.0121 27.3131 21.7194 27.3131 21.3599V20.0555C27.3131 19.6959 27.0208 19.4033 26.6609 19.4033H26.0087V22.0121Z" stroke="#FF7A00" stroke-width="0.2"/>
<path d="M18.8938 19.4033C18.8588 19.4033 18.8225 19.4004 18.7868 19.3947C18.4314 19.3358 18.1906 19.0001 18.2499 18.6447C18.6149 16.4388 20.5065 14.8379 22.7478 14.8379C23.9732 14.8379 25.1196 15.314 25.9763 16.1786C26.6558 16.8506 27.0966 17.7063 27.2463 18.6489C27.303 19.0046 27.0603 19.3387 26.7049 19.3953C26.3419 19.4527 26.0145 19.2091 25.9585 18.8533C25.8521 18.1871 25.54 17.5814 25.0547 17.1015C24.4401 16.4815 23.6223 16.1423 22.7478 16.1423C21.1473 16.1423 19.797 17.2843 19.5366 18.8575C19.4837 19.1769 19.2072 19.4033 18.8938 19.4033Z" stroke="#FF7A00" stroke-width="0.2"/>
<path d="M25.5406 25.2731H24.7044C24.3439 25.2731 24.0522 24.981 24.0522 24.6209C24.0522 24.2607 24.3439 23.9687 24.7044 23.9687H25.5406C25.6495 23.9687 25.738 23.8798 25.738 23.7709V23.3165C25.738 22.9563 26.0297 22.6643 26.3902 22.6643C26.7507 22.6643 27.0424 22.9563 27.0424 23.3165V23.7709C27.0424 24.5992 26.3686 25.2731 25.5406 25.2731Z" stroke="#FF7A00" stroke-width="0.2"/>
</svg>
