<svg width="46" height="45" viewBox="0 0 46 45" fill="none" xmlns="http://www.w3.org/2000/svg">
<circle cx="22.9618" cy="22.3085" r="22.3056" fill="#FFF5EC"/>
<path d="M27.3269 16.2613L27.2119 15.7023C27.0425 14.8787 26.5944 14.1386 25.9429 13.6068C25.2916 13.0751 24.4769 12.7842 23.6361 12.783H21.8979C21.0571 12.7842 20.2425 13.0751 19.5911 13.6068C18.9397 14.1386 18.4915 14.8787 18.3221 15.7023L18.2072 16.2613H17.6365L16.6808 16.2613C16.6807 16.2613 16.6805 16.2613 16.6804 16.2613C15.7132 16.2626 14.7859 16.6474 14.102 17.3313C13.4181 18.0153 13.0333 18.9425 13.032 19.9097V21.818H32.502L32.502 19.9101L32.502 19.9093M27.3269 16.2613L28.8541 15.5613C30.0068 15.5627 31.1119 16.0212 31.927 16.8363C32.7421 17.6514 33.2007 18.7565 33.202 19.9093H32.502M27.3269 16.2613H27.8976L28.8533 16.2613C28.8534 16.2613 28.8535 16.2613 28.8537 16.2613M27.3269 16.2613H28.8537M32.502 19.9093C32.5007 18.9422 32.1159 18.0151 31.4321 17.3313C30.7481 16.6474 29.8209 16.2626 28.8537 16.2613M32.502 19.9093L28.8537 16.2613M16.6799 32.253C15.7129 32.2516 14.7858 31.8669 14.102 31.183C13.4181 30.4991 13.0333 29.5719 13.032 28.6046V24.9572H21.1974V25.1268C21.1974 25.543 21.3628 25.9423 21.6572 26.2366C21.9515 26.531 22.3508 26.6963 22.767 26.6963C23.1833 26.6963 23.5825 26.531 23.8769 26.2366C24.1712 25.9423 24.3366 25.543 24.3366 25.1268L16.6799 32.253ZM16.6799 32.253C16.6802 32.253 16.6805 32.253 16.6808 32.253M16.6799 32.253L16.6808 32.253M16.6808 32.253H28.8533M18.7887 15.328L18.4588 16.2613H19.4487H26.0854H27.0753L26.7453 15.328C26.518 14.6851 26.0977 14.1281 25.5417 13.7333C24.9858 13.3384 24.3214 13.125 23.6395 13.1222H23.6366L21.8974 13.1222L21.8945 13.1222C21.2127 13.125 20.5483 13.3384 19.9923 13.7333C19.4364 14.1281 19.016 14.6851 18.7887 15.328Z" stroke="#FF7A00" stroke-width="1.4"/>
</svg>
