<svg width="46" height="45" viewBox="0 0 46 45" fill="none" xmlns="http://www.w3.org/2000/svg">
<path d="M27.4011 23.4816C27.658 23.4817 27.9123 23.5324 28.1495 23.6308C28.3867 23.7291 28.6023 23.8733 28.7838 24.055C28.9653 24.2367 29.1093 24.4523 29.2074 24.6897C29.3056 24.927 29.3561 25.1813 29.356 25.4381V25.9382C29.356 26.7156 29.0777 27.4678 28.5733 28.0582C27.2081 29.6522 25.1324 30.4392 22.3966 30.4392C19.6618 30.4392 17.586 29.6522 16.2243 28.0565C15.7204 27.4663 15.4435 26.7159 15.4434 25.9399V25.4373C15.4434 24.9186 15.6494 24.4211 16.0162 24.0544C16.3829 23.6876 16.8804 23.4816 17.3991 23.4816H27.4011ZM27.4011 24.7859H17.3982C17.3125 24.7858 17.2277 24.8026 17.1485 24.8354C17.0693 24.8681 16.9974 24.9161 16.9368 24.9767C16.8762 25.0373 16.8282 25.1092 16.7954 25.1884C16.7627 25.2676 16.7459 25.3525 16.746 25.4381V25.9399C16.746 26.4051 16.913 26.8556 17.2156 27.2095C18.3052 28.4869 20.0157 29.1348 22.3958 29.1348C24.7776 29.1348 26.4881 28.4869 27.5811 27.2104C27.8843 26.8558 28.0509 26.4046 28.0507 25.9382V25.4373C28.0507 25.2647 27.9822 25.0991 27.8603 24.977C27.7383 24.8549 27.5737 24.7862 27.4011 24.7859ZM22.3966 13.0508C22.9676 13.0508 23.533 13.1632 24.0605 13.3818C24.588 13.6003 25.0674 13.9205 25.4711 14.3243C25.8748 14.728 26.1951 15.2073 26.4136 15.7349C26.6321 16.2624 26.7446 16.8278 26.7446 17.3987C26.7446 17.9697 26.6321 18.5351 26.4136 19.0626C26.1951 19.5902 25.8748 20.0695 25.4711 20.4732C25.0674 20.877 24.588 21.1972 24.0605 21.4157C23.533 21.6342 22.9676 21.7467 22.3966 21.7467C21.2435 21.7467 20.1376 21.2886 19.3222 20.4732C18.5067 19.6578 18.0487 18.5519 18.0487 17.3987C18.0487 16.2456 18.5067 15.1397 19.3222 14.3243C20.1376 13.5089 21.2435 13.0508 22.3966 13.0508ZM22.3966 14.3552C21.9969 14.3552 21.6012 14.4339 21.2319 14.5868C20.8626 14.7398 20.5271 14.964 20.2445 15.2466C19.9619 15.5292 19.7377 15.8648 19.5847 16.234C19.4318 16.6033 19.3531 16.9991 19.3531 17.3987C19.3531 17.7984 19.4318 18.1942 19.5847 18.5635C19.7377 18.9327 19.9619 19.2683 20.2445 19.5509C20.5271 19.8335 20.8626 20.0577 21.2319 20.2106C21.6012 20.3636 21.9969 20.4423 22.3966 20.4423C23.2038 20.4423 23.978 20.1217 24.5488 19.5509C25.1195 18.9801 25.4402 18.206 25.4402 17.3987C25.4402 16.5915 25.1195 15.8174 24.5488 15.2466C23.978 14.6758 23.2038 14.3552 22.3966 14.3552Z" fill="#FF7A00"/>
<circle cx="22.9618" cy="22.3085" r="22.3056" fill="#FFF5EC"/>
<path d="M33.5463 11.6074H13.1177C12.684 11.6074 12.332 11.9594 12.332 12.3932V28.108C12.332 28.5417 12.684 28.8938 13.1177 28.8938H19.9739C21.0817 29.8689 22.5298 30.4652 24.1177 30.4652C25.1612 30.4652 26.1433 30.2059 27.01 29.7541L30.3084 33.0527C30.6785 33.4228 31.164 33.6074 31.6496 33.6074C32.1352 33.6074 32.6207 33.4228 32.9908 33.0527C33.7302 32.3133 33.7302 31.1095 32.9908 30.3702L31.5145 28.8938H33.5463C33.98 28.8938 34.332 28.5417 34.332 28.108V12.3932C34.332 11.9594 33.98 11.6074 33.5463 11.6074ZM13.9035 13.1789H32.7606V14.7504H13.9035V13.1789ZM19.4035 24.1793C19.4035 21.5793 21.5178 19.4648 24.1177 19.4648C25.4338 19.4648 26.625 20.0086 27.4806 20.8815L25.5454 23.139L23.7673 21.9541C23.4554 21.7466 23.0413 21.7875 22.7757 22.0523L20.4186 24.4095C20.1114 24.7167 20.1114 25.2133 20.4186 25.5206C20.5726 25.6738 20.7737 25.7508 20.9749 25.7508C21.176 25.7508 21.3772 25.6738 21.5304 25.5206L23.4318 23.6191L25.2531 24.833C25.5839 25.0538 26.027 24.9925 26.2855 24.6908L28.4015 22.2228C28.6749 22.8192 28.832 23.4808 28.832 24.1793C28.832 26.7793 26.7177 28.8938 24.1177 28.8938C21.5178 28.8938 19.4035 26.7793 19.4035 24.1793ZM31.8798 31.9416C31.7525 32.0682 31.5467 32.0682 31.4194 31.9416L28.319 28.8411C28.48 28.6957 28.634 28.5425 28.7794 28.3807L29.0615 28.6627C29.0615 28.6627 29.0615 28.6627 29.0622 28.6635L31.8798 31.4812C32.0071 31.6085 32.0071 31.8144 31.8798 31.9416ZM32.7606 27.3223H29.943L29.6924 27.0716C30.1442 26.2049 30.4035 25.2228 30.4035 24.1793C30.4035 22.9952 30.0687 21.8904 29.4967 20.9444L30.482 19.7949C30.6077 20.062 30.8749 20.2506 31.1892 20.2506C31.6229 20.2506 31.9749 19.8986 31.9749 19.4648V17.8934C31.9749 17.4596 31.6229 17.1076 31.1892 17.1076H29.6177C29.184 17.1076 28.832 17.4596 28.832 17.8934C28.832 18.2517 29.0772 18.5416 29.4056 18.6359L28.5052 19.6864C27.3714 18.5793 25.8243 17.8934 24.1177 17.8934C20.652 17.8934 17.832 20.7134 17.832 24.1793C17.832 25.3249 18.1447 26.3967 18.6822 27.3223H13.9035V16.3219H32.7606V27.3223Z" fill="#FF7A00"/>
<path d="M15.4749 18.6791H20.1892C20.6229 18.6791 20.9749 18.3271 20.9749 17.8934C20.9749 17.4596 20.6229 17.1076 20.1892 17.1076H15.4749C15.0412 17.1076 14.6892 17.4596 14.6892 17.8934C14.6892 18.3271 15.0412 18.6791 15.4749 18.6791Z" fill="#FF7A00"/>
<path d="M15.4749 21.0363H17.0463C17.48 21.0363 17.832 20.6843 17.832 20.2506C17.832 19.8169 17.48 19.4648 17.0463 19.4648H15.4749C15.0412 19.4648 14.6892 19.8169 14.6892 20.2506C14.6892 20.6843 15.0412 21.0363 15.4749 21.0363Z" fill="#FF7A00"/>
<path d="M15.4749 25.7508H16.2606C16.6943 25.7508 17.0463 25.3988 17.0463 24.965C17.0463 24.5313 16.6943 24.1793 16.2606 24.1793H15.4749C15.0412 24.1793 14.6892 24.5313 14.6892 24.965C14.6892 25.3988 15.0412 25.7508 15.4749 25.7508Z" fill="#FF7A00"/>
<path d="M15.4749 23.3936H16.2606C16.6943 23.3936 17.0463 23.0415 17.0463 22.6078C17.0463 22.1741 16.6943 21.8221 16.2606 21.8221H15.4749C15.0412 21.8221 14.6892 22.1741 14.6892 22.6078C14.6892 23.0415 15.0412 23.3936 15.4749 23.3936Z" fill="#FF7A00"/>
</svg>
