<svg width="46" height="45" viewBox="0 0 46 45" fill="none" xmlns="http://www.w3.org/2000/svg">
<circle cx="22.9618" cy="22.3993" r="22.3056" fill="#FFF5EC"/>
<path d="M32.202 22.518C32.202 28.272 27.5211 32.953 21.767 32.953C19.1835 32.953 16.7087 31.9712 14.8104 30.2747V32.953H13.0712V28.6051C13.0712 27.6459 13.8512 26.8659 14.8104 26.8659H19.1583V28.6051H15.573C17.1965 30.2512 19.4296 31.2138 21.767 31.2138C26.5619 31.2138 30.4629 27.3129 30.4629 22.518H32.202ZM21.767 13.8222C24.1045 13.8222 26.3367 14.7848 27.9602 16.4309H24.3758V18.1701H28.7237C29.6828 18.1701 30.4629 17.3901 30.4629 16.4309V12.083H28.7237V14.7613C26.8254 13.0648 24.3497 12.083 21.767 12.083C16.013 12.083 11.332 16.764 11.332 22.518H13.0712C13.0712 17.7231 16.9721 13.8222 21.767 13.8222ZM26.7219 20.6675L25.4906 21.3771C25.6028 21.7406 25.6802 22.1189 25.6802 22.5189C25.6802 22.9189 25.6028 23.2972 25.4906 23.6606L26.7219 24.3702L25.8541 25.8772L24.6271 25.1702C24.101 25.7372 23.4158 26.1485 22.6366 26.3268V27.7364H20.8974V26.3268C20.1183 26.1485 19.4322 25.7372 18.907 25.1702L17.68 25.8772L16.8121 24.3702L18.0435 23.6606C17.9313 23.2972 17.8539 22.9189 17.8539 22.5189C17.8539 22.1189 17.9313 21.7406 18.0435 21.3771L16.8121 20.6675L17.68 19.1605L18.907 19.8675C19.4331 19.3005 20.1183 18.8892 20.8974 18.711V17.3014H22.6366V18.711C23.4158 18.8892 24.1019 19.3005 24.6271 19.8675L25.8541 19.1605L26.7219 20.6675ZM23.941 22.518C23.941 21.3197 22.9662 20.344 21.767 20.344C20.5679 20.344 19.5931 21.3197 19.5931 22.518C19.5931 23.7163 20.5687 24.692 21.767 24.692C22.9653 24.692 23.941 23.7163 23.941 22.518Z" fill="#FF7A00"/>
</svg>
