<svg width="46" height="45" viewBox="0 0 46 45" fill="none" xmlns="http://www.w3.org/2000/svg">
<path d="M27.4011 23.6612C27.658 23.6614 27.9123 23.7121 28.1495 23.8104C28.3867 23.9088 28.6023 24.053 28.7838 24.2347C28.9653 24.4164 29.1093 24.632 29.2074 24.8693C29.3056 25.1067 29.3561 25.361 29.356 25.6178V26.1178C29.356 26.8953 29.0777 27.6475 28.5733 28.2379C27.2081 29.8319 25.1324 30.6189 22.3966 30.6189C19.6618 30.6189 17.586 29.8319 16.2243 28.2362C15.7204 27.646 15.4435 26.8955 15.4434 26.1196V25.617C15.4434 25.0983 15.6494 24.6008 16.0162 24.2341C16.3829 23.8673 16.8804 23.6612 17.3991 23.6612H27.4011ZM27.4011 24.9656H17.3982C17.3125 24.9655 17.2277 24.9823 17.1485 25.015C17.0693 25.0478 16.9974 25.0958 16.9368 25.1564C16.8762 25.217 16.8282 25.2889 16.7954 25.3681C16.7627 25.4473 16.7459 25.5321 16.746 25.6178V26.1196C16.746 26.5848 16.913 27.0353 17.2156 27.3892C18.3052 28.6666 20.0157 29.3145 22.3958 29.3145C24.7776 29.3145 26.4881 28.6666 27.5811 27.3901C27.8843 27.0355 28.0509 26.5843 28.0507 26.1178V25.617C28.0507 25.4444 27.9822 25.2788 27.8603 25.1567C27.7383 25.0346 27.5737 24.9659 27.4011 24.9656ZM22.3966 13.2305C22.9676 13.2305 23.533 13.3429 24.0605 13.5614C24.588 13.7799 25.0674 14.1002 25.4711 14.504C25.8748 14.9077 26.1951 15.387 26.4136 15.9145C26.6321 16.4421 26.7446 17.0075 26.7446 17.5784C26.7446 18.1494 26.6321 18.7148 26.4136 19.2423C26.1951 19.7698 25.8748 20.2492 25.4711 20.6529C25.0674 21.0567 24.588 21.3769 24.0605 21.5954C23.533 21.8139 22.9676 21.9264 22.3966 21.9264C21.2435 21.9264 20.1376 21.4683 19.3222 20.6529C18.5067 19.8375 18.0487 18.7316 18.0487 17.5784C18.0487 16.4253 18.5067 15.3194 19.3222 14.504C20.1376 13.6886 21.2435 13.2305 22.3966 13.2305ZM22.3966 14.5349C21.9969 14.5349 21.6012 14.6136 21.2319 14.7665C20.8626 14.9195 20.5271 15.1437 20.2445 15.4263C19.9619 15.7089 19.7377 16.0444 19.5847 16.4137C19.4318 16.783 19.3531 17.1787 19.3531 17.5784C19.3531 17.9781 19.4318 18.3739 19.5847 18.7432C19.7377 19.1124 19.9619 19.4479 20.2445 19.7306C20.5271 20.0132 20.8626 20.2374 21.2319 20.3903C21.6012 20.5433 21.9969 20.622 22.3966 20.622C23.2038 20.622 23.978 20.3013 24.5488 19.7306C25.1195 19.1598 25.4402 18.3856 25.4402 17.5784C25.4402 16.7712 25.1195 15.9971 24.5488 15.4263C23.978 14.8555 23.2038 14.5349 22.3966 14.5349Z" fill="#FF7A00"/>
<circle cx="22.9618" cy="22.4877" r="22.3056" fill="#FFF5EC"/>
<path d="M30.8558 28.8939C31.3143 28.2018 31.582 27.3732 31.582 26.4824C31.582 24.07 29.6194 22.1074 27.207 22.1074C24.7947 22.1074 22.832 24.07 22.832 26.4824C22.832 28.8948 24.7947 30.8574 27.207 30.8574C28.0978 30.8574 28.9264 30.5897 29.6185 30.1312L31.8384 32.351C32.009 32.5217 32.233 32.6074 32.457 32.6074C32.681 32.6074 32.905 32.5217 33.0757 32.351C33.4178 32.0089 33.4178 31.4559 33.0757 31.1138L30.8558 28.8939ZM24.582 26.4824C24.582 25.0352 25.7598 23.8574 27.207 23.8574C28.6543 23.8574 29.832 25.0352 29.832 26.4824C29.832 27.9297 28.6543 29.1074 27.207 29.1074C25.7598 29.1074 24.582 27.9297 24.582 26.4824ZM17.582 15.5449C17.582 16.2694 16.994 16.8574 16.2695 16.8574C15.545 16.8574 14.957 16.2694 14.957 15.5449C14.957 14.8204 15.545 14.2324 16.2695 14.2324C16.994 14.2324 17.582 14.8204 17.582 15.5449ZM21.082 15.5449C21.082 16.2694 20.494 16.8574 19.7695 16.8574C19.045 16.8574 18.457 16.2694 18.457 15.5449C18.457 14.8204 19.045 14.2324 19.7695 14.2324C20.494 14.2324 21.082 14.8204 21.082 15.5449ZM28.957 11.6074H16.707C14.2947 11.6074 12.332 13.57 12.332 15.9824V26.4824C12.332 28.8948 14.2947 30.8574 16.707 30.8574H21.082C21.5659 30.8574 21.957 30.4663 21.957 29.9824C21.957 29.4985 21.5659 29.1074 21.082 29.1074H16.707C15.2598 29.1074 14.082 27.9297 14.082 26.4824V19.4824H31.582V22.1074C31.582 22.5904 31.9732 22.9824 32.457 22.9824C32.9409 22.9824 33.332 22.5904 33.332 22.1074V15.9824C33.332 13.57 31.3694 11.6074 28.957 11.6074ZM14.082 17.7324V15.9824C14.082 14.5352 15.2598 13.3574 16.707 13.3574H28.957C30.4043 13.3574 31.582 14.5352 31.582 15.9824V17.7324H14.082Z" fill="#FF7A00"/>
</svg>
