<svg width="46" height="46" viewBox="0 0 46 46" fill="none" xmlns="http://www.w3.org/2000/svg">
<circle cx="22.975" cy="23.012" r="22.3051" fill="#FFF5EC"/>
<path d="M22.5406 28.6466C22.9248 28.6466 23.2363 28.3351 23.2363 27.9509C23.2363 27.5667 22.9248 27.2552 22.5406 27.2552C22.1564 27.2552 21.8449 27.5667 21.8449 27.9509C21.8449 28.3351 22.1564 28.6466 22.5406 28.6466Z" fill="#FF7A00"/>
<path d="M27.1453 33.7515H17.9366L20.0243 29.5774H25.0561L27.1453 33.7515ZM20.1878 32.3601H24.8927L24.1963 30.9688H20.8842L20.1878 32.3601Z" fill="#FF7A00"/>
<path d="M28.8017 32.3601H16.2795C15.8953 32.3601 15.5838 32.6716 15.5838 33.0558C15.5838 33.44 15.8953 33.7515 16.2795 33.7515H28.8017C29.1859 33.7515 29.4973 33.44 29.4973 33.0558C29.4973 32.6716 29.1859 32.3601 28.8017 32.3601Z" fill="#FF7A00"/>
<path d="M29.4973 30.9688H15.5838C13.6659 30.9688 12.1055 29.4084 12.1055 27.4904V16.3596C12.1055 14.4416 13.6659 12.8812 15.5838 12.8812H29.4973C31.4153 12.8812 32.9757 14.4416 32.9757 16.3596V27.4904C32.9757 29.4084 31.4153 30.9688 29.4973 30.9688ZM15.5838 14.2726C14.4332 14.2726 13.4968 15.2089 13.4968 16.3596V27.4904C13.4968 28.641 14.4332 29.5774 15.5838 29.5774H29.4973C30.648 29.5774 31.5844 28.641 31.5844 27.4904V16.3596C31.5844 15.2089 30.648 14.2726 29.4973 14.2726H15.5838Z" fill="#FF7A00"/>
<path d="M25.0186 16.4605L27.5773 16.1989C28.0754 16.1481 28.5206 16.5106 28.5714 17.0087L28.833 19.5673C28.8719 19.9493 28.5937 20.2908 28.2117 20.3298C27.8298 20.3688 27.4882 20.0905 27.4493 19.7086L27.2371 17.632L25.1605 17.8442C24.7786 17.8831 24.437 17.6048 24.398 17.2229C24.3591 16.841 24.6367 16.4994 25.0186 16.4605Z" fill="#FF7A00"/>
<path d="M16.4806 23.0228C16.1919 22.7688 16.164 22.3292 16.418 22.0405L19.2215 18.8536C19.5972 18.4264 20.1391 18.1753 20.7089 18.1663H20.743C21.3002 18.1663 21.8366 18.3979 22.2192 18.8042L23.2557 19.9068C23.3775 20.0362 23.541 20.1072 23.7177 20.1072H23.7211C23.8999 20.1065 24.0648 20.0334 24.1859 19.902L27.0826 16.7471L28.1074 17.6883L25.2106 20.8432C24.8307 21.2571 24.2909 21.4958 23.7295 21.4992C23.1737 21.4798 22.6262 21.2697 22.2421 20.8606L21.2056 19.7587C21.0811 19.6265 20.9301 19.5639 20.7318 19.5583C20.551 19.5611 20.3861 19.6376 20.2664 19.774L17.4629 22.9608C17.2089 23.2496 16.7693 23.2767 16.4806 23.0228Z" fill="#FF7A00"/>
<path d="M12.8011 24.9331H32.28V26.3244H12.8011V24.9331Z" fill="#FF7A00"/>
</svg>
