<svg width="46" height="45" viewBox="0 0 46 45" fill="none" xmlns="http://www.w3.org/2000/svg">
<circle cx="22.975" cy="22.308" r="22.3051" fill="#FFF5EC"/>
<path d="M26.3459 21.261L28.17 19.4368C30.8702 20.1679 33.4327 17.9866 33.1904 15.2407C33.1013 14.2282 31.8741 13.7854 31.16 14.4996L30.136 15.5236C29.7722 15.8879 29.1267 15.6504 29.1226 15.1143C29.121 14.9444 29.1879 14.7788 29.3065 14.6602L30.3137 13.6534C31.0298 12.9373 30.5823 11.7118 29.573 11.6229C28.3803 11.5182 27.2153 11.9474 26.3772 12.8014C25.3466 13.8512 25.0248 15.326 25.3797 16.6401L24.5119 17.5079L23.439 16.435C23.439 16.435 23.439 16.435 23.439 16.4346C22.9621 15.9581 22.1859 15.9581 21.7094 16.4346L19.8698 18.2742L18.1512 16.5557L19.0508 15.6556C19.2897 15.4168 19.2897 15.0295 19.0508 14.791L17.2813 13.0215C17.2352 12.975 17.1818 12.9367 17.1236 12.9074L14.8616 11.7709C14.626 11.6527 14.3415 11.6987 14.1548 11.8851L12.6095 13.4304C12.4228 13.6175 12.3771 13.9033 12.4966 14.1393L13.6391 16.3947C13.6685 16.4522 13.7064 16.5048 13.7521 16.5504L15.5216 18.32C15.7605 18.5589 16.1472 18.5593 16.3866 18.32L17.2862 17.4203L19.0052 19.1389L17.1684 20.9757C16.6904 21.4537 16.6901 22.227 17.1684 22.7053L18.2413 23.7786L12.9135 29.1063C11.664 30.3558 12.5661 32.4774 14.3105 32.4774C14.8163 32.4774 15.3218 32.2846 15.707 31.8998L21.9935 25.6133L27.8569 31.4783C29.0594 32.6808 31.0063 32.6812 32.2092 31.4783C33.4092 30.2782 33.4092 28.3257 32.2092 27.126L26.3459 21.261ZM15.9541 17.0229L14.6859 15.7547L13.7875 13.9819L14.7075 13.0619L16.4864 13.9558L17.7538 15.2231L15.9541 17.0229ZM29.4014 12.8361L28.4419 13.7956C28.0925 14.145 27.8948 14.6301 27.8997 15.1261C27.9144 16.7442 29.8772 17.5119 31.001 16.3882L31.9773 15.4119C32.1225 17.6592 29.6621 19.1156 27.7623 17.936C25.3587 16.4482 26.5185 12.662 29.4014 12.8361ZM19.1063 22.9136L18.033 21.8406C22.1162 17.7565 18.4417 21.432 22.5736 17.2992C22.5736 17.2992 22.5736 17.2992 22.574 17.2996L23.6473 18.373C22.6954 19.3248 20.0266 21.9932 19.1063 22.9136ZM14.8425 31.0348C14.6957 31.1815 14.5029 31.2549 14.3105 31.2549C13.6464 31.2549 13.3028 30.4467 13.7785 29.9709C16.284 27.4652 23.4219 20.3278 25.9223 17.8267C26.1939 18.2281 26.5553 18.599 26.9866 18.8911C21.2577 24.62 16.1584 29.7189 14.8425 31.0348ZM31.3442 30.6137C30.6198 31.3381 29.4461 31.3383 28.7215 30.6137L22.8581 24.7487L23.7374 23.8699L29.4792 29.6116C29.7179 29.8504 30.1051 29.8504 30.3438 29.6116C30.5826 29.3729 30.5826 28.9857 30.3438 28.7469L24.6019 23.005C24.602 23.0048 25.4811 22.1258 25.4813 22.1256L31.3443 27.9906C32.0678 28.7137 32.0678 29.8906 31.3442 30.6137Z" fill="#FF7A00"/>
</svg>
