<svg width="46" height="46" viewBox="0 0 46 46" fill="none" xmlns="http://www.w3.org/2000/svg">
<path d="M27.4011 24.1859C27.658 24.186 27.9123 24.2367 28.1495 24.3351C28.3867 24.4335 28.6023 24.5777 28.7838 24.7594C28.9653 24.941 29.1093 25.1567 29.2074 25.394C29.3056 25.6313 29.3561 25.8857 29.356 26.1425V26.6425C29.356 27.4199 29.0777 28.1721 28.5733 28.7626C27.2081 30.3566 25.1324 31.1435 22.3966 31.1435C19.6618 31.1435 17.586 30.3566 16.2243 28.7609C15.7204 28.1707 15.4435 27.4202 15.4434 26.6443V26.1416C15.4434 25.6229 15.6494 25.1255 16.0162 24.7587C16.3829 24.392 16.8804 24.1859 17.3991 24.1859H27.4011ZM27.4011 25.4903H17.3982C17.3125 25.4902 17.2277 25.507 17.1485 25.5397C17.0693 25.5725 16.9974 25.6205 16.9368 25.6811C16.8762 25.7417 16.8282 25.8136 16.7954 25.8928C16.7627 25.972 16.7459 26.0568 16.746 26.1425V26.6443C16.746 27.1095 16.913 27.5599 17.2156 27.9139C18.3052 29.1913 20.0157 29.8391 22.3958 29.8391C24.7776 29.8391 26.4881 29.1913 27.5811 27.9147C27.8843 27.5602 28.0509 27.109 28.0507 26.6425V26.1416C28.0507 25.969 27.9822 25.8035 27.8603 25.6814C27.7383 25.5593 27.5737 25.4905 27.4011 25.4903ZM22.3966 13.7551C22.9676 13.7551 23.533 13.8676 24.0605 14.0861C24.588 14.3046 25.0674 14.6249 25.4711 15.0286C25.8748 15.4324 26.1951 15.9117 26.4136 16.4392C26.6321 16.9667 26.7446 17.5321 26.7446 18.1031C26.7446 18.6741 26.6321 19.2395 26.4136 19.767C26.1951 20.2945 25.8748 20.7738 25.4711 21.1776C25.0674 21.5813 24.588 21.9016 24.0605 22.1201C23.533 22.3386 22.9676 22.4511 22.3966 22.4511C21.2435 22.4511 20.1376 21.993 19.3222 21.1776C18.5067 20.3622 18.0487 19.2563 18.0487 18.1031C18.0487 16.95 18.5067 15.844 19.3222 15.0286C20.1376 14.2132 21.2435 13.7551 22.3966 13.7551ZM22.3966 15.0595C21.9969 15.0595 21.6012 15.1383 21.2319 15.2912C20.8626 15.4442 20.5271 15.6684 20.2445 15.951C19.9619 16.2336 19.7377 16.5691 19.5847 16.9384C19.4318 17.3077 19.3531 17.7034 19.3531 18.1031C19.3531 18.5028 19.4318 18.8986 19.5847 19.2678C19.7377 19.6371 19.9619 19.9726 20.2445 20.2552C20.5271 20.5379 20.8626 20.7621 21.2319 20.915C21.6012 21.068 21.9969 21.1467 22.3966 21.1467C23.2038 21.1467 23.978 20.826 24.5488 20.2552C25.1195 19.6845 25.4402 18.9103 25.4402 18.1031C25.4402 17.2959 25.1195 16.5218 24.5488 15.951C23.978 15.3802 23.2038 15.0595 22.3966 15.0595Z" fill="#FF7A00"/>
<circle cx="22.9618" cy="23.0125" r="22.3056" fill="#FFF5EC"/>
<path d="M30.5722 29.8383H14.9195C13.8405 29.8383 12.9629 28.9606 12.9629 27.8817V14.8378C12.9629 13.7589 13.8405 12.8812 14.9195 12.8812H30.5722C31.6511 12.8812 32.5287 13.7589 32.5287 14.8378V27.8817C32.5287 28.9606 31.6511 29.8383 30.5722 29.8383ZM14.9195 14.1856C14.5596 14.1856 14.2673 14.4782 14.2673 14.8378V27.8817C14.2673 28.2413 14.5596 28.5339 14.9195 28.5339H30.5722C30.932 28.5339 31.2243 28.2413 31.2243 27.8817V14.8378C31.2243 14.4782 30.932 14.1856 30.5722 14.1856H14.9195Z" fill="#FF7A00"/>
<path d="M31.8765 27.2295H13.6151C13.2546 27.2295 12.9629 26.9375 12.9629 26.5773C12.9629 26.2172 13.2546 25.9251 13.6151 25.9251H31.8765C32.237 25.9251 32.5287 26.2172 32.5287 26.5773C32.5287 26.9375 32.237 27.2295 31.8765 27.2295Z" fill="#FF7A00"/>
<path d="M26.659 33.7515H18.8326C18.6065 33.7515 18.397 33.6343 18.2779 33.4422C18.1588 33.2499 18.148 33.0098 18.2493 32.8076L20.2058 28.8944C20.3167 28.6734 20.5421 28.534 20.7892 28.534H24.7024C24.9495 28.534 25.175 28.6735 25.2858 28.8944L27.2424 32.8076C27.3437 33.0098 27.3328 33.2499 27.2137 33.4422C27.0947 33.6343 26.8851 33.7515 26.659 33.7515ZM19.888 32.4471H25.6037L24.2993 29.8383H21.1924L19.888 32.4471Z" fill="#FF7A00"/>
<path d="M27.9634 33.7515H17.5283C17.1678 33.7515 16.8761 33.4594 16.8761 33.0993C16.8761 32.7391 17.1678 32.4471 17.5283 32.4471H27.9634C28.3238 32.4471 28.6156 32.7391 28.6156 33.0993C28.6156 33.4594 28.3238 33.7515 27.9634 33.7515Z" fill="#FF7A00"/>
<path d="M20.137 23.3163H18.8326C17.7537 23.3163 16.8761 22.4387 16.8761 21.3598V20.0554C16.8761 18.9764 17.7537 18.0988 18.8326 18.0988H20.137C20.4975 18.0988 20.7892 18.3908 20.7892 18.751V22.6641C20.7892 23.0243 20.4975 23.3163 20.137 23.3163ZM18.8326 19.4032C18.4728 19.4032 18.1805 19.6958 18.1805 20.0554V21.3598C18.1805 21.7193 18.4728 22.0119 18.8326 22.0119H19.4848V19.4032H18.8326Z" fill="#FF7A00"/>
<path d="M26.659 23.3163H25.3546C24.9941 23.3163 24.7024 23.0243 24.7024 22.6641V18.751C24.7024 18.3908 24.9941 18.0988 25.3546 18.0988H26.659C27.7379 18.0988 28.6156 18.9764 28.6156 20.0554V21.3598C28.6156 22.4387 27.7379 23.3163 26.659 23.3163ZM26.0068 22.0119H26.659C27.0189 22.0119 27.3112 21.7193 27.3112 21.3598V20.0554C27.3112 19.6958 27.0189 19.4032 26.659 19.4032H26.0068V22.0119Z" fill="#FF7A00"/>
<path d="M18.8919 19.4032C18.8568 19.4032 18.8205 19.4003 18.7848 19.3946C18.4295 19.3357 18.1887 19 18.248 18.6446C18.6129 16.4387 20.5045 14.8378 22.7458 14.8378C23.9712 14.8378 25.1177 15.3139 25.9743 16.1785C26.6539 16.8505 27.0946 17.7062 27.2443 18.6488C27.301 19.0045 27.0583 19.3385 26.7029 19.3952C26.3399 19.4525 26.0125 19.2089 25.9565 18.8532C25.8501 18.187 25.5381 17.5813 25.0528 17.1014C24.4381 16.4813 23.6203 16.1422 22.7459 16.1422C21.1453 16.1422 19.7951 17.2842 19.5346 18.8573C19.4817 19.1767 19.2052 19.4032 18.8919 19.4032Z" fill="#FF7A00"/>
<path d="M25.5386 25.2729H24.7024C24.3419 25.2729 24.0502 24.9809 24.0502 24.6207C24.0502 24.2606 24.3419 23.9685 24.7024 23.9685H25.5386C25.6476 23.9685 25.7361 23.8797 25.7361 23.7708V23.3163C25.7361 22.9562 26.0278 22.6641 26.3883 22.6641C26.7487 22.6641 27.0405 22.9562 27.0405 23.3163V23.7708C27.0405 24.5991 26.3666 25.2729 25.5386 25.2729Z" fill="#FF7A00"/>
<path d="M30.5722 29.8383H14.9195C13.8405 29.8383 12.9629 28.9606 12.9629 27.8817V14.8378C12.9629 13.7589 13.8405 12.8812 14.9195 12.8812H30.5722C31.6511 12.8812 32.5287 13.7589 32.5287 14.8378V27.8817C32.5287 28.9606 31.6511 29.8383 30.5722 29.8383ZM14.9195 14.1856C14.5596 14.1856 14.2673 14.4782 14.2673 14.8378V27.8817C14.2673 28.2413 14.5596 28.5339 14.9195 28.5339H30.5722C30.932 28.5339 31.2243 28.2413 31.2243 27.8817V14.8378C31.2243 14.4782 30.932 14.1856 30.5722 14.1856H14.9195Z" stroke="#FF7A00" stroke-width="0.2"/>
<path d="M31.8765 27.2295H13.6151C13.2546 27.2295 12.9629 26.9375 12.9629 26.5773C12.9629 26.2172 13.2546 25.9251 13.6151 25.9251H31.8765C32.237 25.9251 32.5287 26.2172 32.5287 26.5773C32.5287 26.9375 32.237 27.2295 31.8765 27.2295Z" stroke="#FF7A00" stroke-width="0.2"/>
<path d="M26.659 33.7515H18.8326C18.6065 33.7515 18.397 33.6343 18.2779 33.4422C18.1588 33.2499 18.148 33.0098 18.2493 32.8076L20.2058 28.8944C20.3167 28.6734 20.5421 28.534 20.7892 28.534H24.7024C24.9495 28.534 25.175 28.6735 25.2858 28.8944L27.2424 32.8076C27.3437 33.0098 27.3328 33.2499 27.2137 33.4422C27.0947 33.6343 26.8851 33.7515 26.659 33.7515ZM19.888 32.4471H25.6037L24.2993 29.8383H21.1924L19.888 32.4471Z" stroke="#FF7A00" stroke-width="0.2"/>
<path d="M27.9634 33.7515H17.5283C17.1678 33.7515 16.8761 33.4594 16.8761 33.0993C16.8761 32.7391 17.1678 32.4471 17.5283 32.4471H27.9634C28.3238 32.4471 28.6156 32.7391 28.6156 33.0993C28.6156 33.4594 28.3238 33.7515 27.9634 33.7515Z" stroke="#FF7A00" stroke-width="0.2"/>
<path d="M20.137 23.3163H18.8326C17.7537 23.3163 16.8761 22.4387 16.8761 21.3598V20.0554C16.8761 18.9764 17.7537 18.0988 18.8326 18.0988H20.137C20.4975 18.0988 20.7892 18.3908 20.7892 18.751V22.6641C20.7892 23.0243 20.4975 23.3163 20.137 23.3163ZM18.8326 19.4032C18.4728 19.4032 18.1805 19.6958 18.1805 20.0554V21.3598C18.1805 21.7193 18.4728 22.0119 18.8326 22.0119H19.4848V19.4032H18.8326Z" stroke="#FF7A00" stroke-width="0.2"/>
<path d="M26.659 23.3163H25.3546C24.9941 23.3163 24.7024 23.0243 24.7024 22.6641V18.751C24.7024 18.3908 24.9941 18.0988 25.3546 18.0988H26.659C27.7379 18.0988 28.6156 18.9764 28.6156 20.0554V21.3598C28.6156 22.4387 27.7379 23.3163 26.659 23.3163ZM26.0068 22.0119H26.659C27.0189 22.0119 27.3112 21.7193 27.3112 21.3598V20.0554C27.3112 19.6958 27.0189 19.4032 26.659 19.4032H26.0068V22.0119Z" stroke="#FF7A00" stroke-width="0.2"/>
<path d="M18.8919 19.4032C18.8568 19.4032 18.8205 19.4003 18.7848 19.3946C18.4295 19.3357 18.1887 19 18.248 18.6446C18.6129 16.4387 20.5045 14.8378 22.7458 14.8378C23.9712 14.8378 25.1177 15.3139 25.9743 16.1785C26.6539 16.8505 27.0946 17.7062 27.2443 18.6488C27.301 19.0045 27.0583 19.3385 26.7029 19.3952C26.3399 19.4525 26.0125 19.2089 25.9565 18.8532C25.8501 18.187 25.5381 17.5813 25.0528 17.1014C24.4381 16.4813 23.6203 16.1422 22.7459 16.1422C21.1453 16.1422 19.7951 17.2842 19.5346 18.8573C19.4817 19.1767 19.2052 19.4032 18.8919 19.4032Z" stroke="#FF7A00" stroke-width="0.2"/>
<path d="M25.5386 25.2729H24.7024C24.3419 25.2729 24.0502 24.9809 24.0502 24.6207C24.0502 24.2606 24.3419 23.9685 24.7024 23.9685H25.5386C25.6476 23.9685 25.7361 23.8797 25.7361 23.7708V23.3163C25.7361 22.9562 26.0278 22.6641 26.3883 22.6641C26.7487 22.6641 27.0405 22.9562 27.0405 23.3163V23.7708C27.0405 24.5991 26.3666 25.2729 25.5386 25.2729Z" stroke="#FF7A00" stroke-width="0.2"/>
</svg>
