<svg width="46" height="45" viewBox="0 0 46 45" fill="none" xmlns="http://www.w3.org/2000/svg">
<circle cx="22.975" cy="22.4872" r="22.3051" fill="#FFF5EC"/>
<path d="M16.4575 15.4902C16.8595 15.4902 17.1855 15.1642 17.1855 14.7622C17.1855 14.3601 16.8595 14.0341 16.4575 14.0341C16.0554 14.0341 15.7294 14.3601 15.7294 14.7622C15.7294 15.1642 16.0554 15.4902 16.4575 15.4902Z" fill="#FF7A00"/>
<path d="M18.8842 15.4902C19.2863 15.4902 19.6122 15.1642 19.6122 14.7622C19.6122 14.3601 19.2863 14.0341 18.8842 14.0341C18.4821 14.0341 18.1562 14.3601 18.1562 14.7622C18.1562 15.1642 18.4821 15.4902 18.8842 15.4902Z" fill="#FF7A00"/>
<path d="M21.3109 15.4902C21.713 15.4902 22.0389 15.1642 22.0389 14.7622C22.0389 14.3601 21.713 14.0341 21.3109 14.0341C20.9088 14.0341 20.5829 14.3601 20.5829 14.7622C20.5829 15.1642 20.9088 15.4902 21.3109 15.4902Z" fill="#FF7A00"/>
<path fill-rule="evenodd" clip-rule="evenodd" d="M33.2019 19.1303C33.2019 19.5321 32.8757 19.8583 32.4739 19.8583C32.072 19.8583 31.7458 19.5321 31.7458 19.1303V14.7622C31.7458 13.8245 30.9858 13.0635 30.0471 13.0635H15.4868C14.5481 13.0635 13.7881 13.8235 13.7881 14.7622V29.3225C13.7881 30.2612 14.5481 31.0212 15.4868 31.0212H23.7376C24.1395 31.0212 24.4657 31.3474 24.4657 31.7493C24.4657 32.1511 24.1395 32.4773 23.7376 32.4773H15.4868C13.7444 32.4773 12.332 31.0649 12.332 29.3225V14.7622C12.332 13.0198 13.7444 11.6074 15.4868 11.6074H30.0471C31.7895 11.6074 33.2019 13.0198 33.2019 14.7622V19.1303Z" fill="#FF7A00"/>
<path fill-rule="evenodd" clip-rule="evenodd" d="M28.2038 20.9435C28.6008 20.0932 29.6113 19.7253 30.4616 20.1223L32.2205 20.9426C33.0708 21.3396 33.4387 22.3501 33.0427 23.2004L29.7608 30.2379C29.6996 30.368 29.6016 30.4776 29.4793 30.5524L26.4886 32.3715C26.2809 32.4977 26.0236 32.5122 25.8033 32.4093C25.582 32.3064 25.4276 32.0997 25.3907 31.8589L24.8627 28.3994C24.8404 28.2577 24.8617 28.1121 24.9219 27.982L28.2038 20.9435ZM29.5239 21.5589L26.3352 28.3975L26.6652 30.5602L28.5338 29.4235L31.7225 22.585C31.7798 22.4636 31.7274 22.319 31.6051 22.2627L29.8462 21.4415C29.7249 21.3852 29.5802 21.4376 29.5239 21.5589Z" fill="#FF7A00"/>
<path fill-rule="evenodd" clip-rule="evenodd" d="M32.4739 16.4609C32.8757 16.4609 33.2019 16.787 33.2019 17.1889C33.2019 17.5908 32.8757 17.9169 32.4739 17.9169H13.06C12.6582 17.9169 12.332 17.5908 12.332 17.1889C12.332 16.787 12.6582 16.4609 13.06 16.4609H32.4739Z" fill="#FF7A00"/>
<path fill-rule="evenodd" clip-rule="evenodd" d="M27.7359 23.6712C27.3709 23.5013 27.2137 23.0674 27.3836 22.7034C27.5534 22.3394 27.9864 22.1812 28.3513 22.351L31.8701 23.9925C32.2341 24.1623 32.3923 24.5953 32.2224 24.9593C32.0526 25.3243 31.6187 25.4815 31.2547 25.3116L27.7359 23.6712Z" fill="#FF7A00"/>
<path fill-rule="evenodd" clip-rule="evenodd" d="M16.9428 21.3143C16.5409 21.3143 16.2148 20.9882 16.2148 20.5863C16.2148 20.1844 16.5409 19.8583 16.9428 19.8583H23.7376C24.1395 19.8583 24.4657 20.1844 24.4657 20.5863C24.4657 20.9882 24.1395 21.3143 23.7376 21.3143H16.9428Z" fill="#FF7A00"/>
<path fill-rule="evenodd" clip-rule="evenodd" d="M16.9428 25.1971C16.5409 25.1971 16.2148 24.8709 16.2148 24.4691C16.2148 24.0672 16.5409 23.7411 16.9428 23.7411H23.7376C24.1395 23.7411 24.4657 24.0672 24.4657 24.4691C24.4657 24.8709 24.1395 25.1971 23.7376 25.1971H16.9428Z" fill="#FF7A00"/>
<path fill-rule="evenodd" clip-rule="evenodd" d="M16.9428 29.0799C16.5409 29.0799 16.2148 28.7537 16.2148 28.3518C16.2148 27.95 16.5409 27.6238 16.9428 27.6238H21.7963C22.1981 27.6238 22.5243 27.95 22.5243 28.3518C22.5243 28.7537 22.1981 29.0799 21.7963 29.0799H16.9428Z" fill="#FF7A00"/>
</svg>
